<svg xmlns="http://www.w3.org/2000/svg" xmlns:xlink="http://www.w3.org/1999/xlink" viewBox="0 0 300.52 821.26"><defs><style>.cls-1,.cls-21,.cls-22,.cls-24,.cls-25{fill:none;}.cls-2{isolation:isolate;}.cls-3,.cls-31{fill:#fff;}.cls-4{fill:#22366b;}.cls-5{fill:#cfcfcf;}.cls-11,.cls-14,.cls-5,.cls-7,.cls-9{mix-blend-mode:multiply;}.cls-6{fill:#3e3e3e;}.cls-7{fill:#b7c1c6;}.cls-8{fill:#2b96f4;}.cls-9{fill:#ddcfc9;}.cls-10{fill:#e3ac81;}.cls-11{fill:#ebe0da;}.cls-12{fill:#f8ba8c;}.cls-13{fill:#793b16;}.cls-14{fill:#eadbd8;}.cls-15{fill:#5b2c0b;}.cls-16{fill:#803e19;}.cls-17{fill:#0874b7;}.cls-18{fill:#0071d6;}.cls-19{fill:#f7e589;}.cls-20{fill:#e6e8e8;}.cls-21,.cls-22,.cls-24,.cls-25{stroke:#bfbfbf;stroke-miterlimit:10;}.cls-21{stroke-width:1.96px;}.cls-22{stroke-width:0.34px;stroke-dasharray:0 0.68 1.7 0 0 0;}.cls-23,.cls-26{fill:#bfbfbf;}.cls-23{opacity:0.4;}.cls-24,.cls-25{stroke-width:0.33px;}.cls-24{stroke-dasharray:1.63 0 0 0;}.cls-25{stroke-dasharray:0.01 0.64 1.63 0 0 0;}.cls-27{fill:#f7fbfc;}.cls-28{opacity:0.3;}.cls-29{clip-path:url(#clip-path);}.cls-30{opacity:0.5;}.cls-31{opacity:0.39;}.cls-32{fill:#f9f9f9;opacity:0.42;}</style><clipPath id="clip-path"><path class="cls-1" d="M130.63,153.26s-24.68,50-24.77,55.33,66.38-.65,66.38-.65-20.52-52.84-21.18-53.37-7.58-19-7.58-19-8.42,2.81-8.93,4.6S129,148.21,130.63,153.26Z"/></clipPath></defs><g class="cls-2"><g id="OBJECT"><path class="cls-3" d="M74.76,816.67c24.38-6.46,45.14-11.14,50-14.34,3.3-2.16-.06-10.67-.06-10.67L98.42,778,44,800.84s-1.26,5.41,1,8.59C48.87,814.71,62.51,819.91,74.76,816.67Z"/><path class="cls-3" d="M229.85,816.67c-24.38-6.46-45.14-11.14-50-14.34-3.3-2.16.07-10.67.07-10.67L206.19,778l54.43,22.89s1.28,5.41-1,8.59C255.75,814.71,242.1,819.91,229.85,816.67Z"/><path class="cls-4" d="M230.35,810.76c-24.37-6.46-45.24-11-50-14.34s0-24.86,0-24.86l26.36.48S243.41,793.58,254,795.7C273.12,799.53,250,815.94,230.35,810.76Z"/><path class="cls-5" d="M259.91,798.18A32.37,32.37,0,0,1,240.09,804c-5.9-.33-11.4-2.13-16.83-4.37-5.62-2.32-12.27-4.46-17.26-8-7.22-5.1-10.39-12.88-15.17-19.92l-10.5-.2s-4.78,21.51,0,24.86,25.65,7.88,50,14.34C247,815.16,266.21,804,259.91,798.18Z"/><path class="cls-6" d="M151.24,501.37c6.69,10.52,18.82,59,20.73,119.64,2.06,65.48-1.91,157.25,4.78,161.07,11.27,6.44,37.76-3.34,40.14-10.52-.47-13.85-11.72-207.7-5.27-288.71C174.11,461.11,136,477.44,151.24,501.37Z"/><path class="cls-7" d="M192.37,772.24c-7.83-9.22-7.92-25-9.31-36.42-2.2-18.15.53-35.88-2-54.09-1.64-11.83-5.71-28.62-.39-39.93,1.86-4,7.39-5.72,10.24-8.72,1.9-2-4.26-3.65-5.51-4.37-1.75-1-2.94-3.21-3.69-5-2.32-5.43-1.66-12.55-2.29-18.31-1.07-9.82-1.92-19.66-2.42-29.53-1.17-22.77,3.57-63-24.21-71.58,6.86,14.8,17.4,60.47,19.17,116.69,2.06,65.48-1.91,157.25,4.78,161.07,8,4.57,23.67,1,32.94-4.08C203.3,778.75,197.18,777.91,192.37,772.24Z"/><path class="cls-4" d="M74.76,810.76c24.38-6.46,45.24-11,50-14.34s0-24.86,0-24.86L98.42,772S61.7,793.58,51.11,795.7C32,799.53,55.16,815.94,74.76,810.76Z"/><path class="cls-5" d="M124.78,771.56l-14,.26a15.91,15.91,0,0,1-7.93,19.72c-8.18,4.25-17.56,9-26.58,10.83-10.13,2.11-20.82-1-31-1.25a3.31,3.31,0,0,1-1.3-.28c.2,5.94,16.44,13.71,30.78,9.92,24.38-6.46,45.24-11,50-14.34S124.78,771.56,124.78,771.56Z"/><path class="cls-6" d="M148.05,499.54c-6.69,10.51-15.8,60.78-17.71,121.47-2.06,65.48,3.52,157.25-3.17,161.07-11.27,6.44-37.76-3.34-40.15-10.52.5-14.29,9.72-207.4,3.23-288.83C127.77,461,163.28,475.61,148.05,499.54Z"/><path class="cls-7" d="M148.05,499.54c.49-.78.93-1.54,1.32-2.3-19.23,13-24.76,40.2-27.08,62.34-1.63,15.55-.18,31-1.4,46.53-.47,6.07-.91,13.23-5,18.15-2.58,3.13-5.9,5.3-9.29,7.41,3.52,2.34,7.76,4.3,9.51,8,3.34,7-1.24,11-1,18,.31,10.14,2.64,20.09,2.61,30.27s-1.13,20.53-.92,30.79c.31,15.07,5.45,33.79-3.42,47.48-6,9.23-12.54,10.88-21,10.74,8.9,5.57,26.19,10,34.74,5.13,6.69-3.82,1.11-95.59,3.17-161.07C132.25,560.32,141.36,510.05,148.05,499.54Z"/><path class="cls-6" d="M91.46,487.79c-1.88-13.87-1.47-34.4.56-40.38S205,429.17,208.14,445.72c1.24.06,5.67,19.45,3.48,37.13C208.4,508.94,94.57,510.72,91.46,487.79Z"/><path class="cls-8" d="M208.14,445.72C189.87,459.61,112,460,92,447.41c-6.68-14.59-2.89-126.52-2.89-126.52S73.38,271.14,77.94,266c9.28-10.5,63.53-21.76,63.53-21.76S199.19,257,205.5,266c3.07,4.39-5.13,45-2.83,88.87C205.11,401.27,211.92,429.75,208.14,445.72Z"/><path class="cls-9" d="M191.34,327.68a231.33,231.33,0,0,0,7.64,51c2.09,8.12,3.82,16.33,5.91,24.44a60.72,60.72,0,0,0,2.77,7.91c-1.53-14.81-3.79-33.31-5-56.17-1.38-26.4,1-51.61,2.51-68.46C198,299.31,190.91,313.45,191.34,327.68Z"/><path class="cls-9" d="M151.88,447.47c-25,.9-44.8-11.75-48.75-24.87s-2.84-69.46-4.56-94.13c-1.19-17-7.54-30.54-18.72-41.23,3.54,15.51,9.28,33.65,9.28,33.65S85.34,432.82,92,447.41c14.48,9.16,59.48,11.44,90.06,6.7C171.63,453.67,161.91,447.11,151.88,447.47Z"/><path class="cls-10" d="M166.45,250.41s-7.19,12.72-24.3,12.72a34,34,0,0,1-26.25-12.61s3.23-1.17,7.07-6.31,4.33-12.36,1.38-37.81c-3.65-31.56,28.72-34.23,30.06-6.45-.81,32.2.27,39.67,4.29,45.35C161.46,249.2,166.45,250.41,166.45,250.41Z"/><path class="cls-11" d="M131.57,243.07c1.12-8.51,11-21.63,2.47-29.14a21.86,21.86,0,0,0-9.37-4.66c2.59,23.11,2.1,29.86-1.7,34.94s-7.07,6.31-7.07,6.31A39.77,39.77,0,0,0,136.25,262C132.41,257.22,130.58,250.66,131.57,243.07Z"/><path class="cls-12" d="M209.93,114.71c-2.39-.42-5.66.56-8.78,2.52.21-8.64.35-17.75.49-27.38.49-34.42-35.73-51.47-65.7-47.94C98.51,46.31,73.25,61.56,74.06,92c.21,8,.65,19.35,1.48,31.85-4.05-2.44-8.53-3.47-11.41-2.55-7.42,2.39-8.14,11.46-4.07,23.5S72.74,164.94,79.49,163c1.81,12.55,3.86,19.76,7.32,28.14,5.81,14.06,31,34.87,51.78,34.87,25.34,0,50.75-26.93,54.12-38.39,2.88-9.81,5-16.63,6.31-29.67a4.41,4.41,0,0,0,.7.23c7,1.34,14.68-8,17.23-20.71C219.46,124.93,217.59,116,209.93,114.71Z"/><path class="cls-11" d="M104.11,204.85c-4.75-5.83-10.86-15.29-12.65-22.57-2.06-8.38-8.53-22.59-8.53-22.59s-16.33-2.78-18.66-16.9c-.26-1.59-4.34-16.93-4.49-18.52-3.13,4.12-2.77,11.47.28,20.49,4.09,12.05,12.68,20.18,19.43,18.19,1.81,12.55,3.86,19.76,7.32,28.14,5.17,12.51,25.71,30.35,44.78,34.14C121.06,220.11,111.49,213.91,104.11,204.85Z"/><path class="cls-11" d="M201.5,99c-3.73-10.17-2.38-20-11.22-22.37-5.73-1.53-31.77,21-37.47,19.43-12.69-3.62-23.34-8.25-33.41-16.8-3.08-2.62-8.78-7.33-12.74-3.44-2.54,2.5-8.6-2.78-10,.45-3.34,7.58-8-2.14-13.28,4.39-1.63,2-4,13.07-5.9,14.79-2.92,2.65,4.72,23.88,5.06,27.4a138.43,138.43,0,0,1,.26,16.79c.26-.32,2.58,2.77,2.85,2.44,4.72-5.83,3.59-17.27,2.3-24.43-2.68-14.89,8.87-26.52,8.87-26.52A40.69,40.69,0,0,0,110.14,101a111.61,111.61,0,0,0,39,9.08c17.48.86,34.48-11.6,38.06-7.48s.77,28.76.77,28.76S204.16,106.23,201.5,99Z"/><path class="cls-13" d="M98.78,86s0-25.24-8.2-37.2C84.69,41.45,68,68.91,68,68.91S57.59,85.3,65.27,122c17-2.15,17.19,12.3,18.16,21.79,1.71-1.77,4.84-4.83,4.84-4.83a71.19,71.19,0,0,1-4.9-28.39C85.83,87.44,98.78,86,98.78,86Z"/><path class="cls-13" d="M191.32,86.91s5.14,19.44,1.54,30.7a139.3,139.3,0,0,1-4.07,16.59l5.33,5.11c.45-7.73.08-21.7,14.35-24.68,3.57-9.57-4.35-40.33-4.35-40.33Z"/><path class="cls-13" d="M116.18,118.57c-.55.85-4.66-1.76-9.31-1.25-8.44.91-11.62,6.12-11.62,6.12a14.08,14.08,0,0,1,11.6-11.31c5.75-1,8.87.25,9.93,1.21S116.72,117.72,116.18,118.57Z"/><path class="cls-11" d="M118.22,181.05c2.2,27.6,37.36,27.11,37.36,0Z"/><path class="cls-14" d="M136.9,160.52c-4.73,0-8.69-2.05-9.71-4.79a4,4,0,0,0-.27,1.4c0,3.42,4.47,6.19,10,6.19s10-2.77,10-6.19a4,4,0,0,0-.27-1.4C145.59,158.47,141.63,160.52,136.9,160.52Z"/><path class="cls-14" d="M113.92,129.93a6,6,0,1,1-6-6A6,6,0,0,1,113.92,129.93Z"/><path class="cls-15" d="M116.18,131.39a6,6,0,1,1-6-6A6,6,0,0,1,116.18,131.39Z"/><path class="cls-13" d="M156.07,118.57c.54.85,4.65-1.76,9.3-1.25,8.44.91,11.63,6.12,11.63,6.12a14.09,14.09,0,0,0-11.61-11.31c-5.75-1-8.87.25-9.93,1.21S155.52,117.72,156.07,118.57Z"/><path class="cls-14" d="M158.32,129.93a6,6,0,1,0,6-6A6,6,0,0,0,158.32,129.93Z"/><path class="cls-15" d="M156.07,131.39a6,6,0,1,0,6-6A6,6,0,0,0,156.07,131.39Z"/><path class="cls-16" d="M205.51,63.31c0,27.48-15.17,41.48-58.63,41.48A71.83,71.83,0,0,1,98.78,86l-8.2-37.2s-1-7.3,11.28-10.86c6.7-1.94,32.68-6.86,53.17-.82C177,14.68,205.56,38.86,205.51,63.31Z"/><path class="cls-17" d="M159.9,245.68c-3.08,7.66-10.57,16.3-19.33,16.3s-16.25-8.64-19.33-16.3c0,0-11.22,4.17-10.31,6.11,3.62,7.74,10.19,17.79,18.24,20.79,3.55,1.33,7.45-7.33,11.46-7.33s7.18,7.48,10.61,6.26c8.36-3,15.45-12,19.1-20C171.19,249.64,159.9,245.68,159.9,245.68Z"/><polygon class="cls-13" points="193.22 142.79 187.45 137.42 188.24 135 193.22 140.31 193.22 142.79"/><polygon class="cls-13" points="83.6 147.73 89.96 142.33 89.17 139.91 83.6 145.24 83.6 147.73"/><path class="cls-3" d="M118.24,180.93c2.2,22.34,37.32,21.94,37.32,0Z"/><path class="cls-8" d="M112.49,250l-.12-.12S119.82,247.81,112.49,250Z"/><path class="cls-12" d="M230.36,497c1.58-5.69-6.36-26.4-11.17-26.28-4,.1-10.43,16.14-10.18,23.7,1.55.88,2.69,3.93,3.33,5.42S228.78,502.71,230.36,497Z"/><path class="cls-12" d="M218,516.43c-.33-4.14-.71-10.64-.59-16.32a12.6,12.6,0,0,0,3.85-.81c.83,5.27,1.16,12,1.39,16,.33,5.85-.48,8.84-2,9C219.25,524.51,218.39,521.78,218,516.43Z"/><path class="cls-12" d="M223.62,514.2c-.57-3.85-1.35-9.93-1.57-15.25a16,16,0,0,0,4.09-1.11c1.13,4.91,1.5,11.42,2,15.19.68,5.46.07,8.28-1.44,8.51C225.37,521.74,224.37,519.21,223.62,514.2Z"/><path class="cls-12" d="M228.26,510.49a130.07,130.07,0,0,1-1.35-13,13.06,13.06,0,0,0,3.49-.94c1,4.19,1.28,9.74,1.68,13,.58,4.67.06,7.07-1.22,7.27C229.75,516.93,228.89,514.76,228.26,510.49Z"/><path class="cls-12" d="M211.78,514.57c.07-3.9.11-11.45.77-16.73,1.29.11,3.18,1.27,4.42,1,.31,5-.41,11.5-.57,15.29-.23,5.51-1.3,8.19-2.83,8.17C212.26,522.29,211.69,519.62,211.78,514.57Z"/><path class="cls-12" d="M202.85,493c3.06-2.43,5.73-11,10.33-13.66.7,1.1,4.22,6.47,5.18,7.29-3.81,3.29-8.28,7.2-11.4,9.37-4.52,3.15-8.2,1.94-9.11.71C197.07,495.61,201.31,494.19,202.85,493Z"/><path class="cls-8" d="M228.18,481.87l-17-2.41s10-84.66,5.37-109.68c-5.13-27.72-17.86-55.35-17.86-55.35s-6.89-55.09,6.26-49.67,34.75,66.78,38.5,105.33C246.33,399.84,228.18,481.87,228.18,481.87Z"/><path class="cls-12" d="M73.75,498c-2-5.54,4.21-26.83,9-27.1,4-.22,11.7,15.25,12.06,22.81-1.48,1-2.37,4.13-2.88,5.67S75.79,503.55,73.75,498Z"/><path class="cls-12" d="M87.67,516.35c0-4.15-.15-10.66-.73-16.31a12.92,12.92,0,0,1-3.91-.5c-.4,5.32-.18,12-.08,16.06.14,5.86,1.19,8.77,2.76,8.85C87.05,524.51,87.68,521.71,87.67,516.35Z"/><path class="cls-12" d="M81.85,514.59c.26-3.9.55-10,.34-15.34a15.76,15.76,0,0,1-4.16-.77c-.74,5-.58,11.5-.74,15.3-.24,5.5.6,8.26,2.12,8.37C80.72,522.24,81.52,519.63,81.85,514.59Z"/><path class="cls-12" d="M76.94,511.26c.22-3.32.46-8.55.29-13.09a13.4,13.4,0,0,1-3.56-.65c-.62,4.25-.48,9.81-.63,13-.2,4.7.52,7.06,1.81,7.15C76,517.79,76.66,515.57,76.94,511.26Z"/><path class="cls-12" d="M93.69,514c-.39-3.88-1-11.4-2.12-16.61-1.28.22-3.07,1.53-4.32,1.36.1,5,1.34,11.43,1.8,15.2.68,5.47,2,8.06,3.48,7.91C93.84,521.73,94.19,519,93.69,514Z"/><path class="cls-12" d="M100.84,491.74c-3.24-2.18-6.6-10.49-11.4-12.79-.6,1.16-3.68,6.79-4.57,7.68,4.07,3,8.84,6.52,12.12,8.43,4.76,2.77,8.33,1.26,9.14,0C106.83,493.91,102.48,492.83,100.84,491.74Z"/><path class="cls-8" d="M74.7,482.73,91.46,479s-12.9-83.26-10.31-108.57a549.68,549.68,0,0,1,9.43-56.93s1.35-55.19-11.33-48.72S53,333.8,52.4,372.52C51.92,402.4,74.7,482.73,74.7,482.73Z"/><path class="cls-18" d="M159.9,245.68c-3.08,7.66-10.57,16.3-19.33,16.3s-16.25-8.64-19.33-16.3c0,0-11.22,4.17-10.31,6.11,3.62,7.74,10.19,17.79,18.24,20.79,3.55,1.33,7.45-7.33,11.46-7.33s7.18,7.48,10.61,6.26c8.36-3,15.45-12,19.1-20C171.19,249.64,159.9,245.68,159.9,245.68Z"/><path class="cls-19" d="M97.35,160.61c5.08,7-11.13-28.86-18.35-35.89a.88.88,0,0,0-1.43,0l.54.63S95,157.33,97.35,160.61Z"/><path class="cls-19" d="M176.59,160.61c-5.08,7,11.13-28.86,18.35-35.89a.88.88,0,0,1,1.43,0l-.54.63S179,157.33,176.59,160.61Z"/><path class="cls-19" d="M199,157.9s-22,41-23.91,44.49-.47,2.13-.47,2.13S200.67,163.52,199,157.9Z"/><path class="cls-19" d="M79.49,163s14.07,30.12,16.6,31.22-1,.7-1,.7S79.12,171.39,79.49,163Z"/><path class="cls-20" d="M191.66,175.64l-1.09,1.88L174,206.16a4.88,4.88,0,0,1-4.21,2.43h-64a4.84,4.84,0,0,1-4.22-2.45L85.22,177.5l-1.09-1.9A4.84,4.84,0,0,1,86,168.93c11-6.07,40-20.62,46-24.91,7.27-5.23,16.33,0,16.33,0L190,169A4.86,4.86,0,0,1,191.66,175.64Z"/><ellipse class="cls-20" cx="138.53" cy="203.61" rx="34.9" ry="23.48"/><ellipse class="cls-21" cx="138.53" cy="203.61" rx="34.9" ry="23.48"/><ellipse class="cls-22" cx="138.53" cy="203.61" rx="32.08" ry="21.58"/><path class="cls-23" d="M168,211.66H107.61a2.59,2.59,0,0,1-2.58-2.58h0a2.58,2.58,0,0,1,2.58-2.57H168a2.58,2.58,0,0,1,2.58,2.57h1.19C171.8,210.5,169.45,211.66,168,211.66Z"/><path class="cls-24" d="M86.56,172.68,88,171.9"/><path class="cls-25" d="M88,171.9c12.18-6.55,38.44-19.63,44-23.81,7.52-5.69,13-2.84,16.33,0,9.5,8.2,42.51,26.28,43.07,26.59"/><path class="cls-24" d="M86.56,174.22l1.43-.78"/><path class="cls-25" d="M88,173.44c12.18-6.55,38.44-19.63,44-23.81,7.52-5.69,13-2.84,16.33,0,9.5,8.2,42.51,26.28,43.07,26.59"/><path class="cls-26" d="M118.44,214.12c3.35.24,6.7.49,10.05.65.84,0,1.67.06,2.51.11l2.51.07L136,215h5l2.51-.05,2.51-.07c.83,0,1.67-.08,2.51-.11,3.35-.16,6.69-.4,10.05-.65a76.36,76.36,0,0,1-10,1.69l-2.52.24-2.52.17-2.52.09-2.52,0-2.52,0-2.53-.09-2.52-.17-2.51-.24A79.85,79.85,0,0,1,118.44,214.12Z"/><path class="cls-26" d="M122.06,217.35c2.78.2,5.54.41,8.31.54l2.07.09,2.08.06,2.07,0h4.15l2.07,0,2.07-.06c.69,0,1.39-.07,2.08-.09,2.76-.13,5.53-.34,8.3-.54a63.48,63.48,0,0,1-8.27,1.4l-2.08.2-2.08.14-2.08.07-2.09,0-2.08,0-2.09-.08-2.08-.14c-.69-.05-1.38-.12-2.08-.19A65.22,65.22,0,0,1,122.06,217.35Z"/><path class="cls-26" d="M125.91,220.26c2.13.15,4.25.31,6.38.41l1.59.07,1.6,0,1.59,0h3.19l1.59,0,1.59,0,1.6-.07c2.12-.1,4.24-.26,6.38-.41a48,48,0,0,1-6.36,1.07c-.53.06-1.06.11-1.6.15l-1.6.11-1.6.06-1.6,0-1.6,0-1.6-.06-1.6-.11-1.6-.15A51,51,0,0,1,125.91,220.26Z"/><path class="cls-27" d="M190.57,177.52,174,206.16a4.88,4.88,0,0,1-4.21,2.43h-64a4.84,4.84,0,0,1-4.22-2.45L85.22,177.5A4,4,0,0,1,86,177c1.53-.84,3.42-1.83,5.56-2.91,13.3-6.73,36.13-17.33,40.4-22,5.94-6.49,13.3-3.2,16.33,0,6.06,6.38,25.18,16.63,35.27,21.8,3.86,2,6.4,3.21,6.4,3.21A4,4,0,0,1,190.57,177.52Z"/><g class="cls-28"><g class="cls-29"><path class="cls-23" d="M190.57,177.52,174,206.16a4.88,4.88,0,0,1-4.21,2.43h-64a4.84,4.84,0,0,1-4.22-2.45L85.22,177.5A4,4,0,0,1,86,177c11-6.07,41-19.49,46-24.9,5.94-6.49,13.3-3.19,16.33,0,8.37,8.81,41.67,25,41.67,25A4,4,0,0,1,190.57,177.52Z"/></g></g><g class="cls-30"><path class="cls-26" d="M132.05,156.85a.5.5,0,0,1-.36-.14.52.52,0,0,1,0-.73,12.08,12.08,0,0,1,8.74-3.7h0a12,12,0,0,1,8.73,3.7.51.51,0,0,1,0,.73.52.52,0,0,1-.73,0,11.11,11.11,0,0,0-16,0A.53.53,0,0,1,132.05,156.85Z"/></g><path class="cls-23" d="M190,177.08a.78.78,0,0,1,.25,1l-16.19,28a4.88,4.88,0,0,1-4.21,2.43h-64a4.84,4.84,0,0,1-4.22-2.45l-16.07-28a.78.78,0,0,1,.27-1.06L86,177c1.37-.76.78-2.93,2.66-3.88.36-.19-1.75,1.71-1.54,2l20.74,25.61a.77.77,0,0,0,.68.37l61.6-1.11a.76.76,0,0,0,.68-.43l19-24.25c.19-.39.1-1.38.49-1.18,3.45,1.76-.37,2.93-.37,2.93Z"/><path class="cls-21" d="M84.12,175.6l17.52,30.54a4.84,4.84,0,0,0,4.22,2.45h64a4.85,4.85,0,0,0,4.2-2.43l17.64-30.52A4.86,4.86,0,0,0,190,169l-41.67-25s-9.06-5.23-16.33,0c-6,4.29-34.95,18.84-46,24.9A4.87,4.87,0,0,0,84.12,175.6Z"/><path class="cls-31" d="M77.91,93.28h115a0,0,0,0,1,0,0v96.15a30.51,30.51,0,0,1-30.51,30.51h-54a30.51,30.51,0,0,1-30.51-30.51V93.28a0,0,0,0,1,0,0Z"/><path class="cls-32" d="M185,196V93.28H173.8V196a31,31,0,0,1-9.55,22.16,39,39,0,0,1-9.88,1.68.46.46,0,0,0-.07.07h2.53a38.18,38.18,0,0,0,23.7-8.06A30.27,30.27,0,0,0,185,196Z"/><path class="cls-8" d="M209.13,108.49l-145.59.33-.68-6.13-.41-9.41,146-.66s.93,7.46.93,9.77C209.35,104,209.13,108.49,209.13,108.49Z"/><ellipse class="cls-3" cx="85.41" cy="101.05" rx="2.91" ry="2.64"/><ellipse class="cls-3" cx="185.04" cy="101.05" rx="2.91" ry="2.64"/><path class="cls-3" d="M102,97H107v1.5h-3.11v1.85h2.9v1.48h-2.9v3.25H102Z"/><path class="cls-3" d="M109.42,103.05l-.58,2.07H107L109.42,97h2.4l2.5,8.08h-2l-.63-2.07Zm2-1.37L111,100c-.15-.48-.29-1.08-.41-1.56h0c-.12.48-.24,1.09-.37,1.56l-.48,1.71Z"/><path class="cls-3" d="M121,104.9a5.36,5.36,0,0,1-2.07.34c-2.8,0-4.24-1.73-4.24-4a4.12,4.12,0,0,1,4.42-4.29,4.7,4.7,0,0,1,2,.36l-.37,1.45a3.88,3.88,0,0,0-1.54-.3,2.66,2.66,0,0,0,0,5.31,4.68,4.68,0,0,0,1.53-.26Z"/><path class="cls-3" d="M127.06,101.71h-3v1.92h3.32v1.49h-5.15V97h5v1.5h-3.16v1.68h3Z"/><path class="cls-3" d="M131.14,103.24a4.69,4.69,0,0,0,2,.51c.83,0,1.28-.35,1.28-.88s-.38-.79-1.36-1.14c-1.34-.47-2.22-1.21-2.22-2.39,0-1.38,1.16-2.43,3.06-2.43a4.93,4.93,0,0,1,2.07.41l-.41,1.47a4,4,0,0,0-1.69-.38c-.79,0-1.18.36-1.18.78s.46.74,1.5,1.14c1.43.52,2.1,1.27,2.1,2.41,0,1.35-1,2.5-3.26,2.5a5.27,5.27,0,0,1-2.29-.49Z"/><path class="cls-3" d="M139.39,97v3.11h3V97h1.83v8.08H142.4v-3.38h-3v3.38h-1.83V97Z"/><path class="cls-3" d="M147.66,97v8.08h-1.83V97Z"/><path class="cls-3" d="M154.06,101.71h-3v1.92h3.32v1.49h-5.15V97h5v1.5h-3.16v1.68h3Z"/><path class="cls-3" d="M155.65,97h1.84v6.55h3.21v1.53h-5Z"/><path class="cls-3" d="M161.79,97.15a15.94,15.94,0,0,1,2.47-.17,5.26,5.26,0,0,1,3.31.86,3.58,3.58,0,0,1,1.36,3,4.07,4.07,0,0,1-1.34,3.27,5.79,5.79,0,0,1-3.73,1,15.63,15.63,0,0,1-2.07-.12Zm1.83,6.6a4.1,4.1,0,0,0,.64,0A2.51,2.51,0,0,0,167,101a2.32,2.32,0,0,0-2.54-2.57,3.47,3.47,0,0,0-.83.08Z"/></g></g></svg>