<?xml version="1.0" encoding="UTF-8"?>
<svg width="286px" height="283px" viewBox="0 0 286 283" version="1.1" xmlns="http://www.w3.org/2000/svg" xmlns:xlink="http://www.w3.org/1999/xlink">
    <!-- Generator: Sketch 61.1 (89650) - https://sketch.com -->
    <title>Group 13</title>
    <desc>Created with Sketch.</desc>
    <defs>
        <polygon id="path-1" points="6.38649367e-05 0.227360261 285.935182 0.227360261 285.935182 219.932864 6.38649367e-05 219.932864"></polygon>
        <path d="M175,293 C134.333333,301 98,299.333333 66,288 C18,271 12,230 12,228 C12,226 9,195 9,193 C9,191 0,123 0,123 C0,123 6,95 9,93 C12,91 51,38 51,34 C51,30 79,8 80,8 C80.6666667,8 92.6666667,5.33333333 116,1.13686838e-13 L156,21 C162.666667,30.3333333 166,35.6666667 166,37 C166,38.3333333 183.333333,55.3333333 218,88 C228.666667,109.333333 234.666667,120 236,120 C237.333333,120 239.333333,127.666667 242,143 L245,209 C235,225.666667 230,236.333333 230,241 C230,245.666667 230,253 230,263 C206.666667,284.333333 194.333333,295 193,295 C191.666667,295 185.666667,294.333333 175,293 Z" id="path-3"></path>
        <polygon id="path-5" points="0.379458871 0.178421239 124.779169 0.178421239 124.779169 150.858407 0.379458871 150.858407"></polygon>
        <polygon id="path-7" points="0.379458871 0.178421239 124.779169 0.178421239 124.779169 150.858407 0.379458871 150.858407"></polygon>
        <path d="M0.819324324,2.32842857 C0.524621622,3.82628571 0.247702703,5.32928571 0,6.84385714 L0,6.84385714 L10.2421892,5.95928571 L10.8328649,11.376 L27.8252703,10.6855714 L29.9847297,17.1964286 L46.4563243,14.7921429 L31.4722162,14.1364286 L30.7024324,8.208 L12.9465946,8.34685714 L14.6055676,0.0784285714 L0.819324324,2.32842857 Z" id="path-9"></path>
        <radialGradient cx="49.9991792%" cy="49.9966366%" fx="49.9991792%" fy="49.9966366%" r="102.109304%" gradientTransform="translate(0.499992,0.499966),scale(0.368475,1.000000),translate(-0.499992,-0.499966)" id="radialGradient-11">
            <stop stop-color="#EB4849" offset="0%"></stop>
            <stop stop-color="#E41717" offset="100%"></stop>
        </radialGradient>
        <path d="M9.15727273,6.38756522 L5.39890909,6.36613043 L5.32890909,16.6258261 L0.554909091,17.5714783 L1.63163636,28.3481304 L2.71345455,18.6911304 L7.01018182,18.5663043 L7.43527273,7.80604348 L13.1027273,9.32413043 L11.8427273,1.26465217 C10.8410909,0.994826087 9.83309091,0.735086957 8.81745455,0.489217391 L8.81745455,0.489217391 L9.15727273,6.38756522 Z" id="path-12"></path>
        <radialGradient cx="50.0025297%" cy="50.0004196%" fx="50.0025297%" fy="50.0004196%" r="86.767802%" gradientTransform="translate(0.500025,0.500004),scale(1.000000,0.450406),translate(-0.500025,-0.500004)" id="radialGradient-14">
            <stop stop-color="#EB4849" offset="0%"></stop>
            <stop stop-color="#E41717" offset="100%"></stop>
        </radialGradient>
        <path d="M21.8925,8.3125 L17.71125,6.295 L9.8775,16.37 L5.1575,12.0925 L0.6025,20.7275 C1.465,21.47875 2.3375,22.22125 3.2275,22.94875 L3.2275,22.94875 L7.1225,16.925 L10.92,18.7475 L18.025,8.9575 L23.18,10.4025 L29.13125,0.03625 L21.8925,8.3125 Z" id="path-15"></path>
        <radialGradient cx="50.0002147%" cy="49.9988942%" fx="50.0002147%" fy="49.9988942%" r="56.4641948%" gradientTransform="translate(0.500002,0.499989),scale(0.803137,1.000000),translate(-0.500002,-0.499989)" id="radialGradient-17">
            <stop stop-color="#EB4849" offset="0%"></stop>
            <stop stop-color="#E41717" offset="100%"></stop>
        </radialGradient>
        <polygon id="path-18" points="0.11625 3.0525 10.7675 11.46125 7.2625 15.19 18.815 25.31125 15.54 30.9 28.2975 39.915 18.73875 29.85 22.4825 25.52625 10.8 14.59375 17.73875 10.4825 2.72875 0.49375"></polygon>
        <radialGradient cx="49.9995458%" cy="49.9992193%" fx="49.9995458%" fy="49.9992193%" r="60.7927931%" gradientTransform="translate(0.499995,0.499992),scale(1.000000,0.714875),translate(-0.499995,-0.499992)" id="radialGradient-20">
            <stop stop-color="#EB4849" offset="0%"></stop>
            <stop stop-color="#E41717" offset="100%"></stop>
        </radialGradient>
        <path d="M3.27188889,0.74375 L5.69555556,8.77125 L1.617,10.17375 L5.03922222,23.6275 L0.382555556,26.47 L5.03922222,39.21125 L2.99688889,27.1325 L7.43966667,25.49875 L4.31444444,11.34125 L10.9755556,11.24625 L6.89577778,0.62125 C5.69066667,0.64375 4.48433333,0.68 3.27188889,0.74375" id="path-21"></path>
        <radialGradient cx="51.5031637%" cy="49.1870371%" fx="51.5031637%" fy="49.1870371%" r="134.738419%" gradientTransform="translate(0.515032,0.491870),scale(1.000000,0.274501),rotate(77.984049),translate(-0.515032,-0.491870)" id="radialGradient-23">
            <stop stop-color="#EB4849" offset="0%"></stop>
            <stop stop-color="#E41717" offset="100%"></stop>
        </radialGradient>
        <path d="M0.79,3.7175 L8.74875,2.88875 L9.595,6.29125 L18.3275,4.7475 L18.08875,9.53 L24.35375,7.1125 C24.3975,6.2675 24.43375,5.42 24.45375,4.565 L24.45375,4.565 L19.7675,5.87 L19.13125,2.87 L10.865,4.61125 L9.27625,0.9725 L0.79,3.7175 Z" id="path-24"></path>
        <radialGradient cx="51.1784227%" cy="51.9840798%" fx="51.1784227%" fy="51.9840798%" r="103.792458%" gradientTransform="translate(0.511784,0.519841),scale(0.361629,1.000000),rotate(77.719160),translate(-0.511784,-0.519841)" id="radialGradient-26">
            <stop stop-color="#EB4849" offset="0%"></stop>
            <stop stop-color="#E41717" offset="100%"></stop>
        </radialGradient>
        <path d="M0.568421053,2.6875 L6.20463158,4.785 L5.38736842,8.1875 L14.6867368,12.22625 L14.4214737,16.66375 L23.9873684,19.66375 L15.9056842,15.25 L16.8138947,11.5 L7.152,6.92375 L9.81852632,2.33625 L1.92252632,0.16375 C1.45894737,0.9975 1.00673684,1.8375 0.568421053,2.6875" id="path-27"></path>
        <radialGradient cx="48.9997492%" cy="51.0071763%" fx="48.9997492%" fy="51.0071763%" r="55.1353489%" gradientTransform="translate(0.489997,0.510072),scale(0.832659,1.000000),rotate(77.593871),translate(-0.489997,-0.510072)" id="radialGradient-29">
            <stop stop-color="#EB4849" offset="0%"></stop>
            <stop stop-color="#E41717" offset="100%"></stop>
        </radialGradient>
        <polygon id="path-30" points="20.7047391 10.62624 17.0280435 8.38752 10.8006087 19.8192 5.64113043 18.1104 0.534608696 30.34336 7.07095652 20.57824 11.2772174 22.90656 18.1464348 11.22016 22.7486087 16.24288 28.2510435 1.96064 25.6902174 0.2544"></polygon>
        <radialGradient cx="49.1604654%" cy="49.227833%" fx="49.1604654%" fy="49.227833%" r="52.5407176%" gradientTransform="translate(0.491605,0.492278),scale(1.000000,0.921150),rotate(77.897255),translate(-0.491605,-0.492278)" id="radialGradient-32">
            <stop stop-color="#EB4849" offset="0%"></stop>
            <stop stop-color="#E41717" offset="100%"></stop>
        </radialGradient>
        <path d="M28.1327586,6.49672222 L24.7721379,3.51183333 L14.6392414,13.4593333 L9.70548276,10.6852778 L0.843344828,21.3879444 L10.4761034,13.3903333 L14.2296897,16.5886111 L25.1395862,6.55166667 L28.6852069,12.5431667 L35.9691034,3.439 C35.326069,2.35672222 34.6651724,1.28083333 33.9813103,0.215166667 L33.9813103,0.215166667 L28.1327586,6.49672222 Z" id="path-33"></path>
        <radialGradient cx="50.6025644%" cy="56.3052782%" fx="50.6025644%" fy="56.3052782%" r="68.9205453%" gradientTransform="translate(0.506026,0.563053),scale(0.602771,1.000000),rotate(137.826919),translate(-0.506026,-0.563053)" id="radialGradient-35">
            <stop stop-color="#EB4849" offset="0%"></stop>
            <stop stop-color="#E41717" offset="100%"></stop>
        </radialGradient>
        <path d="M4.664,6.73644444 L2.19022222,9.21916667 L7.75011111,16.1741111 L3.57622222,18.3961667 L8.67655556,22.7227222 C9.41355556,22.333 10.1517778,21.9305 10.8851111,21.5152222 L10.8851111,21.5152222 L7.49711111,18.0217778 L9.73255556,15.9326111 L4.23377778,9.48877778 L6.545,6.22916667 L0.088,0.102222222 L4.664,6.73644444 Z" id="path-36"></path>
        <radialGradient cx="41.2035511%" cy="51.3004971%" fx="41.2035511%" fy="51.3004971%" r="82.1011398%" gradientTransform="translate(0.412036,0.513005),scale(1.000000,0.477315),rotate(136.600220),translate(-0.412036,-0.513005)" id="radialGradient-38">
            <stop stop-color="#EB4849" offset="0%"></stop>
            <stop stop-color="#E41717" offset="100%"></stop>
        </radialGradient>
        <polygon id="path-39" points="0.10828125 2.415 11.8906563 3.29 11.997 8.03875 25.6179687 8.26375 23.584625 14.6625 38.7661562 12.4525 38.9545 9.42 27.4270938 10.17625 27.5116563 5.92625 14.4365 6.12625 13.3115625 0.85875"></polygon>
        <radialGradient cx="51.8817128%" cy="42.3574608%" fx="51.8817128%" fy="42.3574608%" r="104.517821%" gradientTransform="translate(0.518817,0.423575),scale(0.355343,1.000000),rotate(138.572595),translate(-0.518817,-0.423575)" id="radialGradient-41">
            <stop stop-color="#EB4849" offset="0%"></stop>
            <stop stop-color="#E41717" offset="100%"></stop>
        </radialGradient>
    </defs>
    <g id="Page-1" stroke="none" stroke-width="1" fill="none" fill-rule="evenodd">
        <g id="Home" transform="translate(-830.000000, -2459.000000)">
            <g id="Group-13" transform="translate(830.000000, 2444.000000)">
                <g id="Group-12-Copy-3" opacity="0.265601749" transform="translate(0.000000, 78.000000)">
                    <path d="M17.1767981,33.3827462 C17.5432078,26.3536059 18.5506675,19.0749535 22.4189926,13.1798987 C28.1393885,4.46223845 39.1380192,0.458432177 49.5987151,0.0436846966 C66.1442142,-0.612611716 82.0790306,6.215459 96.3903652,14.4974685 C110.701366,22.779478 124.148401,32.6829842 139.357406,39.1941879 C167.233573,51.1286296 198.586295,50.7527024 228.844793,53.1054819 C238.831959,53.882221 249.429475,55.2313116 257.150107,61.5776117 C263.585302,66.8671351 267.1009,75.020407 268.388673,83.222785 C271.781133,104.82582 260.697073,126.916266 243.996734,141.141109 C227.296395,155.366616 205.727947,162.732531 184.155827,166.977887 C160.158329,171.700367 135.106987,172.903799 111.353428,167.087712 C66.8146305,156.182507 34.8876002,121.245507 22.4433532,78.216617 C18.2426565,63.6928238 16.390252,48.481877 17.1767981,33.3827462" id="Fill-1" fill="#90CCFF"></path>
                    <g id="Group-5">
                        <mask id="mask-2" fill="white">
                            <use xlink:href="#path-1"></use>
                        </mask>
                        <g id="Clip-4"></g>
                        <path d="M157.229101,34.6254719 C179.93102,20.3744854 202.524351,3.29769414 229.208218,0.563861344 C237.969975,-0.333864831 247.099924,0.45256196 255.023728,4.28905842 C266.178062,9.69007767 273.793814,20.5597622 278.455013,32.0196 C288.732302,57.2878927 286.618041,85.7362154 282.724966,112.726649 C279.954508,131.933124 276.210113,151.463834 266.42898,168.237717 C253.202816,190.918799 229.740459,206.546033 204.499622,213.94311 C179.259454,221.340187 152.303954,221.117255 126.25891,217.418716 C100.717707,213.791156 75.3348724,206.743972 53.2166481,193.498679 C31.0984238,180.253386 12.3858047,160.395443 3.6471014,136.185494 C0.4433,127.310534 -1.38562991,117.51119 1.29060841,108.46395 C8.81915748,83.0150454 49.9249752,82.0973253 70.4247603,75.3583809 C100.869393,65.3507667 130.098193,51.6562771 157.229101,34.6254719" id="Fill-3" fill="#4DBCFF" mask="url(#mask-2)"></path>
                    </g>
                    <path d="M158.457016,194 C149.175388,194 139.102348,193.235513 128.518083,191.729269 C102.699376,188.053913 81.8715508,181.298211 64.8446456,171.077747 C53.8337463,164.468123 43.8369384,155.908004 36.2223927,145.525081 C30.5477607,137.787948 17.6444258,119.378409 27.7482265,110.998799 C30.7938442,108.473349 34.7589314,107.373918 38.641768,106.613108 C44.5868913,105.448827 50.5176374,104.397532 56.4286567,103.160714 C63.7442912,101.630402 70.6546904,100.183993 76.9806413,98.099787 C109.472022,87.3932866 140.560794,72.769415 169.38299,54.6333139 C172.833508,52.4618621 176.272659,50.2339179 179.597795,48.0795142 C197.180729,36.6880839 213.788356,25.9280994 230.564497,24.2055792 C231.894552,24.0688607 233.189834,24 234.415905,24 C237.826635,24 240.72915,24.5325004 242.810495,25.5410087 C252.597329,30.2827024 256.469801,45.7586415 258.036911,55.4833757 C263.063568,86.6702493 259.017568,135.146839 239.109546,161.11668 C220.325618,185.620055 187.996398,194 158.457016,194 Z" id="Stroke-6" stroke="#FFF0DE" stroke-width="1.33"></path>
                    <path d="M159.859018,170 C140.757329,169.965084 120.420826,166.469407 102.611026,161.07574 C93.565119,158.33603 84.6649192,154.761326 76.6799191,149.644085 C74.8166181,148.449938 55.1498959,131.38989 57.1414458,130.223991 C60.862676,128.045204 65.2167572,127.296299 69.4429252,126.446844 C99.8815414,120.331174 128.686496,107.990542 155.812801,93.0938116 C167.334715,86.7646012 178.436632,79.5741661 189.743344,72.870671 C194.567447,70.0102351 227.621735,46.632746 232.252121,50.4122474 C233.305978,51.2717906 233.666216,52.7043625 233.939164,54.0384031 C237.303849,70.4682546 235.992488,90.4375004 233.940843,107.075512 C231.939893,123.302248 226.444666,139.722011 214.909657,151.290197 C203.087936,163.146243 186.088252,168.658282 169.392404,169.714888 C166.261723,169.913296 163.077996,170.005774 159.859018,170 Z" id="Stroke-8" stroke="#FFF0DE" stroke-width="1.33"></path>
                    <path d="M159.622479,143.999338 C146.284089,143.975187 131.400204,141.980236 117,138.325802 C133.350393,132.303893 150.168333,124.608938 167.709947,115.144 C175.689183,110.836493 183.345069,106.231562 190.748525,101.778486 C194.763185,99.3643626 198.554658,97.0842288 202.405961,94.8401564 C203.754825,94.0540858 205.338303,93.0294813 208.507275,90.9683621 C209.011461,90.6408327 209.50926,90.3179351 210,90 C209.689422,94.3756601 209.223891,99.0371641 208.604415,103.974587 C207.476048,112.965103 204.507069,125.282523 196.769842,132.908003 C190.454753,139.131392 180.069209,142.987967 167.526424,143.769075 C165.068352,143.921922 162.483562,144 159.843984,144 L159.622479,143.999338 Z" id="Stroke-10" stroke="#FFF0DE" stroke-width="1.33"></path>
                </g>
                <g id="Group-81" transform="translate(24.000000, 0.000000)">
                    <mask id="mask-4" fill="white">
                        <use xlink:href="#path-3"></use>
                    </mask>
                    <g id="Mask"></g>
                    <g mask="url(#mask-4)">
                        <g transform="translate(19.000000, 15.000000)">
                            <g id="Group-47" transform="translate(19.000000, 0.000000)">
                                <path d="M119.159697,137.250767 C114.338277,136.378847 109.966334,135.882776 106.066656,135.643599 C101.636471,135.371519 98.1482855,131.778803 98.1482855,127.343272 L98.1482855,108.206581 L69.3970274,108.206581 L69.3970274,127.348334 C69.3970274,131.715528 66.0278581,135.371519 61.6660435,135.633475 C58.2323016,135.838484 54.42885,136.240909 50.2734145,136.925537 L49.826471,175.937962 L119.625632,175.937962 L119.159697,137.250767 Z" id="Fill-1" fill="#FBA489"></path>
                                <path d="M69.3974073,122.276263 C73.819996,124.518705 78.6566089,125.842404 83.7743024,125.842404 C88.8907298,125.842404 93.7273427,124.518705 98.1486653,122.277528 L98.1486653,99.4759885 L69.3974073,99.4759885 L69.3974073,122.276263 Z" id="Fill-3" fill="#F1856A"></path>
                                <path d="M59.375996,76.3702257 C59.375996,83.2392876 54.1848669,88.8074292 47.7845847,88.8074292 C41.3817702,88.8074292 36.2716734,77.7002522 36.2716734,70.8311903 C36.2716734,63.9608628 41.3058024,62.9092434 47.7845847,63.9317566 C54.1076331,64.9302257 59.375996,69.5011637 59.375996,76.3702257" id="Fill-5" fill="#FBA489"></path>
                                <path d="M108.173875,76.3702257 C108.173875,83.2392876 113.363738,88.8074292 119.765286,88.8074292 C126.166835,88.8074292 131.276931,77.7002522 131.276931,70.8311903 C131.276931,63.9608628 126.242802,62.9092434 119.765286,63.9317566 C113.440972,64.9302257 108.173875,69.5011637 108.173875,76.3702257" id="Fill-7" fill="#FBA489"></path>
                                <path d="M120.113092,41.7843469 C115.68164,28.9409221 83.7751887,28.4967363 83.7751887,28.4967363 C83.7751887,28.4967363 51.867471,28.9409221 47.4360194,41.7843469 C43.0045677,54.6290372 43.4464468,81.2055239 50.0948903,94.0514796 C56.7420677,106.894904 69.1501323,117.526258 83.7751887,117.526258 C98.398979,117.526258 110.807044,106.894904 117.454221,94.0514796 C124.101398,81.2055239 124.544544,54.6290372 120.113092,41.7843469" id="Fill-9" fill="#FBA489"></path>
                                <path d="M67.7195331,70.4097832 C67.7195331,73.3292611 65.8507266,75.6957212 63.5476379,75.6957212 C61.2432831,75.6957212 59.3757427,73.3292611 59.3757427,70.4097832 C59.3757427,67.4890398 61.2432831,65.1225796 63.5476379,65.1225796 C65.8507266,65.1225796 67.7195331,67.4890398 67.7195331,70.4097832" id="Fill-11" fill="#391829"></path>
                                <path d="M108.173875,70.4097832 C108.173875,73.3292611 106.305069,75.6957212 104.000714,75.6957212 C101.697625,75.6957212 99.8288185,73.3292611 99.8288185,70.4097832 C99.8288185,67.4890398 101.697625,65.1225796 104.000714,65.1225796 C106.305069,65.1225796 108.173875,67.4890398 108.173875,70.4097832" id="Fill-13" fill="#391829"></path>
                                <path d="M83.7736694,92.452031 C92.1351855,92.452031 95.113121,98.2555531 95.2334032,98.5035885 C95.5663952,99.1742965 95.2929113,99.9804115 94.6269274,100.313235 C93.9394194,100.635934 93.1379597,100.371447 92.8163629,99.7058009 C92.7201371,99.5273673 90.3980565,95.1525796 83.7736694,95.1525796 C77.0695161,95.1525796 74.7562984,99.6589779 74.7297097,99.7058009 C74.4043145,100.371447 73.5952581,100.635934 72.9204113,100.313235 C72.2544274,99.9854735 71.9809435,99.1742965 72.3126694,98.5035885 C72.4342177,98.2555531 75.4070887,92.452031 83.7736694,92.452031" id="Fill-15" fill="#DB675C"></path>
                                <path d="M57.2875161,33.0519823 C59.4462661,32.8469735 61.6759194,32.7748407 63.7295806,33.4695929 C65.7845081,34.1643451 67.64825,35.7677168 68.1065887,37.8861416 C68.7067339,40.656292 66.86325,43.3049558 65.1248548,45.5410708 C62.6229839,48.7617345 60.1185806,51.9823982 57.6154435,55.2030619 C55.844129,57.4822035 54.0512903,59.7980442 52.9611532,62.4707522 C52.0394113,64.7258496 51.6532419,67.1619115 51.3898871,69.5840531 C51.0341048,72.8629292 50.8910323,76.1633186 50.9657339,79.461177 C50.9745968,79.8079204 50.9796613,80.173646 50.8125323,80.4798938 C50.6213468,80.8228407 50.2478387,81.0189912 49.897121,81.1961593 C48.8209113,81.7339912 47.7447016,82.2730885 46.6684919,82.8096549 C45.2871452,76.699885 43.6652339,57.5037168 42.9903871,55.3030354 C41.8179516,51.4787345 41.0215565,47.5405398 40.6138629,43.5618496 C40.5238796,42.6861327 40.4530645,41.7914336 40.6493145,40.9346991 C41.1025887,38.947885 42.8675726,37.5482566 44.6502823,36.561177 C48.5031129,34.4300973 52.9041774,33.4683274 57.2875161,33.0519823" id="Fill-17" fill="#382040"></path>
                                <path d="M103.037569,18.6892142 C102.802069,18.7474265 102.62861,18.8398071 102.529852,18.9739487 C101.88286,19.8572584 102.828658,22.7337097 103.009715,23.6689044 C103.241416,24.8837717 105.647061,32.8778513 103.894739,33.4713646 C101.842344,34.1648513 99.9786016,35.7694885 99.521529,37.8866478 C98.9213839,40.6555327 100.762335,43.3041965 102.501997,45.541577 C105.005134,48.7622407 107.508271,51.9829044 110.011408,55.2035681 C111.782723,57.4814442 113.575561,59.797285 114.665698,62.4712584 C115.586174,64.7263558 115.974876,67.1624177 116.236965,69.5845593 C116.594013,72.8634354 116.735819,76.1638248 116.661118,79.4604177 C116.653521,79.8084265 116.64719,80.1741522 116.815585,80.4791345 C117.004239,80.8233469 117.377747,81.0194973 117.729731,81.1966655 C118.80594,81.7332319 119.88215,82.2723292 120.95836,82.8101611 C120.954561,82.8088956 121.0204,82.5279575 121.016602,82.5444088 C122.570142,75.2691257 123.00569,67.7204973 123.890715,60.3439752 C124.331327,56.6601434 124.203448,53.0193381 125.359424,49.4772407 C127.168723,43.9382053 128.655158,38.1157009 127.838505,32.2501699 C127.534634,30.0722673 126.899037,27.8994265 125.641771,26.0973735 C124.024924,23.7764708 121.485069,22.2262496 118.811005,21.3037097 C116.138206,20.3824354 113.305876,20.0331611 110.498868,19.6889487 C109.201085,19.5294973 104.674674,18.2804619 103.037569,18.6892142" id="Fill-19" fill="#382040"></path>
                                <path d="M106.856974,13.8904885 C102.504023,8.99305487 97.9003774,3.91592212 91.7583855,1.6304531 C84.6402081,-1.02200708 76.7079097,0.526948673 69.3403048,2.38088673 C65.2380468,3.41352389 61.0420952,4.5853646 57.6691274,7.13785133 C54.0479984,9.87889558 51.7107242,13.9499664 48.6239016,17.2781965 C45.5358129,20.607692 40.97395,23.3259575 36.6134016,22.0516124 C36.2247,25.5557451 36.0246516,29.1383381 36.8121839,32.5741345 C38.5670387,40.2227363 45.1534419,46.1287628 52.5615629,48.7242761 C59.9696839,51.3210549 68.0957,51.0375858 75.8418774,49.7632407 C83.4817,48.5053469 91.1822968,46.207223 97.2166677,41.3566124 C102.42299,37.1703823 106.078305,31.3162407 108.639684,25.1482584 C109.547498,22.9652938 110.338829,20.5520106 109.701966,18.2766655 C109.227168,16.5834442 108.024345,15.2053292 106.856974,13.8904885" id="Fill-21" fill="#382040"></path>
                                <path d="M83.7736694,84.1682814 C81.4984355,84.1682814 79.6473548,83.1748743 79.0079597,81.8321929 C78.8623548,82.1397062 78.7116855,82.4497504 78.7116855,82.7876354 C78.7116855,84.6048743 80.9780565,86.0779009 83.7736694,86.0779009 C86.5692823,86.0779009 88.8343871,84.6048743 88.8343871,82.7876354 C88.8343871,82.4497504 88.6849839,82.1397062 88.5381129,81.8321929 C87.8999839,83.1748743 86.0476371,84.1682814 83.7736694,84.1682814" id="Fill-23" fill="#E4776D"></path>
                                <path d="M65.7165169,83.9556796 C65.7165169,87.1358478 63.1146218,89.7136442 59.9037185,89.7136442 C56.6940815,89.7136442 54.0909202,87.1358478 54.0909202,83.9556796 C54.0909202,80.7755115 56.6940815,78.1964496 59.9037185,78.1964496 C63.1146218,78.1964496 65.7165169,80.7755115 65.7165169,83.9556796" id="Fill-25" fill="#F8918B"></path>
                                <path d="M113.454773,83.9556796 C113.454773,87.1358478 110.852877,89.7136442 107.641974,89.7136442 C104.432337,89.7136442 101.829176,87.1358478 101.829176,83.9556796 C101.829176,80.7755115 104.432337,78.1964496 107.641974,78.1964496 C110.852877,78.1964496 113.454773,80.7755115 113.454773,83.9556796" id="Fill-27" fill="#F8918B"></path>
                                <g id="Group-31" transform="translate(20.524194, 135.141593)">
                                    <mask id="mask-6" fill="white">
                                        <use xlink:href="#path-5"></use>
                                    </mask>
                                    <g id="Clip-30"></g>
                                    <path d="M124.779169,10.6313416 C106.458281,2.81569558 96.9028056,0.887093805 85.6798379,0.178421239 C83.7173379,4.74050088 74.4391444,8.20160708 63.249096,8.20160708 C52.0577815,8.20160708 42.780854,4.74050088 40.818354,0.178421239 C29.5953863,0.887093805 18.7016121,3.81163363 0.379458871,11.6260142 C0.379458871,11.6260142 20.0209185,79.8673858 21.2250073,102.362678 C21.8530073,114.079819 21.4832976,143.067058 20.9692492,150.85866 L105.528943,150.85866 C105.014894,143.067058 104.645185,114.079819 105.273185,102.362678 C106.47854,79.8673858 124.779169,10.6313416 124.779169,10.6313416" id="Fill-29" fill="#6BDAED" mask="url(#mask-6)"></path>
                                </g>
                                <g id="Group-34" transform="translate(20.524194, 135.141593)">
                                    <mask id="mask-8" fill="white">
                                        <use xlink:href="#path-7"></use>
                                    </mask>
                                    <g id="Clip-33"></g>
                                    <path d="M124.779169,10.6313416 C106.458281,2.81569558 96.9028056,0.887093805 85.6798379,0.178421239 C83.7173379,4.74050088 74.4391444,8.20160708 63.249096,8.20160708 C52.0577815,8.20160708 42.780854,4.74050088 40.818354,0.178421239 C29.5953863,0.887093805 18.7016121,3.81163363 0.379458871,11.6260142 C0.379458871,11.6260142 20.0209185,79.8673858 21.2250073,102.362678 C21.8530073,114.079819 21.4832976,143.067058 20.9692492,150.85866 L105.528943,150.85866 C105.014894,143.067058 104.645185,114.079819 105.273185,102.362678 C106.47854,79.8673858 124.779169,10.6313416 124.779169,10.6313416" id="Fill-32" fill="#0066CF" mask="url(#mask-8)"></path>
                                </g>
                                <path d="M56.9673121,62.8724177 C56.6811669,62.8724177 56.3962879,62.7597894 56.1835782,62.5370637 C55.7682879,62.1042673 55.7822153,61.4183735 56.2164976,61.0020283 C56.2785379,60.9450814 62.5674008,55.0668956 70.6731589,59.7732407 C71.1910056,60.0744265 71.3682637,60.7375416 71.066925,61.2563912 C70.7668524,61.7777717 70.1021347,61.9536743 69.5830218,61.6499575 C62.8674734,57.7522584 57.7649734,62.5218779 57.7193927,62.5712319 C57.5079492,62.7724442 57.2369976,62.8724177 56.9673121,62.8724177" id="Fill-35" fill="#382040"></path>
                                <path d="M110.581166,62.8712788 C110.312747,62.8712788 110.045594,62.7725708 109.83415,62.5751549 C109.626505,62.3764735 104.624029,57.7802257 97.9654565,61.6500841 C97.4514081,61.9538009 96.7854242,61.7778982 96.4815532,61.2565177 C96.1802145,60.7376681 96.3574726,60.0745531 96.8753194,59.7733673 C104.96715,55.0720841 111.272473,60.945208 111.331981,61.0021549 C111.766263,61.4172345 111.78019,62.1018628 111.368698,62.5333938 C111.154723,62.757385 110.869844,62.8712788 110.581166,62.8712788" id="Fill-37" fill="#382040"></path>
                                <path d="M78.876029,171.436119 C78.816521,171.139996 78.7608113,170.837544 78.7266258,170.509783 C78.2049806,165.668031 79.0380935,162.082907 78.9330048,157.279119 C78.8848919,155.0835 77.9606177,152.794235 77.3883274,149.773518 C76.9312548,147.3615 73.4164806,145.035535 72.5276581,147.524748 C71.8274887,149.490049 73.1012145,152.180473 73.2189645,154.06858 C73.420279,157.298102 73.106279,158.777456 70.3043355,157.546137 C67.6847145,156.39581 66.6249645,154.293836 66.1868839,151.319942 C65.7829887,148.580164 65.6766339,145.80242 66.5717871,143.146164 C67.0529161,141.716164 67.5593677,140.231748 67.7568839,138.718226 C67.9961823,136.876942 64.9802629,135.482376 63.7799726,137.367951 C62.0643677,140.067235 61.4654887,143.599208 61.2793677,145.20258 C61.1856742,145.994774 60.9121903,149.395137 60.7412629,149.473597 C60.5703355,149.549527 61.1451581,144.19019 61.1768113,143.448615 C61.3401419,139.682527 62.1226097,137.656482 62.2201016,135.40265 C62.3581097,132.147819 58.406521,133.537323 57.3733597,135.911376 C56.7010452,137.452739 56.5288516,139.206704 56.4073032,140.849305 C56.2832226,142.514686 56.2857548,144.192721 56.3250048,145.889739 C56.3452629,146.770518 56.4022387,147.604473 56.4845371,148.472597 C56.5377145,149.02435 56.8086661,150.940296 56.5503758,151.128854 C56.5503758,151.128854 55.7413194,145.540465 55.776771,145.959341 C55.7869,146.0745 55.9590935,141.747801 55.8704645,140.569633 C55.7894323,139.4965 55.561529,138.155084 54.2637468,137.718491 C52.8798677,137.252792 51.9404,139.383872 51.6833758,140.544323 C50.4577629,146.103606 53.1609484,153.181473 52.853279,153.687668 C52.4379887,154.3685 51.3757065,145.62019 49.6714968,145.608801 C49.5284242,145.607535 49.4005452,145.622721 49.281529,145.649296 C46.9809726,146.198518 48.6940452,152.332332 50.0791903,155.846588 C51.4124242,159.227969 52.29365,161.111013 53.9218919,163.58504 C56.1743355,167.004385 58.6635452,169.693544 62.7518758,171.083049 C64.8106016,171.780332 66.4147871,172.247296 68.0506258,173.746898 C68.6153194,174.263217 68.8406903,175.631208 69.5066742,175.888102 C69.8751177,176.549951 70.2676177,177.272544 70.6753113,178.035633 C73.6342548,176.15765 76.2779323,173.851934 78.876029,171.436119" id="Fill-39" fill="#FBA489"></path>
                                <path d="M146.490358,146.004139 C141.568915,143.077068 125.268769,166.369617 120.610681,183.271458 C118.065761,192.500652 116.830019,200.325157 115.904479,206.472891 C103.0596,192.93598 85.9390032,173.768918 81.3771403,165.888732 C75.9783661,166.721422 63.5538419,175.250803 63.5538419,175.250803 C69.4476726,185.417723 98.0166081,233.855493 104.980318,241.358564 C109.828326,246.581227 114.957415,249.072971 119.596511,249.550059 C119.60664,249.585493 119.616769,249.622192 119.625632,249.65636 C135.352221,255.89521 146.829681,221.851086 153.585745,181.617466 C155.354527,171.08482 157.71839,152.680847 146.490358,146.004139" id="Fill-41" fill="#00ADFF"></path>
                                <path d="M83.130729,253.761979 C83.4320677,253.746793 83.738471,253.726545 84.0663984,253.680988 C88.8890839,252.992563 92.1607613,251.301873 96.8454387,250.219881 C98.9851968,249.726342 101.43389,250.055368 104.502987,249.865545 C106.955479,249.714952 110.076487,252.545846 107.881019,254.020138 C106.147689,255.18312 103.225463,254.612386 101.364253,254.962926 C98.1850032,255.564032 96.8264468,256.233474 98.7117129,258.642961 C100.471632,260.898058 102.772189,261.406784 105.765318,261.099271 C108.519148,260.814536 111.238794,260.232412 113.59506,258.711297 C114.862455,257.893793 116.177963,257.038324 117.597294,256.472651 C119.321761,255.786758 121.418471,258.365819 119.885189,259.99197 C117.690987,262.320465 114.414245,263.769448 112.905019,264.345244 C112.160535,264.629979 108.929374,265.733483 108.896455,265.916979 C108.863535,266.103005 113.919189,264.226288 114.630753,264.012421 C118.240487,262.925368 120.014334,261.66874 122.175616,261.019545 C125.29789,260.083085 124.924382,264.254129 122.878318,265.84105 C121.548882,266.86989 119.888987,267.469731 118.326584,267.992377 C116.742656,268.522616 115.115681,268.932634 113.457052,269.313545 C112.599882,269.509696 111.778165,269.660288 110.913398,269.79443 C110.367697,269.879218 108.441915,270.088023 108.322898,270.386678 C108.322898,270.386678 113.941979,269.793165 113.526689,269.862766 C113.412737,269.880483 117.56564,268.646634 118.727947,268.444156 C119.791495,268.256864 121.146253,268.148032 121.889471,269.297094 C122.682068,270.52335 120.847447,271.958412 119.785165,272.492448 C114.696592,275.049996 107.166923,274.175545 106.752898,274.598218 C106.195802,275.167687 114.940955,274.041404 115.370173,275.689067 C115.405624,275.828271 115.424616,275.956085 115.427148,276.077572 C115.461334,278.442766 109.091439,278.293439 105.343697,277.81635 C101.735229,277.358244 99.6929629,276.968474 96.8922855,276.000377 C93.021729,274.661492 89.8006968,272.912589 87.4469629,269.294563 C86.2631323,267.472262 85.4160919,266.032138 83.5574145,264.817271 C82.9167532,264.39966 81.5354065,264.516085 81.1226484,263.935227 C80.3908258,263.741607 79.5918984,263.540395 78.7524548,263.331589 C79.8438581,260.003359 81.4290516,256.873811 83.130729,253.761979" id="Fill-43" fill="#FBA489"></path>
                                <path d="M87.8947927,249.972985 C80.2499056,247.812799 50.6819944,236.070348 36.2721798,229.165852 C31.9179621,227.08033 30.8050347,224.292463 31.5558492,221.103436 C34.036196,210.57079 35.9391879,200.820215 36.2000105,198.638516 C38.6398411,178.261649 33.525946,145.035029 28.4538331,144.55541 C22.0218976,143.947976 10.064575,152.610233 7.77034919,169.67279 C5.31152661,187.960339 0.205228226,220.912348 0.205228226,236.481631 C0.205228226,255.613259 71.8972524,266.34079 83.2063169,269.545003 C83.2063169,269.545003 88.417704,255.40825 87.8947927,249.972985" id="Fill-45" fill="#00ADFF"></path>
                            </g>
                            <g id="Group-50" transform="translate(0.000000, 124.000000)">
                                <mask id="mask-10" fill="white">
                                    <use xlink:href="#path-9"></use>
                                </mask>
                                <g id="Clip-49"></g>
                                <path d="M0.819324324,2.32842857 C0.524621622,3.82628571 0.247702703,5.32928571 0,6.84385714 L0,6.84385714 L10.2421892,5.95928571 L10.8328649,11.376 L27.8252703,10.6855714 L29.9847297,17.1964286 L46.4563243,14.7921429 L31.4722162,14.1364286 L30.7024324,8.208 L12.9465946,8.34685714 L14.6055676,0.0784285714 L0.819324324,2.32842857 Z" id="Fill-48" fill="url(#radialGradient-11)" mask="url(#mask-10)"></path>
                            </g>
                            <g id="Group-53" transform="translate(61.000000, 105.000000)">
                                <mask id="mask-13" fill="white">
                                    <use xlink:href="#path-12"></use>
                                </mask>
                                <g id="Clip-52"></g>
                                <path d="M9.15727273,6.38756522 L5.39890909,6.36613043 L5.32890909,16.6258261 L0.554909091,17.5714783 L1.63163636,28.3481304 L2.71345455,18.6911304 L7.01018182,18.5663043 L7.43527273,7.80604348 L13.1027273,9.32413043 L11.8427273,1.26465217 C10.8410909,0.994826087 9.83309091,0.735086957 8.81745455,0.489217391 L8.81745455,0.489217391 L9.15727273,6.38756522 Z" id="Fill-51" fill="url(#radialGradient-14)" mask="url(#mask-13)"></path>
                            </g>
                            <g id="Group-56" transform="translate(12.000000, 152.000000)">
                                <mask id="mask-16" fill="white">
                                    <use xlink:href="#path-15"></use>
                                </mask>
                                <g id="Clip-55"></g>
                                <path d="M21.8925,8.3125 L17.71125,6.295 L9.8775,16.37 L5.1575,12.0925 L0.6025,20.7275 C1.465,21.47875 2.3375,22.22125 3.2275,22.94875 L3.2275,22.94875 L7.1225,16.925 L10.92,18.7475 L18.025,8.9575 L23.18,10.4025 L29.13125,0.03625 L21.8925,8.3125 Z" id="Fill-54" fill="url(#radialGradient-17)" mask="url(#mask-16)"></path>
                            </g>
                            <g id="Group-59" transform="translate(27.000000, 95.000000)">
                                <mask id="mask-19" fill="white">
                                    <use xlink:href="#path-18"></use>
                                </mask>
                                <g id="Clip-58"></g>
                                <polygon id="Fill-57" fill="url(#radialGradient-20)" mask="url(#mask-19)" points="0.11625 3.0525 10.7675 11.46125 7.2625 15.19 18.815 25.31125 15.54 30.9 28.2975 39.915 18.73875 29.85 22.4825 25.52625 10.8 14.59375 17.73875 10.4825 2.72875 0.49375"></polygon>
                            </g>
                            <g id="Group-62" transform="translate(162.000000, 95.000000)">
                                <mask id="mask-22" fill="white">
                                    <use xlink:href="#path-21"></use>
                                </mask>
                                <g id="Clip-61"></g>
                                <path d="M3.27188889,0.74375 L5.69555556,8.77125 L1.617,10.17375 L5.03922222,23.6275 L0.382555556,26.47 L5.03922222,39.21125 L2.99688889,27.1325 L7.43966667,25.49875 L4.31444444,11.34125 L10.9755556,11.24625 L6.89577778,0.62125 C5.69066667,0.64375 4.48433333,0.68 3.27188889,0.74375" id="Fill-60" fill="url(#radialGradient-23)" mask="url(#mask-22)"></path>
                            </g>
                            <g id="Group-65" transform="translate(174.000000, 143.000000)">
                                <mask id="mask-25" fill="white">
                                    <use xlink:href="#path-24"></use>
                                </mask>
                                <g id="Clip-64"></g>
                                <path d="M0.79,3.7175 L8.74875,2.88875 L9.595,6.29125 L18.3275,4.7475 L18.08875,9.53 L24.35375,7.1125 C24.3975,6.2675 24.43375,5.42 24.45375,4.565 L24.45375,4.565 L19.7675,5.87 L19.13125,2.87 L10.865,4.61125 L9.27625,0.9725 L0.79,3.7175 Z" id="Fill-63" fill="url(#radialGradient-26)" mask="url(#mask-25)"></path>
                            </g>
                            <g id="Group-68" transform="translate(132.000000, 113.000000)">
                                <mask id="mask-28" fill="white">
                                    <use xlink:href="#path-27"></use>
                                </mask>
                                <g id="Clip-67"></g>
                                <path d="M0.568421053,2.6875 L6.20463158,4.785 L5.38736842,8.1875 L14.6867368,12.22625 L14.4214737,16.66375 L23.9873684,19.66375 L15.9056842,15.25 L16.8138947,11.5 L7.152,6.92375 L9.81852632,2.33625 L1.92252632,0.16375 C1.45894737,0.9975 1.00673684,1.8375 0.568421053,2.6875" id="Fill-66" fill="url(#radialGradient-29)" mask="url(#mask-28)"></path>
                            </g>
                            <g id="Group-71" transform="translate(171.000000, 111.000000)">
                                <mask id="mask-31" fill="white">
                                    <use xlink:href="#path-30"></use>
                                </mask>
                                <g id="Clip-70"></g>
                                <polygon id="Fill-69" fill="url(#radialGradient-32)" mask="url(#mask-31)" points="20.7047391 10.62624 17.0280435 8.38752 10.8006087 19.8192 5.64113043 18.1104 0.534608696 30.34336 7.07095652 20.57824 11.2772174 22.90656 18.1464348 11.22016 22.7486087 16.24288 28.2510435 1.96064 25.6902174 0.2544"></polygon>
                            </g>
                            <g id="Group-74" transform="translate(159.000000, 222.000000)">
                                <mask id="mask-34" fill="white">
                                    <use xlink:href="#path-33"></use>
                                </mask>
                                <g id="Clip-73"></g>
                                <path d="M28.1327586,6.49672222 L24.7721379,3.51183333 L14.6392414,13.4593333 L9.70548276,10.6852778 L0.843344828,21.3879444 L10.4761034,13.3903333 L14.2296897,16.5886111 L25.1395862,6.55166667 L28.6852069,12.5431667 L35.9691034,3.439 C35.326069,2.35672222 34.6651724,1.28083333 33.9813103,0.215166667 L33.9813103,0.215166667 L28.1327586,6.49672222 Z" id="Fill-72" fill="url(#radialGradient-35)" mask="url(#mask-34)"></path>
                            </g>
                            <g id="Group-77" transform="translate(153.000000, 255.000000)">
                                <mask id="mask-37" fill="white">
                                    <use xlink:href="#path-36"></use>
                                </mask>
                                <g id="Clip-76"></g>
                                <path d="M4.664,6.73644444 L2.19022222,9.21916667 L7.75011111,16.1741111 L3.57622222,18.3961667 L8.67655556,22.7227222 C9.41355556,22.333 10.1517778,21.9305 10.8851111,21.5152222 L10.8851111,21.5152222 L7.49711111,18.0217778 L9.73255556,15.9326111 L4.23377778,9.48877778 L6.545,6.22916667 L0.088,0.102222222 L4.664,6.73644444 Z" id="Fill-75" fill="url(#radialGradient-38)" mask="url(#mask-37)"></path>
                            </g>
                            <g id="Group-80" transform="translate(156.000000, 248.000000)">
                                <mask id="mask-40" fill="white">
                                    <use xlink:href="#path-39"></use>
                                </mask>
                                <g id="Clip-79"></g>
                                <polygon id="Fill-78" fill="url(#radialGradient-41)" mask="url(#mask-40)" points="0.10828125 2.415 11.8906563 3.29 11.997 8.03875 25.6179687 8.26375 23.584625 14.6625 38.7661562 12.4525 38.9545 9.42 27.4270938 10.17625 27.5116563 5.92625 14.4365 6.12625 13.3115625 0.85875"></polygon>
                            </g>
                        </g>
                    </g>
                </g>
            </g>
        </g>
    </g>
</svg>