<?xml version="1.0" encoding="UTF-8"?>
<svg width="484px" height="444px" viewBox="0 0 484 444" version="1.1" xmlns="http://www.w3.org/2000/svg" xmlns:xlink="http://www.w3.org/1999/xlink">
    <!-- Generator: Sketch 61.1 (89650) - https://sketch.com -->
    <title>Group 23</title>
    <desc>Created with Sketch.</desc>
    <defs>
        <polygon id="path-1" points="0.000108079124 0.384445532 483.890308 0.384445532 483.890308 371.886479 0.000108079124 371.886479"></polygon>
        <polygon id="path-3" points="0 0.627865621 5.989125 0.627865621 5.989125 13.9727343 0 13.9727343"></polygon>
        <polygon id="path-5" points="0 0.493322988 4.9909375 0.493322988 4.9909375 10.9785769 0 10.9785769"></polygon>
        <polygon id="path-7" points="0.000123741007 0.4955 171.179597 0.4955 171.179597 15 0.000123741007 15"></polygon>
        <polygon id="path-9" points="0.000123741007 0.31375 171.179597 0.31375 171.179597 14.818625 0.000123741007 14.818625"></polygon>
        <polygon id="path-11" points="0 0.851569231 63.2923194 0.851569231 63.2923194 93.7630418 0 93.7630418"></polygon>
        <polygon id="path-13" points="0 0.851569231 63.2923194 0.851569231 63.2923194 93.7630418 0 93.7630418"></polygon>
        <polygon id="path-15" points="0.159726667 0.855472527 56.6525267 0.855472527 56.6525267 75.6601151 0.159726667 75.6601151"></polygon>
        <path d="M2.82361905,1.35535714 C0.801428571,2.30164286 -0.0534285714,12.9276429 0.568285714,20.7065714 L0.568285714,20.7065714 C0.568285714,20.7065714 2.04,32.5137857 2.35733333,34.1517143 L2.35733333,34.1517143 C2.67304762,35.7896429 9.04561905,43.47 12.2675238,44.9699286 L12.2675238,44.9699286 C15.4926667,46.4682143 20.3789524,46.4682143 23.6866667,43.8659286 L23.6866667,43.8659286 C26.996,41.2636429 30.3150476,39.2478571 32.2028571,33.6917143 L32.2028571,33.6917143 C34.0922857,28.1322857 33.2795238,14.4472857 32.8197143,10.1101429 L32.8197143,10.1101429 C32.3599048,5.77135714 29.7937143,0.249714286 29.7937143,0.249714286 L29.7937143,0.249714286 C29.7937143,0.249714286 4.84419048,0.409071429 2.82361905,1.35535714" id="path-17"></path>
        <path d="M2.82361905,1.35535714 C0.801428571,2.30164286 -0.0534285714,12.9276429 0.568285714,20.7065714 L0.568285714,20.7065714 C0.568285714,20.7065714 2.04,32.5137857 2.35733333,34.1517143 L2.35733333,34.1517143 C2.67304762,35.7896429 9.04561905,43.47 12.2675238,44.9699286 L12.2675238,44.9699286 C15.4926667,46.4682143 20.3789524,46.4682143 23.6866667,43.8659286 L23.6866667,43.8659286 C26.996,41.2636429 30.3150476,39.2478571 32.2028571,33.6917143 L32.2028571,33.6917143 C34.0922857,28.1322857 33.2795238,14.4472857 32.8197143,10.1101429 L32.8197143,10.1101429 C32.3599048,5.77135714 29.7937143,0.249714286 29.7937143,0.249714286 L29.7937143,0.249714286 C29.7937143,0.249714286 4.84419048,0.409071429 2.82361905,1.35535714 L2.82361905,1.35535714 Z" id="path-19"></path>
        <path d="M2.82361905,1.35535714 C0.801428571,2.30164286 -0.0534285714,12.9276429 0.568285714,20.7065714 L0.568285714,20.7065714 C0.568285714,20.7065714 2.04,32.5137857 2.35733333,34.1517143 L2.35733333,34.1517143 C2.67304762,35.7896429 9.04561905,43.47 12.2675238,44.9699286 L12.2675238,44.9699286 C15.4926667,46.4682143 20.3789524,46.4682143 23.6866667,43.8659286 L23.6866667,43.8659286 C26.996,41.2636429 30.3150476,39.2478571 32.2028571,33.6917143 L32.2028571,33.6917143 C34.0922857,28.1322857 33.2795238,14.4472857 32.8197143,10.1101429 L32.8197143,10.1101429 C32.3599048,5.77135714 29.7937143,0.249714286 29.7937143,0.249714286 L29.7937143,0.249714286 C29.7937143,0.249714286 4.84419048,0.409071429 2.82361905,1.35535714 L2.82361905,1.35535714 Z" id="path-21"></path>
        <path d="M2.82361905,1.35535714 C0.801428571,2.30164286 -0.0534285714,12.9276429 0.568285714,20.7065714 L0.568285714,20.7065714 C0.568285714,20.7065714 2.04,32.5137857 2.35733333,34.1517143 L2.35733333,34.1517143 C2.67304762,35.7896429 9.04561905,43.47 12.2675238,44.9699286 L12.2675238,44.9699286 C15.4926667,46.4682143 20.3789524,46.4682143 23.6866667,43.8659286 L23.6866667,43.8659286 C26.996,41.2636429 30.3150476,39.2478571 32.2028571,33.6917143 L32.2028571,33.6917143 C34.0922857,28.1322857 33.2795238,14.4472857 32.8197143,10.1101429 L32.8197143,10.1101429 C32.3599048,5.77135714 29.7937143,0.249714286 29.7937143,0.249714286 L29.7937143,0.249714286 C29.7937143,0.249714286 4.84419048,0.409071429 2.82361905,1.35535714 L2.82361905,1.35535714 Z" id="path-23"></path>
        <path d="M2.82361905,1.35535714 C0.801428571,2.30164286 -0.0534285714,12.9276429 0.568285714,20.7065714 L0.568285714,20.7065714 C0.568285714,20.7065714 2.04,32.5137857 2.35733333,34.1517143 L2.35733333,34.1517143 C2.67304762,35.7896429 9.04561905,43.47 12.2675238,44.9699286 L12.2675238,44.9699286 C15.4926667,46.4682143 20.3789524,46.4682143 23.6866667,43.8659286 L23.6866667,43.8659286 C26.996,41.2636429 30.3150476,39.2478571 32.2028571,33.6917143 L32.2028571,33.6917143 C34.0922857,28.1322857 33.2795238,14.4472857 32.8197143,10.1101429 L32.8197143,10.1101429 C32.3599048,5.77135714 29.7937143,0.249714286 29.7937143,0.249714286 L29.7937143,0.249714286 C29.7937143,0.249714286 4.84419048,0.409071429 2.82361905,1.35535714" id="path-25"></path>
        <path d="M2.82361905,1.35535714 C0.801428571,2.30164286 -0.0534285714,12.9276429 0.568285714,20.7065714 L0.568285714,20.7065714 C0.568285714,20.7065714 2.04,32.5137857 2.35733333,34.1517143 L2.35733333,34.1517143 C2.67304762,35.7896429 9.04561905,43.47 12.2675238,44.9699286 L12.2675238,44.9699286 C15.4926667,46.4682143 20.3789524,46.4682143 23.6866667,43.8659286 L23.6866667,43.8659286 C26.996,41.2636429 30.3150476,39.2478571 32.2028571,33.6917143 L32.2028571,33.6917143 C34.0922857,28.1322857 33.2795238,14.4472857 32.8197143,10.1101429 L32.8197143,10.1101429 C32.3599048,5.77135714 29.7937143,0.249714286 29.7937143,0.249714286 L29.7937143,0.249714286 C29.7937143,0.249714286 4.84419048,0.409071429 2.82361905,1.35535714" id="path-27"></path>
        <path d="M2.82361905,1.35535714 C0.801428571,2.30164286 -0.0534285714,12.9276429 0.568285714,20.7065714 L0.568285714,20.7065714 C0.568285714,20.7065714 2.04,32.5137857 2.35733333,34.1517143 L2.35733333,34.1517143 C2.67304762,35.7896429 9.04561905,43.47 12.2675238,44.9699286 L12.2675238,44.9699286 C15.4926667,46.4682143 20.3789524,46.4682143 23.6866667,43.8659286 L23.6866667,43.8659286 C26.996,41.2636429 30.3150476,39.2478571 32.2028571,33.6917143 L32.2028571,33.6917143 C34.0922857,28.1322857 33.2795238,14.4472857 32.8197143,10.1101429 L32.8197143,10.1101429 C32.3599048,5.77135714 29.7937143,0.249714286 29.7937143,0.249714286 L29.7937143,0.249714286 C29.7937143,0.249714286 4.84419048,0.409071429 2.82361905,1.35535714 L2.82361905,1.35535714 Z" id="path-29"></path>
        <path d="M2.82361905,1.35535714 C0.801428571,2.30164286 -0.0534285714,12.9276429 0.568285714,20.7065714 L0.568285714,20.7065714 C0.568285714,20.7065714 2.04,32.5137857 2.35733333,34.1517143 L2.35733333,34.1517143 C2.67304762,35.7896429 9.04561905,43.47 12.2675238,44.9699286 L12.2675238,44.9699286 C15.4926667,46.4682143 20.3789524,46.4682143 23.6866667,43.8659286 L23.6866667,43.8659286 C26.996,41.2636429 30.3150476,39.2478571 32.2028571,33.6917143 L32.2028571,33.6917143 C34.0922857,28.1322857 33.2795238,14.4472857 32.8197143,10.1101429 L32.8197143,10.1101429 C32.3599048,5.77135714 29.7937143,0.249714286 29.7937143,0.249714286 L29.7937143,0.249714286 C29.7937143,0.249714286 4.84419048,0.409071429 2.82361905,1.35535714 L2.82361905,1.35535714 Z" id="path-31"></path>
        <polygon id="path-33" points="0.04662 0.045 6.98082 0.045 6.98082 3.961875 0.04662 3.961875"></polygon>
    </defs>
    <g id="Page-1" stroke="none" stroke-width="1" fill="none" fill-rule="evenodd">
        <g id="Home" transform="translate(-807.000000, -3922.000000)">
            <g id="Group-23" transform="translate(807.000000, 3922.000000)">
                <g id="Group-12" opacity="0.271042597" transform="translate(0.000000, 61.000000)">
                    <path d="M28.2995746,56.8092347 C28.9204354,44.8473644 30.62752,32.4608858 37.182182,22.4289504 C46.8750749,7.59363386 65.5116436,0.780138968 83.2367116,0.074340624 C111.272141,-1.04251468 138.272802,10.5771846 162.522563,24.6711306 C186.771759,38.7650766 209.557013,55.6184117 235.327826,66.6988811 C282.562444,87.0083696 335.687889,86.368634 386.959233,90.3724868 C403.881931,91.694306 421.838833,93.9901268 434.921015,104.789971 C445.825096,113.791441 451.78208,127.666307 453.96414,141.624739 C459.712475,178.387799 440.931152,215.980313 412.633355,240.187502 C384.335558,264.39582 347.789021,276.930799 311.236263,284.155351 C270.573836,292.191853 228.125728,294.239798 187.876643,284.342246 C112.408124,265.784267 58.3095448,206.330073 37.2234596,133.105471 C30.1056124,108.389542 26.9668159,82.5042469 28.2995746,56.8092347" id="Fill-1" fill="#90CCFF"></path>
                    <g id="Group-5">
                        <mask id="mask-2" fill="white">
                            <use xlink:href="#path-1"></use>
                        </mask>
                        <g id="Clip-4"></g>
                        <path d="M266.080018,58.5485252 C304.498649,34.4514025 342.733518,5.576101 387.890831,0.953438273 C402.71842,-0.564535078 418.169102,0.765241132 431.578616,7.25240787 C450.455181,16.3850404 463.343378,34.7646888 471.23156,54.1422328 C488.623896,96.8686186 485.045915,144.972146 478.457635,190.610516 C473.769167,223.086919 467.432499,256.111574 450.879812,284.474686 C428.497074,322.826333 388.791546,349.250564 346.076284,361.758349 C303.362153,374.266134 257.745153,373.889176 213.668924,367.635284 C170.44535,361.501409 127.489784,349.585262 90.058943,327.188675 C52.6281019,304.792089 20.9605925,271.214112 6.17201776,230.27729 C0.7502,215.27054 -2.34491215,198.70074 2.18410654,183.402679 C14.924728,140.370895 84.4884196,138.819114 119.180364,127.424171 C170.70205,110.502206 220.166172,87.3460686 266.080018,58.5485252" id="Fill-3" fill="#4DBCFF" mask="url(#mask-2)"></path>
                    </g>
                    <path d="M269.323514,329 C253.631271,329 236.601004,327.709365 218.70642,325.166471 C175.055301,318.961606 139.842156,307.556391 111.055142,290.301843 C92.4392575,279.143243 75.5378747,264.691747 62.66413,247.162932 C53.0701547,234.100829 31.2547707,203.021197 48.3370439,188.874442 C53.4862026,184.61089 60.1898883,182.754791 66.7545145,181.470365 C76.8058035,179.504785 86.8327852,177.729951 96.8264153,175.641911 C109.194797,173.058384 120.878057,170.616506 131.573203,167.097876 C186.505665,149.022784 239.066766,124.334248 287.795817,93.7162416 C293.629533,90.0503202 299.44403,86.2890261 305.065764,82.6518858 C334.792843,63.420471 362.870992,45.2550854 391.234044,42.3470661 C393.482738,42.1162531 395.672642,42 397.745533,42 C403.511981,42 408.419198,42.898986 411.938082,44.6015853 C428.484468,52.60668 435.03157,78.7337065 437.681049,95.151346 C446.179507,147.802127 439.339023,229.642017 405.68097,273.485218 C373.923396,314.852681 319.265097,329 269.323514,329 Z" id="Stroke-6" stroke="#FFF0DE" stroke-width="1.33"></path>
                    <path d="M270.538678,288 C238.311248,287.941225 204.000499,282.056835 173.95268,272.977495 C158.690871,268.36565 143.674892,262.348232 130.202992,253.734209 C127.059322,251.724063 93.8785954,223.006314 97.2386403,221.043719 C103.516917,217.376094 110.862909,216.115436 117.993092,214.685521 C169.347629,204.39081 217.945932,183.617413 263.7121,158.54125 C283.151308,147.887079 301.881915,135.78318 320.958044,124.498963 C329.097033,119.683896 384.864603,80.331789 392.676764,86.6939498 C394.454778,88.1408474 395.062554,90.5523435 395.523059,92.7979785 C401.199791,120.454895 398.987327,154.069792 395.525891,182.077112 C392.149986,209.392117 382.878709,237.032051 363.417411,256.505165 C343.472384,276.462843 314.791353,285.741442 286.622939,287.520062 C281.341007,287.854049 275.96958,288.00972 270.538678,288 Z" id="Stroke-8" stroke="#FFF0DE" stroke-width="1.33"></path>
                    <path d="M269.954078,244.998873 C247.436581,244.957726 222.310022,241.55892 198,235.332847 C225.602276,225.073299 253.993852,211.963375 283.607115,195.837926 C297.077439,188.49921 310.00189,180.653772 322.500199,173.06705 C329.277634,168.954099 335.678294,165.069427 342.179956,161.246192 C344.45707,159.906961 347.130253,158.161339 352.480024,154.649802 C353.331176,154.091789 354.171546,153.541667 355,153 C354.475691,160.454828 353.689794,168.39665 352.644013,176.808555 C350.739136,192.125731 345.726988,213.110965 332.665217,226.102523 C322.004261,236.705334 304.471675,243.275796 283.297296,244.606573 C279.147649,244.866979 274.784079,245 270.328017,245 L269.954078,244.998873 Z" id="Stroke-10" stroke="#FFF0DE" stroke-width="1.33"></path>
                </g>
                <g id="Group-102-Copy-5" opacity="0.365652902" transform="translate(363.000000, 20.000000)">
                    <path d="M39,15 L44,15 C43.4481472,10.9987901 43.4481472,7 44,3 L39,3 C39.5518528,7 39.5518528,10.9987901 39,15" id="Fill-1" fill="#2BA0FF"></path>
                    <path d="M26.4381625,20 L30,17.8495651 C27.7935908,14.8045494 25.9819666,11.5198318 24.5618375,8 L21,10.1504349 C23.2053125,13.1965975 25.0180334,16.4813151 26.4381625,20" id="Fill-3" fill="#2BA0FF"></path>
                    <path d="M17.8484182,30 L20,26.4377285 C16.4801682,25.018523 13.1954506,23.2055813 10.149288,21 L8,24.5622715 C11.5186849,25.9825737 14.8034025,27.7944187 17.8484182,30" id="Fill-5" fill="#2BA0FF"></path>
                    <path d="M14.99879,45 L15,40 C11.0008067,40.5518528 7.00040335,40.5518528 3,40 L3.00121004,45 C7.00040335,44.4494801 11.0008067,44.4481472 14.99879,45" id="Fill-7" fill="#2BA0FF"></path>
                    <path d="M20,57.5622715 L17.8505066,54 C14.8040528,56.2055813 11.5201682,58.0174263 8,59.4377285 L10.1517874,63 C13.1959472,60.7944187 16.4809788,58.981477 20,57.5622715" id="Fill-9" fill="#2BA0FF"></path>
                    <path d="M30,66.1506404 L26.4377285,64 C25.018523,67.5190212 23.2055813,70.8040528 21,73.8505066 L24.5622715,76 C25.981477,72.4809788 27.7944187,69.1959472 30,66.1506404" id="Fill-11" fill="#2BA0FF"></path>
                    <path d="M44,69.00121 L39,69 C39.5531858,73.0004033 39.5518528,77.0008067 39.001333,81 L44,80.99879 C43.4481472,77.0008067 43.4481472,73.0004033 44,69.00121" id="Fill-13" fill="#2BA0FF"></path>
                    <path d="M57.564465,64 L54,66.1506404 C56.206678,69.1959472 58.018523,72.4809788 59.439922,76 L63,73.8493596 C60.7955155,70.8040528 58.9825737,67.5190212 57.564465,64" id="Fill-15" fill="#2BA0FF"></path>
                    <path d="M66.1536697,54 L64,57.5633683 C67.5206422,58.981477 70.8038991,60.7955155 73.8497706,63 L76,59.4377285 C72.4805046,58.018523 69.1961009,56.206678 66.1536697,54" id="Fill-17" fill="#2BA0FF"></path>
                    <path d="M69.0024201,40 L69,45 C73.0016134,44.4482942 77.0020167,44.4482942 81,44.9986674 L81,40.0013326 C76.9995967,40.5530384 73.0004033,40.5530384 69.0024201,40" id="Fill-19" fill="#2BA0FF"></path>
                    <path d="M64,26.4359693 L66.1504349,30 C69.1954506,27.7935908 72.4813151,25.98087 76,24.5607408 L73.8495651,21 C70.8034025,23.2053125 67.5186849,25.0180334 64,26.4359693" id="Fill-21" fill="#2BA0FF"></path>
                    <path d="M54,17.8463303 L57.5633683,20 C58.981477,16.4805046 60.7966122,13.1949541 63,10.1502294 L59.439922,8 C58.0196198,11.5194954 56.206678,14.8038991 54,17.8463303" id="Fill-23" fill="#2BA0FF"></path>
                    <path d="M72,42.5005779 C72,59.3446636 58.3455607,73 41.4988442,73 C24.6555951,73 11,59.3446636 11,42.5005779 C11,25.6564922 24.6555951,12 41.4988442,12 C58.3455607,12 72,25.6564922 72,42.5005779" id="Fill-25" fill="#2BA0FF"></path>
                    <path d="M72,42.4994221 C72,46.1595839 71.3550355,49.6729694 70.1726007,52.9240067 C69.421298,54.9858093 68.4596305,56.9470643 67.2980009,58.7742559 C63.5495784,64.7111839 57.8061582,69.2577822 51.0086026,71.4883197 C48.0195737,72.469525 44.8213359,73 41.5028896,73 C24.6563714,73 11,59.3440253 11,42.4994221 C11,39.1813531 11.5316911,35.9846346 12.5187873,32.9890112 C14.7414874,26.1991626 19.2886026,20.4633296 25.2204263,16.7083989 C27.0478257,15.5457456 29.0093036,14.5795646 31.0713406,13.8260359 C34.3227475,12.6448912 37.8353766,12 41.5028896,12 C58.3447845,12 72,25.654819 72,42.4994221" id="Fill-27" fill="#2BA0FF"></path>
                    <path d="M54,60.8508921 C54,64.2071979 53.4633372,67.4419239 52.4706865,70.4708993 C49.4471355,71.4634119 46.2131284,72 42.8563554,72 C25.8152664,72 12,58.1878253 12,41.1479389 C12,37.791633 12.537832,34.5592451 13.5374979,31.5279316 C16.5610489,30.5365881 19.7938868,30 23.1506598,30 C40.187072,30 54,43.8121747 54,60.8508921" id="Fill-29" fill="#2B9DFF"></path>
                    <path d="M72,42.2141655 C72,45.8400943 71.3610687,49.3206196 70.1896947,52.5412504 C69.4454198,54.5837692 68.4927481,56.5266809 67.3419847,58.336783 C62.6770992,61.2906499 57.1465649,63 51.2187023,63 C34.528626,63 21,49.4740375 21,32.7858345 C21,26.8574924 22.710687,21.3287238 25.6580153,16.6643619 C27.4683206,15.5125828 29.4114504,14.5554383 31.4541985,13.8089572 C34.6751908,12.6388596 38.1549618,12 41.7881679,12 C58.4725191,12 72,25.5271074 72,42.2141655" id="Fill-31" fill="#6EBDFF"></path>
                    <path d="M49,24.5 C49,25.8815143 47.8802852,27 46.5,27 C45.1184857,27 44,25.8815143 44,24.5 C44,23.1197148 45.1184857,22 46.5,22 C47.8802852,22 49,23.1197148 49,24.5" id="Fill-33" fill="#6EBDFF"></path>
                    <path d="M67,46.5005735 C67,47.8804772 65.8793301,49 64.4994265,49 C63.1183758,49 62,47.8804772 62,46.5005735 C62,45.1195228 63.1183758,44 64.4994265,44 C65.8793301,44 67,45.1195228 67,46.5005735" id="Fill-35" fill="#2B9DFF"></path>
                    <path d="M25,39.5 C25,41.9857252 22.9857252,44 20.5,44 C18.0142748,44 16,41.9857252 16,39.5 C16,37.0142748 18.0142748,35 20.5,35 C22.9857252,35 25,37.0142748 25,39.5" id="Fill-37" fill="#2B9DFF"></path>
                    <path d="M51,33.5005735 C51,35.4343765 49.4332296,37 47.4994265,37 C45.5679174,37 44,35.4343765 44,33.5005735 C44,31.5667704 45.5679174,30 47.4994265,30 C49.4332296,30 51,31.5667704 51,33.5005735" id="Fill-39" fill="#2B9DFF"></path>
                    <path d="M57,59.9993744 C57,61.1041602 56.1051314,62 55,62 C53.8961202,62 53,61.1041602 53,59.9993744 C53,58.8945887 53.8961202,58 55,58 C56.1051314,58 57,58.8945887 57,59.9993744" id="Fill-41" fill="#2B9DFF"></path>
                    <path d="M34,26.0005736 C34,28.2102395 32.209349,30 30.0011471,30 C27.790651,30 26,28.2102395 26,26.0005736 C26,23.7897605 27.790651,22 30.0011471,22 C32.209349,22 34,23.7897605 34,26.0005736" id="Fill-43" fill="#6EBDFF"></path>
                    <path d="M42,19 C42,20.1035941 41.1035941,21 40,21 C38.8949965,21 38,20.1035941 38,19 C38,17.8949965 38.8949965,17 40,17 C41.1035941,17 42,17.8949965 42,19" id="Fill-45" fill="#2B9DFF"></path>
                    <path d="M63,27 C63,28.1042216 62.1052458,29 61.0006598,29 C59.8947542,29 59,28.1042216 59,27 C59,25.8944591 59.8947542,25 61.0006598,25 C62.1052458,25 63,25.8944591 63,27" id="Fill-47" fill="#2B9DFF"></path>
                    <path d="M38,58.9994264 C38,61.2090922 36.209349,63 34.0011471,63 C31.790651,63 30,61.2090922 30,58.9994264 C30,56.7897605 31.790651,55 34.0011471,55 C36.209349,55 38,56.7897605 38,58.9994264" id="Fill-49" fill="#6EBDFF"></path>
                    <path d="M69,33 C69,34.1053269 67.881997,35 66.5007564,35 C65.1195159,35 64,34.1053269 64,33 C64,31.8946731 65.1195159,31 66.5007564,31 C67.881997,31 69,31.8946731 69,33" id="Fill-51" fill="#6EBDFF"></path>
                    <path d="M48,3 C48,4.65703971 45.0897727,6 41.5,6 C37.9102273,6 35,4.65703971 35,3 C35,1.34296029 37.9102273,0 41.5,0 C45.0897727,0 48,1.34296029 48,3" id="Fill-53" fill="#2B9DFF"></path>
                    <path d="M45,2 C45,2.55167286 43.209535,3 41.0011772,3 C38.7916421,3 37,2.55167286 37,2 C37,1.44832714 38.7916421,1 41.0011772,1 C43.209535,1 45,1.44832714 45,2" id="Fill-55" fill="#2B9DFF"></path>
                    <path d="M48,80.0006016 C48,81.657309 45.0897727,83 41.5,83 C37.9102273,83 35,81.657309 35,80.0006016 C35,78.3438941 37.9102273,77 41.5,77 C45.0897727,77 48,78.3438941 48,80.0006016" id="Fill-57" fill="#2B9DFF"></path>
                    <path d="M45,81 C45,81.5516729 43.209535,82 41.0011772,82 C38.7916421,82 37,81.5516729 37,81 C37,80.4475836 38.7916421,80 41.0011772,80 C43.209535,80 45,80.4475836 45,81" id="Fill-59" fill="#2B9DFF"></path>
                    <path d="M67.811549,12.2096168 C66.9918153,13.5276494 63.7246584,13.1593103 60.5152125,11.3875106 C57.3045889,9.61349194 55.3683214,7.1083424 56.1880551,5.79030978 C57.0077888,4.47227716 60.2761236,4.84061624 63.4855694,6.61352544 C66.6950152,8.38643464 68.6324605,10.8926936 67.811549,12.2096168" id="Fill-61" fill="#2B9DFF"></path>
                    <path d="M64.9085727,10.5717039 C64.4713117,11.3443821 62.5920196,11.0430255 60.7092387,9.8978707 C58.8264578,8.75392128 57.6542261,7.20012697 58.0914872,6.4274488 C58.5275853,5.65597607 60.4080403,5.95733261 62.2908212,7.10128202 C64.1724391,8.24523144 65.3458337,9.79902575 64.9085727,10.5717039" id="Fill-63" fill="#2B9DFF"></path>
                    <path d="M27.8119343,78.210515 C26.9921739,79.5273996 23.7237326,79.1590713 20.5153598,77.3873235 C17.3046315,75.6133568 15.3683008,73.1082806 16.1880613,71.7902866 C17.0078217,70.4722926 20.276263,70.8406209 23.4858136,72.6134782 C26.6953641,74.3874449 28.6316948,76.892521 27.8119343,78.210515" id="Fill-65" fill="#2B9DFF"></path>
                    <path d="M25.9089442,76.5717039 C25.4717062,77.3443821 23.5913505,77.0430255 21.709832,75.8978707 C19.8271505,74.7539213 18.6549808,73.200127 19.0910558,72.4274488 C19.5282938,71.6559761 21.4086495,71.9573326 23.290168,73.101282 C25.1728495,74.2452314 26.3450192,75.7990258 25.9089442,76.5717039" id="Fill-67" fill="#2B9DFF"></path>
                    <path d="M79.1551622,27.8275843 C77.798674,28.6133037 75.2844835,26.6390814 73.5417181,23.4214843 C71.7989527,20.2027198 71.4872202,16.957103 72.8448378,16.172551 C74.201326,15.3868315 76.7155165,17.3587189 78.4582819,20.5774834 C80.2010473,23.796248 80.5127798,27.0418648 79.1551622,27.8275843" id="Fill-69" fill="#2B9DFF"></path>
                    <path d="M77.5417191,26.9167197 C76.7445752,27.3338003 75.1847319,26.1436228 74.0566748,24.2563907 C72.929848,22.3703107 72.661673,20.5015131 73.4588169,20.0832803 C74.2559608,19.6661997 75.8158041,20.8563772 76.9438612,22.7436093 C78.070688,24.6308415 78.3376328,26.4984869 77.5417191,26.9167197" id="Fill-71" fill="#2B9DFF"></path>
                    <path d="M11.1560484,66.8275157 C9.79839551,67.6132309 7.28526935,65.6401868 5.54245872,62.4226074 C3.79964809,59.2038604 3.486778,55.9570939 4.84443087,55.1725462 C6.20208374,54.3868311 8.7152099,56.3587076 10.4580205,59.578622 C12.2008312,62.7962015 12.5125718,66.0418005 11.1560484,66.8275157" id="Fill-73" fill="#2B9DFF"></path>
                    <path d="M10.5409225,63.9167197 C9.74514837,64.3338003 8.1843487,63.1436228 7.05648952,61.2563907 C5.92986028,59.3703107 5.66173237,57.5026652 6.45873645,57.0832803 C7.25574054,56.6661997 8.81654022,57.8563772 9.94316945,59.7436093 C11.0710286,61.6308415 11.3379266,63.4996391 10.5409225,63.9167197" id="Fill-75" fill="#2B9DFF"></path>
                    <path d="M80.8628659,48.9997392 C79.2075907,48.9690533 77.9285691,46.0334305 78.0030985,42.4431742 C78.0800322,38.8529178 79.4840709,35.9684383 81.138144,36.0002608 C82.7922171,36.0320833 84.0736429,38.967706 83.9967093,42.5568258 C83.9209777,46.1470822 82.518141,49.0315617 80.8628659,48.9997392" id="Fill-77" fill="#2B9DFF"></path>
                    <path d="M79.948761,46.9998695 C79.3973942,46.98221 78.9730944,45.1774124 79.0013315,42.9676243 C79.0288255,40.7590135 79.4991964,38.9824711 80.0505632,39.0001305 C80.6019301,39.01779 81.0262299,40.8225876 80.9987358,43.0323757 C80.9704987,45.2409865 80.5008709,47.0175289 79.948761,46.9998695" id="Fill-79" fill="#2B9DFF"></path>
                    <g id="Group-83" transform="translate(0.000000, 34.000000)">
                        <mask id="mask-4" fill="white">
                            <use xlink:href="#path-3"></use>
                        </mask>
                        <g id="Clip-82"></g>
                        <path d="M2.85744,13.9724667 C1.20504,13.9409667 -0.07176,10.9274667 0.00264,7.24196667 C0.07944,3.55646667 1.48104,0.595466667 3.13224,0.628133333 C4.78344,0.6608 6.06264,3.6743 5.98584,7.35863333 C5.91024,11.0429667 4.50984,14.0051333 2.85744,13.9724667" id="Fill-81" fill="#2B9DFF" mask="url(#mask-4)"></path>
                    </g>
                    <path d="M2.94876101,43.9998695 C2.39739419,43.9810327 1.97309438,42.1774124 2.0013315,39.9676243 C2.02882553,37.7590135 2.49919642,35.9824711 3.05056324,36.0001305 C3.60193006,36.01779 4.02622986,37.8225876 3.99873583,40.0311984 C3.97049872,42.2409865 3.50087091,44.0175289 2.94876101,43.9998695" id="Fill-84" fill="#2B9DFF"></path>
                    <path d="M71.8178111,66.8202084 C70.4796985,66.017188 70.8189857,62.7617316 72.5770081,59.5473054 C74.3339107,56.3340516 76.8432917,54.3786676 78.182524,55.1793434 C79.5206366,55.9823638 79.1802297,59.2378202 77.4233271,62.4510741 C75.6653047,65.6666725 73.154804,67.6220565 71.8178111,66.8202084" id="Fill-86" fill="#2B9DFF"></path>
                    <path d="M73.4439286,63.9130903 C72.6582852,63.4860646 72.9433093,61.6124747 74.0785336,59.7273123 C75.2149759,57.8421499 76.7716461,56.659439 77.5560714,57.087622 C78.3417148,57.5146477 78.0566907,59.3882376 76.9214664,61.2734001 C75.7862422,63.1585625 74.229572,64.3389588 73.4439286,63.9130903" id="Fill-88" fill="#2B9DFF"></path>
                    <path d="M4.8172048,27.8202084 C3.48029298,27.017188 3.81843985,23.7617316 5.57747542,20.5473054 C7.3342716,17.3340516 9.84350057,15.3786676 11.1826518,16.1793434 C12.5206833,16.9823638 12.180297,20.2378202 10.4223811,23.4510741 C8.66558496,26.6666725 6.1552363,28.6220565 4.8172048,27.8202084" id="Fill-90" fill="#2B9DFF"></path>
                    <path d="M6.44393462,25.9130903 C5.65828057,25.4860646 5.94330855,23.6124747 7.07854821,21.7273123 C8.21378786,19.8421499 9.77047915,18.659439 10.5561332,19.087622 C11.3417873,19.5146477 11.0567593,21.3882376 9.92030155,23.2734001 C8.78627996,25.1585625 7.22958868,26.3389588 6.44393462,25.9130903" id="Fill-92" fill="#2B9DFF"></path>
                    <path d="M56.1894516,78.2140283 C55.3667538,76.8990926 57.29974,74.3955081 60.5092042,72.6197356 C63.7186684,70.8450708 66.9870651,70.4706409 67.8097629,71.7855767 C68.6348179,73.1005124 66.6994745,75.6052047 63.4900103,77.3809772 C60.2817247,79.155642 57.0121494,79.5289641 56.1894516,78.2140283" id="Fill-94" fill="#2B9DFF"></path>
                    <path d="M58.0921236,76.5744474 C57.6533402,75.8041159 58.8242053,74.2502127 60.7062024,73.1055482 C62.5881994,71.95968 64.4690325,71.6551583 64.907816,72.4254898 C65.3465995,73.1946177 64.1768982,74.7485209 62.2937373,75.8955928 C60.4117402,77.0402573 58.5297432,77.344779 58.0921236,76.5744474" id="Fill-96" fill="#2B9DFF"></path>
                    <path d="M16.1894516,12.2141558 C15.3667538,10.8993117 17.29974,8.39479408 20.5092042,6.61914535 C23.7186684,4.84460433 26.9870651,4.47130825 27.8097629,5.78504461 C28.6348179,7.10099638 26.6994745,9.60551401 23.4900103,11.380055 C20.2817247,13.1557038 17.0121494,13.5289998 16.1894516,12.2141558" id="Fill-98" fill="#2B9DFF"></path>
                    <path d="M19.0916906,10.5745821 C18.6540942,9.8043807 19.8248974,8.25074011 21.7067947,7.10506556 C23.588692,5.95939101 25.4694255,5.65492078 25.9081857,6.4263256 C26.3457821,7.19532353 25.1773066,8.74896412 23.2942455,9.89463867 C21.4111843,11.0403132 19.5304508,11.3447835 19.0916906,10.5745821" id="Fill-100" fill="#2B9DFF"></path>
                </g>
                <g id="Group-102-Copy-6" opacity="0.365652902" transform="translate(44.000000, 274.000000)">
                    <path d="M31,12 L35,12 C34.5585177,8.99909256 34.5585177,6 35,3 L31,3 C31.4414823,6 31.4414823,8.99909256 31,12" id="Fill-1" fill="#2BA0FF"></path>
                    <path d="M21.229682,15 L24,13.3871739 C22.283904,11.103412 20.8748629,8.63987384 19.770318,6 L17,7.61282615 C18.7152431,9.89744815 20.1251371,12.3609863 21.229682,15" id="Fill-3" fill="#2BA0FF"></path>
                    <path d="M13.3863137,23 L15,20.2293444 C12.3601262,19.1255179 9.89658798,17.7154521 7.61196598,16 L6,18.7706556 C8.63901367,19.8753351 11.1025518,21.2845479 13.3863137,23" id="Fill-5" fill="#2BA0FF"></path>
                    <path d="M11.9990925,35 L12,31 C9.00060502,31.4414823 6.00030251,31.4414823 3,31 L3.00090753,35 C6.00030251,34.5595841 9.00060502,34.5585177 11.9990925,35" id="Fill-7" fill="#2BA0FF"></path>
                    <path d="M15,44.7706556 L13.3878799,42 C11.1030396,43.7154521 8.64012617,45.1246649 6,46.2293444 L7.61384057,49 C9.89696043,47.2845479 12.3607341,45.8744821 15,44.7706556" id="Fill-9" fill="#2BA0FF"></path>
                    <path d="M24,51.6129803 L21.2293444,50 C20.1255179,52.6392659 18.7154521,55.1030396 17,57.3878799 L19.7706556,59 C20.8744821,56.3607341 22.2845479,53.8969604 24,51.6129803" id="Fill-11" fill="#2BA0FF"></path>
                    <path d="M35,54.0009075 L31,54 C31.4425487,57.0003025 31.4414823,60.000605 31.0010664,63 L35,62.9990925 C34.5585177,60.000605 34.5585177,57.0003025 35,54.0009075" id="Fill-13" fill="#2BA0FF"></path>
                    <path d="M44.7723617,50 L42,51.6129803 C43.7163051,53.8969604 45.1255179,56.3607341 46.2310505,59 L49,57.3870197 C47.2854009,55.1030396 45.8753351,52.6392659 44.7723617,50" id="Fill-15" fill="#2BA0FF"></path>
                    <path d="M51.6152523,42 L50,44.7715087 C52.6404817,45.8744821 55.1029243,47.2854009 57.387328,49 L59,46.2293444 C56.3603784,45.1255179 53.8970757,43.7163051 51.6152523,42" id="Fill-17" fill="#2BA0FF"></path>
                    <path d="M54.0018151,31 L54,35 C57.00121,34.5586354 60.0015126,34.5586354 63,34.9989339 L63,31.0010661 C59.9996975,31.4424307 57.0003025,31.4424307 54.0018151,31" id="Fill-19" fill="#2BA0FF"></path>
                    <path d="M50,20.2279761 L51.6128261,23 C53.896588,21.283904 56.3609863,19.87401 59,18.7694651 L57.3871739,16 C55.1025518,17.7152431 52.6390137,19.1251371 50,20.2279761" id="Fill-21" fill="#2BA0FF"></path>
                    <path d="M42,13.3847477 L44.7715087,15 C45.8744821,12.3603784 47.286254,9.8962156 49,7.61267202 L46.2310505,6 C45.1263709,8.63962156 43.7163051,11.1029243 42,13.3847477" id="Fill-23" fill="#2BA0FF"></path>
                    <path d="M57,33.0004547 C57,46.2548173 46.2555231,57 32.9990905,57 C19.7453863,57 9,46.2548173 9,33.0004547 C9,19.7460922 19.7453863,9 32.9990905,9 C46.2555231,9 57,19.7460922 57,33.0004547" id="Fill-25" fill="#2BA0FF"></path>
                    <path d="M57,32.9995453 C57,35.8796726 56.492487,38.6443038 55.5620464,41.2024971 C54.9708574,42.8248991 54.2141355,44.3681817 53.3000663,45.8059718 C50.3504879,50.4776529 45.8310753,54.055304 40.4821791,55.810481 C38.1301563,56.5825771 35.6135102,57 33.0022738,57 C19.7459972,57 9,46.254315 9,32.9995453 C9,30.3886057 9.41837991,27.8731551 10.1951113,25.5159432 C11.9441213,20.1731115 15.5221791,15.6596692 20.1898437,12.7049696 C21.6277973,11.7900949 23.1712553,11.0298213 24.7938418,10.4368807 C27.3523259,9.50745533 30.1163619,9 33.0022738,9 C46.2549124,9 57,19.7447756 57,32.9995453" id="Fill-27" fill="#2BA0FF"></path>
                    <path d="M42,47.2399866 C42,49.8770841 41.5783364,52.4186545 40.7983965,54.7985638 C38.4227493,55.5783951 35.8817438,56 33.2442793,56 C19.8548522,56 9,45.147577 9,31.7590948 C9,29.1219974 9.42258226,26.582264 10.2080341,24.2005177 C12.5836813,23.4216049 15.1237682,23 17.7612327,23 C31.1469851,23 42,33.852423 42,47.2399866" id="Fill-29" fill="#2B9DFF"></path>
                    <path d="M57,32.6973847 C57,35.5412504 56.4988774,38.2710742 55.5801527,40.7970592 C54.9964077,42.3990347 54.2492142,43.922887 53.3466547,45.3425749 C49.687921,47.6593333 45.350247,49 40.700943,49 C27.610687,49 17,38.391402 17,25.3026153 C17,20.6529352 18.3417153,16.3166461 20.6533453,12.658323 C22.0731926,11.7549669 23.597216,11.0042653 25.1993714,10.41879 C27.7256399,9.50106634 30.454872,9 33.3044454,9 C46.390211,9 57,19.609496 57,32.6973847" id="Fill-31" fill="#6EBDFF"></path>
                    <path d="M39,19 C39,20.1052114 38.1042281,21 37,21 C35.8947886,21 35,20.1052114 35,19 C35,17.8957719 35.8947886,17 37,17 C38.1042281,17 39,17.8957719 39,19" id="Fill-33" fill="#6EBDFF"></path>
                    <path d="M53,36.0004588 C53,37.1043817 52.1034641,38 50.9995412,38 C49.8947006,38 49,37.1043817 49,36.0004588 C49,34.8956183 49.8947006,34 50.9995412,34 C52.1034641,34 53,34.8956183 53,36.0004588" id="Fill-35" fill="#2B9DFF"></path>
                    <path d="M20,30.5 C20,32.4333418 18.4333418,34 16.5,34 C14.5666582,34 13,32.4333418 13,30.5 C13,28.5666582 14.5666582,27 16.5,27 C18.4333418,27 20,28.5666582 20,30.5" id="Fill-37" fill="#2B9DFF"></path>
                    <path d="M40,26.5004096 C40,27.8816975 38.6570539,29 36.9995084,29 C35.3439292,29 34,27.8816975 34,26.5004096 C34,25.1191217 35.3439292,24 36.9995084,24 C38.6570539,24 40,25.1191217 40,26.5004096" id="Fill-39" fill="#2B9DFF"></path>
                    <path d="M45,46.4995308 C45,47.3281201 44.3288486,48 43.5,48 C42.6720901,48 42,47.3281201 42,46.4995308 C42,45.6709415 42.6720901,45 43.5,45 C44.3288486,45 45,45.6709415 45,46.4995308" id="Fill-41" fill="#2B9DFF"></path>
                    <path d="M27,20.0004302 C27,21.6576796 25.6570118,23 24.0008603,23 C22.3429882,23 21,21.6576796 21,20.0004302 C21,18.3423204 22.3429882,17 24.0008603,17 C25.6570118,17 27,18.3423204 27,20.0004302" id="Fill-43" fill="#6EBDFF"></path>
                    <path d="M33,14.5 C33,15.3276956 32.3276956,16 31.5,16 C30.6712474,16 30,15.3276956 30,14.5 C30,13.6712474 30.6712474,13 31.5,13 C32.3276956,13 33,13.6712474 33,14.5" id="Fill-45" fill="#2B9DFF"></path>
                    <path d="M49,21.5 C49,22.3281662 48.3289343,23 47.5004949,23 C46.6710657,23 46,22.3281662 46,21.5 C46,20.6708443 46.6710657,20 47.5004949,20 C48.3289343,20 49,20.6708443 49,21.5" id="Fill-47" fill="#2B9DFF"></path>
                    <path d="M30,45.9995698 C30,47.6568192 28.6570118,49 27.0008603,49 C25.3429882,49 24,47.6568192 24,45.9995698 C24,44.3423204 25.3429882,43 27.0008603,43 C28.6570118,43 30,44.3423204 30,45.9995698" id="Fill-49" fill="#6EBDFF"></path>
                    <path d="M54,25.5 C54,26.3289952 53.1055976,27 52.0006051,27 C50.8956127,27 50,26.3289952 50,25.5 C50,24.6710048 50.8956127,24 52.0006051,24 C53.1055976,24 54,24.6710048 54,25.5" id="Fill-51" fill="#6EBDFF"></path>
                    <path d="M38,2.5 C38,3.88086643 35.7613636,5 33,5 C30.2386364,5 28,3.88086643 28,2.5 C28,1.11913357 30.2386364,0 33,0 C35.7613636,0 38,1.11913357 38,2.5" id="Fill-53" fill="#2B9DFF"></path>
                    <path d="M35,2 C35,2.55167286 33.6571513,3 32.0008829,3 C30.3437316,3 29,2.55167286 29,2 C29,1.44832714 30.3437316,1 32.0008829,1 C33.6571513,1 35,1.44832714 35,2" id="Fill-55" fill="#2B9DFF"></path>
                    <path d="M38,62.5005013 C38,63.8810908 35.7613636,65 33,65 C30.2386364,65 28,63.8810908 28,62.5005013 C28,61.1199118 30.2386364,60 33,60 C35.7613636,60 38,61.1199118 38,62.5005013" id="Fill-57" fill="#2B9DFF"></path>
                    <path d="M35,63 C35,63.5516729 33.6571513,64 32.0008829,64 C30.3437316,64 29,63.5516729 29,63 C29,62.4475836 30.3437316,62 32.0008829,62 C33.6571513,62 35,62.4475836 35,63" id="Fill-59" fill="#2B9DFF"></path>
                    <path d="M52.8586618,9.4072126 C52.2438615,10.3957371 49.7934938,10.1194828 47.3864094,8.79063295 C44.9784417,7.46011896 43.5262411,5.5812568 44.1410413,4.59273234 C44.7558416,3.60420787 47.2070927,3.88046218 49.614177,5.21014408 C52.0212614,6.53982598 53.4743454,8.41952023 52.8586618,9.4072126" id="Fill-61" fill="#2B9DFF"></path>
                    <path d="M50.9216337,8.65736313 C50.5468386,9.27550566 48.9360168,9.03442043 47.3222046,8.11829656 C45.7083924,7.20313702 44.7036224,5.96010157 45.0784176,5.34195904 C45.452216,4.72478085 47.0640345,4.96586608 48.6778467,5.88102562 C50.2906621,6.79618515 51.2964289,8.0392206 50.9216337,8.65736313" id="Fill-63" fill="#2B9DFF"></path>
                    <path d="M21.8589508,61.4078863 C21.2441304,62.3955497 18.7927994,62.1193035 16.3865199,60.7904926 C13.9784736,59.4600176 12.5262256,57.5812105 13.1410459,56.592715 C13.7558663,55.6042195 16.2071973,55.8804657 18.6143602,57.2101086 C21.0215231,58.5405836 22.4737711,60.4193908 21.8589508,61.4078863" id="Fill-65" fill="#2B9DFF"></path>
                    <path d="M19.9349601,59.6573631 C19.6226473,60.2755057 18.2795361,60.0344204 16.9355943,59.1182966 C15.5908218,58.203137 14.7535577,56.9601016 15.0650399,56.341959 C15.3773527,55.7247809 16.7204639,55.9658661 18.0644057,56.8810256 C19.4091782,57.7961852 20.2464423,59.0392206 19.9349601,59.6573631" id="Fill-67" fill="#2B9DFF"></path>
                    <path d="M62.3663716,21.8706882 C61.3490055,22.4599778 59.4633627,20.9793111 58.1562886,18.5661133 C56.8492145,16.1520398 56.6154151,13.7178272 57.6336284,13.1294132 C58.6509945,12.5401236 60.5366373,14.0190391 61.8437114,16.4331126 C63.1507855,18.847186 63.3845849,21.2813986 62.3663716,21.8706882" id="Fill-69" fill="#2B9DFF"></path>
                    <path d="M60.6333753,20.9405141 C59.9956601,21.2384288 58.7477855,20.388302 57.8453399,19.040279 C56.9438784,17.6930791 56.7293384,16.3582236 57.3670535,16.0594859 C58.0047687,15.7615712 59.2526433,16.611698 60.1550889,17.959721 C61.0565504,19.3077439 61.2701063,20.6417764 60.6333753,20.9405141" id="Fill-71" fill="#2B9DFF"></path>
                    <path d="M8.36703628,51.8706368 C7.34879663,52.4599231 5.46395201,50.9801401 4.15684404,48.5669555 C2.84973607,46.1528953 2.6150835,43.7178204 3.63332315,43.1294097 C4.65156281,42.5401233 6.53640742,44.0190307 7.8435154,46.4339665 C9.15062337,48.8471511 9.38442881,51.2813504 8.36703628,51.8706368" id="Fill-73" fill="#2B9DFF"></path>
                    <path d="M8.63273801,49.9405141 C7.9961187,50.2384288 6.74747896,49.388302 5.84519162,48.040279 C4.94388823,46.6930791 4.72938589,45.3590466 5.36698916,45.0594859 C6.00459243,44.7615712 7.25323217,45.611698 8.15453556,46.959721 C9.0568229,48.3077439 9.27034128,49.6425994 8.63273801,49.9405141" id="Fill-75" fill="#2B9DFF"></path>
                    <path d="M63.3857216,37.9997994 C62.0063256,37.9761948 60.9404742,35.7180235 61.0025821,32.9562878 C61.0666935,30.1945522 62.2367258,27.9757218 63.61512,28.0002006 C64.9935143,28.0246794 66.0613691,30.2828508 65.9972577,33.0437122 C65.9341481,35.8054478 64.7651175,38.0242782 63.3857216,37.9997994" id="Fill-77" fill="#2B9DFF"></path>
                    <path d="M62.948761,36.9999021 C62.3973942,36.9866575 61.9730944,35.6330593 62.0013315,33.9757182 C62.0288255,32.3192601 62.4991964,30.9868533 63.0505632,31.0000979 C63.6019301,31.0133425 64.0262299,32.3669407 63.9987358,34.0242818 C63.9704987,35.6807399 63.5008709,37.0131467 62.948761,36.9999021" id="Fill-79" fill="#2B9DFF"></path>
                    <g id="Group-83" transform="translate(0.000000, 27.000000)">
                        <mask id="mask-6" fill="white">
                            <use xlink:href="#path-5"></use>
                        </mask>
                        <g id="Clip-82"></g>
                        <path d="M2.3812,10.9783667 C1.0042,10.9536167 -0.0598,8.58586667 0.0022,5.69011667 C0.0662,2.79436667 1.2342,0.467866667 2.6102,0.493533333 C3.9862,0.5192 5.0522,2.88695 4.9882,5.78178333 C4.9252,8.67661667 3.7582,11.0040333 2.3812,10.9783667" id="Fill-81" fill="#2B9DFF" mask="url(#mask-6)"></path>
                    </g>
                    <path d="M1.94876101,33.9999021 C1.39739419,33.9857745 0.97309438,32.6330593 1.0013315,30.9757182 C1.02882553,29.3192601 1.49919642,27.9868533 2.05056324,28.0000979 C2.60193006,28.0133425 3.02622986,29.3669407 2.99873583,31.0233988 C2.97049872,32.6807399 2.50087091,34.0131467 1.94876101,33.9999021" id="Fill-84" fill="#2B9DFF"></path>
                    <path d="M56.6133583,51.8651563 C55.6097739,51.262891 55.8642393,48.8212987 57.182756,46.4104791 C58.500433,44.0005387 60.3824688,42.5340007 61.386893,43.1345076 C62.3904775,43.7367729 62.1351723,46.1783652 60.8174953,48.5883056 C59.4989785,51 57.616103,52.4665424 56.6133583,51.8651563" id="Fill-86" fill="#2B9DFF"></path>
                    <path d="M57.3551429,49.9379217 C56.7266282,49.6329033 56.9546475,48.2946248 57.8628269,46.9480802 C58.7719807,45.6015356 60.0173168,44.7567422 60.6448571,45.0625872 C61.2733718,45.3676055 61.0453525,46.705884 60.1371731,48.0524286 C59.2289937,49.3989732 57.9836576,50.2421134 57.3551429,49.9379217" id="Fill-88" fill="#2B9DFF"></path>
                    <path d="M3.6129036,21.8651563 C2.61021973,21.262891 2.86382989,18.8212987 4.18310656,16.4104791 C5.5007037,14.0005387 7.38262542,12.5340007 8.38698883,13.1345076 C9.39051246,13.7367729 9.13522276,16.1783652 7.81678586,18.5883056 C6.49918872,21 4.61642723,22.4665424 3.6129036,21.8651563" id="Fill-90" fill="#2B9DFF"></path>
                    <path d="M5.3551477,19.9379217 C4.72662446,19.6329033 4.95464684,18.2946248 5.86283857,16.9480802 C6.77103029,15.6015356 8.01638332,14.7567422 8.64490656,15.0625872 C9.2734298,15.3676055 9.04540742,16.705884 8.13624124,18.0524286 C7.22902397,19.3989732 5.98367094,20.2421134 5.3551477,19.9379217" id="Fill-92" fill="#2B9DFF"></path>
                    <path d="M44.1420887,61.4105213 C43.5250654,60.4243194 44.974805,58.5466311 47.3819031,57.2148017 C49.7890013,55.8838031 52.2402988,55.6029807 52.8573222,56.5891825 C53.4761135,57.5753843 52.0246059,59.4539035 49.6175077,60.7857329 C47.2112935,62.1167315 44.759112,62.3967231 44.1420887,61.4105213" id="Fill-94" fill="#2B9DFF"></path>
                    <path d="M45.0789631,59.659558 C44.702863,59.0432927 45.7064617,57.8001702 47.319602,56.8844385 C48.9327423,55.967744 50.544885,55.7241266 50.9209851,56.3403919 C51.2970853,56.9556942 50.2944841,58.1988167 48.6803462,59.1164742 C47.0672059,60.0322058 45.4540656,60.2758232 45.0789631,59.659558" id="Fill-96" fill="#2B9DFF"></path>
                    <path d="M13.1420887,9.41061683 C12.5250654,8.42448378 13.974805,6.54609556 16.3819031,5.21435901 C18.7890013,3.88345325 21.2402988,3.60348119 21.8573222,4.58878346 C22.4761135,5.57574728 21.0246059,7.45413551 18.6175077,8.78504127 C16.2112935,10.1167778 13.759112,10.3967499 13.1420887,9.41061683" id="Fill-98" fill="#2B9DFF"></path>
                    <path d="M15.0654933,8.65966566 C14.7529244,8.04350456 15.5892124,6.80059209 16.9334248,5.88405245 C18.2776371,4.96751281 19.6210182,4.72393662 19.9344184,5.34106048 C20.2469872,5.95625883 19.4123619,7.1991713 18.0673182,8.11571094 C16.7222745,9.03225058 15.3788935,9.27582676 15.0654933,8.65966566" id="Fill-100" fill="#2B9DFF"></path>
                </g>
                <g id="Group-22" transform="translate(213.000000, 182.000000)">
                    <g id="Group-5" transform="translate(6.000000, 7.000000)" fill="#007CFF">
                        <polygon id="Fill-1" opacity="0.254975818" points="157.825089 247.005768 79.2089797 101.041648 0.590401563 247.005768"></polygon>
                        <polygon id="Fill-3" opacity="0.208263579" points="157.825089 0.065348 79.2089797 146.030708 0.590401563 0.065348"></polygon>
                    </g>
                    <path d="M100.459286,93.7733674 L88.9099513,115.255547 C87.6582261,117.581484 84.3417739,117.581484 83.091288,115.255547 L71.5407145,93.7733674 C66.983691,85.2977277 73.0824434,75 82.6587611,75 L89.3412389,75 C98.9175566,75 105.016309,85.2977277 100.459286,93.7733674" id="Fill-6" fill="#007CFF"></path>
                    <path d="M87.2536509,218.244923 L122.954877,232.740455 C126.292721,234.096669 125.311002,239 121.701487,239 L50.2990356,239 C46.6895208,239 45.7065671,234.097888 49.0456461,232.741673 L84.745637,218.244923 C85.5483003,217.918359 86.4509877,217.918359 87.2536509,218.244923" id="Fill-8" fill="#007CFF"></path>
                    <path d="M90,184.500607 C90,186.986379 87.9851652,189 85.4993931,189 C83.013621,189 81,186.986379 81,184.500607 C81,182.014835 83.013621,180 85.4993931,180 C87.9851652,180 90,182.014835 90,184.500607" id="Fill-10" fill="#007CFF"></path>
                    <path d="M88,136.5 C88,137.881476 86.8814757,139 85.5,139 C84.1185243,139 83,137.881476 83,136.5 C83,135.118524 84.1185243,134 85.5,134 C86.8814757,134 88,135.118524 88,136.5" id="Fill-12" fill="#007CFF"></path>
                    <path d="M88,159.5 C88,160.88058 86.8805798,162 85.5,162 C84.1194202,162 83,160.88058 83,159.5 C83,158.11942 84.1194202,157 85.5,157 C86.8805798,157 88,158.11942 88,159.5" id="Fill-14" fill="#007CFF"></path>
                    <g id="Group-18" transform="translate(0.000000, 247.000000)">
                        <mask id="mask-8" fill="white">
                            <use xlink:href="#path-7"></use>
                        </mask>
                        <g id="Clip-17"></g>
                        <path d="M164.000268,0.4955 L7.17957698,0.4955 C3.22976403,0.4955 0.000123741007,3.75925 0.000123741007,7.748 C0.000123741007,11.73675 3.22976403,15.0005 7.17957698,15.0005 L164.000268,15.0005 C167.948843,15.0005 171.179721,11.73675 171.179721,7.748 C171.179721,3.75925 167.948843,0.4955 164.000268,0.4955" id="Fill-16" fill="#007CFF" mask="url(#mask-8)"></path>
                    </g>
                    <g id="Group-21">
                        <mask id="mask-10" fill="white">
                            <use xlink:href="#path-9"></use>
                        </mask>
                        <g id="Clip-20"></g>
                        <path d="M164.000268,0.313625 L7.17957698,0.313625 C3.22976403,0.313625 0.000123741007,3.577375 0.000123741007,7.566125 C0.000123741007,11.554875 3.22976403,14.818625 7.17957698,14.818625 L164.000268,14.818625 C167.948843,14.818625 171.179721,11.554875 171.179721,7.566125 C171.179721,3.577375 167.948843,0.313625 164.000268,0.313625" id="Fill-19" fill="#007CFF" mask="url(#mask-10)"></path>
                    </g>
                </g>
                <g id="Group-109" transform="translate(136.000000, 0.000000)">
                    <g id="Group-30">
                        <path d="M38.9597267,67.1401187 L36.7788433,96.1367341 C36.7788433,96.1367341 29.64126,146.12658 28.71006,166.553833 C28.5338433,170.491284 27.9890267,175.235415 27.2194933,180.335723 C24.6053433,197.599679 19.4400933,218.867767 17.5954767,226.274273 C17.16221,228.001481 16.90516,228.969174 16.90516,228.969174 L9.54286,228.969174 L9.22114333,226.290536 L9.22114333,226.274273 L5.38802667,194.647811 C5.38802667,194.647811 8.64561,149.257349 9.63986,142.818536 C10.63411,136.379723 11.62836,99.5082066 17.83636,84.9228879 C19.26226,81.5823165 38.9597267,67.1401187 38.9597267,67.1401187" id="Fill-1" fill="#FFFFFF"></path>
                        <path d="M27.9406883,136.735086 L27.219655,180.33491 C23.994405,201.619262 16.9053217,228.96836 16.9053217,228.96836 L9.54302167,228.96836 C9.54302167,228.96836 13.600855,221.142251 14.114955,216.318426 C14.6274383,211.492976 17.1138717,191.21047 16.9053217,183.659218 C16.6967717,176.106338 17.3224217,137.993899 17.9480717,129.876668 C18.5737217,121.761064 21.8135217,95.8952176 27.9406883,87.0672615 C34.0840217,78.2425582 27.9406883,136.735086 27.9406883,136.735086" id="Fill-3" fill="#DADADA"></path>
                        <path d="M22.1821217,230.437464 L20.8354383,246.71909 L19.231705,266.050167 C19.231705,266.050167 14.5789383,267.614738 12.8798217,266.050167 C12.2541717,265.484189 11.2599217,263.822035 10.2317217,261.774431 C9.54302167,260.401771 8.852705,258.868101 8.275555,257.384848 C7.29747167,254.932277 6.607155,252.608189 6.67182167,251.36564 C6.752655,249.703486 7.55452167,243.490738 8.29172167,238.037508 L8.30788833,237.972453 C8.949705,233.164892 9.54302167,228.968848 9.54302167,228.968848 L14.5789383,228.259749 L21.8620217,230.339881 L22.1821217,230.437464 Z" id="Fill-5" fill="#58BAD3"></path>
                        <path d="M21.8616983,230.340532 L19.8085317,244.911213 C19.8085317,244.911213 15.975415,232.002686 15.1573817,231.487125 C14.3231817,230.969938 9.54269833,228.969499 9.54269833,228.969499 L14.5802317,228.258774 L21.8616983,230.340532 Z" id="Fill-7" fill="#0099B8"></path>
                        <path d="M20.83463,246.718602 L19.2308967,266.049679 C19.2308967,266.049679 14.5797467,267.614251 12.8790133,266.049679 C12.2533633,265.485327 11.2591133,263.823174 10.23253,261.773943 C9.02973,256.384141 9.72004667,252.495481 10.3941967,250.429987 C11.11523,248.250646 11.74088,241.797196 11.74088,241.797196 C11.74088,241.797196 12.4619133,249.39724 12.2533633,251.269196 C12.0448133,253.141152 12.5589133,257.303042 13.2961133,258.030031 C14.0187633,258.755393 15.55783,259.804404 15.55783,259.804404 C15.55783,259.804404 17.32323,258.449635 17.8357133,256.367877 C18.3643633,254.286119 20.4336967,245.121503 20.4336967,245.121503 L20.83463,246.718602 Z" id="Fill-9" fill="#0099B8"></path>
                        <path d="M7.49001667,250.849754 L8.27571667,257.384523 C7.29763333,254.931952 6.60731667,252.60949 6.67198333,251.365314 C6.7512,249.70316 7.55468333,243.49204 8.29188333,238.037182 L7.49001667,250.849754 Z" id="Fill-11" fill="#85E4E0"></path>
                        <path d="M17.5949917,226.274598 C17.161725,228.001807 16.904675,228.969499 16.904675,228.969499 L9.54399167,228.969499 L9.222275,226.290862 L9.222275,226.274598 L17.5949917,226.274598 Z" id="Fill-13" fill="#36D5C7"></path>
                        <path d="M10.83781,226.274598 C10.10546,227.883081 9.54286,228.969499 9.54286,228.969499 L16.90516,228.969499 C16.90516,228.969499 17.15736,227.995301 17.58901,226.274598 L10.83781,226.274598 Z" id="Fill-15" fill="#00978C"></path>
                        <g id="Group-19" transform="translate(0.000000, 349.670330)">
                            <mask id="mask-12" fill="white">
                                <use xlink:href="#path-11"></use>
                            </mask>
                            <g id="Clip-18"></g>
                            <path d="M63.2761717,88.1488 C63.0676217,91.6829099 60.5811883,92.7302945 57.0697883,92.9400967 C53.540605,93.1498989 40.5005717,93.7630418 32.4317883,93.7630418 C24.3646217,93.7630418 0.977921667,93.1498989 0.352271667,92.3123165 C0.0628883333,91.9236132 -0.0971616667,90.0516571 0.0628883333,87.9715253 C0.224555,85.6149099 0.801705,83.0013275 2.004505,82.1133275 C4.28238833,80.4511736 15.8787383,77.949811 18.460555,76.3689758 C21.0439883,74.7865143 30.571005,62.1203165 30.779555,59.005811 C30.988105,55.8750418 25.5981383,0.851569231 25.5981383,0.851569231 C27.9245217,1.28743736 30.3786217,1.5931956 32.8488883,1.78673407 C46.6422883,2.9008 61.3038383,0.851569231 61.3038383,0.851569231 C61.3038383,0.851569231 61.2068383,51.7131516 61.4153883,56.7158769 C61.6077717,61.7007121 63.4847217,84.6146901 63.2761717,88.1488" id="Fill-17" fill="#187DD7" mask="url(#mask-12)"></path>
                        </g>
                        <g id="Group-22" transform="translate(0.000000, 349.670330)">
                            <mask id="mask-14" fill="white">
                                <use xlink:href="#path-13"></use>
                            </mask>
                            <g id="Clip-21"></g>
                            <path d="M63.2761717,88.1488 C63.0676217,91.6829099 60.5811883,92.7302945 57.0697883,92.9400967 C53.540605,93.1498989 40.5005717,93.7630418 32.4317883,93.7630418 C24.3646217,93.7630418 0.977921667,93.1498989 0.352271667,92.3123165 C0.0628883333,91.9236132 -0.0971616667,90.0516571 0.0628883333,87.9715253 C2.053005,87.8739429 4.73182167,87.7763604 6.30322167,87.9064703 C8.998205,88.1146462 20.4668383,88.3244484 20.4668383,88.3244484 C20.4668383,88.3244484 28.1815717,82.8712176 31.3098217,81.6124044 C34.436455,80.3535912 36.5057883,84.5496352 40.4682383,85.5986462 C44.4290717,86.6476571 49.2257217,82.4516132 50.8941217,79.3062066 C52.5625217,76.1591736 48.1829717,73.0121407 47.1402217,70.9141187 C46.0974717,68.8160967 52.5625217,66.0902945 53.6052717,64.2183385 C54.6480217,62.3301187 56.106255,54.3592615 55.8993217,48.9044044 C55.689155,43.4511736 55.063505,10.9529758 55.063505,10.9529758 L39.4254883,7.6124044 C39.4254883,7.6124044 35.5600383,4.0295033 32.8488883,1.78673407 C46.6422883,2.9008 61.3038383,0.851569231 61.3038383,0.851569231 C61.3038383,0.851569231 61.2068383,51.7131516 61.4153883,56.7158769 C61.6077717,61.7007121 63.4847217,84.6146901 63.2761717,88.1488" id="Fill-20" fill="#06569D" style="mix-blend-mode: multiply;" mask="url(#mask-14)"></path>
                        </g>
                        <path d="M64.2549017,344.13269 C64.4311183,345.37524 61.3028683,350.522712 61.3028683,350.522712 L44.8468183,355.686448 L25.598785,350.522712 C23.1123517,346.923547 18.765135,312.262273 18.4612017,305.969833 C18.1556517,299.66113 18.4612017,233.48724 18.4612017,233.48724 L64.2549017,233.48724 L64.287235,235.746273 L64.8805517,274.489745 C64.8805517,274.489745 64.0948517,342.873877 64.2549017,344.13269" id="Fill-23" fill="#FFFFFF"></path>
                        <path d="M64.2549017,344.13269 C64.4311183,345.37524 61.3028683,350.522712 61.3028683,350.522712 L44.8468183,355.686448 C44.8468183,355.686448 44.8468183,351.700207 46.4990517,350.522712 C48.1674517,349.327327 49.305585,348.714185 51.2148683,346.825965 C53.122535,344.955635 57.0688183,331.272954 57.0688183,331.272954 L55.4004183,298.532426 L53.5412517,259.756426 L51.2148683,248.557218 C51.2148683,248.557218 27.955885,242.765701 18.4612017,233.48724 L31.8876183,234.76069 C31.8876183,234.76069 47.734185,239.021789 52.5130517,238.215108 C55.9775683,237.634492 61.527585,236.391943 64.287235,235.746273 L64.8805517,274.489745 C64.8805517,274.489745 64.0948517,342.873877 64.2549017,344.13269" id="Fill-25" fill="#DADADA"></path>
                        <g id="Group-29" transform="translate(38.800000, 0.000000)">
                            <mask id="mask-16" fill="white">
                                <use xlink:href="#path-15"></use>
                            </mask>
                            <g id="Clip-28"></g>
                            <path d="M0.159726667,67.1401187 C0.159726667,67.1401187 5.11966,29.3171736 6.67166,23.3825363 C8.22366,17.4478989 11.35191,7.15945934 15.5196767,4.01893187 C20.2209433,0.47669011 36.15481,-0.508892308 42.5293267,3.23827253 C48.1019767,6.51541538 51.2205267,21.4845582 52.7725267,36.0194593 C54.3245267,50.5543604 56.6525267,65.526756 56.6525267,65.526756 C56.6525267,65.526756 38.5199933,75.7794154 22.9062267,75.6590637 C7.29246,75.5387121 0.159726667,67.1401187 0.159726667,67.1401187" id="Fill-27" fill="#FFFFFF" mask="url(#mask-16)"></path>
                        </g>
                    </g>
                    <g id="Group-55" transform="translate(52.000000, 16.000000)">
                        <g id="Group-33">
                            <mask id="mask-18" fill="white">
                                <use xlink:href="#path-17"></use>
                            </mask>
                            <g id="Clip-32"></g>
                            <path d="M-0.450257143,15.7040714 C-0.450257143,15.7040714 0.187647619,32.8965714 2.36526667,35.4183571 C4.54288571,37.9417857 10.4588857,46.9265714 15.7434571,47.3964286 C21.0296476,47.8646429 29.2641238,41.5478571 31.7461238,36.6554286 C34.2297429,31.763 35.4634571,19.4596429 34.8368857,14.4111429 C34.2103143,9.36428571 31.2474571,-1.04321429 31.2474571,-1.04321429 C31.2474571,-1.04321429 2.9546,-3.22657143 1.55898095,1.82192857 C0.163361905,6.87042857 -0.450257143,15.7040714 -0.450257143,15.7040714" id="Fill-31" fill="#AC6D6C" mask="url(#mask-18)"></path>
                        </g>
                        <g id="Group-36">
                            <mask id="mask-20" fill="white">
                                <use xlink:href="#path-19"></use>
                            </mask>
                            <g id="Clip-35"></g>
                            <path d="M34.4343905,25.0189071 L34.4020095,25.4427643 L33.3901048,37.7822643 L22.6606762,49.0292643 L22.6444857,49.0456929 L21.9693429,49.7619786 L21.2942,49.6486214 L15.3344857,48.65305 L7.84962857,47.4143357 C7.84962857,47.4143357 2.54886667,44.2206214 1.07067619,39.2164786 C-0.407514286,34.2123357 -0.8738,26.4366929 -0.8738,26.4366929 C-0.8738,26.4366929 -0.503038095,26.4531214 0.123533333,26.46955 C2.3562,26.5681214 7.68772381,26.6174071 9.84105714,25.3606214 C10.4676286,24.98605 11.2059143,24.6607643 11.9782,24.39955 C13.0694381,24.00855 14.2740095,23.7309071 15.3830571,23.6011214 C16.909819,23.4056214 18.3070571,23.4861214 19.1570571,23.9428357 C21.0853429,24.9384071 26.5156286,26.4366929 26.5156286,26.4366929 L34.2579143,25.0517643 L34.4343905,25.0189071 Z" id="Fill-34" fill="#58BAD3" mask="url(#mask-20)"></path>
                        </g>
                        <g id="Group-39">
                            <mask id="mask-22" fill="white">
                                <use xlink:href="#path-21"></use>
                            </mask>
                            <g id="Clip-38"></g>
                            <path d="M34.4020095,25.4432571 L33.3901048,37.7811143 L22.6606762,49.0281143 L22.6444857,49.0445429 C22.1782,49.3057571 21.7281048,49.5012571 21.2942,49.6474714 L15.3344857,48.6535429 C15.0948667,48.1968286 15.206581,47.7253286 15.7360095,47.3984 C17.487819,46.3551857 21.8883905,44.9702571 24.2829619,42.2809 C26.6597238,39.6079714 28.0893429,37.0812571 28.0893429,37.0812571 C28.0893429,37.0812571 30.1779143,31.8816143 29.8719143,30.0564 C29.5675333,28.2476143 26.8362,28.5729 26.8362,28.5729 C26.8362,28.5729 23.4961048,28.4907571 22.8047714,29.1922571 C22.0972476,29.9085429 20.3956286,32.0278286 20.0896286,31.4906143 C19.7852476,30.9353286 20.0734381,29.5175429 19.4630571,28.2476143 C18.8364857,26.9908286 19.7690571,27.7728286 18.6762,26.4371857 C17.5833429,25.1015429 14.7402952,24.2209714 14.7402952,24.2209714 L15.3830571,23.6016143 C16.909819,23.4061143 18.3070571,23.4866143 19.1570571,23.9433286 C21.0853429,24.9372571 26.5156286,26.4371857 26.5156286,26.4371857 L34.2579143,25.0522571 L34.4020095,25.4432571 Z" id="Fill-37" fill="#0099B8" mask="url(#mask-22)"></path>
                        </g>
                        <g id="Group-42">
                            <mask id="mask-24" fill="white">
                                <use xlink:href="#path-23"></use>
                            </mask>
                            <g id="Clip-41"></g>
                            <path d="M3.86531429,29.3875929 C3.72121905,30.7396643 3.59331429,32.46795 3.59331429,33.4618786 C3.59331429,35.1901643 4.13893333,39.68995 4.13893333,39.68995 L4.13893333,41.0255929 L0.717885714,33.2187357 L0.539790476,29.5830929 L0.363314286,29.5830929 L0.12207619,26.4698786 C2.35474286,26.56845 7.68788571,26.6160929 9.84121905,25.36095 C10.4677905,24.9863786 11.2060762,24.6610929 11.9783619,24.3998786 L12.2341714,24.38345 L7.41588571,29.1920929 L3.86531429,29.3875929 Z" id="Fill-40" fill="#0099B8" mask="url(#mask-24)"></path>
                        </g>
                        <g id="Group-45">
                            <mask id="mask-26" fill="white">
                                <use xlink:href="#path-25"></use>
                            </mask>
                            <g id="Clip-44"></g>
                            <path d="M11.3731619,31.2461571 C11.7212571,30.9734429 13.1589714,29.9055857 13.1589714,29.9055857 L13.9377333,29.9055857 L12.2652571,31.2461571 C12.2652571,31.2461571 11.3731619,31.6404429 10.9845905,32.1924429 C10.596019,32.7444429 10.392019,32.0150143 11.3731619,31.2461571" id="Fill-43" fill="#85E4E0" mask="url(#mask-26)"></path>
                        </g>
                        <g id="Group-48">
                            <mask id="mask-28" fill="white">
                                <use xlink:href="#path-27"></use>
                            </mask>
                            <g id="Clip-47"></g>
                            <path d="M11.140019,29.3530929 C11.2258286,29.5863786 13.1589714,28.4856643 13.1589714,28.4856643 C13.1589714,28.4856643 13.9377333,28.5645214 14.0931619,28.2490929 C14.2485905,27.9336643 14.0154476,27.3028071 13.0828762,27.77595 C12.1503048,28.2490929 10.9068762,28.7222357 11.140019,29.3530929" id="Fill-46" fill="#85E4E0" mask="url(#mask-28)"></path>
                        </g>
                        <g id="Group-51">
                            <mask id="mask-30" fill="white">
                                <use xlink:href="#path-29"></use>
                            </mask>
                            <g id="Clip-50"></g>
                            <path d="M-0.450257143,7.58523571 C-0.450257143,7.58523571 6.39831429,4.82523571 10.9834571,3.87895 C15.570219,2.93266429 28.3963143,3.62266429 33.3943143,6.24466429 C38.3923143,8.86666429 35.3128857,-6.45297857 30.5723143,-7.87240714 C25.8301238,-9.29183571 13.394219,-9.76662143 13.394219,-9.76662143 C13.394219,-9.76662143 4.06688571,-7.00497857 1.9686,-3.85069286 C-0.129685714,-0.696407143 -1.91873333,3.09037857 -1.91873333,3.09037857 L-0.450257143,7.58523571 Z" id="Fill-49" fill="#36D5C7" mask="url(#mask-30)"></path>
                        </g>
                        <g id="Group-54">
                            <mask id="mask-32" fill="white">
                                <use xlink:href="#path-31"></use>
                            </mask>
                            <g id="Clip-53"></g>
                            <path d="M-0.130171429,6.40287143 C0.180685714,6.24515714 4.14411429,3.9583 6.63097143,3.01201429 C9.11782857,2.06408571 15.696019,1.51208571 15.696019,1.51208571 L23.6536381,1.90637143 L28.7066857,3.64122857 L33.3938286,5.0623 L33.3938286,-2.03648571 L22.7210667,-7.40041429 L8.88468571,-5.50784286 L1.26868571,-1.0902 L-1.42864762,2.45837143 L-0.130171429,6.40287143 Z" id="Fill-52" fill="#00978C" mask="url(#mask-32)"></path>
                        </g>
                    </g>
                    <g id="Group-108" transform="translate(14.000000, 24.000000)">
                        <path d="M78.0401081,13.0128372 L69.8055135,13.2846977 L69.6125405,7.34772093 L77.5730811,7.08562791 C78.1406486,7.06609302 78.6255135,7.49423256 78.6806486,8.06237209 L79.039027,11.8749302 C79.0957838,12.4707442 78.6384865,12.9933023 78.0401081,13.0128372" id="Fill-56" fill="#36D5C7"></path>
                        <path d="M74.401027,7.18948837 L69.6123784,7.34739535 L69.806973,13.2843721 L75.2685946,13.1036744 C75.0691351,11.7590233 74.666973,9.03553488 74.401027,7.18948837" id="Fill-58" fill="#00978C"></path>
                        <path d="M29.0953514,13.9762326 L37.3299459,14.248093 L37.5245405,8.31111628 L29.5623784,8.04902326 C28.9948108,8.03111628 28.5099459,8.45925581 28.4564324,9.02576744 L28.0964324,12.8383256 C28.0412973,13.4357674 28.4985946,13.9566977 29.0953514,13.9762326" id="Fill-60" fill="#36D5C7"></path>
                        <path d="M71.3945405,17.2820233 C70.9923784,17.7183023 65.2972432,18.7683023 61.741027,18.7683023 C60.7761622,18.7683023 59.9718378,18.703186 59.4561622,18.5094651 C59.0053514,18.3483023 58.5399459,18.1220233 58.0567027,17.863186 C57.4615676,17.5734186 56.834,17.233186 56.2064324,16.9092326 C55.1118378,16.376907 53.9864324,15.9259767 52.8918378,15.8608605 L52.6826486,15.8608605 C52.3129189,15.8608605 51.9431892,15.9096977 51.5896757,16.0220233 C50.1091351,16.4583023 49.0307568,17.3145814 47.7756216,18.056907 C46.8107568,18.6217907 45.7485946,19.123186 44.3491351,19.3006279 C43.4799459,19.4145814 42.4988649,19.4617907 41.5177838,19.4617907 C38.7658919,19.4617907 35.9977838,19.0743488 35.6929189,18.5094651 L35.4837297,17.2820233 C35.4837297,17.2820233 34.1312973,4.5062093 35.4837297,3.05248837 C36.5458919,1.89016279 46.4572432,0.775046512 53.7285946,0.66272093 C54.1307568,0.64644186 54.5329189,0.64644186 54.9188649,0.64644186 C56.0604865,0.64644186 57.1242703,0.679 58.0404865,0.742488372 C58.2658919,0.758767442 58.4750811,0.775046512 58.6680541,0.791325581 C59.6329189,0.889 60.6302162,1.00132558 61.5967027,1.13155814 C62.3037297,1.22760465 62.9799459,1.32365116 63.6561622,1.43760465 C68.354,2.17993023 72.326973,3.21365116 72.3918378,3.61737209 C72.5053514,4.16760465 71.9085946,16.7171395 71.3945405,17.2820233" id="Fill-62" fill="#DAECFF"></path>
                        <path d="M58.0406486,0.743139535 L52.892,15.8615116 L52.6828108,15.8615116 C52.3130811,15.8615116 51.9433514,15.9087209 51.5882162,16.0226744 C50.1076757,16.4589535 49.0309189,17.3136047 47.7757838,18.0575581 L53.7287568,0.661744186 C54.1309189,0.645465116 54.5330811,0.645465116 54.919027,0.645465116 C56.0606486,0.645465116 57.1244324,0.678023256 58.0406486,0.743139535" id="Fill-64" fill="#FFFFFF"></path>
                        <path d="M63.6553514,1.43776744 L58.0558919,17.8633488 C57.4607568,17.5735814 56.8331892,17.2333488 56.2056216,16.9093953 L61.5958919,1.13172093 C62.3045405,1.22776744 62.9791351,1.32381395 63.6553514,1.43776744" id="Fill-66" fill="#FFFFFF"></path>
                        <path d="M54.9185405,0.644488372 C47.5758378,0.644488372 36.6088108,1.82797674 35.4785405,3.05053488 C34.1293514,4.50913953 35.4785405,17.2784419 35.4785405,17.2784419 L35.6861081,18.5123953 C35.990973,19.0772791 38.7688108,19.4663488 41.5158378,19.4663488 C42.5034054,19.4663488 43.4877297,19.4158837 44.3520541,19.305186 C47.6212432,18.8884419 48.9720541,16.8047209 51.5893514,16.0200698 C51.9477297,15.9126279 52.310973,15.8654186 52.6774595,15.8654186 C54.9817838,15.8654186 57.3963784,17.7586744 59.4558378,18.5123953 C59.965027,18.6979767 60.7725946,18.7744884 61.7374595,18.7744884 C65.3017838,18.7744884 70.9839459,17.7261163 71.3942162,17.2784419 C71.9115135,16.7103023 72.4969189,4.16565116 72.3947568,3.62193023 C72.290973,3.0782093 65.1655676,1.38355814 58.6758378,0.784488372 C57.6234054,0.68844186 56.3390811,0.644488372 54.9185405,0.644488372 M54.9201622,2.25937209 L54.9201622,2.25937209 C56.3455676,2.25937209 57.5601622,2.30495349 58.5282703,2.39448837 C63.7498919,2.87472093 68.9342162,4.02565116 70.790973,4.61983721 C70.7293514,7.11704651 70.3547568,13.916814 70.0401622,16.0819302 C68.5207027,16.4872791 64.5039459,17.1596047 61.7374595,17.1596047 C60.5504324,17.1596047 60.1125946,17.0326279 60.0071892,16.9935581 C59.4023243,16.7737907 58.7131351,16.4123953 57.9817838,16.0282093 C56.390973,15.1947209 54.5877297,14.2505349 52.6774595,14.2505349 C52.1439459,14.2505349 51.6217838,14.3254186 51.1304324,14.4735581 C49.8120541,14.8675116 48.8147568,15.5040233 47.8515135,16.121 C46.6871892,16.8649535 45.6817838,17.5079767 44.1493514,17.7033256 C43.3920541,17.7993721 42.4823243,17.8498372 41.5158378,17.8498372 C39.4547568,17.8498372 37.8882703,17.6333256 37.1390811,17.451 L37.0742162,17.0586744 C36.530973,11.8900698 36.2715135,5.69913953 36.7093514,4.17053488 C38.5742162,3.34193023 47.6731351,2.25937209 54.9201622,2.25937209" id="Fill-68" fill="#36D5C7"></path>
                        <path d="M25.1061622,42.784814 C25.1061622,42.784814 34.7515676,51.5038837 50.011027,50.5662093 C65.2688649,49.6285349 81.7721081,41.1699302 81.7721081,41.1699302 C81.7721081,41.1699302 68.2267027,52.5978372 49.544,52.5978372 C30.8596757,52.5978372 25.1061622,42.784814 25.1061622,42.784814" id="Fill-70" fill="#B6B7B6"></path>
                        <path d="M102.011405,206.43 C102.011405,206.43 99.2124865,213.115814 97.0232973,213.262326 C94.8519459,213.39093 77.4114054,217.185581 69.6243784,215.845814 C61.8373514,214.489767 44.3481622,215.764419 44.3481622,215.764419 C44.3481622,215.764419 43.8827568,215.782326 43.0784324,215.796977 C42.8368108,215.782326 42.5627568,215.796977 42.2578919,215.796977 C39.5870811,215.829535 34.7919459,215.878372 30.398973,215.764419 C28.2276216,215.717209 24.6551892,214.974884 20.858973,214.02093 C13.1854595,212.098372 4.54545946,209.288605 4.54545946,209.288605 C1.58437838,205.944884 0.313027027,203.328837 0.201135135,203.086279 L0.184918919,203.07 C0.184918919,203.07 2.37248649,187.176744 3.91789189,181.12093 C5.47789189,175.063488 7.66545946,137.156047 7.34437838,123.913023 C7.03951351,110.668372 7.66545946,92.1427907 11.7049189,71.8086047 C15.758973,51.4581395 25.106,42.7846512 25.106,42.7846512 L81.7719459,41.1697674 L91.118973,46.095814 C91.118973,46.095814 92.486,65.2676744 93.2919459,80.902093 C93.6616757,87.7181395 93.9195135,93.8553488 93.9195135,97.44 C93.9195135,109.296047 92.6805946,165.292791 96.0908649,178.148372 C99.5173514,191.005581 102.011405,206.43 102.011405,206.43" id="Fill-72" fill="#FFFFFF"></path>
                        <path d="M96.091027,178.149186 C92.6791351,165.293605 93.9196757,109.29686 93.9196757,97.440814 C93.9196757,93.8545349 93.6618378,87.7173256 93.2904865,80.9012791 C89.4618378,69.8380233 86.2283243,61.3110465 86.2283243,61.3110465 C82.4791351,67.689186 81.6748108,88.3147674 81.6748108,88.3147674 C81.6748108,88.3147674 82.9153514,110.167791 83.5412973,123.767326 C84.1526486,137.38314 81.6748108,172.059186 81.6748108,172.059186 C81.6748108,172.059186 77.9256216,188.743605 77.7164324,193.524767 C77.5250811,198.322209 81.6748108,207.318023 81.6748108,207.318023 C81.6748108,207.318023 76.0591351,210.209186 72.536973,209.88686 C71.2461622,209.768023 69.116973,210.031744 66.7672432,210.471279 L66.7672432,210.469651 C66.7672432,210.469651 47.6758919,211.715 43.2634595,211.088256 C38.8526486,210.464767 28.2131892,209.683372 27.7542703,209.883605 C27.7542703,209.883605 33.1948108,211.088256 34.7515676,211.936395 C36.1753514,212.709651 50.1618378,213.831279 53.0775135,213.998953 C49.2715676,214.931744 44.3483243,215.765233 44.3483243,215.765233 C44.3483243,215.765233 61.8375135,214.488953 69.6245405,215.846628 C77.4115676,217.186395 94.8521081,213.390116 97.0234595,213.261512 C99.2126486,213.116628 102.011568,206.430814 102.011568,206.430814 C102.011568,206.430814 99.5175135,191.004767 96.091027,178.149186" id="Fill-74" fill="#DADADA"></path>
                        <path d="M37.3982162,213.262 C37.3982162,213.262 24.7203784,213.810605 20.8592973,214.020605 C13.1841622,212.099674 4.54416216,209.288279 4.54416216,209.288279 C1.5847027,205.944558 0.313351351,203.328512 0.201459459,203.087581 C0.666864865,203.281302 8.05172973,206.558279 10.4663243,207.318512 C12.9587568,208.125953 19.1857838,210.774558 19.1857838,210.774558 L28.9836216,212.503395 L37.3982162,213.262 Z" id="Fill-76" fill="#DADADA"></path>
                        <path d="M41.8228108,195.851047 C41.0347027,200.61593 40.3584865,204.734535 40.7444324,206.139419 C41.5179459,208.965465 42.7082162,214.101512 43.0779459,215.797791 C42.8363243,215.781512 42.5638919,215.797791 42.2574054,215.797791 C41.839027,213.956628 40.712,209.077791 39.9725405,206.349419 C39.5379459,204.767093 40.1979459,200.777093 41.0347027,195.720814 C42.0968649,189.245 43.4152432,181.185233 43.0617297,174.691512 C42.692,167.795698 42.0968649,145.652907 41.6298378,127.853372 C41.2925405,115.756395 41.0184865,105.32314 40.8903784,102.78686 C40.5838919,96.5682558 47.2455135,53.1047674 47.5179459,51.2473256 L48.3222703,51.3775581 C48.259027,51.8301163 41.3882162,96.617093 41.6947027,102.754302 C41.8228108,105.290581 42.0968649,115.723837 42.4341622,127.837093 C42.9011892,145.620349 43.4963243,167.76314 43.8660541,174.644302 C44.2211892,181.23407 42.9011892,189.341047 41.8228108,195.851047" id="Fill-78" fill="#B6B7B6"></path>
                        <path d="M99.3088108,209.288442 C99.3088108,209.288442 96.4125946,251.459372 95.5758378,261.474256 C94.7552973,271.471233 91.0061081,322.12193 90.7969189,323.365651 C90.5893514,324.625651 88.7228649,328.161465 88.7228649,328.161465 C88.7228649,328.161465 71.2823243,327.953093 65.8920541,328.161465 C62.3034054,328.307977 57.5569189,326.966581 54.7742162,326.061465 C53.3747568,325.594256 52.4731351,325.239372 52.4731351,325.239372 C52.4731351,325.239372 49.2882703,319.828209 49.2882703,319.198209 C49.2882703,318.568209 43.2704324,209.288442 43.2704324,209.288442 L99.3088108,209.288442 Z" id="Fill-80" fill="#FFFFFF"></path>
                        <path d="M99.3088108,209.288442 C99.3088108,209.288442 96.4125946,251.459372 95.5758378,261.474256 C94.7552973,271.471233 91.0061081,322.12193 90.7969189,323.365651 C90.5893514,324.625651 88.7228649,328.161465 88.7228649,328.161465 C88.7228649,328.161465 71.2823243,327.953093 65.8920541,328.161465 C62.3034054,328.307977 57.5569189,326.966581 54.7742162,326.061465 L52.3936757,321.70193 C52.3936757,321.70193 58.4098919,323.818209 61.9498919,324.317977 C65.4736757,324.819372 72.1174595,323.155651 74.4039459,322.944023 C76.6871892,322.734023 80.6293514,320.65193 80.6293514,320.65193 C80.6293514,320.65193 88.3207027,287.734023 89.3488108,275.638674 C90.3947568,263.556349 92.0520541,235.582395 92.0520541,235.582395 L87.4839459,220.90193 C87.4839459,220.90193 54.7904324,221.36914 44.3488108,215.765884 C44.3488108,215.765884 63.8163784,210.305884 71.2823243,210.564721 C74.3066486,210.660767 80.1623243,210.064953 86.0828649,209.288442 L99.3088108,209.288442 Z" id="Fill-82" fill="#DADADA"></path>
                        <path d="M91.0067568,405.381233 C91.0067568,405.381233 88.9148649,418.609605 88.0781081,418.819605 C87.2413514,419.029605 81.5948649,419.239605 73.2435135,419.867977 C65.9883784,420.403558 57.9597297,419.223326 55.6748649,417.802163 L55.6602703,417.785884 C55.3051351,417.575884 55.0959459,417.365884 55.0472973,417.139605 C54.6289189,415.459605 53.7937838,404.541233 53.7937838,404.541233 C53.7937838,404.541233 56.93,391.94286 56.93,390.69914 C56.93,389.440767 56.93,373.692395 56.5116216,370.124023 C56.0932432,366.552395 52.4737838,325.239372 52.4737838,325.239372 L88.7218919,328.161465 C88.7218919,328.161465 86.1954054,357.960302 85.9862162,362.160302 C85.777027,366.344023 86.1954054,384.400767 86.4062162,387.550767 C86.6154054,390.69914 91.0067568,405.381233 91.0067568,405.381233" id="Fill-84" fill="#187DD7"></path>
                        <path d="M91.0067568,405.381233 C91.0067568,405.381233 88.9148649,418.609605 88.0781081,418.819605 C87.2413514,419.029605 81.5948649,419.239605 73.2435135,419.867977 C65.9883784,420.403558 57.9597297,419.223326 55.6748649,417.802163 L55.6602703,417.785884 L55.0472973,417.139605 C55.0472973,417.139605 68.0154054,418.399605 72.6175676,416.929605 C77.2181081,415.459605 82.6408108,408.739605 82.6408108,408.739605 L80.7581081,394.04286 L72.8267568,387.760767 L78.0548649,385.240767 L79.2937838,336.335186 C79.2937838,336.335186 75.3354054,333.411465 67.3878378,331.731465 C59.4402703,330.053093 52.4737838,325.239372 52.4737838,325.239372 L88.7218919,328.161465 C88.7218919,328.161465 86.1954054,357.960302 85.9862162,362.160302 C85.777027,366.344023 86.1954054,384.400767 86.4062162,387.550767 C86.6154054,390.69914 91.0067568,405.381233 91.0067568,405.381233" id="Fill-86" fill="#2D50A1"></path>
                        <path d="M118.358162,183.979535 C117.746811,199.872791 115.896541,203.07 115.896541,203.07 L112.453838,206.43 C112.453838,206.43 104.344108,207.253721 96.668973,206.123953 C94.6273514,205.832558 92.6149189,205.396279 90.7970811,204.766279 C90.7970811,204.766279 87.9332973,203.086279 87.5149189,202.068837 C87.0981622,201.051395 86.8565405,164.387674 87.6916757,151.030698 C88.5122162,137.673721 85.4084324,85.4895349 85.4084324,76.0574419 C85.4084324,66.6074419 86.2451892,52.0393023 91.1197838,46.095814 C91.1197838,46.095814 103.458703,60.4230233 106.580324,66.85 C107.224108,68.1588372 107.884108,70.2734884 108.544108,72.8260465 C111.101405,82.775814 113.563027,99.6376744 113.88573,103.819767 C114.287892,109.102326 118.98573,168.086279 118.358162,183.979535" id="Fill-88" fill="#FFFFFF"></path>
                        <path d="M118.358162,183.979535 C117.746811,199.872791 115.896541,203.07 115.896541,203.07 L112.453838,206.43 C112.453838,206.43 104.344108,207.253721 96.668973,206.123953 C98.0376216,205.865116 99.5343784,205.428837 99.308973,204.766279 C98.9068108,203.587674 100.612757,203.410233 100.612757,203.410233 C100.612757,203.410233 108.398162,202.972326 110.104108,200.227674 C111.82627,197.497674 114.04627,186.854419 115.268973,182.493256 C116.491676,178.115814 114.608973,158.362791 114.608973,158.362791 C114.608973,158.362791 111.82627,101.397442 110.731676,94.5016279 C109.992216,89.8002326 109.058162,79.1244186 108.544108,72.8260465 C111.101405,82.775814 113.563027,99.6376744 113.88573,103.819767 C114.287892,109.102326 118.98573,168.086279 118.358162,183.979535" id="Fill-90" fill="#DADADA"></path>
                        <path d="M98.0118378,114.760116 C99.3237297,125.881977 103.001568,136.712442 108.674,146.352907 C110.294,149.107326 112.077784,151.765698 114.015622,154.305233 C114.367514,154.76593 116.112378,156.555 117.614,158.199186 C116.388054,135.455698 114.156703,107.388953 113.885892,103.820581 C113.819405,102.967558 113.660486,101.567558 113.435081,99.8240698 C109.736162,101.300581 106.037243,102.773837 102.341568,104.258488 C96.7777838,106.491977 97.3307568,108.992442 98.0118378,114.760116" id="Fill-92" fill="#DADADA"></path>
                        <path d="M113.885243,224.567488 C113.690649,226.055395 111.97173,238.370512 111.340919,241.193302 C110.708486,244.016093 106.946324,249.062605 106.946324,249.062605 C106.946324,249.062605 103.202,249.90586 100.527946,250.211907 C99.4738919,250.335628 98.5982162,250.366558 98.1603784,250.242837 C96.5874054,249.798419 93.6068649,247.866093 93.6068649,247.866093 L95.1133514,241.945395 L95.1133514,241.930744 L95.4701081,240.548651 L96.5874054,236.146791 C96.5874054,236.146791 97.3836216,220.85586 97.3836216,219.213302 C97.3836216,217.987488 96.3944324,212.00493 95.9079459,209.167488 C95.8106486,208.584698 95.7295676,208.124 95.6971351,207.879814 C95.6647027,207.725163 95.6484865,207.648651 95.6484865,207.648651 L96.734973,207.772372 L99.6522703,208.109349 L112.279838,209.566326 C112.279838,209.566326 114.079838,223.079581 113.885243,224.567488" id="Fill-94" fill="#58BAD3"></path>
                        <path d="M98.1607027,250.242837 C96.5877297,249.798419 93.6055676,247.866093 93.6055676,247.866093 L95.1136757,241.945395 L95.1136757,247.374465 C95.1136757,247.374465 96.3785405,249.354 98.1607027,250.242837" id="Fill-96" fill="#85E4E0"></path>
                        <path d="M95.8067568,240.595372 C95.8067568,240.595372 97.8451351,241.782116 100.042432,241.039791 C102.238108,240.297465 102.708378,236.587465 102.552703,232.875837 C102.395405,229.165837 100.67,219.665372 100.67,219.665372 L95.8067568,240.595372 Z" id="Fill-98" fill="#0099B8"></path>
                        <path d="M100.819676,233.018605 C100.511568,236.147442 98.1602162,240.749535 96.5888649,240.886279 C96.1672432,240.933488 95.7942703,240.795116 95.4699459,240.549302 C95.0645405,240.274186 94.7077838,239.82814 94.4012973,239.352791 L94.4012973,239.33814 C94.0121081,238.753721 93.7023784,238.096047 93.4591351,237.620698 C92.8283243,236.438837 91.7256216,226.054419 91.7256216,224.56814 C91.7256216,223.43186 91.4985946,214.642791 91.4012973,210.486744 C91.3850811,210.410233 91.3850811,210.363023 91.3850811,210.363023 C91.3526486,209.106279 91.3364324,208.308605 91.3364324,208.308605 L95.696973,207.878837 L96.7348108,207.771395 L99.571027,207.496279 L99.6521081,208.11 L99.944,210.302791 L100.981838,218.186744 C100.981838,218.186744 101.144,229.904419 100.819676,233.018605" id="Fill-100" fill="#58BAD3"></path>
                        <path d="M113.885243,224.567488 C113.690649,226.055395 111.97173,238.370512 111.340919,241.193302 C110.708486,244.016093 106.946324,249.062605 106.946324,249.062605 C106.946324,249.062605 103.202,249.90586 100.527946,250.211907 C101.45227,249.246558 102.845243,247.560047 103.802,245.350977 C105.277676,242.005628 106.459838,237.620047 106.607405,237.097488 L105.212811,246.239814 C105.212811,246.239814 109.605784,241.193302 109.767946,237.037256 C109.930108,232.879581 110.400378,217.297256 110.400378,217.297256 L109.605784,213.877023 C109.605784,213.877023 105.099297,211.928419 99.9441622,210.30214 C98.6306486,209.888651 97.2538919,209.489814 95.9079459,209.167488 C94.3203784,208.768651 92.7636216,208.460977 91.3365946,208.307953 L95.6971351,207.879814 C95.6647027,207.725163 95.6484865,207.648651 95.6484865,207.648651 L96.734973,207.772372 L99.5711892,207.495628 L99.6522703,208.109349 L112.279838,209.566326 C112.279838,209.566326 114.079838,223.079581 113.885243,224.567488" id="Fill-102" fill="#0099B8"></path>
                        <path d="M94.4004865,239.337977 C94.0112973,238.755186 93.7031892,238.095884 93.4599459,237.620535 C92.8275135,236.438674 91.7264324,226.054256 91.7264324,224.567977 C91.7264324,223.431698 91.4977838,214.644256 91.4021081,210.486581 C91.5480541,211.714023 92.714,221.668674 92.714,224.904953 C92.714,228.370767 94.0761622,237.542395 94.4004865,239.337977" id="Fill-104" fill="#85E4E0"></path>
                        <path d="M112.453676,206.43 L112.293135,209.676047 C111.582865,209.772093 110.859622,209.778605 110.144486,209.780233 C106.823405,209.788372 103.494216,209.506744 100.186108,209.23 C98.4493514,209.085116 96.7125946,208.925581 94.9774595,208.756279 C94.2396216,208.684651 93.5017838,208.609767 92.7639459,208.533256 C92.1915135,208.474651 91.1439459,208.586977 90.6996216,208.24186 C90.4839459,208.074186 90.3315135,207.836512 90.1985405,207.595581 C89.5969189,206.496744 89.3196216,205.222093 89.4104324,203.97186 C92.0731351,204.658837 94.8623243,204.771163 97.6174595,205.033256 C102.563405,205.498837 107.50773,205.964419 112.453676,206.43" id="Fill-106" fill="#00978C"></path>
                    </g>
                </g>
                <g id="Group-14" transform="translate(44.000000, 85.000000)">
                    <g id="Group-3" transform="translate(19.000000, 0.000000)">
                        <mask id="mask-34" fill="white">
                            <use xlink:href="#path-33"></use>
                        </mask>
                        <g id="Clip-2"></g>
                        <path d="M0.76062,3.961875 L0.04662,2.886875 C2.09482,1.801875 4.24942,0.846875 6.45302,0.044375 L6.98082,1.201875 C4.84162,1.980625 2.74862,2.909375 0.76062,3.961875" id="Fill-1" fill="#007CFF" mask="url(#mask-34)"></path>
                    </g>
                    <path d="M1.24509651,28 L0,27.5506158 C3.13060399,18.9012917 8.73949253,11.4494443 16.2193337,6 L17,7.06794833 C9.73318804,12.3614299 4.28440224,19.5991589 1.24509651,28" id="Fill-4" fill="#007CFF"></path>
                    <path d="M83,42.5006579 C83,64.8682642 64.8685587,83 42.5013159,83 C20.134073,83 2,64.8682642 2,42.5006579 C2,20.1330517 20.134073,2 42.5013159,2 C64.8685587,2 83,20.1330517 83,42.5006579" id="Fill-6" fill="#007CFF"></path>
                    <path d="M77,43 C77,61.7856115 61.7856115,77 43.0013222,77 C34.104336,77 26.0006611,73.5821505 19.9424072,67.9813727 C13.212483,61.7697453 9,52.8740813 9,43 C9,24.2302547 24.2302547,9 43.0013222,9 C52.950768,9 61.8927085,13.2733035 68.11888,20.0785923 C68.1347463,20.0785923 68.1651565,20.0944585 68.1810227,20.1394128 C73.6588373,26.1831227 77,34.1942446 77,43" id="Fill-8" fill="#FFFFFF"></path>
                    <path d="M77,43.0473723 C77,61.8068098 61.8065058,77 43.0480134,77 C34.1632457,77 26.0706998,73.5869126 20.0207658,67.9939384 C14.4276798,61.9441255 11,53.8358973 11,44.9513073 C11,26.207714 26.2080182,11 44.9533069,11 C53.9278598,11 62.0520946,14.4592994 68.1310767,20.1579011 C68.1469211,20.1579011 68.1772896,20.1737452 68.1931341,20.2186368 C73.6634258,26.253926 77,34.253886 77,43.0473723" id="Fill-10" fill="#FFFFFF"></path>
                    <path d="M43.130811,44 C42.6349432,44 42.1390754,43.8121039 41.760718,43.4350246 L25.5675362,27.2965477 C24.8108213,26.5436762 24.8108213,25.3197774 25.5675362,24.5656189 C26.324251,23.8114604 27.5510072,23.8114604 28.3077221,24.5656189 L43.130811,39.3399183 L51.6935692,30.8060873 C52.4502841,30.0519288 53.675749,30.0519288 54.4324638,30.8060873 C55.1891787,31.5589588 55.1891787,32.7815707 54.4324638,33.5357292 L44.5009039,43.4350246 C44.1225465,43.8121039 43.6266787,44 43.130811,44" id="Fill-12" fill="#1A2E35"></path>
                </g>
            </g>
        </g>
    </g>
</svg>