<svg xmlns="http://www.w3.org/2000/svg" viewBox="0 0 300.52 821.26"><defs><style>.cls-1{isolation:isolate;}.cls-2{fill:#fff;}.cls-3{fill:#22366b;}.cls-4{fill:#cfcfcf;}.cls-10,.cls-13,.cls-14,.cls-4,.cls-6,.cls-8{mix-blend-mode:multiply;}.cls-5{fill:#3e3e3e;}.cls-6{fill:#b7c1c6;}.cls-7{fill:#4197e5;}.cls-8{fill:#ddcfc9;}.cls-9{fill:#e3ac81;}.cls-10{fill:#ebe0da;}.cls-11{fill:#f8ba8c;}.cls-12{fill:#793b16;}.cls-13{fill:#eadbd5;}.cls-14{fill:#eadbd8;}.cls-15{fill:#5b2c0b;}.cls-16{fill:#803e19;}.cls-17{fill:#0874b7;}.cls-18{fill:#f7f7f6;}.cls-19{fill:none;stroke:#c6c6c5;stroke-linecap:round;stroke-linejoin:round;stroke-width:0.31px;stroke-dasharray:2.1 4.2;}.cls-20{fill:#9fd6ff;}.cls-21{fill:#c3e5f9;}.cls-22{fill:#dae8ef;}.cls-23{fill:#0071d6;}.cls-24{fill:#2b96f4;}</style></defs><g class="cls-1"><g id="OBJECT"><path class="cls-2" d="M74.76,816.67c24.38-6.46,45.14-11.14,50-14.34,3.3-2.16-.06-10.67-.06-10.67L98.42,778,44,800.84s-1.26,5.41,1,8.59C48.87,814.71,62.51,819.91,74.76,816.67Z"/><path class="cls-2" d="M229.85,816.67c-24.38-6.46-45.14-11.14-50-14.34-3.3-2.16.07-10.67.07-10.67L206.19,778l54.43,22.89s1.28,5.41-1,8.59C255.75,814.71,242.1,819.91,229.85,816.67Z"/><path class="cls-3" d="M230.35,810.76c-24.37-6.46-45.24-11-50-14.34s0-24.86,0-24.86l26.36.48S243.41,793.58,254,795.7C273.12,799.53,250,815.94,230.35,810.76Z"/><path class="cls-4" d="M259.91,798.18A32.37,32.37,0,0,1,240.09,804c-5.9-.33-11.4-2.13-16.83-4.37-5.62-2.32-12.27-4.46-17.26-8-7.22-5.1-10.39-12.88-15.17-19.92l-10.5-.2s-4.78,21.51,0,24.86,25.65,7.88,50,14.34C247,815.16,266.21,804,259.91,798.18Z"/><path class="cls-5" d="M151.24,501.37c6.69,10.52,18.82,59,20.73,119.64,2.06,65.48-1.91,157.25,4.78,161.07,11.27,6.44,37.76-3.34,40.14-10.52-.47-13.85-11.72-207.7-5.27-288.71C174.11,461.11,136,477.44,151.24,501.37Z"/><path class="cls-6" d="M192.37,772.24c-7.83-9.22-7.92-25-9.31-36.42-2.2-18.15.53-35.88-2-54.09-1.64-11.83-5.71-28.62-.39-39.93,1.86-4,7.39-5.72,10.24-8.72,1.9-2-4.26-3.65-5.51-4.37-1.75-1-2.94-3.21-3.69-5-2.32-5.43-1.66-12.55-2.29-18.31-1.07-9.82-1.92-19.66-2.42-29.53-1.17-22.77,3.57-63-24.21-71.58,6.86,14.8,17.4,60.47,19.17,116.69,2.06,65.48-1.91,157.25,4.78,161.07,8,4.57,23.67,1,32.94-4.08C203.3,778.75,197.18,777.91,192.37,772.24Z"/><path class="cls-3" d="M74.76,810.76c24.38-6.46,45.24-11,50-14.34s0-24.86,0-24.86L98.42,772S61.7,793.58,51.11,795.7C32,799.53,55.16,815.94,74.76,810.76Z"/><path class="cls-4" d="M124.78,771.56l-14,.26a15.91,15.91,0,0,1-7.93,19.72c-8.18,4.25-17.56,9-26.58,10.83-10.13,2.11-20.82-1-31-1.25a3.31,3.31,0,0,1-1.3-.28c.2,5.94,16.44,13.71,30.78,9.92,24.38-6.46,45.24-11,50-14.34S124.78,771.56,124.78,771.56Z"/><path class="cls-5" d="M148.05,499.54c-6.69,10.51-15.8,60.78-17.71,121.47-2.06,65.48,3.52,157.25-3.17,161.07-11.27,6.44-37.76-3.34-40.15-10.52.5-14.29,9.72-207.4,3.23-288.83C127.77,461,163.28,475.61,148.05,499.54Z"/><path class="cls-6" d="M148.05,499.54c.49-.78.93-1.54,1.32-2.3-19.23,13-24.76,40.2-27.08,62.34-1.63,15.55-.18,31-1.4,46.53-.47,6.07-.91,13.23-5,18.15-2.58,3.13-5.9,5.3-9.29,7.41,3.52,2.34,7.76,4.3,9.51,8,3.34,7-1.24,11-1,18,.31,10.14,2.64,20.09,2.61,30.27s-1.13,20.53-.92,30.79c.31,15.07,5.45,33.79-3.42,47.48-6,9.23-12.54,10.88-21,10.74,8.9,5.57,26.19,10,34.74,5.13,6.69-3.82,1.11-95.59,3.17-161.07C132.25,560.32,141.36,510.05,148.05,499.54Z"/><path class="cls-5" d="M91.46,487.79c-1.88-13.87-1.47-34.4.56-40.38S205,429.17,208.14,445.72c1.24.06,5.67,19.45,3.48,37.13C208.4,508.94,94.57,510.72,91.46,487.79Z"/><path class="cls-7" d="M208.14,445.72C189.87,459.61,112,460,92,447.41c-6.68-14.59-2.89-126.52-2.89-126.52S73.38,271.14,77.94,266c9.28-10.5,63.53-21.76,63.53-21.76S199.19,257,205.5,266c3.07,4.39-5.13,45-2.83,88.87C205.11,401.27,211.92,429.75,208.14,445.72Z"/><path class="cls-8" d="M191.34,327.68a231.33,231.33,0,0,0,7.64,51c2.09,8.12,3.82,16.33,5.91,24.44a60.72,60.72,0,0,0,2.77,7.91c-1.53-14.81-3.79-33.31-5-56.17-1.38-26.4,1-51.61,2.51-68.46C198,299.31,190.91,313.45,191.34,327.68Z"/><path class="cls-8" d="M151.88,447.47c-25,.9-44.8-11.75-48.75-24.87s-2.84-69.46-4.56-94.13c-1.19-17-7.54-30.54-18.72-41.23,3.54,15.51,9.28,33.65,9.28,33.65S85.34,432.82,92,447.41c14.48,9.16,59.48,11.44,90.06,6.7C171.63,453.67,161.91,447.11,151.88,447.47Z"/><path class="cls-9" d="M166.45,250.41s-7.19,12.72-24.3,12.72a34,34,0,0,1-26.25-12.61s3.23-1.17,7.07-6.31,4.33-12.36,1.38-37.81c-3.65-31.56,28.72-34.23,30.06-6.45-.81,32.2.27,39.67,4.29,45.35C161.46,249.2,166.45,250.41,166.45,250.41Z"/><path class="cls-10" d="M131.57,243.07c1.12-8.51,11-21.63,2.47-29.14a21.86,21.86,0,0,0-9.37-4.66c2.59,23.11,2.1,29.86-1.7,34.94s-7.07,6.31-7.07,6.31A39.77,39.77,0,0,0,136.25,262C132.41,257.22,130.58,250.66,131.57,243.07Z"/><path class="cls-11" d="M209.93,114.71c-2.39-.42-5.66.56-8.78,2.52.21-8.64.35-17.75.49-27.38.49-34.42-35.73-51.47-65.7-47.94C98.51,46.31,73.25,61.56,74.06,92c.21,8,.65,19.35,1.48,31.85-4.05-2.44-8.53-3.47-11.41-2.55-7.42,2.39-8.14,11.46-4.07,23.5S72.74,164.94,79.49,163c1.81,12.55,3.86,19.76,7.32,28.14,5.81,14.06,31,34.87,51.78,34.87,25.34,0,50.75-26.93,54.12-38.39,2.88-9.81,5-16.63,6.31-29.67a4.41,4.41,0,0,0,.7.23c7,1.34,14.68-8,17.23-20.71C219.46,124.93,217.59,116,209.93,114.71Z"/><path class="cls-10" d="M104.11,204.85c-4.75-5.83-10.86-15.29-12.65-22.57-2.06-8.38-8.53-22.59-8.53-22.59s-16.33-2.78-18.66-16.9c-.26-1.59-4.34-16.93-4.49-18.52-3.13,4.12-2.77,11.47.28,20.49,4.09,12.05,12.68,20.18,19.43,18.19,1.81,12.55,3.86,19.76,7.32,28.14,5.17,12.51,25.71,30.35,44.78,34.14C121.06,220.11,111.49,213.91,104.11,204.85Z"/><path class="cls-10" d="M201.5,99c-3.73-10.17-2.38-20-11.22-22.37-5.73-1.53-31.77,21-37.47,19.43-12.69-3.62-23.34-8.25-33.41-16.8-3.08-2.62-8.78-7.33-12.74-3.44-2.54,2.5-8.6-2.78-10,.45-3.34,7.58-8-2.14-13.28,4.39-1.63,2-4,13.07-5.9,14.79-2.92,2.65,4.72,23.88,5.06,27.4a138.43,138.43,0,0,1,.26,16.79c.26-.32,2.58,2.77,2.85,2.44,4.72-5.83,3.59-17.27,2.3-24.43-2.68-14.89,8.87-26.52,8.87-26.52A40.69,40.69,0,0,0,110.14,101a111.61,111.61,0,0,0,39,9.08c17.48.86,34.48-11.6,38.06-7.48s.77,28.76.77,28.76S204.16,106.23,201.5,99Z"/><path class="cls-12" d="M98.78,86s0-25.24-8.2-37.2C84.69,41.45,68,68.91,68,68.91S57.59,85.3,65.27,122c17-2.15,17.19,12.3,18.16,21.79,1.71-1.77,4.84-4.83,4.84-4.83a71.19,71.19,0,0,1-4.9-28.39C85.83,87.44,98.78,86,98.78,86Z"/><path class="cls-12" d="M191.32,86.91s5.14,19.44,1.54,30.7a139.3,139.3,0,0,1-4.07,16.59l5.33,5.11c.45-7.73.08-21.7,14.35-24.68,3.57-9.57-4.35-40.33-4.35-40.33Z"/><path class="cls-12" d="M116.18,118.57c-.55.85-4.66-1.76-9.31-1.25-8.44.91-11.62,6.12-11.62,6.12a14.08,14.08,0,0,1,11.6-11.31c5.75-1,8.87.25,9.93,1.21S116.72,117.72,116.18,118.57Z"/><path class="cls-10" d="M118.22,181.05c2.2,27.6,37.36,27.11,37.36,0Z"/><path class="cls-13" d="M78.58,338.22c-2.25,8.21-5.14,17.61-9.94,24.75-1.38,2-2.92,4.87-5.2,6-4.93,2.52-3.06,5.47.05,8.55,13,12.93,6.89,31.43,10.26,47.77,2,9.6,4.35,19.16,6.75,28.65,2,7.73,5.57,14.18,10.06,20.4C87.12,456.58,75,391.81,77.25,370.06c2.87-28,13.33-56.61,13.33-56.61s0-4.42-.28-10.59c-1.25,2.89-2.47,5.8-3.61,8.73C83.31,320.31,81.05,329.22,78.58,338.22Z"/><path class="cls-14" d="M136.9,160.52c-4.73,0-8.69-2.05-9.71-4.79a4,4,0,0,0-.27,1.4c0,3.42,4.47,6.19,10,6.19s10-2.77,10-6.19a4,4,0,0,0-.27-1.4C145.59,158.47,141.63,160.52,136.9,160.52Z"/><path class="cls-14" d="M113.92,129.93a6,6,0,1,1-6-6A6,6,0,0,1,113.92,129.93Z"/><path class="cls-15" d="M116.18,131.39a6,6,0,1,1-6-6A6,6,0,0,1,116.18,131.39Z"/><path class="cls-12" d="M156.07,118.57c.54.85,4.65-1.76,9.3-1.25,8.44.91,11.63,6.12,11.63,6.12a14.09,14.09,0,0,0-11.61-11.31c-5.75-1-8.87.25-9.93,1.21S155.52,117.72,156.07,118.57Z"/><path class="cls-14" d="M158.32,129.93a6,6,0,1,0,6-6A6,6,0,0,0,158.32,129.93Z"/><path class="cls-15" d="M156.07,131.39a6,6,0,1,0,6-6A6,6,0,0,0,156.07,131.39Z"/><path class="cls-16" d="M205.51,63.31c0,27.48-15.17,41.48-58.63,41.48A71.83,71.83,0,0,1,98.78,86l-8.2-37.2s-1-7.3,11.28-10.86c6.7-1.94,32.68-6.86,53.17-.82C177,14.68,205.56,38.86,205.51,63.31Z"/><path class="cls-17" d="M159.9,245.68c-3.08,7.66-10.57,16.3-19.33,16.3s-16.25-8.64-19.33-16.3c0,0-11.22,4.17-10.31,6.11,3.62,7.74,10.19,17.79,18.24,20.79,3.55,1.33,7.45-7.33,11.46-7.33s7.18,7.48,10.61,6.26c8.36-3,15.45-12,19.1-20C171.19,249.64,159.9,245.68,159.9,245.68Z"/><polygon class="cls-12" points="193.22 142.79 187.45 137.42 188.24 135 193.22 140.31 193.22 142.79"/><polygon class="cls-12" points="83.6 147.73 89.96 142.33 89.17 139.91 83.6 145.24 83.6 147.73"/><path class="cls-2" d="M118.24,180.93c2.2,22.34,37.32,21.94,37.32,0Z"/><polygon class="cls-18" points="97.97 167.7 89.54 172.41 80.45 139.37 80.22 128.01 97.97 167.7"/><polygon class="cls-18" points="176.95 167.7 185.38 172.41 194.47 139.37 194.7 128.01 176.95 167.7"/><path class="cls-18" d="M134.79,227.48c-52,0-50.61-67.67-48.57-70.68a2.43,2.43,0,0,1,2.21-.71,14.77,14.77,0,0,1,3.26,1c1.38.51,2.77,1,4.17,1.47a21.68,21.68,0,0,0,4.88,1.1,17.7,17.7,0,0,0,3.85,0,6.34,6.34,0,0,0,.78-.14,23.09,23.09,0,0,0,4.09-1.56c.84-.37,1.68-.7,2.53-1a67.34,67.34,0,0,0,8.42-4.38,33.24,33.24,0,0,1,17-4.57h.14a33.23,33.23,0,0,1,17,4.57,66.78,66.78,0,0,0,8.43,4.38c.84.34,1.69.67,2.52,1a23.39,23.39,0,0,0,4.09,1.56,7.09,7.09,0,0,0,.78.14,17.7,17.7,0,0,0,3.85,0,21.88,21.88,0,0,0,4.89-1.1c1.4-.46,2.78-1,4.16-1.47a14.77,14.77,0,0,1,3.26-1,2.43,2.43,0,0,1,2.21.71c2,3,3.31,70.68-48.74,70.68Z"/><path class="cls-19" d="M134.89,226.05c-50.18,0-48.79-64.31-46.83-67.17a2.44,2.44,0,0,1,2.13-.68,15.18,15.18,0,0,1,3.14,1c1.34.48,2.67,1,4,1.39a20.81,20.81,0,0,0,4.71,1,17,17,0,0,0,3.71,0c.26,0,.51-.08.76-.14a22.72,22.72,0,0,0,3.94-1.49c.8-.34,1.62-.66,2.43-1A66.26,66.26,0,0,0,121,154.8a32.38,32.38,0,0,1,16.38-4.35h.13a32.42,32.42,0,0,1,16.39,4.35,66.13,66.13,0,0,0,8.12,4.16c.81.32,1.63.64,2.43,1a22.72,22.72,0,0,0,3.94,1.49c.25.06.5.1.76.14a17,17,0,0,0,3.71,0,20.81,20.81,0,0,0,4.71-1c1.35-.43,2.68-.91,4-1.39a15.36,15.36,0,0,1,3.14-1,2.44,2.44,0,0,1,2.13.68c2,2.86,3.19,67.17-47,67.17Z"/><path class="cls-20" d="M135,223.07c-48.57,0-47.23-59.5-45.33-62.15a2.38,2.38,0,0,1,2.06-.63,14.69,14.69,0,0,1,3,.88c1.29.45,2.59.9,3.89,1.3a22.32,22.32,0,0,0,4.56,1,18,18,0,0,0,3.6,0c.24,0,.49-.07.73-.12a23.17,23.17,0,0,0,3.81-1.38c.78-.32,1.57-.61,2.36-.91a63.49,63.49,0,0,0,7.86-3.85,32.5,32.5,0,0,1,15.86-4h.13a32.5,32.5,0,0,1,15.86,4,64.19,64.19,0,0,0,7.86,3.85c.79.3,1.58.59,2.36.91a23.28,23.28,0,0,0,3.82,1.38c.24.05.48.09.73.12a17.94,17.94,0,0,0,3.59,0,22.32,22.32,0,0,0,4.56-1c1.31-.4,2.6-.85,3.89-1.3a14.87,14.87,0,0,1,3-.88,2.38,2.38,0,0,1,2.06.63c1.9,2.65,3.09,62.15-45.49,62.15Z"/><path class="cls-21" d="M103.36,176.41s21.54,7.65,36.72,7.58c14.11-.06,34.07-7.58,34.07-7.58s-18.07,1.87-33.94,1.65S103.36,176.41,103.36,176.41Z"/><path class="cls-21" d="M103.36,193.29s22.89,7.07,36.07,6.83c14.1-.25,34.72-6.83,34.72-6.83s-18.07,1.19-33.94,1S103.36,193.29,103.36,193.29Z"/><path class="cls-21" d="M103.36,206.36s22.64,8,37.37,7.95c14.11-.11,33.42-9,33.42-9s-18.46,4-34.34,3.83S103.36,206.36,103.36,206.36Z"/><path class="cls-22" d="M91,164.76a2.29,2.29,0,0,1,2-.61,14.71,14.71,0,0,1,2.94.85c1.24.43,2.49.87,3.75,1.25a21,21,0,0,0,4.41.94,17.5,17.5,0,0,0,3.47,0c.24,0,.47-.07.71-.12a22.84,22.84,0,0,0,3.68-1.33c.75-.31,1.52-.59,2.28-.88a64.34,64.34,0,0,0,7.6-3.72,31.42,31.42,0,0,1,15.32-3.89h.13a31.45,31.45,0,0,1,15.32,3.89,64.21,64.21,0,0,0,7.59,3.72c.76.29,1.53.57,2.28.88a22.6,22.6,0,0,0,3.69,1.33c.23.05.46.09.7.12a17.5,17.5,0,0,0,3.47,0,20.88,20.88,0,0,0,4.41-.94c1.26-.38,2.51-.82,3.76-1.25a14.43,14.43,0,0,1,2.93-.85,2.28,2.28,0,0,1,2,.61c1.15,1.59,2,24.49-8.82,41.54,12.92-17.82,12-43.66,10.76-45.38a2.38,2.38,0,0,0-2.06-.63,14.87,14.87,0,0,0-3,.88c-1.29.45-2.58.9-3.89,1.3a22.32,22.32,0,0,1-4.56,1,17.94,17.94,0,0,1-3.59,0c-.25,0-.49-.07-.73-.12a23.28,23.28,0,0,1-3.82-1.38c-.78-.32-1.57-.61-2.36-.91a64.19,64.19,0,0,1-7.86-3.85,32.5,32.5,0,0,0-15.86-4h-.13a32.5,32.5,0,0,0-15.86,4,63.49,63.49,0,0,1-7.86,3.85c-.79.3-1.58.59-2.36.91a23.17,23.17,0,0,1-3.81,1.38c-.24.05-.49.09-.73.12a18,18,0,0,1-3.6,0,22.32,22.32,0,0,1-4.56-1c-1.3-.4-2.6-.85-3.89-1.3a14.69,14.69,0,0,0-3-.88,2.38,2.38,0,0,0-2.06.63c-1,1.46-1.91,20.23,5.68,36.76C89.19,182.4,90,166.09,91,164.76Z"/><path class="cls-23" d="M97.16,253l4.5-2.35a3,3,0,0,1,4,1.1,192.2,192.2,0,0,1,20.3,47.43A3,3,0,0,1,123,303h-5.42a3,3,0,0,1-2.83-1.95c-2.45-6.56-10.78-28.31-18.89-44A3,3,0,0,1,97.16,253Z"/><path class="cls-23" d="M174.49,247l4.17,1a3.7,3.7,0,0,1,2.73,2.73c1.46,6.13,5.27,24.23,4.5,43.61a3.72,3.72,0,0,1-3.7,3.59H179.1a3.69,3.69,0,0,1-3.71-3.76,248.76,248.76,0,0,0-3.34-44.87A2,2,0,0,1,174.49,247Z"/><path class="cls-24" d="M216.19,614c-.25-138.22-4.21-240.22-17.6-317.64a3.67,3.67,0,0,0-3.6-3.06c-37.77-.41-82.61,2.81-95.69,3.83a3.67,3.67,0,0,0-3.39,4c1.42,15.81,6,80.21-4.5,154.44-9.46,66.47-19.09,132-21.19,146.23a3.67,3.67,0,0,0,2.27,4,296.84,296.84,0,0,0,79.33,18.62c38.31,3.58,56.74-4,62.4-7.1A3.73,3.73,0,0,0,216.19,614Z"/><path class="cls-24" d="M172.92,620.49c-5.95,0-12.28-.31-18.84-.92a295.66,295.66,0,0,1-78.52-18.43.81.81,0,0,1-.49-.86C77.7,582.42,87,519.08,96.26,454c10.49-73.77,6.11-137.37,4.52-155.1a.79.79,0,0,1,.18-.6.84.84,0,0,1,.56-.28c11.65-.9,52.5-3.86,88.75-3.86q3.38,0,6.69,0a.8.8,0,0,1,.79.67C209.93,365.38,215,457.26,215.3,612.05a.85.85,0,0,1-.45.75c-4.29,2.31-16.95,7.69-41.93,7.69Z"/><path class="cls-23" d="M188.29,299.07h3.38a1.81,1.81,0,0,1,1.78,1.52c11.68,69.35,16.62,159.77,17,309.95a3.45,3.45,0,0,1-2.11,3.2c-5.89,2.46-17.61,5.84-37.37,5.84-5.86,0-12.11-.3-18.58-.9a296.71,296.71,0,0,1-73.57-16.64,3.44,3.44,0,0,1-2.21-3.71c2.89-19.63,11.84-80.66,20.55-141.91A721.34,721.34,0,0,0,102,304.57a1.8,1.8,0,0,1,1.66-1.94c15.16-1.12,51.81-3.56,84.64-3.56m0-5.77c-36.21,0-76.68,2.91-89,3.87a3.67,3.67,0,0,0-3.39,4c1.42,15.81,6,80.21-4.5,154.44-9.46,66.47-19.09,132-21.19,146.23a3.67,3.67,0,0,0,2.27,4,296.84,296.84,0,0,0,79.33,18.62c7,.66,13.38.94,19.11.94,25.53,0,38.67-5.54,43.29-8a3.73,3.73,0,0,0,2-3.29c-.25-138.22-4.21-240.22-17.6-317.64a3.67,3.67,0,0,0-3.6-3.06c-2.21,0-4.45,0-6.7,0Z"/><path class="cls-23" d="M95.16,410.34l-.47,8.83a1,1,0,0,0,.76,1c11.89,2.28,46.49,11.24,116.21,1.85a1,1,0,0,0,.86-1l-.67-8.83a1,1,0,0,0-1.13-1c-7.86,1.48-55.76,9.55-114.42-1.81A1,1,0,0,0,95.16,410.34Z"/><path class="cls-24" d="M112.49,250l-.12-.12S119.82,247.81,112.49,250Z"/><path class="cls-11" d="M230.36,497c1.58-5.69-6.36-26.4-11.17-26.28-4,.1-10.43,16.14-10.18,23.7,1.55.88,2.69,3.93,3.33,5.42S228.78,502.71,230.36,497Z"/><path class="cls-11" d="M218,516.43c-.33-4.14-.71-10.64-.59-16.32a12.6,12.6,0,0,0,3.85-.81c.83,5.27,1.16,12,1.39,16,.33,5.85-.48,8.84-2,9C219.25,524.51,218.39,521.78,218,516.43Z"/><path class="cls-11" d="M223.62,514.2c-.57-3.85-1.35-9.93-1.57-15.25a16,16,0,0,0,4.09-1.11c1.13,4.91,1.5,11.42,2,15.19.68,5.46.07,8.28-1.44,8.51C225.37,521.74,224.37,519.21,223.62,514.2Z"/><path class="cls-11" d="M228.26,510.49a130.07,130.07,0,0,1-1.35-13,13.06,13.06,0,0,0,3.49-.94c1,4.19,1.28,9.74,1.68,13,.58,4.67.06,7.07-1.22,7.27C229.75,516.93,228.89,514.76,228.26,510.49Z"/><path class="cls-11" d="M211.78,514.57c.07-3.9.11-11.45.77-16.73,1.29.11,3.18,1.27,4.42,1,.31,5-.41,11.5-.57,15.29-.23,5.51-1.3,8.19-2.83,8.17C212.26,522.29,211.69,519.62,211.78,514.57Z"/><path class="cls-11" d="M202.85,493c3.06-2.43,5.73-11,10.33-13.66.7,1.1,4.22,6.47,5.18,7.29-3.81,3.29-8.28,7.2-11.4,9.37-4.52,3.15-8.2,1.94-9.11.71C197.07,495.61,201.31,494.19,202.85,493Z"/><path class="cls-24" d="M228.18,481.87l-17-2.41s10-84.66,5.37-109.68c-5.13-27.72-17.86-55.35-17.86-55.35s-6.89-55.09,6.26-49.67,32.82,66.92,36.57,105.47C244.4,400,228.18,481.87,228.18,481.87Z"/><path class="cls-23" d="M159.9,245.68c-3.08,7.66-10.57,16.3-19.33,16.3s-16.25-8.64-19.33-16.3c0,0-11.22,4.17-10.31,6.11,3.62,7.74,10.19,17.79,18.24,20.79,3.55,1.33,7.45-7.33,11.46-7.33s7.18,7.48,10.61,6.26c8.36-3,15.45-12,19.1-20C171.19,249.64,159.9,245.68,159.9,245.68Z"/><path class="cls-11" d="M73.75,498c-2-5.54,4.21-26.83,9-27.1,4-.22,11.7,15.25,12.06,22.81-1.48,1-2.37,4.13-2.88,5.67S75.79,503.55,73.75,498Z"/><path class="cls-11" d="M87.67,516.35c0-4.15-.15-10.66-.73-16.31a12.92,12.92,0,0,1-3.91-.5c-.4,5.32-.18,12-.08,16.06.14,5.86,1.19,8.77,2.76,8.85C87.05,524.51,87.68,521.71,87.67,516.35Z"/><path class="cls-11" d="M81.85,514.59c.26-3.9.55-10,.34-15.34a15.76,15.76,0,0,1-4.16-.77c-.74,5-.58,11.5-.74,15.3-.24,5.5.6,8.26,2.12,8.37C80.72,522.24,81.52,519.63,81.85,514.59Z"/><path class="cls-11" d="M76.94,511.26c.22-3.32.46-8.55.29-13.09a13.4,13.4,0,0,1-3.56-.65c-.62,4.25-.48,9.81-.63,13-.2,4.7.52,7.06,1.81,7.15C76,517.79,76.66,515.57,76.94,511.26Z"/><path class="cls-11" d="M93.69,514c-.39-3.88-1-11.4-2.12-16.61-1.28.22-3.07,1.53-4.32,1.36.1,5,1.34,11.43,1.8,15.2.68,5.47,2,8.06,3.48,7.91C93.84,521.73,94.19,519,93.69,514Z"/><path class="cls-11" d="M100.84,491.74c-3.24-2.18-6.6-10.49-11.4-12.79-.6,1.16-3.68,6.79-4.57,7.68,4.07,3,8.84,6.52,12.12,8.43,4.76,2.77,8.33,1.26,9.14,0C106.83,493.91,102.48,492.83,100.84,491.74Z"/><path class="cls-24" d="M74.7,482.73,91.46,479s-16.8-83.58-14.21-108.89c2.87-28,13.33-56.61,13.33-56.61s1.35-55.19-11.33-48.72S53,333.8,52.4,372.52C51.92,402.4,74.7,482.73,74.7,482.73Z"/></g></g></svg>