<?xml version="1.0" encoding="UTF-8"?>
<svg width="78px" height="67px" viewBox="0 0 78 67" version="1.1" xmlns="http://www.w3.org/2000/svg" xmlns:xlink="http://www.w3.org/1999/xlink">
    <!-- Generator: Sketch 61.1 (89650) - https://sketch.com -->
    <title>Group 18 Copy</title>
    <desc>Created with Sketch.</desc>
    <g id="Page-1" stroke="none" stroke-width="1" fill="none" fill-rule="evenodd">
        <g id="Droplet-&amp;-Contact" transform="translate(-801.000000, -1235.000000)">
            <g id="Group-18-Copy" transform="translate(801.000000, 1235.000000)">
                <polygon id="Fill-1" fill="#43ACEC" points="0 0.0283796567 0.155545537 7.67467003 6.29959423 30 12 26.8160728 0 0"></polygon>
                <polygon id="Fill-2" fill="#43ACEC" points="66 26.8156123 71.7004058 30 77.8444545 7.6755028 78 0"></polygon>
                <g id="Group-17" transform="translate(3.000000, 13.000000)">
                    <path d="M33.519979,53.99973 C-1.6716781,53.99973 -0.700668571,8.320455 0.677407619,6.28668 C0.982369524,5.837805 1.72482667,5.751405 2.17178857,5.806755 C2.92371238,5.899905 3.65873143,6.22053 4.37346476,6.48243 C5.30863619,6.826005 6.24516,7.168905 7.19115048,7.47603 C8.27170286,7.82703 9.36983619,8.124705 10.494341,8.21988 C11.360541,8.293455 12.234179,8.30898 13.0990267,8.196255 C13.277541,8.171955 13.4533505,8.14023 13.6271314,8.100405 C14.5859695,7.881705 15.47516,7.44093 16.3907219,7.042005 C16.955341,6.79563 17.5287505,6.573555 18.098779,6.34473 C20.0840743,5.55093 21.9239886,4.458105 23.79636,3.387555 C26.6417695,1.75878 30.6421124,0.21573 35.2861886,0.30078 C35.3030933,0.301455 35.3179695,0.302805 35.3348743,0.30348 C35.3504267,0.302805 35.3653029,0.301455 35.3822076,0.30078 C40.0262838,0.21573 44.0266267,1.75878 46.8720362,3.387555 C48.7450838,4.458105 50.5843219,5.55093 52.5696171,6.34473 C53.1409981,6.573555 53.7137314,6.79563 54.2783505,7.042005 C55.1939124,7.44093 56.0831029,7.881705 57.0412648,8.100405 C57.2150457,8.14023 57.3915314,8.171955 57.5700457,8.196255 C58.4342171,8.30898 59.3085314,8.293455 60.1740552,8.21988 C61.2992362,8.124705 62.3973695,7.82703 63.4779219,7.47603 C64.4232362,7.168905 65.3604362,6.826005 66.2962838,6.48243 C67.010341,6.22053 67.74536,5.899905 68.49796,5.806755 C68.9442457,5.751405 69.6867029,5.837805 69.9916648,6.28668 C71.369741,8.320455 72.2278267,53.99973 37.0361695,53.99973 L33.519979,53.99973 Z" id="Fill-3" fill="#F7F7F6"></path>
                    <path d="M33.5846905,53.0353575 C-0.342490476,53.0353575 0.593357143,9.6254325 1.92207143,7.6935825 C2.2155381,7.2663075 2.9323,7.1839575 3.36235714,7.2366075 C4.08790952,7.3250325 4.79655714,7.6301325 5.48491905,7.8798825 C6.38695714,8.2059075 7.29034762,8.5312575 8.20252857,8.8235325 C9.2438619,9.1569825 10.3021,9.4391325 11.3867095,9.5302575 C12.2218048,9.5997825 13.0643381,9.6153075 13.8974048,9.5073075 C14.0698333,9.4843575 14.2402333,9.4546575 14.4072524,9.4168575 C15.3309286,9.2089575 16.1883381,8.7897825 17.0707667,8.4111075 C17.6157762,8.1768825 18.1675476,7.9656075 18.7179667,7.7482575 C20.6322619,6.9936075 22.4059095,5.9561325 24.2113381,4.9375575 C26.9539667,3.3904575 30.810281,1.9236825 35.2886905,2.0046825 C35.3042429,2.0046825 35.3184429,2.0067075 35.3346714,2.0067075 C35.3495476,2.0067075 35.3644238,2.0046825 35.3799762,2.0046825 C39.8577095,1.9236825 43.7140238,3.3904575 46.4573286,4.9375575 C48.2627571,5.9561325 50.037081,6.9936075 51.9500238,7.7482575 C52.501119,7.9656075 53.0528905,8.1768825 53.5979,8.4111075 C54.4796524,8.7897825 55.3377381,9.2089575 56.2614143,9.4168575 C56.4291095,9.4546575 56.5981571,9.4843575 56.7712619,9.5073075 C57.6043286,9.6153075 58.4468619,9.5997825 59.2819571,9.5302575 C60.3658905,9.4391325 61.4248048,9.1569825 62.4668143,8.8235325 C63.3789952,8.5312575 64.2810333,8.2059075 65.1837476,7.8798825 C65.8721095,7.6301325 66.5807571,7.3250325 67.3056333,7.2366075 C67.7363667,7.1839575 68.4517762,7.2663075 68.745919,7.6935825 C70.0753095,9.6254325 70.9022905,53.0353575 36.9751095,53.0353575 L33.5846905,53.0353575 Z" id="Stroke-5" stroke="#C6C6C5" stroke-width="0.312" stroke-linecap="round" stroke-linejoin="round" stroke-dasharray="2.101,4.201"></path>
                    <path d="M33.6401381,51.0202125 C0.796890476,51.0202125 1.70298571,10.8563625 2.9891,9.0682875 C3.2731,8.6734125 3.96619524,8.5971375 4.38272857,8.6464125 C5.08529048,8.7280875 5.77094762,9.0102375 6.43767143,9.2404125 C7.31063333,9.5428125 8.18494762,9.8438625 9.06805238,10.1138625 C10.0762524,10.4223375 11.1013571,10.6835625 12.151481,10.7679375 C12.9595286,10.8327375 13.7750143,10.8455625 14.5817095,10.7470125 C14.7487286,10.7260875 14.9130429,10.6977375 15.0753286,10.6626375 C15.9692524,10.4702625 16.7996143,10.0834875 17.6536429,9.7318125 C18.1810714,9.5158125 18.7159381,9.3207375 19.2487762,9.1195875 C21.1008619,8.4216375 22.8183857,7.4611125 24.5656619,6.5181375 C27.2217381,5.0864625 30.9549857,3.7297125 35.2893667,3.8053125 C35.304919,3.8053125 35.3184429,3.8066625 35.3339952,3.8080125 C35.3488714,3.8066625 35.3630714,3.8053125 35.3786238,3.8053125 C39.7130048,3.7297125 43.4469286,5.0864625 46.1023286,6.5181375 C47.850281,7.4611125 49.5671286,8.4216375 51.4198905,9.1195875 C51.9520524,9.3207375 52.486919,9.5158125 53.0143476,9.7318125 C53.8683762,10.0834875 54.6987381,10.4702625 55.5933381,10.6626375 C55.7549476,10.6977375 55.9192619,10.7260875 56.086281,10.7470125 C56.8929762,10.8455625 57.7084619,10.8327375 58.5171857,10.7679375 C59.5666333,10.6835625 60.5910619,10.4223375 61.5999381,10.1138625 C62.4823667,9.8438625 63.356681,9.5428125 64.230319,9.2404125 C64.897719,9.0102375 65.5827,8.7280875 66.2845857,8.6464125 C66.7017952,8.5971375 67.3948905,8.6734125 67.6795667,9.0682875 C68.965681,10.8563625 69.7662905,51.0202125 36.9223667,51.0202125 L33.6401381,51.0202125 Z" id="Fill-7" fill="#2B96F4"></path>
                    <path d="M12.2655543,19.529235 C12.2655543,19.529235 26.8273162,24.69231 37.0986495,24.64506 C46.6349638,24.60051 60.1330781,19.529235 60.1330781,19.529235 C60.1330781,19.529235 47.917021,20.791485 37.1824971,20.640285 C26.4479733,20.48841 12.2655543,19.529235 12.2655543,19.529235" id="Fill-9" fill="#0C87D4"></path>
                    <path d="M12.2655543,30.919185 C12.2655543,30.919185 27.7428781,35.69076 36.6523638,35.53146 C46.1880019,35.36001 60.1330781,30.919185 60.1330781,30.919185 C60.1330781,30.919185 47.917021,31.72041 37.1824971,31.568535 C26.4479733,31.41666 12.2655543,30.919185 12.2655543,30.919185" id="Fill-11" fill="#0C87D4"></path>
                    <path d="M12.2655543,39.7436625 C12.2655543,39.7436625 27.5751829,45.1774125 37.5361448,45.1051875 C47.0731352,45.0363375 60.1330781,39.0544875 60.1330781,39.0544875 C60.1330781,39.0544875 47.647221,41.7868875 36.9126971,41.6363625 C26.1781733,41.4844875 12.2655543,39.7436625 12.2655543,39.7436625" id="Fill-13" fill="#0C87D4"></path>
                    <path d="M3.87321905,11.6586675 C4.14775238,11.2779675 4.81718095,11.2037175 5.21951429,11.2509675 C5.89773333,11.3306175 6.56107619,11.6019675 7.20480952,11.8253925 C8.04869524,12.1169925 8.89325714,12.4079175 9.74660952,12.6691425 C10.7203238,12.9668175 11.7109429,13.2199425 12.7245524,13.3009425 C13.5055524,13.3630425 14.2933143,13.3765425 15.0722857,13.2800175 C15.2338952,13.2604425 15.3928,13.2327675 15.5496762,13.1990175 C16.4131714,13.0133925 17.2151333,12.6387675 18.0407619,12.2999175 C18.5499333,12.0913425 19.0665429,11.9023425 19.5811238,11.7086175 C21.371,11.0336175 23.0303714,10.1054925 24.718819,9.1955925 C27.2842857,7.8125175 30.8910857,6.5016675 35.0780571,6.5745675 C35.0936095,6.5745675 35.1064571,6.5759175 35.1213333,6.5765925 C35.1362095,6.5759175 35.1497333,6.5745675 35.1646095,6.5745675 C39.3522571,6.5016675 42.9590571,7.8125175 45.5252,9.1955925 C47.2136476,10.1054925 48.8723429,11.0336175 50.6615429,11.7086175 C51.1768,11.9023425 51.6934095,12.0913425 52.202581,12.2999175 C53.0275333,12.6387675 53.8294952,13.0133925 54.6936667,13.1990175 C54.8505429,13.2327675 55.0094476,13.2604425 55.170381,13.2800175 C55.9500286,13.3765425 56.7377905,13.3630425 57.5187905,13.3009425 C58.5324,13.2199425 59.523019,12.9668175 60.4967333,12.6691425 C61.3500857,12.4079175 62.1946476,12.1169925 63.0378571,11.8253925 C63.6822667,11.6019675 64.3449333,11.3306175 65.0231524,11.2509675 C65.4254857,11.2037175 66.0955905,11.2779675 66.3701238,11.6586675 C67.1436857,12.7352925 67.7319714,28.1921175 60.4013905,39.7001925 C69.1404762,27.6764175 68.5177048,10.2330675 67.6792286,9.0680175 C67.3945524,8.6731425 66.7014571,8.5975425 66.2849238,8.6461425 C65.5830381,8.7278175 64.8967048,9.0099675 64.2306571,9.2401425 C63.357019,9.5425425 62.4827048,9.8442675 61.5996,10.1142675 C60.5914,10.4227425 59.5662952,10.6839675 58.5175238,10.7683425 C57.7081238,10.8324675 56.8926381,10.8459675 56.086619,10.7467425 C55.9196,10.7258175 55.7552857,10.6974675 55.593,10.6623675 C54.6990762,10.4699925 53.8687143,10.0832175 53.0146857,9.7322175 C52.4872571,9.5155425 51.9530667,9.3204675 51.4195524,9.1193175 C49.5667905,8.4213675 47.8499429,7.4608425 46.1019905,6.5185425 C43.4465905,5.0868675 39.7133429,3.7301175 35.3789619,3.8050425 C35.3627333,3.8050425 35.3492095,3.8070675 35.3336571,3.8070675 C35.318781,3.8070675 35.304581,3.8050425 35.2897048,3.8050425 C30.9553238,3.7301175 27.2214,5.0868675 24.566,6.5185425 C22.8187238,7.4608425 21.1012,8.4213675 19.2484381,9.1193175 C18.7156,9.3204675 18.1807333,9.5155425 17.653981,9.7322175 C16.7992762,10.0832175 15.9695905,10.4699925 15.0749905,10.6623675 C14.9127048,10.6974675 14.7483905,10.7258175 14.5813714,10.7467425 C13.7753524,10.8459675 12.9598667,10.8324675 12.1511429,10.7683425 C11.101019,10.6839675 10.0765905,10.4227425 9.06839048,10.1142675 C8.18528571,9.8442675 7.31097143,9.5425425 6.43800952,9.2401425 C5.77128571,9.0099675 5.08495238,8.7278175 4.38306667,8.6461425 C3.96653333,8.5975425 3.2727619,8.6731425 2.9887619,9.0680175 C2.2794381,10.0548675 1.6972381,22.7239425 6.82546667,33.8843925 C2.68582857,23.5683675 3.22407619,12.5611425 3.87321905,11.6586675" id="Fill-15" fill="#DAE8EF"></path>
                </g>
            </g>
        </g>
    </g>
</svg>