<svg xmlns="http://www.w3.org/2000/svg" viewBox="0 0 300.52 821.26"><defs><style>.cls-1,.cls-34,.cls-35{isolation:isolate;}.cls-2,.cls-34{fill:#fff;}.cls-3{fill:#22366b;}.cls-4{fill:#cfcfcf;}.cls-10,.cls-13,.cls-19,.cls-4,.cls-6,.cls-8{mix-blend-mode:multiply;}.cls-5{fill:#3e3e3e;}.cls-6{fill:#b7c1c6;}.cls-7{fill:#4197e5;}.cls-19,.cls-8{fill:#ddcfc9;}.cls-9{fill:#e3ac81;}.cls-10,.cls-24{fill:#ebe0da;}.cls-11{fill:#f8ba8c;}.cls-12{fill:#793b16;}.cls-13,.cls-25{fill:#eadbd8;}.cls-14{fill:#5b2c0b;}.cls-15{fill:#803e19;}.cls-16{fill:#0874b7;}.cls-17{fill:#2b96f4;}.cls-18{fill:#0071d6;}.cls-19{opacity:0.7;}.cls-20{fill:#ea966c;}.cls-21,.cls-22,.cls-23,.cls-27,.cls-30,.cls-33{fill:none;}.cls-21,.cls-22,.cls-23{stroke:#fff;}.cls-21,.cls-22,.cls-23,.cls-27,.cls-33{stroke-linecap:round;stroke-linejoin:round;}.cls-21{stroke-width:2.27px;}.cls-22{stroke-width:1.89px;}.cls-23{stroke-width:0.91px;}.cls-26{fill:#f7f7f6;}.cls-27{stroke:#c6c6c5;stroke-width:0.31px;stroke-dasharray:2.1 4.2;}.cls-28{fill:#0092ff;}.cls-29{fill:#dae8ef;}.cls-30{stroke:#f7f7f6;stroke-miterlimit:10;stroke-width:0.25px;stroke-dasharray:0.01 1.98 0.99 0 0 0;}.cls-31{fill:#003a8e;}.cls-32{fill:#004cd3;}.cls-33{stroke:#dae8ef;stroke-width:2px;}.cls-34{opacity:0.39;}.cls-35{fill:#f9f9f9;opacity:0.42;}</style></defs><g class="cls-1"><g id="Layer_1" data-name="Layer 1"><path class="cls-2" d="M76.57,814.67c24.38-6.45,45.14-11.14,50-14.34,3.3-2.16-.06-10.66-.06-10.66L100.23,776,45.79,798.84s-1.27,5.41,1,8.59C50.67,812.71,64.32,817.91,76.57,814.67Z"/><path class="cls-2" d="M231.66,814.67c-24.38-6.45-45.14-11.14-50-14.34-3.3-2.16.06-10.66.06-10.66L208,776l54.43,22.89s1.28,5.41-1,8.59C257.55,812.71,243.9,817.91,231.66,814.67Z"/><path class="cls-3" d="M232.16,808.76c-24.38-6.45-45.24-11-50-14.34s0-24.85,0-24.85l26.36.47s36.72,21.55,47.32,23.67C274.93,797.53,251.76,814,232.16,808.76Z"/><path class="cls-4" d="M261.72,796.18A32.37,32.37,0,0,1,241.9,802c-5.9-.33-11.41-2.13-16.83-4.37-5.62-2.32-12.27-4.46-17.26-8-7.23-5.1-10.4-12.88-15.17-19.92l-10.5-.19s-4.78,21.5,0,24.85,25.64,7.89,50,14.34C248.81,813.17,268,802,261.72,796.18Z"/><path class="cls-5" d="M153,499.37c6.7,10.52,18.82,59,20.74,119.64,2.06,65.48-1.92,157.25,4.78,161.07,11.27,6.44,37.75-3.34,40.14-10.51-.47-13.86-11.72-207.7-5.27-288.71C175.91,459.11,137.82,475.45,153,499.37Z"/><path class="cls-6" d="M194.18,770.24c-7.83-9.22-7.93-25-9.31-36.42-2.2-18.15.52-35.87-2-54.08-1.63-11.84-5.71-28.63-.38-39.94,1.86-4,7.39-5.72,10.23-8.72,1.9-2-4.25-3.65-5.5-4.37-1.75-1-2.95-3.21-3.7-5-2.31-5.43-1.66-12.55-2.28-18.31-1.07-9.82-1.92-19.66-2.42-29.53-1.17-22.77,3.56-63-24.21-71.57,6.86,14.79,17.4,60.46,19.17,116.68,2.06,65.48-1.92,157.25,4.78,161.07,8,4.58,23.67,1,32.94-4.08C205.11,776.75,199,775.91,194.18,770.24Z"/><path class="cls-3" d="M76.57,808.76c24.38-6.45,45.24-11,50-14.34s0-24.85,0-24.85l-26.36.47s-36.72,21.55-47.32,23.67C33.79,797.53,57,814,76.57,808.76Z"/><path class="cls-4" d="M126.59,769.57l-14,.25a15.91,15.91,0,0,1-7.93,19.72c-8.18,4.25-17.56,9-26.58,10.83-10.13,2.11-20.83-1-31-1.24a3.31,3.31,0,0,1-1.3-.29c.2,5.95,16.44,13.72,30.78,9.92,24.38-6.45,45.24-11,50-14.34S126.59,769.57,126.59,769.57Z"/><path class="cls-5" d="M149.86,497.54c-6.69,10.52-15.8,60.78-17.72,121.47-2.06,65.48,3.53,157.25-3.16,161.07-11.28,6.44-37.76-3.34-40.15-10.51.49-14.3,9.72-207.4,3.23-288.84C129.58,459,165.09,473.62,149.86,497.54Z"/><path class="cls-6" d="M149.86,497.54c.49-.78.93-1.54,1.32-2.29-19.23,13-24.76,40.2-27.08,62.33-1.63,15.55-.18,31-1.4,46.53-.48,6.07-.91,13.23-5,18.15-2.58,3.14-5.9,5.3-9.29,7.41,3.52,2.35,7.76,4.3,9.51,8,3.34,7-1.24,11-1,18,.31,10.15,2.63,20.09,2.61,30.27s-1.13,20.53-.92,30.79c.31,15.07,5.45,33.8-3.43,47.48-6,9.24-12.53,10.88-21,10.75,8.91,5.56,26.2,10,34.75,5.12,6.69-3.82,1.1-95.59,3.16-161.07C134.06,558.32,143.17,508.06,149.86,497.54Z"/><path class="cls-5" d="M93.27,485.79c-1.88-13.87-1.47-34.4.56-40.38s112.94-18.24,116.11-1.69c1.25.06,5.67,19.45,3.49,37.14C210.21,506.94,96.38,508.72,93.27,485.79Z"/><path class="cls-7" d="M209.94,443.72c-18.26,13.89-96.16,14.32-116.11,1.69-6.68-14.59-2.89-126.52-2.89-126.52S75.19,269.14,79.75,264c9.28-10.5,63.53-21.76,63.53-21.76S201,255,207.31,264c3.06,4.39-5.13,45-2.83,88.87C206.92,399.27,213.73,427.75,209.94,443.72Z"/><path class="cls-8" d="M193.14,325.68a231.85,231.85,0,0,0,7.65,51c2.09,8.12,3.81,16.33,5.9,24.44a60.25,60.25,0,0,0,2.78,7.91c-1.53-14.81-3.79-33.3-5-56.17-1.39-26.4,1-51.6,2.5-68.46C199.85,297.32,192.71,311.45,193.14,325.68Z"/><path class="cls-8" d="M153.69,445.47c-25,.9-44.8-11.75-48.76-24.87s-2.83-69.46-4.55-94.13c-1.19-17-7.55-30.54-18.73-41.23,3.55,15.51,9.29,33.65,9.29,33.65s-3.79,111.93,2.89,126.52c14.48,9.16,59.48,11.45,90.06,6.7C173.43,451.67,163.72,445.11,153.69,445.47Z"/><path class="cls-9" d="M168.25,248.41s-7.18,12.73-24.29,12.73a34,34,0,0,1-26.25-12.61s3.23-1.18,7.07-6.32,4.33-12.36,1.38-37.81c-3.66-31.56,28.72-34.23,30.05-6.45-.8,32.2.28,39.67,4.3,45.35C163.27,247.21,168.25,248.41,168.25,248.41Z"/><path class="cls-10" d="M133.38,241.07c1.12-8.51,11-21.63,2.47-29.14a21.86,21.86,0,0,0-9.37-4.66c2.59,23.12,2.1,29.86-1.7,34.94s-7.07,6.32-7.07,6.32A39.79,39.79,0,0,0,138.06,260C134.21,255.22,132.38,248.67,133.38,241.07Z"/><path class="cls-11" d="M211.74,112.71c-2.39-.42-5.66.56-8.79,2.53.22-8.65.36-17.75.49-27.39.5-34.42-35.72-51.46-65.7-47.94C100.32,44.32,75.05,59.56,75.87,90c.21,8,.65,19.34,1.48,31.84-4.06-2.44-8.54-3.47-11.42-2.54-7.41,2.38-8.14,11.45-4.06,23.49S74.55,163,81.29,161c1.82,12.55,3.87,19.76,7.33,28.14,5.81,14.06,31,34.88,51.77,34.88,25.34,0,50.75-26.94,54.12-38.4,2.89-9.81,5.05-16.63,6.32-29.66a5.68,5.68,0,0,0,.7.22c7,1.34,14.67-8,17.22-20.71C221.26,122.93,219.39,114,211.74,112.71Z"/><path class="cls-10" d="M105.92,202.85c-4.75-5.83-10.86-15.29-12.65-22.57-2.06-8.38-8.53-22.59-8.53-22.59s-16.33-2.78-18.66-16.9c-.26-1.59-4.34-16.93-4.49-18.52-3.13,4.12-2.77,11.47.28,20.49C66,154.81,74.55,162.94,81.3,161c1.81,12.55,3.86,19.76,7.32,28.14,5.17,12.51,25.71,30.35,44.78,34.14C122.87,218.11,113.3,211.91,105.92,202.85Z"/><path class="cls-10" d="M203.31,97c-3.73-10.18-2.38-20-11.23-22.38-5.72-1.52-31.76,21.06-37.46,19.43-12.69-3.62-23.34-8.25-33.41-16.8-3.09-2.62-8.79-7.32-12.75-3.43-2.53,2.49-8.6-2.78-10,.44-3.34,7.58-8-2.13-13.28,4.39-1.64,2-4,13.08-5.91,14.79-2.92,2.65,4.73,23.88,5.06,27.41a136.29,136.29,0,0,1,.26,16.78c.27-.31,2.59,2.77,2.85,2.44,4.73-5.82,3.6-17.27,2.31-24.43C87,100.72,98.59,89.09,98.59,89.09A40.8,40.8,0,0,0,112,99a111.84,111.84,0,0,0,39,9.09c17.48.85,34.48-11.61,38.06-7.49s.76,28.76.76,28.76S206,104.23,203.31,97Z"/><path class="cls-12" d="M100.59,84s-.06-25.24-8.2-37.2C86.5,39.46,69.84,66.91,69.84,66.91S59.4,83.3,67.08,120c17-2.15,17.18,12.31,18.16,21.79C87,140.07,90.08,137,90.08,137a71,71,0,0,1-4.9-28.39C87.64,85.44,100.59,84,100.59,84Z"/><path class="cls-12" d="M193.13,84.91s5.14,19.44,1.54,30.7a139.3,139.3,0,0,1-4.07,16.59l5.33,5.11c.44-7.73.08-21.7,14.34-24.68,3.57-9.56-4.34-40.33-4.34-40.33Z"/><path class="cls-12" d="M118,116.57c-.54.85-4.65-1.75-9.31-1.25-8.43.91-11.62,6.12-11.62,6.12a14.09,14.09,0,0,1,11.61-11.31c5.75-1,8.87.25,9.92,1.21S118.53,115.73,118,116.57Z"/><path class="cls-10" d="M120,179.05c2.21,27.61,37.37,27.11,37.37,0Z"/><path class="cls-13" d="M138.71,158.53c-4.74,0-8.69-2.05-9.72-4.8a4.18,4.18,0,0,0-.26,1.4c0,3.42,4.47,6.19,10,6.19s10-2.77,10-6.19a4,4,0,0,0-.26-1.4C147.4,156.48,143.44,158.53,138.71,158.53Z"/><path class="cls-13" d="M115.73,127.93a6,6,0,1,1-6-6A6,6,0,0,1,115.73,127.93Z"/><path class="cls-14" d="M118,129.39a6,6,0,1,1-6-6A6,6,0,0,1,118,129.39Z"/><path class="cls-12" d="M157.87,116.57c.55.85,4.66-1.75,9.31-1.25,8.44.91,11.62,6.12,11.62,6.12a14.08,14.08,0,0,0-11.6-11.31c-5.75-1-8.88.25-9.93,1.21S157.33,115.73,157.87,116.57Z"/><path class="cls-13" d="M160.13,127.93a6,6,0,1,0,6-6A6,6,0,0,0,160.13,127.93Z"/><path class="cls-14" d="M157.87,129.39a6,6,0,1,0,6-6A6,6,0,0,0,157.87,129.39Z"/><path class="cls-15" d="M207.32,61.31c0,27.48-15.18,41.49-58.64,41.49A71.8,71.8,0,0,1,100.59,84l-8.2-37.2s-1-7.3,11.28-10.86c6.7-1.94,32.68-6.86,53.17-.82C178.8,12.68,207.37,36.86,207.32,61.31Z"/><path class="cls-16" d="M161.71,243.69c-3.08,7.65-10.57,16.3-19.33,16.3s-16.25-8.65-19.34-16.3c0,0-11.21,4.16-10.3,6.1,3.62,7.74,10.19,17.79,18.24,20.79,3.55,1.33,7.44-7.33,11.46-7.33,3.86,0,7.18,7.48,10.6,6.26,8.36-3,15.46-12,19.11-20C173,247.64,161.71,243.69,161.71,243.69Z"/><polygon class="cls-12" points="195.03 140.79 189.25 135.42 190.05 133 195.03 138.31 195.03 140.79"/><polygon class="cls-12" points="85.4 145.73 91.77 140.33 90.98 137.91 85.4 143.25 85.4 145.73"/><path class="cls-2" d="M120.05,178.93c2.2,22.35,37.31,21.95,37.31,0Z"/><path class="cls-17" d="M114.3,248l-.12-.12S121.63,245.81,114.3,248Z"/><path class="cls-18" d="M161.71,243.69c-3.08,7.65-10.57,16.3-19.33,16.3s-16.25-8.65-19.34-16.3c0,0-11.21,4.16-10.3,6.1,3.62,7.74,10.19,17.79,18.24,20.79,3.55,1.33,7.44-7.33,11.46-7.33,3.86,0,7.18,7.48,10.6,6.26,8.36-3,15.46-12,19.11-20C173,247.64,161.71,243.69,161.71,243.69Z"/><path class="cls-11" d="M201.3,292.94c15.64,3.87,21.29,7.62,30.3,75.65l0,.27a27.17,27.17,0,0,1-9.41,22.66c-11.29,9.7-30.5,24.24-50.79,30.86-5.37,4.07-11.55,12.07-15.09,14.15s-14.38,3.74-17.05,4.07-5.84-2-3.53-4.44c-4.09,1-5.53-.23-5-2.84-3.14,1.37-7.18-1.08-4.54-4.51-1.57-.56-4.45-1.73.38-5.68S137,414.45,137,414.45s-6.08.52-4.4-2.37,12.56-10.45,17.28-10,34.27,7.25,71.79-29c-2.85-9.57-10-35.84-10-35.84"/><path class="cls-19" d="M142.2,404.79s3.65-3,7.5-1.89,14.26,5.7,17,8.45,2.73,4.13,1.49,4.85-2.21,1.24-2.21,1.24l5.48,4.94-2.31,1.92S144.74,440.56,143.35,440c-4.58-1.88-12.79-10.32-12.79-10.32s-5-5.62-5.24-6S142.2,404.79,142.2,404.79Z"/><path class="cls-11" d="M89.88,285.24c-16.7,3.62-21.51,15.22-30,83.38l0,.26a26.63,26.63,0,0,0,9.74,22.32c12.15,9.92,33.41,25.32,55.71,32.45,5.84,4.19,12.59,12.32,16.43,14.48s15.48,4,18.35,4.37,6.22-1.93,3.7-4.39c4.4,1.05,5.93-.14,5.31-2.77,3.39,1.43,7.69-1,4.79-4.45,1.68-.53,4.75-1.66-.5-5.71s-11.27-8.9-11.27-8.9,6.53.63,4.68-2.3-13.65-10.7-18.7-10.36-31.72,8-72.56-29c2.9-9.55,8.34-51.13,8.34-51.13"/><path class="cls-20" d="M163.8,438.11a42.57,42.57,0,0,1-4.64-.56c-1.53-.26-3.06-.61-4.57-1a33.58,33.58,0,0,1-4.42-1.55,16,16,0,0,1-4-2.41,22.55,22.55,0,0,0,4.15,2.05,42.72,42.72,0,0,0,4.41,1.42c1.49.43,3,.77,4.51,1.11S162.27,437.81,163.8,438.11Z"/><path class="cls-20" d="M169.12,435.34c-1.68-.32-3.33-.76-5-1.23s-3.25-1-4.85-1.63a41.44,41.44,0,0,1-4.66-2.12,14.59,14.59,0,0,1-4.1-3,18.21,18.21,0,0,0,4.29,2.69c1.52.73,3.07,1.41,4.66,2s3.17,1.19,4.78,1.74S167.5,434.81,169.12,435.34Z"/><path class="cls-20" d="M173.9,430.89c-1.58-.58-3.14-1.22-4.68-1.89s-3.07-1.4-4.59-2.13-3-1.53-4.47-2.38A24.66,24.66,0,0,1,156,421.6a38.64,38.64,0,0,0,4.35,2.55c1.49.77,3,1.53,4.5,2.26C167.86,427.92,170.91,429.34,173.9,430.89Z"/><path class="cls-17" d="M180.68,419.55l-8-18.92s44.24-14,44.24-33.11c0-28.18-17.86-55.35-17.86-55.35s-6.89-55.09,6.26-49.67S241.75,329.24,241.91,368C242.06,405.6,180.68,419.55,180.68,419.55Z"/><path class="cls-17" d="M121.26,423.11,129.79,401s-51.15-12-50.87-34.17C79.28,338.6,91,311.19,91,311.19s4.39-55.53-8.29-49.06-40.34,79.16-31.2,116.8C61.84,421.49,121.26,423.11,121.26,423.11Z"/><line class="cls-21" x1="188.92" y1="433.91" x2="188.92" y2="442.31"/><line class="cls-21" x1="193.12" y1="438.11" x2="184.72" y2="438.11"/><line class="cls-22" x1="142.44" y1="385.33" x2="142.44" y2="392.33"/><line class="cls-22" x1="145.94" y1="388.83" x2="138.94" y2="388.83"/><circle class="cls-23" cx="115.73" cy="440.01" r="2.16"/><path class="cls-24" d="M119.19,181.05c2.2,27.6,37.36,27.11,37.36,0Z"/><path class="cls-25" d="M137.87,160.52c-4.73,0-8.69-2.05-9.71-4.79a4.19,4.19,0,0,0-.27,1.4c0,3.42,4.47,6.19,10,6.19s10-2.77,10-6.19a3.75,3.75,0,0,0-.27-1.4C146.56,158.47,142.6,160.52,137.87,160.52Z"/><path class="cls-2" d="M119.21,180.93c2.2,22.34,37.32,21.94,37.32,0Z"/><polygon class="cls-26" points="99.11 167.7 90.68 172.41 81.6 139.37 81.36 128.01 99.11 167.7"/><polygon class="cls-26" points="178.1 167.7 186.53 172.41 195.61 139.37 195.84 128.01 178.1 167.7"/><path class="cls-26" d="M136,227.48c-52,0-50.61-67.67-48.57-70.68a2.43,2.43,0,0,1,2.21-.71,14.22,14.22,0,0,1,3.25,1c1.39.51,2.77,1,4.17,1.47a22.19,22.19,0,0,0,4.89,1.1,17.7,17.7,0,0,0,3.85,0,6.69,6.69,0,0,0,.78-.14,22.59,22.59,0,0,0,4.08-1.56c.84-.37,1.69-.7,2.53-1a66.67,66.67,0,0,0,8.43-4.38,33.2,33.2,0,0,1,17-4.57h.14a33.08,33.08,0,0,1,17,4.57,66.67,66.67,0,0,0,8.43,4.38l2.53,1a23.18,23.18,0,0,0,4.08,1.56,7.09,7.09,0,0,0,.78.14,17.79,17.79,0,0,0,3.86,0,22,22,0,0,0,4.88-1.1c1.4-.46,2.78-1,4.17-1.47a14.73,14.73,0,0,1,3.25-1,2.43,2.43,0,0,1,2.21.71c2,3,3.31,70.68-48.73,70.68Z"/><path class="cls-27" d="M136,226.05c-50.17,0-48.79-64.31-46.82-67.17a2.44,2.44,0,0,1,2.13-.68,15.72,15.72,0,0,1,3.14,1c1.33.48,2.67,1,4,1.39a21.06,21.06,0,0,0,4.7,1,16.53,16.53,0,0,0,3.72,0,3.3,3.3,0,0,0,.75-.14,22,22,0,0,0,3.94-1.49l2.44-1a66.79,66.79,0,0,0,8.12-4.16,32.37,32.37,0,0,1,16.38-4.35h.14a32.37,32.37,0,0,1,16.38,4.35,66.79,66.79,0,0,0,8.12,4.16c.82.32,1.63.64,2.44,1a22.31,22.31,0,0,0,3.94,1.49c.25.06.5.1.75.14a16.53,16.53,0,0,0,3.72,0,20.91,20.91,0,0,0,4.71-1c1.34-.43,2.68-.91,4-1.39a15.72,15.72,0,0,1,3.14-1,2.43,2.43,0,0,1,2.13.68c2,2.86,3.19,67.17-47,67.17Z"/><path class="cls-18" d="M136.12,223.07c-48.58,0-47.24-59.5-45.33-62.15a2.37,2.37,0,0,1,2.06-.63,14.77,14.77,0,0,1,3,.88c1.29.45,2.58.9,3.89,1.3a22.24,22.24,0,0,0,4.56,1,18,18,0,0,0,3.59,0,3.59,3.59,0,0,0,.73-.12,23.09,23.09,0,0,0,3.81-1.38c.78-.32,1.57-.61,2.36-.91a63.65,63.65,0,0,0,7.87-3.85,32.51,32.51,0,0,1,15.85-4h.14a32.49,32.49,0,0,1,15.85,4,64.35,64.35,0,0,0,7.87,3.85c.79.3,1.58.59,2.36.91a23.43,23.43,0,0,0,3.81,1.38c.24.05.48.09.73.12a18,18,0,0,0,3.59,0,22.24,22.24,0,0,0,4.56-1c1.31-.4,2.6-.85,3.89-1.3a15,15,0,0,1,3-.88,2.36,2.36,0,0,1,2.06.63c1.91,2.65,3.09,62.15-45.48,62.15Z"/><path class="cls-28" d="M102.87,176.41s21.54,7.65,36.73,7.58c14.1-.06,34.06-7.58,34.06-7.58s-18.06,1.87-33.94,1.65S102.87,176.41,102.87,176.41Z"/><path class="cls-28" d="M102.87,193.29s22.89,7.07,36.07,6.83c14.1-.25,34.72-6.83,34.72-6.83s-18.06,1.19-33.94,1S102.87,193.29,102.87,193.29Z"/><path class="cls-28" d="M102.87,206.36s22.64,8,37.37,7.95c14.11-.11,33.42-9,33.42-9s-18.46,4-34.34,3.83S102.87,206.36,102.87,206.36Z"/><path class="cls-29" d="M92.09,164.76a2.31,2.31,0,0,1,2-.61A14.16,14.16,0,0,1,97,165c1.25.43,2.5.87,3.76,1.25a20.79,20.79,0,0,0,4.4.94,18.39,18.39,0,0,0,3.48,0,3.42,3.42,0,0,0,.7-.12,22.87,22.87,0,0,0,3.69-1.33c.75-.31,1.51-.59,2.27-.88a63.59,63.59,0,0,0,7.6-3.72,31.44,31.44,0,0,1,15.32-3.89h.13a31.41,31.41,0,0,1,15.32,3.89,63.59,63.59,0,0,0,7.6,3.72c.76.29,1.52.57,2.28.88a23.11,23.11,0,0,0,3.68,1.33c.23.05.47.09.71.12a16.77,16.77,0,0,0,3.47,0,20.66,20.66,0,0,0,4.4-.94c1.26-.38,2.51-.82,3.76-1.25a14.34,14.34,0,0,1,2.94-.85,2.3,2.3,0,0,1,2,.61c1.14,1.59,2,24.49-8.83,41.54,12.93-17.82,12-43.66,10.76-45.38a2.36,2.36,0,0,0-2.06-.63,15,15,0,0,0-3,.88c-1.29.45-2.58.9-3.89,1.3a22.24,22.24,0,0,1-4.56,1,18,18,0,0,1-3.59,0,3.59,3.59,0,0,1-.73-.12,23.43,23.43,0,0,1-3.81-1.38c-.78-.32-1.57-.61-2.36-.91a64.35,64.35,0,0,1-7.87-3.85,32.49,32.49,0,0,0-15.85-4h-.14a32.51,32.51,0,0,0-15.85,4,63.65,63.65,0,0,1-7.87,3.85c-.79.3-1.58.59-2.36.91a23.09,23.09,0,0,1-3.81,1.38c-.24.05-.48.09-.73.12a18,18,0,0,1-3.59,0,22.24,22.24,0,0,1-4.56-1c-1.31-.4-2.6-.85-3.89-1.3a14.77,14.77,0,0,0-3-.88,2.37,2.37,0,0,0-2.06.63c-1,1.46-1.91,20.23,5.67,36.76C90.34,182.4,91.13,166.09,92.09,164.76Z"/><path class="cls-30" d="M149.78,205.21V206a10,10,0,0,1-.33,2.18c-.11.43-.24.86-.39,1.27A11.39,11.39,0,0,1,148,211.6a14.52,14.52,0,0,1-12.52,6.78c-7.91,0-14.32-5.91-14.32-13.17S127.54,192,135.45,192a14.54,14.54,0,0,1,12.68,7,12.29,12.29,0,0,1,1,2.18,11.55,11.55,0,0,1,.35,1.28,10.76,10.76,0,0,1,.28,2.18A3.62,3.62,0,0,1,149.78,205.21Z"/><ellipse class="cls-31" cx="138.27" cy="205.21" rx="13.16" ry="12.09"/><path class="cls-32" d="M148.61,205.21v.7a9.77,9.77,0,0,1-.3,2,11.33,11.33,0,0,1-.36,1.17,10.68,10.68,0,0,1-1,2,13.35,13.35,0,0,1-11.5,6.22c-7.26,0-13.15-5.42-13.15-12.09s5.89-12.09,13.15-12.09a13.33,13.33,0,0,1,11.64,6.45,11.65,11.65,0,0,1,.92,2,11.37,11.37,0,0,1,.58,3.17A2.47,2.47,0,0,1,148.61,205.21Z"/><path class="cls-29" d="M148,201.57h-8.89a1,1,0,1,1,0-2h8A11.51,11.51,0,0,1,148,201.57Z"/><path class="cls-29" d="M148.59,204.74h-9.47a1,1,0,0,1,0-2h9.21A10.44,10.44,0,0,1,148.59,204.74Z"/><path class="cls-29" d="M148.58,205.91a9.77,9.77,0,0,1-.3,2h-9.16a1,1,0,0,1,0-2Z"/><path class="cls-32" d="M148,209.08a10.68,10.68,0,0,1-1,2h-7.83a1,1,0,0,1,0-2Z"/><path class="cls-33" d="M131.2,196.71s-11,5.78-3.33,15.85"/><rect class="cls-7" x="65.92" y="99.69" width="144.96" height="12.81"/><path class="cls-34" d="M80.83,99.69h115v73.82A30.51,30.51,0,0,1,165.32,204h-54a30.51,30.51,0,0,1-30.49-30.49V99.69Z"/><path class="cls-35" d="M188,184.33V99.69H176.73v84.64c0,7-3.62,13.45-9.55,18.25A46.4,46.4,0,0,1,157.3,204l-.07,0h2.54a43.57,43.57,0,0,0,23.69-6.64A21.72,21.72,0,0,0,188,184.33Z"/><ellipse class="cls-2" cx="88.34" cy="106.09" rx="2.91" ry="2.17"/><ellipse class="cls-2" cx="187.97" cy="106.09" rx="2.91" ry="2.17"/></g></g></svg>