<svg xmlns="http://www.w3.org/2000/svg" viewBox="0 0 300.52 821.26"><defs><style>.cls-1{isolation:isolate;}.cls-2{fill:#fff;}.cls-3{fill:#22366b;}.cls-4{fill:#cfcfcf;}.cls-10,.cls-13,.cls-4,.cls-6{mix-blend-mode:multiply;}.cls-5{fill:#3e3e3e;}.cls-6{fill:#b7c1c6;}.cls-7{fill:#f8c4c4;}.cls-8{fill:#f79a9a;}.cls-9{fill:#e3ac81;}.cls-10{fill:#ebe0da;}.cls-11{fill:#f8ba8c;}.cls-12{fill:#793b16;}.cls-13{fill:#eadbd8;}.cls-14{fill:#5b2c0b;}.cls-15{fill:#803e19;}.cls-16{fill:#0874b7;}.cls-17{fill:#2b96f4;}.cls-18,.cls-19,.cls-20{fill:none;stroke:#fff;stroke-linecap:round;stroke-linejoin:round;}.cls-18{stroke-width:2.27px;}.cls-19{stroke-width:1.89px;}.cls-20{stroke-width:0.91px;}</style></defs><g class="cls-1"><g id="OBJECT"><path class="cls-2" d="M74.76,816.67c24.38-6.46,45.14-11.14,50-14.34,3.3-2.16-.06-10.67-.06-10.67L98.42,778,44,800.84s-1.26,5.41,1,8.59C48.87,814.71,62.51,819.91,74.76,816.67Z"/><path class="cls-2" d="M229.85,816.67c-24.38-6.46-45.14-11.14-50-14.34-3.3-2.16.07-10.67.07-10.67L206.19,778l54.43,22.89s1.28,5.41-1,8.59C255.75,814.71,242.1,819.91,229.85,816.67Z"/><path class="cls-3" d="M230.35,810.76c-24.37-6.46-45.24-11-50-14.34s0-24.86,0-24.86l26.36.48S243.41,793.58,254,795.7C273.12,799.53,250,815.94,230.35,810.76Z"/><path class="cls-4" d="M259.91,798.18A32.37,32.37,0,0,1,240.09,804c-5.9-.33-11.4-2.13-16.83-4.37-5.62-2.32-12.27-4.46-17.26-8-7.22-5.1-10.39-12.88-15.17-19.92l-10.5-.2s-4.78,21.51,0,24.86,25.65,7.88,50,14.34C247,815.16,266.21,804,259.91,798.18Z"/><path class="cls-5" d="M151.24,501.37c6.69,10.52,18.82,59,20.73,119.64,2.06,65.48-1.91,157.25,4.78,161.07,11.27,6.44,37.76-3.34,40.14-10.52-.47-13.85-11.72-207.7-5.27-288.71C174.11,461.11,136,477.44,151.24,501.37Z"/><path class="cls-6" d="M192.37,772.24c-7.83-9.22-7.92-25-9.31-36.42-2.2-18.15.53-35.88-2-54.09-1.64-11.83-5.71-28.62-.39-39.93,1.86-4,7.39-5.72,10.24-8.72,1.9-2-4.26-3.65-5.51-4.37-1.75-1-2.94-3.21-3.69-5-2.32-5.43-1.66-12.55-2.29-18.31-1.07-9.82-1.92-19.66-2.42-29.53-1.17-22.77,3.57-63-24.21-71.58,6.86,14.8,17.4,60.47,19.17,116.69,2.06,65.48-1.91,157.25,4.78,161.07,8,4.57,23.67,1,32.94-4.08C203.3,778.75,197.18,777.91,192.37,772.24Z"/><path class="cls-3" d="M74.76,810.76c24.38-6.46,45.24-11,50-14.34s0-24.86,0-24.86L98.42,772S61.7,793.58,51.11,795.7C32,799.53,55.16,815.94,74.76,810.76Z"/><path class="cls-4" d="M124.78,771.56l-14,.26a15.91,15.91,0,0,1-7.93,19.72c-8.18,4.25-17.56,9-26.58,10.83-10.13,2.11-20.82-1-31-1.25a3.31,3.31,0,0,1-1.3-.28c.2,5.94,16.44,13.71,30.78,9.92,24.38-6.46,45.24-11,50-14.34S124.78,771.56,124.78,771.56Z"/><path class="cls-5" d="M148.05,499.54c-6.69,10.51-15.8,60.78-17.71,121.47-2.06,65.48,3.52,157.25-3.17,161.07-11.27,6.44-37.76-3.34-40.15-10.52.5-14.29,9.72-207.4,3.23-288.83C127.77,461,163.28,475.61,148.05,499.54Z"/><path class="cls-6" d="M148.05,499.54c.49-.78.93-1.54,1.32-2.3-19.23,13-24.76,40.2-27.08,62.34-1.63,15.55-.18,31-1.4,46.53-.47,6.07-.91,13.23-5,18.15-2.58,3.13-5.9,5.3-9.29,7.41,3.52,2.34,7.76,4.3,9.51,8,3.34,7-1.24,11-1,18,.31,10.14,2.64,20.09,2.61,30.27s-1.13,20.53-.92,30.79c.31,15.07,5.45,33.79-3.42,47.48-6,9.23-12.54,10.88-21,10.74,8.9,5.57,26.19,10,34.74,5.13,6.69-3.82,1.11-95.59,3.17-161.07C132.25,560.32,141.36,510.05,148.05,499.54Z"/><path class="cls-5" d="M91.46,487.79c-1.88-13.87-1.47-34.4.56-40.38S205,429.17,208.14,445.72c1.24.06,5.67,19.45,3.48,37.13C208.4,508.94,94.57,510.72,91.46,487.79Z"/><path class="cls-7" d="M208.14,445.72C189.87,459.61,112,460,92,447.41c-6.68-14.59-2.89-126.52-2.89-126.52S73.38,271.14,77.94,266c9.28-10.5,63.53-21.76,63.53-21.76S199.19,257,205.5,266c3.07,4.39-5.13,45-2.83,88.87C205.11,401.27,211.92,429.75,208.14,445.72Z"/><path class="cls-8" d="M191.34,327.68a231.33,231.33,0,0,0,7.64,51c2.09,8.12,3.82,16.33,5.91,24.44a60.72,60.72,0,0,0,2.77,7.91c-1.53-14.81-3.79-33.31-5-56.17-1.38-26.4,1-51.61,2.51-68.46C198,299.31,190.91,313.45,191.34,327.68Z"/><path class="cls-8" d="M151.88,447.47c-25,.9-44.8-11.75-48.75-24.87s-2.84-69.46-4.56-94.13c-1.19-17-7.54-30.54-18.72-41.23,3.54,15.51,9.28,33.65,9.28,33.65S85.34,432.82,92,447.41c14.48,9.16,59.48,11.44,90.06,6.7C171.63,453.67,161.91,447.11,151.88,447.47Z"/><path class="cls-9" d="M166.45,250.41s-7.19,12.72-24.3,12.72a34,34,0,0,1-26.25-12.61s3.23-1.17,7.07-6.31,4.33-12.36,1.38-37.81c-3.65-31.56,28.72-34.23,30.06-6.45-.81,32.2.27,39.67,4.29,45.35C161.46,249.2,166.45,250.41,166.45,250.41Z"/><path class="cls-10" d="M131.57,243.07c1.12-8.51,11-21.63,2.47-29.14a21.86,21.86,0,0,0-9.37-4.66c2.59,23.11,2.1,29.86-1.7,34.94s-7.07,6.31-7.07,6.31A39.77,39.77,0,0,0,136.25,262C132.41,257.22,130.58,250.66,131.57,243.07Z"/><path class="cls-11" d="M209.93,114.71c-2.39-.42-5.66.56-8.78,2.52.21-8.64.35-17.75.49-27.38.49-34.42-35.73-51.47-65.7-47.94C98.51,46.31,73.25,61.56,74.06,92c.21,8,.65,19.35,1.48,31.85-4.05-2.44-8.53-3.47-11.41-2.55-7.42,2.39-8.14,11.46-4.07,23.5S72.74,164.94,79.49,163c1.81,12.55,3.86,19.76,7.32,28.14,5.81,14.06,31,34.87,51.78,34.87,25.34,0,50.75-26.93,54.12-38.39,2.88-9.81,5-16.63,6.31-29.67a4.41,4.41,0,0,0,.7.23c7,1.34,14.68-8,17.23-20.71C219.46,124.93,217.59,116,209.93,114.71Z"/><path class="cls-10" d="M104.11,204.85c-4.75-5.83-10.86-15.29-12.65-22.57-2.06-8.38-8.53-22.59-8.53-22.59s-16.33-2.78-18.66-16.9c-.26-1.59-4.34-16.93-4.49-18.52-3.13,4.12-2.77,11.47.28,20.49,4.09,12.05,12.68,20.18,19.43,18.19,1.81,12.55,3.86,19.76,7.32,28.14,5.17,12.51,25.71,30.35,44.78,34.14C121.06,220.11,111.49,213.91,104.11,204.85Z"/><path class="cls-10" d="M201.5,99c-3.73-10.17-2.38-20-11.22-22.37-5.73-1.53-31.77,21-37.47,19.43-12.69-3.62-23.34-8.25-33.41-16.8-3.08-2.62-8.78-7.33-12.74-3.44-2.54,2.5-8.6-2.78-10,.45-3.34,7.58-8-2.14-13.28,4.39-1.63,2-4,13.07-5.9,14.79-2.92,2.65,4.72,23.88,5.06,27.4a138.43,138.43,0,0,1,.26,16.79c.26-.32,2.58,2.77,2.85,2.44,4.72-5.83,3.59-17.27,2.3-24.43-2.68-14.89,8.87-26.52,8.87-26.52A40.69,40.69,0,0,0,110.14,101a111.61,111.61,0,0,0,39,9.08c17.48.86,34.48-11.6,38.06-7.48s.77,28.76.77,28.76S204.16,106.23,201.5,99Z"/><path class="cls-12" d="M98.78,86s0-25.24-8.2-37.2C84.69,41.45,68,68.91,68,68.91S57.59,85.3,65.27,122c17-2.15,17.19,12.3,18.16,21.79,1.71-1.77,4.84-4.83,4.84-4.83a71.19,71.19,0,0,1-4.9-28.39C85.83,87.44,98.78,86,98.78,86Z"/><path class="cls-12" d="M191.32,86.91s5.14,19.44,1.54,30.7a139.3,139.3,0,0,1-4.07,16.59l5.33,5.11c.45-7.73.08-21.7,14.35-24.68,3.57-9.57-4.35-40.33-4.35-40.33Z"/><path class="cls-12" d="M116.18,118.57c-.55.85-4.66-1.76-9.31-1.25-8.44.91-11.62,6.12-11.62,6.12a14.08,14.08,0,0,1,11.6-11.31c5.75-1,8.87.25,9.93,1.21S116.72,117.72,116.18,118.57Z"/><path class="cls-10" d="M118.22,181.05c2.2,27.6,37.36,27.11,37.36,0Z"/><path class="cls-13" d="M136.9,160.52c-4.73,0-8.69-2.05-9.71-4.79a4,4,0,0,0-.27,1.4c0,3.42,4.47,6.19,10,6.19s10-2.77,10-6.19a4,4,0,0,0-.27-1.4C145.59,158.47,141.63,160.52,136.9,160.52Z"/><path class="cls-13" d="M113.92,129.93a6,6,0,1,1-6-6A6,6,0,0,1,113.92,129.93Z"/><path class="cls-14" d="M116.18,131.39a6,6,0,1,1-6-6A6,6,0,0,1,116.18,131.39Z"/><path class="cls-12" d="M156.07,118.57c.54.85,4.65-1.76,9.3-1.25,8.44.91,11.63,6.12,11.63,6.12a14.09,14.09,0,0,0-11.61-11.31c-5.75-1-8.87.25-9.93,1.21S155.52,117.72,156.07,118.57Z"/><path class="cls-13" d="M158.32,129.93a6,6,0,1,0,6-6A6,6,0,0,0,158.32,129.93Z"/><path class="cls-14" d="M156.07,131.39a6,6,0,1,0,6-6A6,6,0,0,0,156.07,131.39Z"/><path class="cls-15" d="M205.51,63.31c0,27.48-15.17,41.48-58.63,41.48A71.83,71.83,0,0,1,98.78,86l-8.2-37.2s-1-7.3,11.28-10.86c6.7-1.94,32.68-6.86,53.17-.82C177,14.68,205.56,38.86,205.51,63.31Z"/><path class="cls-16" d="M159.9,245.68c-3.08,7.66-10.57,16.3-19.33,16.3s-16.25-8.64-19.33-16.3c0,0-11.22,4.17-10.31,6.11,3.62,7.74,10.19,17.79,18.24,20.79,3.55,1.33,7.45-7.33,11.46-7.33s7.18,7.48,10.61,6.26c8.36-3,15.45-12,19.1-20C171.19,249.64,159.9,245.68,159.9,245.68Z"/><polygon class="cls-12" points="193.22 142.79 187.45 137.42 188.24 135 193.22 140.31 193.22 142.79"/><polygon class="cls-12" points="83.6 147.73 89.96 142.33 89.17 139.91 83.6 145.24 83.6 147.73"/><path class="cls-2" d="M118.24,180.93c2.2,22.34,37.32,21.94,37.32,0Z"/><path class="cls-17" d="M112.49,250l-.12-.12S119.82,247.81,112.49,250Z"/><path class="cls-8" d="M159.9,245.68c-3.08,7.66-10.57,16.3-19.33,16.3s-16.25-8.64-19.33-16.3c0,0-11.22,4.17-10.31,6.11,3.62,7.74,10.19,17.79,18.24,20.79,3.55,1.33,7.45-7.33,11.46-7.33s7.18,7.48,10.61,6.26c8.36-3,15.45-12,19.1-20C171.19,249.64,159.9,245.68,159.9,245.68Z"/><path class="cls-11" d="M201.3,295.94c15.64,3.87,21.29,7.62,30.3,75.65v.27a27.17,27.17,0,0,1-9.41,22.66c-11.29,9.7-30.5,24.24-50.79,30.86-5.37,4.07-11.55,12.07-15.09,14.15s-14.38,3.74-17.05,4.07-5.84-2-3.53-4.44c-4.09,1-5.53-.23-5-2.84-3.14,1.37-7.18-1.08-4.54-4.51-1.57-.56-4.45-1.73.38-5.68S137,417.45,137,417.45s-6.08.52-4.4-2.37,12.56-10.45,17.28-10,34.27,7.25,71.79-29c-2.85-9.57-10-35.84-10-35.84"/><path class="cls-10" d="M143.42,406s3.65-3,7.5-1.89,14.26,5.7,17,8.45,2.73,4.13,1.49,4.85-2.21,1.24-2.21,1.24l5.48,4.94-2.31,1.92s-24.41,16.26-25.8,15.7c-4.58-1.88-12.79-10.32-12.79-10.32s-5-5.62-5.24-6S143.42,406,143.42,406Z"/><path class="cls-11" d="M89.88,285.24c-16.7,3.62-21.51,15.22-30,83.38v.26a26.63,26.63,0,0,0,9.74,22.32c12.15,9.92,33.41,25.32,55.71,32.45,5.84,4.19,12.59,12.32,16.43,14.48s15.48,4,18.35,4.37,6.22-1.93,3.7-4.39c4.4,1.05,5.93-.14,5.31-2.77,3.39,1.43,7.69-1,4.79-4.45,1.68-.53,4.75-1.66-.5-5.71s-11.27-8.9-11.27-8.9,6.53.63,4.68-2.3-13.65-10.7-18.7-10.36-31.72,8-72.56-29c2.9-9.55,8.34-51.13,8.34-51.13"/><path class="cls-7" d="M180.68,422.55l-8-18.92s44.24-14,44.24-33.11c0-28.18-17.86-55.35-17.86-55.35s-6.89-55.09,6.26-49.67,36.43,66.74,36.59,105.5C242.06,408.6,180.68,422.55,180.68,422.55Z"/><path class="cls-7" d="M122.63,425l7.16-21s-46.68-13.81-50.87-34.17C79.28,341.6,91,314.19,91,314.19s2.41-57-10.27-50.57S42.37,344.29,51.51,381.93C61.84,424.49,122.63,425,122.63,425Z"/><line class="cls-18" x1="188.92" y1="433.91" x2="188.92" y2="442.31"/><line class="cls-18" x1="193.12" y1="438.11" x2="184.72" y2="438.11"/><line class="cls-19" x1="142.44" y1="385.33" x2="142.44" y2="392.33"/><line class="cls-19" x1="145.94" y1="388.83" x2="138.94" y2="388.83"/><circle class="cls-20" cx="115.73" cy="440.01" r="2.16"/></g></g></svg>