<?xml version="1.0" encoding="UTF-8"?>
<svg width="286px" height="280px" viewBox="0 0 286 280" version="1.1" xmlns="http://www.w3.org/2000/svg" xmlns:xlink="http://www.w3.org/1999/xlink">
    <!-- Generator: Sketch 61.1 (89650) - https://sketch.com -->
    <title>Group 13</title>
    <desc>Created with Sketch.</desc>
    <defs>
        <polygon id="path-1" points="6.38649367e-05 0.227360261 285.935182 0.227360261 285.935182 219.932864 6.38649367e-05 219.932864"></polygon>
        <path d="M175,293 C134.333333,301 98,299.333333 66,288 C18,271 12,230 12,228 C12,226 9,195 9,193 C9,191 0,123 0,123 C0,123 6,95 9,93 C12,91 51,38 51,34 C51,30 79,8 80,8 C80.6666667,8 92.6666667,5.33333333 116,1.13686838e-13 L156,21 C162.666667,30.3333333 166,35.6666667 166,37 C166,38.3333333 183.333333,55.3333333 218,88 C228.666667,109.333333 234.666667,120 236,120 C237.333333,120 239.333333,127.666667 242,143 L245,209 C235,225.666667 230,236.333333 230,241 C230,245.666667 230,253 230,263 C206.666667,284.333333 194.333333,295 193,295 C191.666667,295 185.666667,294.333333 175,293 Z" id="path-3"></path>
        <radialGradient cx="47.293275%" cy="53.1193972%" fx="47.293275%" fy="53.1193972%" r="135.947181%" gradientTransform="translate(0.472933,0.531194),scale(0.267572,1.000000),rotate(44.382992),translate(-0.472933,-0.531194)" id="radialGradient-5">
            <stop stop-color="#E22D5C" offset="0%"></stop>
            <stop stop-color="#FFFFFF" offset="100%"></stop>
        </radialGradient>
        <radialGradient cx="48.4637628%" cy="61.1742849%" fx="48.4637628%" fy="61.1742849%" r="139.068924%" gradientTransform="translate(0.484638,0.611743),scale(0.256780,1.000000),rotate(44.382992),translate(-0.484638,-0.611743)" id="radialGradient-6">
            <stop stop-color="#E22D5C" offset="0%"></stop>
            <stop stop-color="#FFFFFF" offset="100%"></stop>
        </radialGradient>
        <radialGradient cx="49.8575787%" cy="43.7251551%" fx="49.8575787%" fy="43.7251551%" r="96.2199485%" gradientTransform="translate(0.498576,0.437252),scale(0.420920,1.000000),rotate(44.382992),translate(-0.498576,-0.437252)" id="radialGradient-7">
            <stop stop-color="#E22D5C" offset="0%"></stop>
            <stop stop-color="#FFFFFF" offset="100%"></stop>
        </radialGradient>
        <radialGradient cx="46.9503033%" cy="49.6277744%" fx="46.9503033%" fy="49.6277744%" r="115.421858%" gradientTransform="translate(0.469503,0.496278),scale(0.321459,1.000000),rotate(44.382992),translate(-0.469503,-0.496278)" id="radialGradient-8">
            <stop stop-color="#E22D5C" offset="0%"></stop>
            <stop stop-color="#FFFFFF" offset="100%"></stop>
        </radialGradient>
        <radialGradient cx="48.3011461%" cy="50.4356045%" fx="48.3011461%" fy="50.4356045%" r="137.422407%" gradientTransform="translate(0.483011,0.504356),scale(0.262997,1.000000),rotate(44.382992),translate(-0.483011,-0.504356)" id="radialGradient-9">
            <stop stop-color="#E22D5C" offset="0%"></stop>
            <stop stop-color="#FFFFFF" offset="100%"></stop>
        </radialGradient>
        <radialGradient cx="47.4877406%" cy="52.8535115%" fx="47.4877406%" fy="52.8535115%" r="134.042649%" gradientTransform="translate(0.474877,0.528535),scale(0.271018,1.000000),rotate(44.382992),translate(-0.474877,-0.528535)" id="radialGradient-10">
            <stop stop-color="#E22D5C" offset="0%"></stop>
            <stop stop-color="#FFFFFF" offset="100%"></stop>
        </radialGradient>
        <radialGradient cx="46.6641225%" cy="53.9687793%" fx="46.6641225%" fy="53.9687793%" r="133.184059%" gradientTransform="translate(0.466641,0.539688),scale(0.274902,1.000000),rotate(44.382992),translate(-0.466641,-0.539688)" id="radialGradient-11">
            <stop stop-color="#E22D5C" offset="0%"></stop>
            <stop stop-color="#FFFFFF" offset="100%"></stop>
        </radialGradient>
        <radialGradient cx="48.6588305%" cy="51.9070875%" fx="48.6588305%" fy="51.9070875%" r="158.557514%" gradientTransform="translate(0.486588,0.519071),scale(0.227737,1.000000),rotate(44.382992),translate(-0.486588,-0.519071)" id="radialGradient-12">
            <stop stop-color="#E22D5C" offset="0%"></stop>
            <stop stop-color="#FFFFFF" offset="100%"></stop>
        </radialGradient>
        <radialGradient cx="47.5047859%" cy="52.9377876%" fx="47.5047859%" fy="52.9377876%" r="160.194336%" gradientTransform="translate(0.475048,0.529378),scale(0.225031,1.000000),rotate(44.382992),translate(-0.475048,-0.529378)" id="radialGradient-13">
            <stop stop-color="#E22D5C" offset="0%"></stop>
            <stop stop-color="#FFFFFF" offset="100%"></stop>
        </radialGradient>
        <radialGradient cx="46.5501707%" cy="53.3821069%" fx="46.5501707%" fy="53.3821069%" r="140.604815%" gradientTransform="translate(0.465502,0.533821),scale(0.255079,1.000000),rotate(44.382992),translate(-0.465502,-0.533821)" id="radialGradient-14">
            <stop stop-color="#E22D5C" offset="0%"></stop>
            <stop stop-color="#FFFFFF" offset="100%"></stop>
        </radialGradient>
        <radialGradient cx="42.7170832%" cy="55.6143845%" fx="42.7170832%" fy="55.6143845%" r="122.089285%" gradientTransform="translate(0.427171,0.556144),scale(0.293617,1.000000),rotate(44.382992),translate(-0.427171,-0.556144)" id="radialGradient-15">
            <stop stop-color="#E22D5C" offset="0%"></stop>
            <stop stop-color="#FFFFFF" offset="100%"></stop>
        </radialGradient>
        <radialGradient cx="30.58824%" cy="56.3868625%" fx="30.58824%" fy="56.3868625%" r="45.4051061%" gradientTransform="translate(0.305882,0.563869),scale(0.791329,1.000000),rotate(44.382992),translate(-0.305882,-0.563869)" id="radialGradient-16">
            <stop stop-color="#E22D5C" offset="0%"></stop>
            <stop stop-color="#FFFFFF" offset="100%"></stop>
        </radialGradient>
    </defs>
    <g id="Page-1" stroke="none" stroke-width="1" fill="none" fill-rule="evenodd">
        <g id="Home" transform="translate(-830.000000, -2462.000000)">
            <g id="Group-13" transform="translate(830.000000, 2444.000000)">
                <g id="Group-12-Copy-3" opacity="0.265601749" transform="translate(0.000000, 78.000000)">
                    <path d="M17.1767981,33.3827462 C17.5432078,26.3536059 18.5506675,19.0749535 22.4189926,13.1798987 C28.1393885,4.46223845 39.1380192,0.458432177 49.5987151,0.0436846966 C66.1442142,-0.612611716 82.0790306,6.215459 96.3903652,14.4974685 C110.701366,22.779478 124.148401,32.6829842 139.357406,39.1941879 C167.233573,51.1286296 198.586295,50.7527024 228.844793,53.1054819 C238.831959,53.882221 249.429475,55.2313116 257.150107,61.5776117 C263.585302,66.8671351 267.1009,75.020407 268.388673,83.222785 C271.781133,104.82582 260.697073,126.916266 243.996734,141.141109 C227.296395,155.366616 205.727947,162.732531 184.155827,166.977887 C160.158329,171.700367 135.106987,172.903799 111.353428,167.087712 C66.8146305,156.182507 34.8876002,121.245507 22.4433532,78.216617 C18.2426565,63.6928238 16.390252,48.481877 17.1767981,33.3827462" id="Fill-1" fill="#90CCFF"></path>
                    <g id="Group-5">
                        <mask id="mask-2" fill="white">
                            <use xlink:href="#path-1"></use>
                        </mask>
                        <g id="Clip-4"></g>
                        <path d="M157.229101,34.6254719 C179.93102,20.3744854 202.524351,3.29769414 229.208218,0.563861344 C237.969975,-0.333864831 247.099924,0.45256196 255.023728,4.28905842 C266.178062,9.69007767 273.793814,20.5597622 278.455013,32.0196 C288.732302,57.2878927 286.618041,85.7362154 282.724966,112.726649 C279.954508,131.933124 276.210113,151.463834 266.42898,168.237717 C253.202816,190.918799 229.740459,206.546033 204.499622,213.94311 C179.259454,221.340187 152.303954,221.117255 126.25891,217.418716 C100.717707,213.791156 75.3348724,206.743972 53.2166481,193.498679 C31.0984238,180.253386 12.3858047,160.395443 3.6471014,136.185494 C0.4433,127.310534 -1.38562991,117.51119 1.29060841,108.46395 C8.81915748,83.0150454 49.9249752,82.0973253 70.4247603,75.3583809 C100.869393,65.3507667 130.098193,51.6562771 157.229101,34.6254719" id="Fill-3" fill="#4DBCFF" mask="url(#mask-2)"></path>
                    </g>
                    <path d="M158.457016,194 C149.175388,194 139.102348,193.235513 128.518083,191.729269 C102.699376,188.053913 81.8715508,181.298211 64.8446456,171.077747 C53.8337463,164.468123 43.8369384,155.908004 36.2223927,145.525081 C30.5477607,137.787948 17.6444258,119.378409 27.7482265,110.998799 C30.7938442,108.473349 34.7589314,107.373918 38.641768,106.613108 C44.5868913,105.448827 50.5176374,104.397532 56.4286567,103.160714 C63.7442912,101.630402 70.6546904,100.183993 76.9806413,98.099787 C109.472022,87.3932866 140.560794,72.769415 169.38299,54.6333139 C172.833508,52.4618621 176.272659,50.2339179 179.597795,48.0795142 C197.180729,36.6880839 213.788356,25.9280994 230.564497,24.2055792 C231.894552,24.0688607 233.189834,24 234.415905,24 C237.826635,24 240.72915,24.5325004 242.810495,25.5410087 C252.597329,30.2827024 256.469801,45.7586415 258.036911,55.4833757 C263.063568,86.6702493 259.017568,135.146839 239.109546,161.11668 C220.325618,185.620055 187.996398,194 158.457016,194 Z" id="Stroke-6" stroke="#FFF0DE" stroke-width="1.33"></path>
                    <path d="M159.859018,170 C140.757329,169.965084 120.420826,166.469407 102.611026,161.07574 C93.565119,158.33603 84.6649192,154.761326 76.6799191,149.644085 C74.8166181,148.449938 55.1498959,131.38989 57.1414458,130.223991 C60.862676,128.045204 65.2167572,127.296299 69.4429252,126.446844 C99.8815414,120.331174 128.686496,107.990542 155.812801,93.0938116 C167.334715,86.7646012 178.436632,79.5741661 189.743344,72.870671 C194.567447,70.0102351 227.621735,46.632746 232.252121,50.4122474 C233.305978,51.2717906 233.666216,52.7043625 233.939164,54.0384031 C237.303849,70.4682546 235.992488,90.4375004 233.940843,107.075512 C231.939893,123.302248 226.444666,139.722011 214.909657,151.290197 C203.087936,163.146243 186.088252,168.658282 169.392404,169.714888 C166.261723,169.913296 163.077996,170.005774 159.859018,170 Z" id="Stroke-8" stroke="#FFF0DE" stroke-width="1.33"></path>
                    <path d="M159.622479,143.999338 C146.284089,143.975187 131.400204,141.980236 117,138.325802 C133.350393,132.303893 150.168333,124.608938 167.709947,115.144 C175.689183,110.836493 183.345069,106.231562 190.748525,101.778486 C194.763185,99.3643626 198.554658,97.0842288 202.405961,94.8401564 C203.754825,94.0540858 205.338303,93.0294813 208.507275,90.9683621 C209.011461,90.6408327 209.50926,90.3179351 210,90 C209.689422,94.3756601 209.223891,99.0371641 208.604415,103.974587 C207.476048,112.965103 204.507069,125.282523 196.769842,132.908003 C190.454753,139.131392 180.069209,142.987967 167.526424,143.769075 C165.068352,143.921922 162.483562,144 159.843984,144 L159.622479,143.999338 Z" id="Stroke-10" stroke="#FFF0DE" stroke-width="1.33"></path>
                </g>
                <g id="Group-81" transform="translate(24.000000, 0.000000)">
                    <mask id="mask-4" fill="white">
                        <use xlink:href="#path-3"></use>
                    </mask>
                    <g id="Mask"></g>
                    <g id="Wound-22" mask="url(#mask-4)">
                        <g transform="translate(39.000000, 18.000000)">
                            <path d="M118.593688,137.746495 C114.232326,136.951881 109.827155,136.412334 105.401233,136.130679 C100.966946,135.898425 97.4861119,132.294304 97.4654453,127.913816 L97.4654453,109 L68.6299655,109 L68.6299655,127.938867 C68.6394449,132.260824 65.2436216,135.846523 60.8719391,136.130679 C57.0433794,136.353125 53.2290829,136.77121 49.4444041,137.383249 L49,176 L119,176 L118.593688,137.746495 Z" id="Path" fill="#FBA489" fill-rule="nonzero"></path>
                            <path d="M69,122.489561 C78.0748211,127.170146 88.9251789,127.170146 98,122.489561 L98,100 L69,100 L69,122.489561 Z" id="Path" fill="#F1856A" fill-rule="nonzero"></path>
                            <path d="M60,75.666833 C60,82.479559 54.8328767,88 48.4684932,88 C42.1041096,88 37,76.9842109 37,70.1714849 C37,63.3587589 42.0410959,62.317403 48.4684932,63.333666 C54.8958904,64.349929 60,68.8541069 60,75.666833 Z" id="Path" fill="#FBA489" fill-rule="nonzero"></path>
                            <path d="M108,75.666833 C108,82.479559 113.167123,88 119.54411,88 C125.921096,88 131,76.9842109 131,70.1714849 C131,63.3587589 125.958904,62.317403 119.54411,63.333666 C113.129315,64.349929 108,68.8541069 108,75.666833 Z" id="Path" fill="#FBA489" fill-rule="nonzero"></path>
                            <path d="M120.07416,42.2835821 C115.613896,29.4427861 83.5,29 83.5,29 C83.5,29 51.3861035,29.4427861 46.9258401,42.2835821 C42.4655767,55.1243781 42.911603,81.6915423 49.6019981,94.5323383 C56.2923932,107.373134 68.7811308,118 83.5,118 C98.2188692,118 110.707607,107.373134 117.398002,94.5323383 C124.088397,81.6915423 124.534423,55.1243781 120.07416,42.2835821 Z" id="Path" fill="#FBA489" fill-rule="nonzero"></path>
                            <path d="M68,70.5 C68,73.5394737 65.9924127,76 63.5068285,76 C61.0212443,76 59,73.5394737 59,70.5 C59,67.4605263 61.0212443,65 63.5068285,65 C65.9924127,65 68,67.4605263 68,70.5 Z" id="Path" fill="#391829" fill-rule="nonzero"></path>
                            <path d="M108,70.5 C108,73.5394737 105.992413,76 103.506829,76 C101.021244,76 99,73.5394737 99,70.5 C99,67.4605263 101.021244,65 103.506829,65 C105.992413,65 108,67.4605263 108,70.5 Z" id="Path" fill="#391829" fill-rule="nonzero"></path>
                            <path d="M83.537158,92 C91.8507777,92 94.8567611,97.7968361 94.8567611,98.049973 C95.0175055,98.3701604 95.044133,98.7417933 94.9306968,99.0818749 C94.8172607,99.4219565 94.5732101,99.7021581 94.253049,99.8599022 C93.5895076,100.189389 92.7861022,99.9180098 92.4544898,99.2523735 C92.4293351,99.0751776 90.1151052,94.6705948 83.537158,94.6705948 C76.9592109,94.6705948 74.5820942,99.1764324 74.5569396,99.2270598 C74.3322671,99.6588971 73.895726,99.9373121 73.4117571,99.9574287 C72.9277881,99.9775452 72.4699178,99.736307 72.2106214,99.3245863 C71.9513249,98.9128655 71.9299957,98.3932123 72.1546682,97.9613751 C72.2804416,97.7968361 75.2235384,92 83.537158,92 Z" id="Path" fill="#DB675C" fill-rule="nonzero"></path>
                            <path d="M56.9501103,33.1625949 C59.125762,32.8481594 61.3437225,32.9908425 63.4602429,33.5813966 C65.6022487,34.2087049 67.2719078,35.8797939 67.8855983,38.0105421 C68.4867304,40.7898626 66.6065939,43.4422736 64.8671478,45.6885737 L57.2826514,55.3717772 C55.3899856,57.5804583 53.8106978,60.0356506 52.5887051,62.66908 C51.7206985,64.959523 51.1866565,67.3611885 51.0027396,69.8014002 C50.6342646,73.0876429 50.4889828,76.3947577 50.5678781,79.7003501 C50.6092585,80.0504446 50.556297,80.4051656 50.4143975,80.7283179 C50.1828995,81.0483469 49.8631021,81.2951513 49.4935143,81.4390118 L46.232053,83 C44.8379381,76.8702657 43.1880224,57.6180774 42.51015,55.4098501 C41.3331538,51.573207 40.5279916,47.6338282 40.1056217,43.6453289 C39.9647928,42.7709702 39.9647928,41.8799677 40.1056217,41.005609 C40.7801314,39.0486878 42.2441684,37.4580784 44.1472757,36.6145364 C48.1330343,34.6097207 52.4899315,33.435 56.9501103,33.1625949 Z" id="Path" fill="#382040" fill-rule="nonzero"></path>
                            <path d="M102.680383,18.0805612 C102.479049,18.1123131 102.296526,18.2155357 102.167343,18.3707027 C101.513216,19.2411273 102.462341,22.1551574 102.641905,23.0508116 C102.8856,24.3122965 105.322542,32.2218067 103.539726,32.8147046 C101.394059,33.4377303 99.7234313,35.0999037 99.1147516,37.2172868 C98.511929,39.9799387 100.397353,42.6164421 102.128865,44.8492703 L109.747517,54.4743999 C111.641032,56.6730828 113.224355,59.1129256 114.454664,61.727938 C115.319158,64.0063778 115.854513,66.3927979 116.045089,68.817483 C116.408219,72.0844992 116.553891,75.3713632 116.481174,78.6570651 C116.439677,79.00506 116.492787,79.3576535 116.635086,79.6788678 C116.863902,80.000114 117.185661,80.2462513 117.558559,80.3852994 L120.829192,82 C120.829192,82 120.829192,81.7224733 120.829192,81.7350882 C122.393966,74.4815501 122.842876,66.9631002 123.740697,59.6086434 C124.189608,55.9377224 124.048522,52.304646 125.228515,48.7724883 C127.062635,43.2471845 128.563278,37.4191244 127.793718,31.6036791 C127.545415,29.413098 126.781282,27.3096166 125.561991,25.4602477 C123.821314,23.1988146 121.403495,21.531117 118.64877,20.6918349 C115.905403,19.86372 113.080883,19.3224927 110.222079,19.0771342 C108.926652,18.9131412 104.334939,17.676886 102.680383,18.0805612 Z" id="Path" fill="#382040" fill-rule="nonzero"></path>
                            <path d="M106.932372,13.8343534 C102.568132,8.88638526 97.9366937,3.75942085 91.7656837,1.44525487 C84.6149463,-1.26525998 76.6371663,0.332920943 69.2319543,2.19959626 C65.1094651,3.24800295 60.8979098,4.43704956 57.5133971,7.00692449 C53.8744098,9.78136657 51.5205193,13.8982806 48.4159287,17.2352824 C45.3113381,20.5722842 40.7816895,23.3339408 36.3538308,22.0553961 C35.8248718,25.5827143 35.8893883,29.1742648 36.5446868,32.6801029 C38.3132855,40.4152986 44.9296262,46.373317 52.3730094,48.9943338 C59.8163926,51.6153505 67.9850285,51.3340706 75.7719525,50.0427404 C83.5588765,48.7514103 91.180392,46.4628152 97.2496122,41.5532034 C102.365361,37.1380408 106.301768,31.5080453 108.700971,25.1750452 C109.61708,22.9759483 110.405951,20.5339278 109.769764,18.2325473 C109.166793,16.5699062 108.196702,15.0661856 106.932372,13.8343534 Z" id="Path" fill="#382040" fill-rule="nonzero"></path>
                            <path d="M83.5,83.1970149 C81.4423902,83.3466937 79.456418,82.5027458 78.33,81 C78.1408038,81.2719646 78.0277716,81.5787006 78,81.8955224 C78,83.6149254 80.46125,85 83.5,85 C86.53875,85 89,83.6149254 89,81.8955224 C88.9708007,81.5806007 88.8628774,81.2749951 88.68375,81 C87.5507723,82.5026543 85.5611968,83.3458908 83.5,83.1970149 Z" id="Path" fill="#E4776D" fill-rule="nonzero"></path>
                            <path d="M65.9997706,83.9476936 C66.0209599,86.3790525 64.5726403,88.5828119 62.3323891,89.5279716 C60.0921379,90.4731313 57.5029414,89.972796 55.7761213,88.261041 C54.0493012,86.549286 53.5263181,83.9645929 54.4518428,81.7161766 C55.3773675,79.4677603 57.5683872,78.0002216 59.999862,78.0001293 C61.5852569,77.9896952 63.1094889,78.611285 64.235452,79.727425 C65.3614152,80.8435651 65.9963281,82.3622835 65.9997706,83.9476936 L65.9997706,83.9476936 Z" id="Path" fill="#F8918B" fill-rule="nonzero"></path>
                            <path d="M113.999643,83.9347647 C114.026085,86.3672382 112.581138,88.5749376 110.34135,89.5241838 C108.101562,90.4734299 105.510271,89.9763307 103.780761,88.2656357 C102.051251,86.5549407 101.525858,83.9692619 102.450578,81.7192542 C103.375299,79.4692466 105.567096,78.0002727 107.999736,78.000129 C109.58289,77.9897211 111.105149,78.6095474 112.230733,79.7228864 C113.356317,80.8362255 113.992749,82.3516058 113.999643,83.9347647 Z" id="Path" fill="#F8918B" fill-rule="nonzero"></path>
                            <path d="M145,145.479415 C126.737608,137.651571 117.234097,135.710469 106.026768,135 C104.070534,139.579987 94.8194402,143.043522 83.6625954,143.043522 C72.5057506,143.043522 63.2672774,139.579987 61.3110433,135 C50.1163359,135.710469 39.2623919,138.641153 21,146.418249 C21,146.418249 40.5749618,214.826248 41.773944,237.383633 C42.4049873,249.131743 42.0389822,278.19753 41.5215267,286 L125.816285,286 C125.29883,278.19753 124.932824,249.131743 125.551247,237.383633 C126.750229,214.915056 145,145.479415 145,145.479415 Z" id="Path" fill="#6BDAED" fill-rule="nonzero"></path>
                            <path d="M145,145.479415 C126.737608,137.651571 117.234097,135.710469 106.026768,135 C104.070534,139.579987 94.8194402,143.043522 83.6625954,143.043522 C72.5057506,143.043522 63.2672774,139.579987 61.3110433,135 C50.1163359,135.710469 39.2623919,138.641153 21,146.418249 C21,146.418249 40.5749618,214.826248 41.773944,237.383633 C42.4049873,249.131743 42.0389822,278.19753 41.5215267,286 L125.816285,286 C125.29883,278.19753 124.932824,249.131743 125.551247,237.383633 C126.750229,214.915056 145,145.479415 145,145.479415 Z" id="Path" fill="#0066CF" fill-rule="nonzero" opacity="0.7"></path>
                            <path d="M57.078299,61.9997876 C56.7891437,62.0057976 56.5110068,61.8840247 56.3124482,61.6644856 C56.112534,61.4585112 56,61.1774998 56,60.8842636 C56,60.5910273 56.112534,60.310016 56.3124482,60.1040415 C60.2406573,56.504968 65.9513605,55.9828918 70.418925,58.8144184 C70.7711393,59.0012708 70.9949371,59.3767542 71,59.7891918 C71.0048934,60.2016295 70.7902294,60.5828814 70.4426369,60.7789406 C70.0950445,60.9749998 69.6719503,60.9534748 69.3442635,60.7230607 C65.7054763,58.3548082 61.0135963,58.7364365 57.7700352,61.6644856 C57.589334,61.8649619 57.3415978,61.9850459 57.078299,61.9997876 L57.078299,61.9997876 Z" id="Path" fill="#382040" fill-rule="nonzero"></path>
                            <path d="M109.966296,61.9995288 C109.695508,62.0080726 109.433059,61.9001137 109.239196,61.700435 C106.010732,58.716796 101.306596,58.3304844 97.6795463,60.7511371 C97.3521886,61.000112 96.9192457,61.0313252 96.5628382,60.8316468 C96.2064306,60.6319683 95.9884055,60.2360481 96.0004766,59.8104329 C96.0125477,59.3848178 96.2526204,59.0033641 96.6197063,58.8265332 C101.077828,55.9755897 106.772688,56.5017944 110.693395,60.1269413 C111.102202,60.5627427 111.102202,61.2646336 110.693395,61.700435 C110.493974,61.8908217 110.235216,61.9972626 109.966296,61.9995288 L109.966296,61.9995288 Z" id="Path" fill="#382040" fill-rule="nonzero"></path>
                            <path d="M78.7877004,169.688397 C78.2531558,164.897604 79.0931544,161.335862 78.9913364,156.582693 C78.9913364,154.4005 78.011338,152.130517 77.4386116,149.133136 C76.9804305,146.75028 73.4422542,144.442673 72.5513466,146.913318 C71.8513477,148.857226 73.1240729,151.528532 73.2513454,153.397192 C73.4549815,156.595235 73.1368002,158.062572 70.3113501,156.846062 C67.689536,155.704799 66.6204468,153.622936 66.174993,150.675721 C65.6484676,147.982825 65.7837519,145.204854 66.5695378,142.574013 C67.1092853,141.15267 67.5057415,139.682425 67.7531723,138.184543 C67.9949901,136.353507 64.965904,134.973959 63.7568149,136.842619 C62.3672884,139.226677 61.5001712,141.871203 61.2113644,144.605711 C61.1134084,146.02805 60.9306691,147.443484 60.6640925,148.844685 C60.4986383,148.919933 61.0713646,143.602403 61.1095464,142.875005 C61.2750007,139.112603 62.0513631,137.13107 62.1531811,134.898711 C62.2931809,131.675586 58.3350053,133.042592 57.2786433,135.400365 C56.6791525,136.965474 56.3521328,138.619089 56.3113721,140.291489 C56.1840996,141.946946 56.1840996,143.602403 56.2222814,145.308026 C56.2222814,146.173379 56.2986449,147.001107 56.3877356,147.816295 C56.3877356,148.355572 56.7186442,150.324563 56.3877356,150.449977 C56.3877356,150.449977 55.5731915,144.906703 55.6113732,145.320567 C55.6113732,145.433439 55.802282,141.1443 55.700464,139.977955 C55.598646,138.81161 55.3950099,137.582559 54.0968302,137.156153 C52.7986504,136.729747 51.7550157,138.799069 51.5513796,139.952872 C50.2786544,145.458522 53.0277409,152.494216 52.7222869,152.983328 C52.4168328,153.47244 51.2331983,144.981951 49.5277464,144.96941 C49.3970311,144.949201 49.263917,144.949201 49.1332016,144.96941 C46.8168416,145.508687 48.547748,151.591239 49.9350185,155.002484 C50.9007211,157.698438 52.1820959,160.27426 53.7531943,162.677786 C56.0059181,166.063949 58.5131868,168.735255 62.6622712,170.102261 C64.6174606,170.572295 66.4373583,171.477532 67.9822628,172.748485 C68.5549892,173.26268 68.7840798,174.617145 69.4458969,174.867972 C69.8277145,175.520122 70.2222593,176.247519 70.6295314,177 C73.655729,174.917457 76.3976023,172.460106 78.7877004,169.688397 L78.7877004,169.688397 Z" id="Path" fill="#FBA489" fill-rule="nonzero"></path>
                            <path d="M83.3680285,252.863218 C83.6836204,252.85206 83.9982804,252.822787 84.310402,252.77555 C89.162352,252.09925 92.4606592,250.421024 97.1725267,249.356478 C99.324704,248.868039 101.782516,249.193665 104.813393,249.005804 C107.271205,248.855515 110.416695,251.660907 108.200844,253.1137 C106.456179,254.265914 103.52718,253.702331 101.655168,254.053005 C98.4460044,254.641636 97.0833833,255.305412 98.980865,257.69751 C100.878347,260.089608 103.068728,260.427757 106.074136,260.114656 C108.854584,259.956581 111.556759,259.149467 113.956963,257.76013 C115.222688,256.895559 116.570337,256.153195 117.981152,255.54337 C119.713082,254.86707 121.801585,257.409456 120.273412,259.025061 C118.282164,260.922957 115.909427,262.390447 113.307489,263.333342 C111.937806,263.796277 110.594465,264.331413 109.2833,264.936423 C109.2833,265.124284 114.37721,263.270722 115.052154,263.057813 C118.6943,261.980742 120.477168,260.740859 122.69302,260.089608 C125.83851,259.162826 125.456466,263.29577 123.406167,264.861279 C122.011888,265.821636 120.46158,266.541613 118.821647,266.990371 C117.2298,267.516382 115.599749,267.929676 113.931493,268.305398 C113.065528,268.49326 112.237768,268.643548 111.384538,268.781313 C110.836942,268.856458 108.837582,269.069367 108.837582,269.357421 C108.837582,269.357421 114.491823,268.781313 114.071576,268.843934 C113.956963,268.843934 118.13397,267.591526 119.305569,267.441238 C120.440877,267.040277 121.709999,267.374774 122.489263,268.28035 C123.278819,269.532758 121.432277,270.922929 120.362556,271.44894 C115.268645,273.953755 107.627779,273.114642 107.25847,273.527936 C106.889162,273.941231 115.497871,272.976877 115.930853,274.605007 C115.947922,274.733878 115.947922,274.864382 115.930853,274.993253 C115.930853,277.335254 109.563465,277.184965 105.743032,276.721575 C102.846345,276.444084 99.9918716,275.838929 97.2362006,274.918108 C93.4157675,273.590557 90.1047255,271.862235 87.736057,268.28035 C86.7976674,266.525971 85.459652,265.008641 83.8264805,263.846829 C83.1897416,263.433535 81.8016509,263.558775 81.3814033,262.982668 C80.6427862,262.782283 79.8404953,262.581898 79,262.381513 C80.1565117,259.083877 81.6186672,255.897719 83.3680285,252.863218 L83.3680285,252.863218 Z" id="Path" fill="#FBA489" fill-rule="nonzero"></path>
                            <path d="M87.9635627,250.426363 C80.3432713,248.275414 50.6368357,236.508458 36.1709827,229.625421 C31.8147162,227.537735 30.6970735,224.754154 31.4464021,221.565688 C33.9864992,211.03869 35.8407701,201.321461 36.1074803,199.107249 C38.558674,178.736496 33.4276779,145.510659 28.3347832,145.029859 C21.8829365,144.422532 9.89367821,153.089592 7.58218985,170.145353 C5.0801942,188.42842 0,221.375898 0,236.938648 C0,256.069442 71.910149,266.798882 83.2516825,270 C83.2516825,270 88.4842826,255.866999 87.9635627,250.426363 Z" id="Path" fill="#00ADFF" fill-rule="nonzero"></path>
                            <path d="M76.4914839,165 C76.4914839,165 114.764011,212.614388 118.995336,214.848087 C123.226661,217.081786 112.769062,245.350069 112.044781,244.996715 C92.9847574,236.352174 71.7264781,179.298198 67.7619933,174.124093 C63.7975084,168.949988 67.7619933,165 67.7619933,165 L76.4914839,165 Z" id="Path" fill="#FBA489" fill-rule="nonzero"></path>
                            <path d="M146.432303,146.253378 C141.519416,143.306895 125.26521,166.688255 120.617543,183.643233 C118.570923,191.305777 117.001811,199.08929 115.919358,206.948391 C103.113014,193.359007 109.326743,203.02398 104.780112,195.111657 C99.9808902,198.845562 86,216.702266 86,216.702266 C91.3345671,225.834698 97.7184163,234.304715 105.020073,241.937878 C109.857183,247.170425 114.972143,249.672396 119.60718,250.155009 L119.60718,250.256612 C135.293057,256.517889 146.735412,222.315824 153.479581,181.979486 C155.272974,171.387387 157.634697,152.946467 146.432303,146.253378 Z" id="Path" fill="#00ADFF" fill-rule="nonzero"></path>
                            <path d="M79.5137517,183.465709 C77.0688087,185.891332 76.3291811,189.552627 77.6408004,192.737169 C78.9524197,195.92171 82.056014,198 85.5,198 C88.943986,198 92.0475803,195.92171 93.3591996,192.737169 C94.6708189,189.552627 93.9311913,185.891332 91.4862483,183.465709 C88.1724514,180.178097 82.8275486,180.178097 79.5137517,183.465709 Z" id="Path" fill="#F33737" fill-rule="nonzero" opacity="0.230794271"></path>
                            <g id="Group" opacity="0.5" style="mix-blend-mode: multiply;" stroke-width="1" fill="none" fill-rule="evenodd" transform="translate(76.000000, 183.000000)">
                                <path d="M16.4666667,6.12266667 L15.2,5.64977778 L15.2,5.64977778 C13.2746667,4.97777778 11.324,4.40533333 9.348,3.79555556 C7.372,3.18577778 5.282,2.78755556 3.21733333,2.36444444 C3.21733333,2.36444444 3.21733333,2.36444444 3.21733333,2.36444444 C5.244,2.8 7.258,3.22311111 9.24666667,3.78311111 L9.44933333,3.78311111 C7.09333333,3.16088889 4.674,2.72533333 2.25466667,2.32711111 C2.19133333,2.32711111 2.25466667,2.32711111 2.25466667,2.32711111 C4.68666667,2.72533333 7.11866667,3.16088889 9.5,3.77066667 C11.8813333,4.38044444 14.212,5.16444444 16.5173333,6.01066667 C16.4666667,6.22222222 16.4666667,6.13511111 16.4666667,6.12266667 Z" id="Path" fill="url(#radialGradient-5)" fill-rule="nonzero"></path>
                                <path d="M18.316,7.21777778 C17.29,6.78222222 16.2386667,6.39644444 15.1873333,5.97333333 L15.5166667,6.048 C15.5166667,6.048 15.5166667,6.048 15.5166667,6.048 L14.592,5.824 L13.908,5.6 L16.15,6.22222222 C16.15,6.22222222 16.15,6.22222222 16.15,6.22222222 C15.01,5.88622222 13.8573333,5.56266667 12.7046667,5.27644444 C11.8602222,5.02755556 11.0157778,4.79111111 10.1713333,4.56711111 C7.33811762,3.80359541 4.46760134,3.18058591 1.57066667,2.70044444 C1.50733333,2.70044444 1.50733333,2.70044444 1.57066667,2.76266667 C2.964,3.03644444 4.35733333,3.23555556 5.738,3.54666667 C7.11866667,3.85777778 8.626,4.20622222 10.0573333,4.592 L11.514,5.00266667 L9.89266667,4.65422222 C7.73933333,4.24355556 5.56066667,3.98222222 3.39466667,3.70844444 C3.31866667,3.70844444 3.39466667,3.70844444 3.39466667,3.77066667 C5.56066667,4.09422222 7.72666667,4.33066667 9.86733333,4.74133333 C10.8426667,4.91555556 11.818,5.13955556 12.7806667,5.376 L13.832,5.69955556 C11.9573333,5.25155556 10.032,4.84088889 8.15733333,4.45511111 C5.624,4.01955556 3.17933333,3.73333333 0.658666667,3.53422222 C0.557333333,3.53422222 0.658666667,3.62133333 0.658666667,3.63377778 C3.192,3.84533333 5.61133333,4.10666667 8.056,4.52977778 C10.2093333,4.90311111 12.35,5.36355556 14.478,5.87377778 C15.7446667,6.28444444 17.0113333,6.73244444 18.1893333,7.24266667 C18.316,7.26755556 18.3666667,7.23022222 18.316,7.21777778 Z" id="Path" fill="url(#radialGradient-6)" fill-rule="nonzero"></path>
                                <path d="M17.5306667,11.5857778 C16.264,11.1253333 14.9973333,10.5653333 13.8193333,10.1048889 L12.1346667,9.49511111 C12.8186667,9.66933333 13.5026667,9.856 14.1866667,10.0551111 C14.1866667,10.0551111 14.2626667,10.0551111 14.1866667,9.99288889 C13.2113333,9.70666667 12.236,9.43288889 11.2606667,9.184 L9.994,8.74844444 C8.094,8.12622222 6.194,7.59111111 4.23066667,7.14311111 L5.49733333,7.30488889 C6.194,7.392 6.878,7.504 7.57466667,7.616 L8.84133333,7.952 C11.2986667,8.64888889 13.7306667,9.47022222 16.1373333,10.3288889 C16.1373333,10.3288889 16.2133333,10.3288889 16.1373333,10.3288889 C13.5026667,9.38311111 10.83,8.49955556 8.11933333,7.74044444 L9.09466667,7.90222222 L9.85466667,8.03911111 C11.1213333,8.35022222 12.388,8.66133333 13.6546667,9.00977778 C14.3513333,9.184 15.0353333,9.38311111 15.732,9.58222222 L16.7453333,9.856 L17.214,10.0053333 C17.400179,10.0483977 17.5823687,10.1066746 17.7586667,10.1795556 C17.7586667,10.1795556 17.7586667,10.1795556 17.7586667,10.1795556 C17.5206244,10.0782368 17.2750133,9.9950292 17.024,9.93066667 C16.6946667,9.81866667 16.3653333,9.73155556 16.036,9.64444444 L13.9333333,8.94755556 L11.5646667,8.33777778 C13.0846667,8.64888889 14.6046667,8.99733333 16.112,9.39555556 C16.112,9.39555556 16.188,9.39555556 16.112,9.33333333 C14.0008889,8.77748148 11.8686667,8.2962963 9.71533333,7.88977778 L9.63933333,7.88977778 C8.208,7.54133333 6.77666667,7.23022222 5.33266667,6.944 L4.30666667,6.74488889 L4.19266667,6.74488889 L5.02866667,6.80711111 C5.63666667,6.80711111 6.29533333,6.95644444 6.878,7.03111111 C7.46066667,7.10577778 8.018,7.168 8.588,7.25511111 L9.272,7.392 C11.9066667,7.91466667 14.4906667,8.63644444 17.0746667,9.34577778 C17.0746667,9.34577778 17.0746667,9.34577778 17.0746667,9.34577778 C14.5413333,8.63644444 12.1346667,7.96444444 9.62666667,7.44177778 L10.64,7.59111111 C11.9066667,7.79022222 13.11,8.01422222 14.3386667,8.25066667 L15.6813333,8.53688889 C16.4413333,8.78577778 17.2013333,9.04711111 17.9486667,9.32088889 C17.9486667,9.32088889 17.9486667,9.32088889 17.9486667,9.32088889 L16.1626667,8.68622222 L17.9866667,9.10933333 C17.9866667,9.10933333 17.9866667,9.10933333 17.9866667,9.10933333 L15.5293333,8.52444444 L14.1106667,8.064 C12.7764444,7.65748148 11.4337778,7.28414815 10.0826667,6.944 L9.70266667,6.85688889 L10.184,6.93155556 C11.4506667,7.14311111 12.8186667,7.392 14.136,7.69066667 L14.478,7.77777778 C15.7446667,8.22577778 17.0873333,8.736 18.3793333,9.23377778 C18.3793333,9.23377778 18.3793333,9.23377778 18.3793333,9.23377778 C17.2393333,8.78577778 16.0993333,8.32533333 14.934,7.91466667 C15.96,8.16355556 16.9986667,8.42488889 18.0373333,8.66133333 C18.0373333,8.66133333 18.0373333,8.66133333 18.0373333,8.66133333 C16.7706667,8.35022222 15.504,8.00177778 14.136,7.69066667 C12.768,7.37955556 11.6026667,6.89422222 10.336,6.54577778 C9.06933333,6.19733333 7.524,5.79911111 6.10533333,5.50044444 C4.94,5.264 3.77466667,5.06488889 2.60933333,4.85333333 C4.94,5.16444444 7.27066667,5.45066667 9.60133333,5.84888889 L11.5266667,6.20977778 C13.756,6.81955556 15.9346667,7.57866667 18.1006667,8.38755556 C18.1006667,8.38755556 18.1006667,8.38755556 18.1006667,8.38755556 C16.2133333,7.65333333 14.3006667,6.98133333 12.35,6.39644444 C14.1613333,6.78222222 15.9726667,7.21777778 17.7586667,7.728 C17.7586667,7.728 17.7586667,7.728 17.7586667,7.728 C15.7066667,7.13066667 13.6166667,6.63288889 11.514,6.19733333 L10.678,5.97333333 L9.10733333,5.58755556 L10.374,5.824 C12.5822587,6.23001606 14.7646107,6.76187717 16.91,7.41688889 C16.91,7.41688889 16.91,7.41688889 16.91,7.41688889 C14.8085938,6.74827329 12.6683185,6.20389151 10.5006667,5.78666667 C9.43666667,5.57511111 8.37266667,5.40088889 7.30866667,5.21422222 L2.774,4.26844444 C2.774,4.26844444 2.698,4.26844444 2.774,4.26844444 C4.04066667,4.57955556 5.30733333,4.79111111 6.574,5.06488889 C5.71776278,4.98922827 4.87001513,4.83931079 4.04066667,4.61688889 C3.97733333,4.61688889 3.93933333,4.61688889 4.04066667,4.69155556 C4.4482152,4.84135464 4.87412288,4.93759483 5.30733333,4.97777778 C5.89,5.05244444 6.47266667,5.11466667 7.04266667,5.21422222 L8.15733333,5.41333333 C8.94266667,5.58755556 9.728,5.78666667 10.5133333,5.98577778 C7.43533333,5.38844444 4.31933333,4.96533333 1.178,4.64177778 C1.102,4.64177778 1.178,4.71644444 1.178,4.71644444 L1.68466667,4.79111111 L1.68466667,4.79111111 C3.078,5.06488889 4.484,5.28888889 5.86466667,5.57511111 C7.24533333,5.86133333 8.702,6.22222222 10.108,6.58311111 C11.2733333,6.89422222 12.4386667,7.23022222 13.5913333,7.60355556 C12.4766667,7.35466667 11.3493333,7.14311111 10.2346667,6.95644444 C9.538,6.832 8.854,6.72 8.15733333,6.62044444 C6.05466667,6.16 3.914,5.79911111 1.824,5.51288889 C1.76066667,5.51288889 1.824,5.51288889 1.824,5.51288889 C3.20466667,5.74933333 4.61066667,5.92355556 5.97866667,6.19733333 L6.97933333,6.39644444 C5.40866667,6.17244444 3.82533333,5.99822222 2.22933333,5.91111111 C2.11533333,5.91111111 2.22933333,6.01066667 2.22933333,6.01066667 C4.37,6.20977778 6.498,6.44622222 8.56266667,6.75733333 L9.994,7.08088889 C11.650695,7.45970887 13.2867919,7.9207442 14.896,8.46222222 L14.2626667,8.32533333 C12.996,8.08888889 11.8433333,7.86488889 10.6273333,7.65333333 C9.728,7.504 8.82866667,7.37955556 7.92933333,7.25511111 L5.06666667,6.45866667 C3.8,6.20977778 2.40666667,6.02311111 1.064,5.87377778 C0.988,5.87377778 1.064,5.936 1.064,5.936 C2.41933333,6.13511111 3.78733333,6.29688889 5.13,6.54577778 L6.96666667,6.90666667 L6.878,6.90666667 C6.232,6.81955556 5.61133333,6.72 4.91466667,6.67022222 C4.218,6.62044444 3.81266667,6.54577778 3.25533333,6.53333333 L1.30466667,6.13511111 C1.30466667,6.13511111 1.22866667,6.13511111 1.30466667,6.13511111 L2.774,6.44622222 L0.924666667,6.22222222 C0.924666667,6.22222222 0.924666667,6.28444444 0.924666667,6.29688889 C2.11533333,6.53333333 3.31866667,6.70755556 4.50933333,6.91911111 C5.23133333,7.08088889 5.94066667,7.25511111 6.65,7.44177778 C5.52266667,7.26755556 4.39533333,7.11822222 3.25533333,6.98133333 C2.90066667,6.89422222 2.546,6.832 2.19133333,6.75733333 C2.19133333,6.75733333 2.10266667,6.75733333 2.19133333,6.75733333 L2.47,6.75733333 L1.83666667,6.68266667 C1.748,6.68266667 1.83666667,6.75733333 1.83666667,6.76977778 C2.38133333,6.85688889 2.926,6.91911111 3.48333333,6.98133333 C5.624,7.46666667 7.752,8.03911111 9.81666667,8.71111111 L10.45,8.91022222 L8.67666667,8.512 C6.81466667,8.11377778 4.87666667,7.85244444 3.04,7.56622222 C2.964,7.56622222 3.04,7.62844444 3.04,7.64088889 C4.91466667,8.00177778 6.84,8.21333333 8.664,8.59911111 C9.576,8.78577778 10.4753333,8.99733333 11.3746667,9.22133333 C12.274,9.44533333 12.9833333,9.78133333 13.7686667,10.08 C15.0353333,10.5404444 16.2386667,11.088 17.4926667,11.5608889 C17.5306667,11.648 17.5686667,11.6106667 17.5306667,11.5857778 Z M6.13066667,7.19288889 C6.82733333,7.32977778 7.51133333,7.47911111 8.208,7.64088889 L7.27066667,7.49155556 L6.13066667,7.19288889 Z" id="Shape" fill="url(#radialGradient-7)" fill-rule="nonzero"></path>
                                <path d="M10.9566667,10.8266667 L15.3266667,12.3448889 C15.3266667,12.3448889 15.39,12.3448889 15.3266667,12.3448889 C13.984,11.872 12.654,11.3866667 11.3113333,10.9262222 C12.578,11.1377778 13.756,11.3617778 14.972,11.6106667 L15.9346667,11.9964444 C15.9346667,11.9964444 16.0233333,11.9964444 15.9346667,11.9964444 L15.2253333,11.6977778 L15.9853333,11.872 C15.9853333,11.872 16.0613333,11.872 15.9853333,11.872 L14.858,11.6231111 C13.5913333,11.1377778 12.4006667,10.6897778 11.1593333,10.2666667 L12.122,10.416 L12.312,10.416 C12.312,10.416 12.312,10.416 12.312,10.416 L14.6933333,10.8391111 C14.6933333,10.8391111 14.782,10.8391111 14.6933333,10.8391111 C13.7433333,10.6524444 12.806,10.4782222 11.856,10.3164444 L9.79133333,9.856 L9.17066667,9.66933333 C6.82733333,8.94755556 4.45866667,8.42488889 2.06466667,7.80266667 C2.06466667,7.80266667 1.98866667,7.80266667 2.06466667,7.86488889 C4.37,8.44977778 6.67533333,8.98488889 8.94266667,9.66933333 L9.13266667,9.73155556 C7.182,9.35822222 5.206,9.05955556 3.23,8.79822222 C2.30533333,8.58666667 1.368,8.4 0.418,8.21333333 C0.418,8.21333333 0.418,8.21333333 0.418,8.21333333 L2.48266667,8.66133333 C2.48266667,8.66133333 2.48266667,8.74844444 2.55866667,8.74844444 L3.48333333,8.88533333 C4.19266667,9.04711111 4.902,9.20888889 5.61133333,9.39555556 C4.58533333,9.28355556 3.54666667,9.184 2.508,9.10933333 C2.41933333,9.10933333 2.508,9.184 2.508,9.19644444 C3.85066667,9.33333333 5.19333333,9.47022222 6.536,9.632 L7.80266667,9.99288889 C8.60066667,10.2293333 9.39866667,10.4906667 10.184,10.752 L9.20866667,10.5777778 C7.942,10.3537778 6.67533333,10.1546667 5.30733333,9.98044444 C4.39533333,9.73155556 3.48333333,9.50755556 2.57133333,9.28355556 C2.508,9.28355556 2.49533333,9.28355556 2.57133333,9.28355556 L4.76266667,9.856 C3.952,9.75644444 3.12866667,9.65688889 2.30533333,9.58222222 C2.204,9.58222222 2.242,9.66933333 2.30533333,9.68177778 C3.496,9.856 4.68666667,10.0053333 5.89,10.1546667 C6.62466667,10.3537778 7.35933333,10.5653333 8.094,10.7893333 L9.12,11.1004444 L8.37266667,10.9884444 L5.59866667,10.6648889 C4.23066667,10.304 2.85,9.99288889 1.46933333,9.68177778 C1.46933333,9.68177778 1.39333333,9.68177778 1.46933333,9.744 C2.736,10.0177778 4.00266667,10.304 5.18066667,10.6275556 L3.12866667,10.416 C3.02733333,10.416 3.06533333,10.5031111 3.12866667,10.5031111 L5.928,10.8142222 L6.77666667,11.0506667 C7.828,11.3617778 8.86666667,11.6853333 9.90533333,12.0337778 C8.90466667,11.8471111 7.904,11.6977778 6.90333333,11.5484444 L5.89,11.2497778 C4.37,10.8266667 2.82466667,10.4657778 1.27933333,10.0924444 C1.27933333,10.0924444 1.20333333,10.0924444 1.27933333,10.1546667 C2.812,10.5404444 4.35733333,10.8888889 5.87733333,11.312 L6.52333333,11.4986667 L4.43333333,11.2497778 C4.332,11.2497778 4.37,11.3368889 4.43333333,11.3493333 C5.34533333,11.4488889 6.25733333,11.5608889 7.15666667,11.6977778 C8.246,12.0213333 9.32266667,12.3946667 10.3993333,12.768 C10.3993333,12.768 10.4626667,12.768 10.3993333,12.7057778 C9.44933333,12.3697778 8.48666667,12.0462222 7.51133333,11.7475556 C8.49933333,11.8844444 9.48733333,12.0462222 10.4626667,12.2328889 L12.046,12.8177778 C12.046,12.8177778 12.1346667,12.8177778 12.046,12.8177778 L10.7793333,12.3448889 C11.4,12.4568889 12.046,12.5937778 12.6033333,12.7306667 C12.6793333,12.7306667 12.7046667,12.7306667 12.6033333,12.656 C11.8053333,12.4693333 11.0073333,12.2951111 10.1966667,12.1457778 C9.082,11.76 7.96733333,11.3991111 6.84,11.0631111 L6.25733333,10.9013333 L8.22066667,11.1253333 L9.69,11.3368889 L13.49,12.5813333 C13.49,12.5813333 13.49,12.5813333 13.49,12.5813333 L9.994,11.4488889 C11.1593333,11.6355556 12.312,11.8471111 13.4773333,12.0462222 C13.5533333,12.0462222 13.4773333,11.984 13.4773333,11.9715556 C12.1093333,11.7351111 10.754,11.4613333 9.386,11.2373333 L8.00533333,10.8142222 L6.27,10.304 C7.19466667,10.4284444 8.10666667,10.5528889 9.01866667,10.7022222 L10.9566667,10.8266667 Z M6.33333333,9.34577778 C5.78444444,9.19644444 5.23977778,9.05955556 4.69933333,8.93511111 C6.52333333,9.19644444 8.33466667,9.48266667 10.1333333,9.83111111 L10.2346667,9.83111111 C8.86666667,9.66933333 7.6,9.49511111 6.33333333,9.34577778 Z M8.11933333,9.84355556 L7.20733333,9.58222222 C8.474,9.73155556 9.652,9.89333333 10.868,10.0675556 C12.1346667,10.4906667 13.4013333,10.9386667 14.668,11.424 C13.4013333,11.1626667 12.1346667,10.9262222 10.868,10.7022222 C9.93066667,10.4035556 9.006,10.1173333 8.094,9.84355556 L8.11933333,9.84355556 Z" id="Shape" fill="url(#radialGradient-8)" fill-rule="nonzero"></path>
                                <path d="M18.2146667,6.11022222 C16.0866667,5.53777778 14.022,4.79111111 11.8813333,4.16888889 C13.263639,4.50797704 14.6253605,4.9234527 15.96,5.41333333 C15.96,5.41333333 16.074,5.41333333 15.96,5.41333333 C13.8985549,4.66749862 11.7810172,4.08082921 9.62666667,3.65866667 L9.62666667,3.65866667 C7.39733333,3.09866667 5.14266667,2.65066667 2.90066667,2.17777778 C2.79933333,2.17777778 2.774,2.25244444 2.90066667,2.27733333 C4.16733333,2.60088889 5.434,2.84977778 6.70066667,3.12355556 C7.96733333,3.39733333 9.31,3.70844444 10.602,4.04444444 C13.1353333,4.69155556 15.5546667,5.58755556 18.0753333,6.23466667 C18.2526667,6.22222222 18.2653333,6.12266667 18.2146667,6.11022222 Z" id="Path" fill="url(#radialGradient-9)" fill-rule="nonzero"></path>
                                <path d="M16.9226667,4.97777778 C15.1151267,4.29252561 13.2716101,3.70264775 11.4,3.21066667 L9.79133333,2.81244444 C8.00533333,2.352 6.194,1.96622222 4.37,1.568 C4.37,1.568 4.37,1.568 4.37,1.568 L6.84,2.09066667 L5.662,1.87911111 C5.586,1.87911111 5.662,1.87911111 5.662,1.95377778 C7.53666667,2.36444444 9.462,2.688 11.286,3.19822222 L11.476,3.19822222 C13.1353333,3.65866667 14.7693333,4.20622222 16.3906667,4.75377778 C16.3906667,4.75377778 16.3906667,4.75377778 16.3906667,4.75377778 C15.3646667,4.40533333 14.3513333,4.05688889 13.3126667,3.73333333 C14.5793333,4.06933333 15.694,4.44266667 16.8593333,4.89066667 C16.9353333,4.97777778 16.986,4.97777778 16.9226667,4.97777778 Z" id="Path" fill="url(#radialGradient-10)" fill-rule="nonzero"></path>
                                <path d="M18.3033333,4.43022222 C16.6693333,3.92 15.0606667,3.40977778 13.414,2.96177778 C11.7673333,2.51377778 10.0446667,2.14044444 8.34733333,1.71733333 C8.34733333,1.71733333 8.34733333,1.71733333 8.34733333,1.71733333 C10.0446667,2.11555556 11.7546667,2.47644444 13.414,2.96177778 C15.0733333,3.44711111 16.6693333,3.92 18.3033333,4.43022222 C18.3286667,4.49244444 18.3413333,4.44266667 18.3033333,4.43022222 Z" id="Path" fill="url(#radialGradient-11)" fill-rule="nonzero"></path>
                                <path d="M16.8593333,3.37244444 C14.1106667,2.48888889 11.324,1.74222222 8.512,1.07022222 C9.44933333,1.20711111 10.3866667,1.36888889 11.3113333,1.55555556 C13.2185661,1.9280159 15.1009396,2.41424934 16.948,3.01155556 C16.948,3.01155556 16.948,3.01155556 16.948,3.01155556 C13.1711082,1.83236742 9.29122381,0.999183544 5.358,0.522666667 C5.282,0.522666667 5.358,0.522666667 5.358,0.597333333 L7.89133333,0.970666667 C7.89133333,0.970666667 7.89133333,0.970666667 7.89133333,0.970666667 C9.36066667,1.35644444 10.8553333,1.70488889 12.3246667,2.09066667 C13.794,2.47644444 15.0226667,2.83733333 16.3653333,3.26044444 C14.402,2.75022222 12.4513333,2.21511111 10.4753333,1.792 C8.49933333,1.36888889 6.422,0.983111111 4.38266667,0.659555556 C4.294,0.659555556 4.31933333,0.734222222 4.38266667,0.746666667 C6.43466667,1.09511111 8.49933333,1.44355556 10.5386667,1.87911111 C12.578,2.31466667 14.63,2.87466667 16.6693333,3.39733333 L16.6693333,3.39733333 L16.6693333,3.39733333 C16.6693333,3.39733333 16.91,3.38488889 16.8593333,3.37244444 Z" id="Path" fill="url(#radialGradient-12)" fill-rule="nonzero"></path>
                                <path d="M16.834,4.20622222 C15.8206667,3.90755556 14.82,3.584 13.794,3.29777778 C12.768,3.01155556 11.6406667,2.75022222 10.564,2.51377778 C8.436,2.05333333 6.27,1.71733333 4.11666667,1.38133333 C4.04066667,1.38133333 4.11666667,1.38133333 4.11666667,1.456 C6.25733333,1.85422222 8.42333333,2.128 10.5513333,2.58844444 C11.6026667,2.8 12.654,3.04888889 13.6926667,3.32266667 C14.7313333,3.59644444 15.7826667,3.95733333 16.8213333,4.256 C16.872,4.26844444 16.8846667,4.21866667 16.834,4.20622222 Z" id="Path" fill="url(#radialGradient-13)" fill-rule="nonzero"></path>
                                <path d="M15.5926667,4.77866667 C14.326,4.38044444 13.0593333,4.01955556 11.7926667,3.70844444 C10.526,3.39733333 9.25933333,3.19822222 7.99266667,2.88711111 C7.99266667,2.88711111 7.91666667,2.88711111 7.99266667,2.94933333 C9.25933333,3.29777778 10.526,3.48444444 11.7926667,3.77066667 C13.0593333,4.05688889 14.326,4.44266667 15.5926667,4.84088889 C15.6306667,4.85333333 15.6433333,4.80355556 15.5926667,4.77866667 Z" id="Path" fill="url(#radialGradient-14)" fill-rule="nonzero"></path>
                                <path d="M11.134,12.9795556 C9.75333333,12.768 8.38533333,12.5191111 6.992,12.3697778 C6.916,12.3697778 6.992,12.432 6.992,12.4444444 L11.134,13.0666667 C11.2353333,13.0791111 11.1973333,12.992 11.134,12.9795556 Z" id="Path" fill="url(#radialGradient-15)" fill-rule="nonzero"></path>
                                <path d="M9.36066667,13.1911111 C8.87933333,13.1164444 8.398,13.0293333 7.92933333,12.9297778 C7.85333333,12.9297778 7.84066667,12.9297778 7.92933333,12.992 C8.41370567,13.1124716 8.90415133,13.2080091 9.39866667,13.2782222 C9.47466667,13.3031111 9.43666667,13.2035556 9.36066667,13.1911111 Z" id="Path" fill="url(#radialGradient-16)" fill-rule="nonzero"></path>
                            </g>
                            <path d="M92,187 C88.1523997,185.505053 84.1185829,184.496599 80,184 C83.8945915,185.354403 87.9118457,186.358717 92,187 L92,187 Z" id="Path" fill="#A5191E" fill-rule="nonzero"></path>
                            <path d="M92,187 C88.1523997,185.505053 84.1185829,184.496599 80,184 C80,184 84.9989236,185.004132 92,187 Z" id="Path" fill="#5C1213" fill-rule="nonzero"></path>
                            <path d="M92,189 C89.3956184,188.121783 86.7197496,187.452816 84,187 C86.5960982,187.904038 89.2743659,188.573605 92,189 L92,189 Z" id="Path" fill="#A5191E" fill-rule="nonzero"></path>
                            <path d="M92,189 C89.3956184,188.121783 86.7197496,187.452816 84,187 C84,187 87.7188498,187.858896 92,189 Z" id="Path" fill="#5C1213" fill-rule="nonzero"></path>
                            <path d="M90,191 C86.4766813,189.364807 82.7704389,188.354014 79,188 C82.5258593,189.625365 86.2308763,190.635824 90,191 L90,191 Z" id="Path" fill="#A5191E" fill-rule="nonzero"></path>
                            <path d="M88,191 C85.1166969,189.904677 82.0841406,189.230775 79,189 C81.9491855,189.869117 84.956383,190.537383 88,191 Z" id="Path" fill="#5C1213" fill-rule="nonzero"></path>
                            <path d="M86.988792,185.815 C86.5618217,185.685 86.1081658,185.585 85.6545099,185.465 C85.1129296,185.338914 84.5600176,185.242001 84,185.175 C84,185.175 84,185.175 84,185.175 C84.52037,185.315 85.0807685,185.405 85.6144814,185.515 C86.0469749,185.645943 86.4932812,185.749635 86.9487636,185.825 C86.9487636,185.825 87.0288205,185.825 86.988792,185.815 Z" id="Path" fill="#BA1823" fill-rule="nonzero" style="mix-blend-mode: hard-light;"></path>
                            <path d="M89.6897644,190.749388 C89.0954399,190.527347 88.7611324,190.749388 88.1544262,190.513469 C87.4507473,190.273398 86.7299488,190.101608 86,190 C86.1782503,190.167942 86.3787646,190.303721 86.5943245,190.402449 C86.5943245,190.402449 86.5943245,190.402449 86.5943245,190.402449 C86.7252417,190.553514 86.8190791,190.739958 86.8667232,190.943673 C86.9533955,191.262857 86.8667232,191.568163 87.0648313,191.831836 C87.2629395,192.09551 87.4981929,191.443265 87.5105747,191.304489 C87.5229564,191.165714 87.5105747,191.026938 87.8820275,191.110204 L87.9934633,191.346122 C87.9934633,191.498775 88.1791897,191.623673 88.2534803,191.776326 C88.4324654,192.21215 88.4589774,192.707397 88.3277708,193.164081 C88.2533859,193.541971 88.2283612,193.929965 88.2534803,194.315917 C88.2534803,194.496325 88.4020614,194.940407 88.6001695,194.995917 C88.7539369,195.016173 88.9079553,194.960406 89.0220858,194.843147 C89.1362164,194.725889 89.1991531,194.558756 89.194494,194.385305 C89.1860557,194.007661 89.1276373,193.633514 89.0211494,193.275101 C88.9097135,192.844897 89.0211494,192.400816 88.8601865,191.887346 C88.8601865,191.748571 88.5382607,190.804898 88.8601865,191.235102 C88.9592406,191.387755 89.0335311,191.36 89.1821123,191.235102 C89.3306934,191.110204 89.504038,191.401632 89.6526191,191.484898 C89.8012002,191.568163 90.0612172,191.304489 89.9869266,191.040816 C89.9869266,191.165714 89.553565,190.374694 89.6897644,190.749388 Z" id="Path" fill="#A5191E" fill-rule="nonzero"></path>
                            <path d="M83.7866573,185.848142 L83.5733145,185.763328 L83.1110719,185.579564 C82.9293532,185.523825 82.7511314,185.452973 82.577715,185.367528 C82.360225,185.277266 82.1386264,185.201755 81.913982,185.141357 L81.3569204,185 C81.4532969,185.452998 81.4024902,185.932705 81.2146919,186.342892 C81.2146919,186.41357 81.2146919,186.484249 81.2146919,186.540792 C81.1153953,186.782769 81.0436465,187.039482 81.0013492,187.30412 C80.9871772,187.544346 81.0854887,187.774243 81.2568566,187.901611 C81.4282246,188.028979 81.6445829,188.032959 81.819163,187.911955 C82.0695148,187.671228 82.1564572,187.262222 82.0325058,186.90832 C82.0325058,186.766963 81.9613915,186.61147 81.9376868,186.470113 L81.9376868,186.342892 C81.8927346,186.256279 81.8927346,186.146791 81.9376868,186.060178 C81.986929,186.18698 82.0552179,186.301961 82.1391772,186.399435 C82.293258,186.554927 82.6014198,186.399435 82.6843864,186.215671 C82.7191442,186.144277 82.7469788,186.068398 82.767353,185.989499 C82.8384673,185.791599 83.1229243,186.173263 83.1703338,186.215671 C83.2547725,186.324941 83.3788252,186.377781 83.5022003,186.357028 C83.5880863,186.332873 83.663815,186.272661 83.715543,186.187399 C83.7866573,186.060178 83.8577715,186.116721 83.9288858,186.187399 C83.9521325,186.17954 83.9767532,186.17954 84,186.187399 C83.9762953,185.947092 83.9288858,185.862278 83.7866573,185.848142 Z" id="Path" fill="#A5191E" fill-rule="nonzero"></path>
                            <path d="M80.6376451,186 C80.6376451,186 80.6376451,186 80.6376451,186 C80.4776451,186.205607 80.1076451,186.934579 80.6376451,187 C80.6376451,187 80.6376451,187 80.6376451,187 C80.5353401,186.864367 80.4990279,186.694684 80.5376451,186.53271 C80.5535848,186.352669 80.5870567,186.174361 80.6376451,186 Z" id="Path" fill="#BA1823" fill-rule="nonzero" style="mix-blend-mode: hard-light;"></path>
                            <path d="M81.5723401,185.528785 C81.510598,185.492096 81.4590288,185.440527 81.4223401,185.378785 C81.4223401,185.378785 81.4223401,185.378785 81.4223401,185.378785 C81.4121413,185.421518 81.4121413,185.466051 81.4223401,185.508785 C81.4373073,185.552678 81.4651936,185.591022 81.5023401,185.618785 C81.5123401,185.638785 81.6223401,185.528785 81.5723401,185.528785 Z" id="Path" fill="#BA1823" fill-rule="nonzero" style="mix-blend-mode: hard-light;"></path>
                            <path d="M83.5612667,185.517469 C83.5612667,185.517469 83.4612667,185.517469 83.4312667,185.457469 C83.4012667,185.397469 83.4312667,185.457469 83.4312667,185.457469 C83.4336057,185.491317 83.450164,185.522593 83.4768426,185.543555 C83.5035212,185.564516 83.5378265,185.573205 83.5712667,185.567469 C83.5712667,185.567469 83.6012667,185.537469 83.5612667,185.517469 Z" id="Path" fill="#BA1823" fill-rule="nonzero" style="mix-blend-mode: hard-light;"></path>
                            <path d="M88.6409584,194.940947 C88.3609584,194.392418 88.5409584,193.618853 88.5109584,193 C88.5109584,193 88.5109584,193 88.5109584,193 C88.4309584,193.478204 88.1509584,194.71591 88.6309584,194.997206 C88.6209584,195.011271 88.6509584,194.969077 88.6409584,194.940947 Z" id="Path" fill="#BA1823" fill-rule="nonzero" style="mix-blend-mode: hard-light;"></path>
                            <path d="M86.535359,191.46 C86.535359,191.46 86.535359,191.46 86.475359,191.46 C86.4610684,191.484752 86.4610684,191.515248 86.475359,191.54 C86.475359,191.54 86.475359,191.54 86.475359,191.54 C86.475359,191.54 86.535359,191.48 86.535359,191.46 Z" id="Path" fill="#BA1823" fill-rule="nonzero" style="mix-blend-mode: hard-light;"></path>
                            <path d="M88.58,199.404947 C88.58,199.404947 88.51,199.404947 88.49,199.404947 C88.4517001,199.438379 88.4268284,199.484569 88.42,199.534947 C88.42,199.534947 88.42,199.534947 88.42,199.594947 L88.42,199.594947 C88.46536,199.597024 88.5064253,199.568278 88.52,199.524947 C88.553927,199.493574 88.5752578,199.450913 88.58,199.404947 L88.58,199.404947 Z" id="Path" fill="#BA1823" fill-rule="nonzero" style="mix-blend-mode: hard-light;"></path>
                        </g>
                    </g>
                </g>
            </g>
        </g>
    </g>
</svg>