<svg xmlns="http://www.w3.org/2000/svg" viewBox="0 0 300.52 821.26"><defs><style>.cls-1,.cls-17,.cls-18{isolation:isolate;}.cls-17,.cls-2{fill:#fff;}.cls-3{fill:#22366b;}.cls-4{fill:#cfcfcf;}.cls-10,.cls-4,.cls-6{mix-blend-mode:multiply;}.cls-5{fill:#3e3e3e;}.cls-6{fill:#b7c1c6;}.cls-7{fill:#4197e5;}.cls-8{fill:#ddcfc9;}.cls-9{fill:#e3ac81;}.cls-10,.cls-19{fill:#ebe0da;}.cls-11{fill:#f8ba8c;}.cls-12{fill:#793b16;}.cls-13{fill:#eadbd8;}.cls-14{fill:#5b2c0b;}.cls-15{fill:#803e19;}.cls-16{fill:#0874b7;}.cls-17{opacity:0.39;}.cls-18{fill:#f9f9f9;opacity:0.42;}.cls-20{fill:#f7f7f6;}.cls-21,.cls-25,.cls-28{fill:none;}.cls-21{stroke:#c6c6c5;stroke-width:0.31px;stroke-dasharray:2.1 4.2;}.cls-21,.cls-28{stroke-linecap:round;stroke-linejoin:round;}.cls-22,.cls-31{fill:#0071d6;}.cls-23{fill:#0092ff;}.cls-24{fill:#dae8ef;}.cls-25{stroke:#f7f7f6;stroke-miterlimit:10;stroke-width:0.25px;stroke-dasharray:0.01 1.98 0.99 0 0 0;}.cls-26{fill:#003a8e;}.cls-27{fill:#004cd3;}.cls-28{stroke:#dae8ef;stroke-width:2px;}.cls-29{fill:#2b96f4;}.cls-30{fill:#b77a65;}.cls-30,.cls-31,.cls-32{fill-rule:evenodd;}.cls-32{fill:#005ea5;}</style></defs><g class="cls-1"><g id="Layer_1" data-name="Layer 1"><g id="OBJECT"><path class="cls-2" d="M74.76,816.67c24.38-6.46,45.14-11.14,50-14.34,3.3-2.16-.06-10.67-.06-10.67L98.42,778,44,800.84s-1.26,5.41,1,8.59C48.87,814.71,62.51,819.91,74.76,816.67Z"/><path class="cls-2" d="M229.85,816.67c-24.38-6.46-45.14-11.14-50-14.34-3.3-2.16.07-10.67.07-10.67L206.19,778l54.43,22.89s1.28,5.41-1,8.59C255.75,814.71,242.1,819.91,229.85,816.67Z"/><path class="cls-3" d="M230.35,810.76c-24.37-6.46-45.24-11-50-14.34s0-24.86,0-24.86l26.36.48s36.7,21.54,47.29,23.66C273.12,799.53,250,815.94,230.35,810.76Z"/><path class="cls-4" d="M259.91,798.18A32.37,32.37,0,0,1,240.09,804c-5.9-.33-11.4-2.13-16.83-4.37-5.62-2.32-12.27-4.46-17.26-8-7.22-5.1-10.39-12.88-15.17-19.92l-10.5-.2s-4.78,21.51,0,24.86,25.65,7.88,50,14.34C247,815.16,266.21,804,259.91,798.18Z"/><path class="cls-5" d="M151.24,501.37c6.69,10.52,18.82,59,20.73,119.64,2.06,65.48-1.91,157.25,4.78,161.07,11.27,6.44,37.76-3.34,40.14-10.52-.47-13.85-11.72-207.7-5.27-288.71C174.11,461.11,136,477.44,151.24,501.37Z"/><path class="cls-6" d="M192.37,772.24c-7.83-9.22-7.92-25-9.31-36.42-2.2-18.15.53-35.88-2-54.09-1.64-11.83-5.71-28.62-.39-39.93,1.86-4,7.39-5.72,10.24-8.72,1.9-2-4.26-3.65-5.51-4.37-1.75-1-2.94-3.21-3.69-5-2.32-5.43-1.66-12.55-2.29-18.31-1.07-9.82-1.92-19.66-2.42-29.53-1.17-22.77,3.57-63-24.21-71.58,6.86,14.8,17.4,60.47,19.17,116.69,2.06,65.48-1.91,157.25,4.78,161.07,8,4.57,23.67,1,32.94-4.08C203.3,778.75,197.18,777.91,192.37,772.24Z"/><path class="cls-3" d="M74.76,810.76c24.38-6.46,45.24-11,50-14.34s0-24.86,0-24.86L98.42,772S61.7,793.58,51.11,795.7C32,799.53,55.16,815.94,74.76,810.76Z"/><path class="cls-4" d="M124.78,771.56l-14,.26a15.91,15.91,0,0,1-7.93,19.72c-8.18,4.25-17.56,9-26.58,10.83-10.13,2.11-20.82-1-31-1.25a3.23,3.23,0,0,1-1.3-.28c.2,5.94,16.44,13.71,30.78,9.92,24.38-6.46,45.24-11,50-14.34S124.78,771.56,124.78,771.56Z"/><path class="cls-5" d="M148.05,499.54c-6.69,10.51-15.8,60.78-17.71,121.47-2.06,65.48,3.52,157.25-3.17,161.07-11.27,6.44-37.76-3.34-40.15-10.52.5-14.29,9.72-207.4,3.23-288.83C127.77,461,163.28,475.61,148.05,499.54Z"/><path class="cls-6" d="M148.05,499.54c.49-.78.93-1.54,1.32-2.3-19.23,13-24.76,40.2-27.08,62.34-1.63,15.55-.18,31-1.4,46.53-.47,6.07-.91,13.23-5,18.15-2.58,3.13-5.9,5.3-9.29,7.41,3.52,2.34,7.76,4.3,9.51,8,3.34,7-1.24,11-1,18,.31,10.14,2.64,20.09,2.61,30.27s-1.13,20.53-.92,30.79c.31,15.07,5.45,33.79-3.42,47.48-6,9.23-12.54,10.88-21,10.74,8.9,5.57,26.19,10,34.74,5.13,6.69-3.82,1.11-95.59,3.17-161.07C132.25,560.32,141.36,510.05,148.05,499.54Z"/><path class="cls-5" d="M91.46,487.79c-1.88-13.87-1.47-34.4.56-40.38s113-18.24,116.12-1.69c1.24.06,5.67,19.45,3.48,37.13C208.4,508.94,94.57,510.72,91.46,487.79Z"/><path class="cls-7" d="M208.14,445.72C189.87,459.61,112,460,92,447.41c-6.68-14.59-2.89-126.52-2.89-126.52S73.38,271.14,77.94,266c9.28-10.5,63.53-21.76,63.53-21.76S199.19,257,205.5,266c3.07,4.39-5.13,45-2.83,88.87C205.11,401.27,211.92,429.75,208.14,445.72Z"/><path class="cls-8" d="M191.34,327.68a231.42,231.42,0,0,0,7.64,51c2.09,8.12,3.82,16.33,5.91,24.44a61.25,61.25,0,0,0,2.77,7.91c-1.53-14.81-3.79-33.31-5-56.17-1.38-26.4,1-51.61,2.51-68.46C198,299.31,190.91,313.45,191.34,327.68Z"/><path class="cls-8" d="M151.88,447.47c-25,.9-44.8-11.75-48.75-24.87s-2.84-69.46-4.56-94.13c-1.19-17-7.54-30.54-18.72-41.23,3.54,15.51,9.28,33.65,9.28,33.65S85.34,432.82,92,447.41c14.48,9.16,59.48,11.44,90.06,6.7C171.63,453.67,161.91,447.11,151.88,447.47Z"/><path class="cls-9" d="M166.45,250.41s-7.19,12.72-24.3,12.72a34,34,0,0,1-26.25-12.61s3.23-1.17,7.07-6.31,4.33-12.36,1.38-37.81c-3.65-31.56,28.72-34.23,30.06-6.45-.81,32.2.27,39.67,4.29,45.35C161.46,249.2,166.45,250.41,166.45,250.41Z"/><path class="cls-10" d="M131.57,243.07c1.12-8.51,11-21.63,2.47-29.14a21.85,21.85,0,0,0-9.37-4.66c2.59,23.11,2.1,29.86-1.7,34.94s-7.07,6.31-7.07,6.31A39.73,39.73,0,0,0,136.25,262C132.41,257.22,130.58,250.66,131.57,243.07Z"/><path class="cls-11" d="M209.93,114.71c-2.39-.42-5.66.56-8.78,2.52.21-8.64.35-17.75.49-27.38.49-34.42-35.73-51.47-65.7-47.94C98.51,46.31,73.25,61.56,74.06,92c.21,8,.65,19.35,1.48,31.85-4.05-2.44-8.53-3.47-11.41-2.55-7.42,2.39-8.14,11.46-4.07,23.5S72.74,164.94,79.49,163c1.81,12.55,3.86,19.76,7.32,28.14,5.81,14.06,31,34.87,51.78,34.87,25.34,0,50.75-26.93,54.12-38.39,2.88-9.81,5-16.63,6.31-29.67a4.41,4.41,0,0,0,.7.23c7,1.34,14.68-8,17.23-20.71C219.46,124.93,217.59,116,209.93,114.71Z"/><path class="cls-10" d="M104.11,204.85c-4.75-5.83-10.86-15.29-12.65-22.57-2.06-8.38-8.53-22.59-8.53-22.59s-16.33-2.78-18.66-16.9c-.26-1.59-4.34-16.93-4.49-18.52-3.13,4.12-2.77,11.47.28,20.49,4.09,12.05,12.68,20.18,19.43,18.19,1.81,12.55,3.86,19.76,7.32,28.14,5.17,12.51,25.71,30.35,44.78,34.14C121.06,220.11,111.49,213.91,104.11,204.85Z"/><path class="cls-10" d="M201.5,99c-3.73-10.17-2.38-20-11.22-22.37-5.73-1.53-31.77,21-37.47,19.43-12.69-3.62-23.34-8.25-33.41-16.8-3.08-2.62-8.78-7.33-12.74-3.44-2.54,2.5-8.6-2.78-10,.45-3.34,7.58-8-2.14-13.28,4.39-1.63,2-4,13.07-5.9,14.79-2.92,2.65,4.72,23.88,5.06,27.4a138.33,138.33,0,0,1,.26,16.79c.26-.32,2.58,2.77,2.85,2.44,4.72-5.83,3.59-17.27,2.3-24.43-2.68-14.89,8.87-26.52,8.87-26.52A40.71,40.71,0,0,0,110.14,101a111.68,111.68,0,0,0,39,9.08c17.48.86,34.48-11.6,38.06-7.48s.77,28.76.77,28.76S204.16,106.23,201.5,99Z"/><path class="cls-12" d="M98.78,86s0-25.24-8.2-37.2C84.69,41.45,68,68.91,68,68.91S57.59,85.3,65.27,122c17-2.15,17.19,12.3,18.16,21.79C85.14,142,88.27,139,88.27,139a71.18,71.18,0,0,1-4.9-28.39C85.83,87.44,98.78,86,98.78,86Z"/><path class="cls-12" d="M191.32,86.91s5.14,19.44,1.54,30.7a140.85,140.85,0,0,1-4.07,16.59l5.33,5.11c.45-7.73.08-21.7,14.35-24.68,3.57-9.57-4.35-40.33-4.35-40.33Z"/><path class="cls-12" d="M116.18,118.57c-.55.85-4.66-1.76-9.31-1.25-8.44.91-11.62,6.12-11.62,6.12a14.08,14.08,0,0,1,11.6-11.31c5.75-1,8.87.25,9.93,1.21S116.72,117.72,116.18,118.57Z"/><path class="cls-13" d="M113.92,129.93a6,6,0,1,1-6-6A6,6,0,0,1,113.92,129.93Z"/><path class="cls-14" d="M116.18,131.39a6,6,0,1,1-6-6A6,6,0,0,1,116.18,131.39Z"/><path class="cls-12" d="M156.07,118.57c.54.85,4.65-1.76,9.3-1.25,8.44.91,11.63,6.12,11.63,6.12a14.09,14.09,0,0,0-11.61-11.31c-5.75-1-8.87.25-9.93,1.21S155.52,117.72,156.07,118.57Z"/><path class="cls-13" d="M158.32,129.93a6,6,0,1,0,6-6A6,6,0,0,0,158.32,129.93Z"/><path class="cls-14" d="M156.07,131.39a6,6,0,1,0,6-6A6,6,0,0,0,156.07,131.39Z"/><path class="cls-15" d="M205.51,63.31c0,27.48-15.17,41.48-58.63,41.48A71.8,71.8,0,0,1,98.78,86l-8.2-37.2s-1-7.3,11.28-10.86c6.7-1.94,32.68-6.86,53.17-.82C177,14.68,205.56,38.86,205.51,63.31Z"/><path class="cls-16" d="M159.9,245.68c-3.08,7.66-10.57,16.3-19.33,16.3s-16.25-8.64-19.33-16.3c0,0-11.22,4.17-10.31,6.11,3.62,7.74,10.19,17.79,18.24,20.79,3.55,1.33,7.45-7.33,11.46-7.33s7.18,7.48,10.61,6.26c8.36-3,15.45-12,19.1-20C171.19,249.64,159.9,245.68,159.9,245.68Z"/><polygon class="cls-12" points="193.22 142.79 187.45 137.42 188.24 135 193.22 140.31 193.22 142.79"/><polygon class="cls-12" points="83.6 147.73 89.96 142.33 89.17 139.91 83.6 145.24 83.6 147.73"/><rect class="cls-7" x="63.69" y="99.69" width="144.96" height="12.81"/><path class="cls-17" d="M78.6,99.69h115v73.82A30.51,30.51,0,0,1,163.09,204h-54A30.51,30.51,0,0,1,78.6,173.51V99.69Z"/><path class="cls-18" d="M185.74,184.33V99.69H174.5v84.64c0,7-3.62,13.45-9.55,18.25a46.4,46.4,0,0,1-9.88,1.38l-.07,0h2.54a43.6,43.6,0,0,0,23.69-6.64A21.72,21.72,0,0,0,185.74,184.33Z"/><ellipse class="cls-2" cx="86.11" cy="106.09" rx="2.91" ry="2.17"/><ellipse class="cls-2" cx="185.74" cy="106.09" rx="2.91" ry="2.17"/><path class="cls-19" d="M118.22,181.05c2.2,27.6,37.36,27.11,37.36,0Z"/><path class="cls-13" d="M136.9,160.52c-4.73,0-8.69-2.05-9.71-4.79a4.19,4.19,0,0,0-.27,1.4c0,3.42,4.47,6.19,10,6.19s10-2.77,10-6.19a4.19,4.19,0,0,0-.27-1.4C145.59,158.47,141.63,160.52,136.9,160.52Z"/><path class="cls-2" d="M118.24,180.93c2.2,22.34,37.32,21.94,37.32,0Z"/><polygon class="cls-20" points="98.14 167.7 89.71 172.41 80.63 139.37 80.39 128.01 98.14 167.7"/><polygon class="cls-20" points="177.13 167.7 185.56 172.41 194.64 139.37 194.87 128.01 177.13 167.7"/><path class="cls-20" d="M135,227.48c-52,0-50.61-67.67-48.57-70.68a2.43,2.43,0,0,1,2.21-.71,14.22,14.22,0,0,1,3.25,1c1.39.51,2.77,1,4.17,1.47a22.07,22.07,0,0,0,4.89,1.1,17.7,17.7,0,0,0,3.85,0,7.09,7.09,0,0,0,.78-.14,22.88,22.88,0,0,0,4.08-1.56c.84-.37,1.69-.7,2.53-1a66.67,66.67,0,0,0,8.43-4.38,33.2,33.2,0,0,1,17-4.57h.14a33.1,33.1,0,0,1,17,4.57,66.67,66.67,0,0,0,8.43,4.38l2.53,1a22.88,22.88,0,0,0,4.08,1.56,7.09,7.09,0,0,0,.78.14,17.79,17.79,0,0,0,3.86,0,22.11,22.11,0,0,0,4.88-1.1c1.4-.46,2.78-1,4.17-1.47a14.73,14.73,0,0,1,3.25-1,2.43,2.43,0,0,1,2.21.71c2,3,3.31,70.68-48.73,70.68Z"/><path class="cls-21" d="M135.06,226.05c-50.17,0-48.79-64.31-46.82-67.17a2.44,2.44,0,0,1,2.13-.68,15.72,15.72,0,0,1,3.14,1c1.33.48,2.67,1,4,1.39a20.94,20.94,0,0,0,4.7,1,16.53,16.53,0,0,0,3.72,0,3.3,3.3,0,0,0,.75-.14,22,22,0,0,0,3.94-1.49l2.44-1a66.79,66.79,0,0,0,8.12-4.16,32.37,32.37,0,0,1,16.38-4.35h.14a32.37,32.37,0,0,1,16.38,4.35A66.79,66.79,0,0,0,162.2,159c.82.32,1.63.64,2.44,1a22,22,0,0,0,3.94,1.49c.25.06.5.1.75.14a16.53,16.53,0,0,0,3.72,0,21.14,21.14,0,0,0,4.71-1c1.34-.43,2.68-.91,4-1.39a15.72,15.72,0,0,1,3.14-1,2.44,2.44,0,0,1,2.13.68c2,2.86,3.19,67.17-47,67.17Z"/><path class="cls-22" d="M135.15,223.07c-48.58,0-47.24-59.5-45.33-62.15a2.37,2.37,0,0,1,2.06-.63,15,15,0,0,1,3,.88c1.29.45,2.58.9,3.89,1.3a22.24,22.24,0,0,0,4.56,1,18,18,0,0,0,3.59,0,3.59,3.59,0,0,0,.73-.12,23.43,23.43,0,0,0,3.81-1.38c.78-.32,1.57-.61,2.36-.91a63.65,63.65,0,0,0,7.87-3.85,32.51,32.51,0,0,1,15.85-4h.14a32.51,32.51,0,0,1,15.85,4,63.65,63.65,0,0,0,7.87,3.85c.79.3,1.58.59,2.36.91a23.43,23.43,0,0,0,3.81,1.38c.24.05.48.09.73.12a18,18,0,0,0,3.59,0,22.24,22.24,0,0,0,4.56-1c1.31-.4,2.6-.85,3.89-1.3a15,15,0,0,1,3-.88,2.37,2.37,0,0,1,2.06.63c1.91,2.65,3.09,62.15-45.48,62.15Z"/><path class="cls-23" d="M101.9,176.41s21.54,7.65,36.73,7.58c14.1-.06,34.06-7.58,34.06-7.58s-18.06,1.87-33.94,1.65S101.9,176.41,101.9,176.41Z"/><path class="cls-23" d="M101.9,193.29s22.89,7.07,36.07,6.83c14.1-.25,34.72-6.83,34.72-6.83s-18.06,1.19-33.94,1S101.9,193.29,101.9,193.29Z"/><path class="cls-23" d="M101.9,206.36s22.64,8,37.37,7.95c14.11-.11,33.42-9,33.42-9s-18.46,4-34.34,3.83S101.9,206.36,101.9,206.36Z"/><path class="cls-24" d="M91.12,164.76a2.3,2.3,0,0,1,2-.61,14.34,14.34,0,0,1,2.94.85c1.25.43,2.5.87,3.76,1.25a20.66,20.66,0,0,0,4.4.94,18.39,18.39,0,0,0,3.48,0,3.42,3.42,0,0,0,.7-.12,22.87,22.87,0,0,0,3.69-1.33c.75-.31,1.51-.59,2.27-.88a63.59,63.59,0,0,0,7.6-3.72,31.44,31.44,0,0,1,15.32-3.89h.13a31.44,31.44,0,0,1,15.32,3.89,63.59,63.59,0,0,0,7.6,3.72c.76.29,1.52.57,2.28.88a23.11,23.11,0,0,0,3.68,1.33c.23.05.47.09.71.12a16.77,16.77,0,0,0,3.47,0,20.66,20.66,0,0,0,4.4-.94c1.26-.38,2.51-.82,3.76-1.25a14.34,14.34,0,0,1,2.94-.85,2.3,2.3,0,0,1,2,.61c1.14,1.59,2,24.49-8.83,41.54,12.93-17.82,12-43.66,10.76-45.38a2.37,2.37,0,0,0-2.06-.63,15,15,0,0,0-3,.88c-1.29.45-2.58.9-3.89,1.3a22.24,22.24,0,0,1-4.56,1,18,18,0,0,1-3.59,0,3.59,3.59,0,0,1-.73-.12,23.43,23.43,0,0,1-3.81-1.38c-.78-.32-1.57-.61-2.36-.91a63.65,63.65,0,0,1-7.87-3.85,32.51,32.51,0,0,0-15.85-4h-.14a32.51,32.51,0,0,0-15.85,4,63.65,63.65,0,0,1-7.87,3.85c-.79.3-1.58.59-2.36.91a23.43,23.43,0,0,1-3.81,1.38c-.24.05-.48.09-.73.12a18,18,0,0,1-3.59,0,22.24,22.24,0,0,1-4.56-1c-1.31-.4-2.6-.85-3.89-1.3a15,15,0,0,0-3-.88,2.37,2.37,0,0,0-2.06.63c-1,1.46-1.91,20.23,5.67,36.76C89.37,182.4,90.16,166.09,91.12,164.76Z"/><path class="cls-25" d="M148.81,205.21V206a10,10,0,0,1-.33,2.18c-.11.43-.24.86-.39,1.27A12,12,0,0,1,147,211.6a14.54,14.54,0,0,1-12.52,6.78c-7.91,0-14.32-5.91-14.32-13.17S126.57,192,134.48,192a14.54,14.54,0,0,1,12.68,7,12.29,12.29,0,0,1,1,2.18,12.68,12.68,0,0,1,.63,3.46A3.62,3.62,0,0,1,148.81,205.21Z"/><ellipse class="cls-26" cx="137.3" cy="205.21" rx="13.16" ry="12.09"/><path class="cls-27" d="M147.64,205.21v.7a9.77,9.77,0,0,1-.3,2,10.49,10.49,0,0,1-1.36,3.17,13.35,13.35,0,0,1-11.5,6.22c-7.26,0-13.15-5.42-13.15-12.09s5.89-12.09,13.15-12.09a13.33,13.33,0,0,1,11.64,6.45,10.87,10.87,0,0,1,1.5,5.17A3.7,3.7,0,0,1,147.64,205.21Z"/><path class="cls-24" d="M147,201.57h-8.89a1,1,0,0,1,0-2h8A11.51,11.51,0,0,1,147,201.57Z"/><path class="cls-24" d="M147.62,204.74h-9.47a1,1,0,1,1,0-2h9.21A10.44,10.44,0,0,1,147.62,204.74Z"/><path class="cls-24" d="M147.61,205.91a9.77,9.77,0,0,1-.3,2h-9.16a1,1,0,0,1,0-2Z"/><path class="cls-27" d="M147,209.08a11.32,11.32,0,0,1-1,2h-7.83a1,1,0,0,1,0-2Z"/><path class="cls-28" d="M130.23,196.71s-11,5.78-3.33,15.85"/><path class="cls-29" d="M112.49,250l-.12-.12S119.82,247.81,112.49,250Z"/><path class="cls-29" d="M242.84,383c-10.9,19.61-22,4.22-26.13-13.29-4.49-10.22-6.78-21-12.42-30.55l8.1,108.8s-1.17,161.25,7.46,196.64a11.43,11.43,0,0,1,.33,2c2.82,33.61-135.37,37.81-135.92,21.7-.56-16.44,3.16-120.07,3.16-120.07s-2.69-94.66.42-99.93-3.07-83.26-2.43-92.26,1.78-31.79,1.78-31.79a235,235,0,0,0-6.13,34.54h0c-.43,13.05-2.86,15.65-4,22.61-18.34,27.86-30.45-2.75-25.74-48,6.47-42.1,9.26-68.4,42.71-78.06,9.86-2.85,15.51-4.5,18.58-5.41l9,9.11,2.87,2.92h6l11.76,1.12H148l7.92-4,10.72-8.69,3.9,1.08s35.43,3.61,45,26.07S242.84,342.36,242.84,383Z"/><path class="cls-22" d="M159.9,245.68c-3.08,7.66-10.57,16.3-19.33,16.3s-16.25-8.64-19.33-16.3c0,0-11.22,4.17-10.31,6.11,3.62,7.74,10.19,17.79,18.24,20.79,3.55,1.33,7.45-7.33,11.46-7.33s7.18,7.48,10.61,6.26c8.36-3,15.45-12,19.1-20C171.19,249.64,159.9,245.68,159.9,245.68Z"/><path class="cls-22" d="M83.85,668.34C83.29,651.9,87,548.27,87,548.27s-2.69-94.66.42-99.93S84.36,365.08,85,356.08s1.78-31.79,1.78-31.79a235,235,0,0,0-6.13,34.54c-.25-14.9,1.59-29.13,9.07-40.63,7.71,4.8,8.89,31.8,10.06,40.72a379.7,379.7,0,0,1,3,44.58c.41,30.38-1.83,60.71-3.11,91.05-1.47,35-1.31,71.33,13.12,103.24s46.82,58.22,81.68,54.85c8.65-.84,17-3.4,25.32-5.93C222.54,680.25,84.4,684.45,83.85,668.34Z"/></g><path class="cls-30" d="M44.27,239.68a.53.53,0,1,1-1,.34l-3.69-11.16a.53.53,0,0,1,1-.33Z"/><path class="cls-30" d="M51.35,237.63a.54.54,0,0,1-1,.34l-5-15.13a.54.54,0,0,1,.34-.68.53.53,0,0,1,.67.34Z"/><path class="cls-31" d="M61.5,293.14c-9.69-30.35-6.79-33.76-6.79-33.76l6.36-6.76,2.78-4.92,1.69-7.83c.45-2.09,1.09-2.53-.7-3.9-3.75-2.86-6.26,2.35-8.07,7-.5,1.28-2.23,2.42-2.51,1.52L47,220.67c-1.12-3.66-2.5-4-3.76-3.67a2.8,2.8,0,0,0-2.47,2.24,19.38,19.38,0,0,0,.33,6.82s-1.54-7.55-5.23-6.37-1.56,6.67-1.21,8.7c.22,1.26-.81-2.63-2.71-4a2.78,2.78,0,0,0-3,.4c-2.84,2.12,0,8.86,0,8.86s-1.27-3-2.86-3.2c-1-.15-2.12.63-2.71,2.09a6.81,6.81,0,0,0,.21,5.48l10.94,26,7,32.88Z"/><path class="cls-32" d="M32.74,243.36a.55.55,0,0,1-.34.68.53.53,0,0,1-.67-.34L28,232.55a.54.54,0,0,1,.34-.68.53.53,0,0,1,.67.34Z"/><path class="cls-32" d="M39.81,241.31a.55.55,0,0,1-.34.68.53.53,0,0,1-.67-.34l-5-15.14a.53.53,0,0,1,.33-.67.55.55,0,0,1,.68.34Z"/><path class="cls-32" d="M46.63,239.7a.53.53,0,0,1-1,.34l-6-17.57a.53.53,0,1,1,1-.34Z"/><path class="cls-30" d="M271.18,254.38a.58.58,0,0,0,.27.76.56.56,0,0,0,.76-.27l5.47-11.35a.56.56,0,0,0-.26-.76.58.58,0,0,0-.77.26Z"/><path class="cls-30" d="M263.94,251.21a.59.59,0,0,0,.27.77.58.58,0,0,0,.76-.27l7.43-15.41a.58.58,0,0,0-.27-.76.56.56,0,0,0-.76.27Z"/><path class="cls-31" d="M242.84,304.84l14.51-30.95-5.81-8.81a11.1,11.1,0,0,1-1.92-5.41c-.19-1.51-1.75-10.68-1.62-11.52.32-2.22,3.29-1.72,4.46-1.22,2.16.92,4.06,5.34,5,9.21.34,1.44,2,2.88,2.46,2l11.05-24.33c1.7-3.73,3.21-3.89,4.51-3.38a3,3,0,0,1,2.32,2.72,21.16,21.16,0,0,1-1.3,7.21s2.69-7.82,6.44-6,.74,7.32.09,9.42c-.41,1.32,1.22-2.68,3.43-3.85.93-.5,2.32.06,3.12.84,2.72,2.64-1.23,9.42-1.23,9.42s1.76-3,3.49-3c1,0,2.17,1,2.59,2.61a7.28,7.28,0,0,1-1,5.8l-15.24,26.19-12,34Z"/><path class="cls-32" d="M282.94,259.89a.58.58,0,0,0,.27.76.57.57,0,0,0,.76-.26L289.44,249a.57.57,0,0,0-.26-.76.56.56,0,0,0-.76.27Z"/><path class="cls-32" d="M275.7,256.73a.58.58,0,0,0,.27.76.56.56,0,0,0,.76-.27l7.43-15.4a.58.58,0,0,0-.27-.76.57.57,0,0,0-.76.26Z"/><path class="cls-32" d="M268.67,254.07a.57.57,0,1,0,1,.5l8.77-17.87a.57.57,0,1,0-1-.51Z"/><path class="cls-29" d="M254,281.08s-38.23,79.12-35.88,93.54,5.25,20.62,17.89,16.48,38.44-98.86,38.44-98.86Z"/><path class="cls-29" d="M36.8,274.73s1.8,97.47,12.1,107.84,16.26,13.73,24.13,3-16.8-116.45-16.8-116.45Z"/></g></g></svg>