<?xml version="1.0" encoding="UTF-8"?>
<svg width="177px" height="317px" viewBox="0 0 177 317" version="1.1" xmlns="http://www.w3.org/2000/svg" xmlns:xlink="http://www.w3.org/1999/xlink">
    <!-- Generator: Sketch 61.1 (89650) - https://sketch.com -->
    <title>Group 2</title>
    <desc>Created with Sketch.</desc>
    <g id="Page-1" stroke="none" stroke-width="1" fill="none" fill-rule="evenodd">
        <g id="Vijay" transform="translate(-109.000000, -258.000000)">
            <g id="Group-2" transform="translate(109.000000, 258.000000)">
                <g id="Group" transform="translate(0.000000, 26.000000)" opacity="0.185477121">
                    <g id="Group-21-Copy-2" transform="translate(0.000000, 0.799994)">
                        <polygon id="Fill-1" fill="#E1E1E1" points="0.199999988 246.799985 176.999989 246.799985 176.999989 0 0.199999988 0"></polygon>
                        <polygon id="Fill-2" fill="#E1E1E1" points="86.5999948 246.799985 90.9999946 246.799985 90.9999946 6.79999959 86.5999948 6.79999959"></polygon>
                        <polygon id="Fill-3" fill="#38B5F9" points="6.99999958 246.799985 86.5999948 246.799985 86.5999948 6.79999959 6.99999958 6.79999959"></polygon>
                        <polygon id="Fill-4" fill="#FFFFFF" points="20.1999988 102.799994 72.9999956 102.799994 72.9999956 20.3999988 20.1999988 20.3999988"></polygon>
                        <g id="Group-9" transform="translate(20.199999, 20.399999)" fill="#38B5F9">
                            <polygon id="Fill-5" points="53.094834 0.0395931976 53.094834 82.2908563 0.0944403044 82.2908563 0.0944403044 75.8306967 52.6605736 0.0395931976"></polygon>
                            <polygon id="Fill-7" points="41.072707 0.0395931976 0.0946877463 49.3263263 0.0946877463 39.6364988 31.5940347 0.0395931976"></polygon>
                        </g>
                        <polygon id="Fill-10" fill="#717984" points="78.1999953 119.599993 83.399995 119.599993 83.399995 65.9999961 78.1999953 65.9999961"></polygon>
                        <polygon id="Fill-11" fill="#FFFFFF" points="77.3999954 118.399993 82.5999951 118.399993 82.5999951 64.7999961 77.3999954 64.7999961"></polygon>
                        <polygon id="Fill-12" fill="#38B5F9" points="91.3999946 246.799985 170.99999 246.799985 170.99999 6.79999959 91.3999946 6.79999959"></polygon>
                        <polygon id="Fill-13" fill="#FFFFFF" points="104.599994 102.799994 157.399991 102.799994 157.399991 20.3999988 104.599994 20.3999988"></polygon>
                        <g id="Group-18" transform="translate(104.199994, 20.399999)" fill="#38B5F9">
                            <polygon id="Fill-14" points="53.2500301 0.0395931976 53.2500301 82.2908563 0.262310138 82.2908563 0.262310138 75.8306967 52.8162824 0.0395931976"></polygon>
                            <polygon id="Fill-16" points="41.2315089 0.0395931976 0.262557523 49.3263263 0.262557523 39.6364988 31.7550295 0.0395931976"></polygon>
                        </g>
                        <polygon id="Fill-19" fill="#717984" points="94.9999943 119.599993 100.199994 119.599993 100.199994 65.9999961 94.9999943 65.9999961"></polygon>
                        <polygon id="Fill-20" fill="#FFFFFF" points="94.1999944 118.399993 99.3999941 118.399993 99.3999941 64.7999961 94.1999944 64.7999961"></polygon>
                    </g>
                </g>
                <g id="Character_ffp2-03" transform="translate(45.000000, 0.000000)">
                    <path d="M12.7284883,316.064086 C22.4992864,313.475203 30.8192932,311.599666 32.7670405,310.317248 C34.0895849,309.451615 32.7429942,306.041183 32.7429942,306.041183 L22.2107312,300.566859 L0.400771043,309.720121 C0.400771043,309.720121 -0.104200471,311.88821 0.801542086,313.162614 C2.35252602,315.278604 7.81904305,317.362535 12.7284883,316.064086 Z" id="Path" fill="#FFFFFF" fill-rule="nonzero"></path>
                    <path d="M74.8840694,316.064086 C65.1132714,313.475203 56.7932645,311.599666 54.8455172,310.317248 C53.5229728,309.451615 54.8735712,306.041183 54.8735712,306.041183 L65.4018265,300.566859 L87.2157944,309.740159 C87.2157944,309.740159 87.7287813,311.908248 86.8150233,313.182652 C85.2640394,315.278604 79.7935147,317.362535 74.8840694,316.064086 Z" id="Path" fill="#FFFFFF" fill-rule="nonzero"></path>
                    <path d="M75.0844549,313.695619 C65.3176646,311.106736 56.9535729,309.287305 55.0459028,307.948781 C53.1382326,306.610256 55.0459028,297.985991 55.0459028,297.985991 L65.6102275,298.178354 C65.6102275,298.178354 80.3185247,306.810634 84.5626901,307.660236 C92.2254324,309.195131 82.9596059,315.771534 75.0844549,313.695619 Z" id="Path" fill="#22366B" fill-rule="nonzero"></path>
                    <path d="M86.9312469,308.654111 C84.6092787,310.278183 81.8194052,311.097378 78.9879649,310.98651 C76.6234157,310.85426 74.419175,310.1329 72.2429882,309.235207 C69.990655,308.305453 67.3255275,307.447836 65.32568,306.02916 C62.4321131,303.985306 61.1616689,300.867425 59.2459833,298.046105 L55.0378873,297.965953 C55.0378873,297.965953 53.1222018,306.586211 55.0378873,307.928743 C56.9535729,309.271275 65.3176646,311.086699 75.0764395,313.675581 C81.7572928,315.458945 89.4561045,310.98651 86.9312469,308.654111 Z" id="Path" fill="#CFCFCF" fill-rule="nonzero" style="mix-blend-mode: multiply;"></path>
                    <path d="M43.3794577,189.705778 C46.060616,193.92173 50.9219687,213.350371 51.6874414,237.652204 C52.5130298,263.893694 50.9219687,300.671055 53.603127,302.201942 C58.1198167,304.78281 68.7362416,300.863418 69.6900767,297.985991 C69.5017143,292.435523 64.99304,214.749009 67.5780133,182.283781 C52.5450914,173.57135 37.271707,180.115692 43.3794577,189.705778 Z" id="Path" fill="#3E3E3E" fill-rule="nonzero"></path>
                    <path d="M59.8631707,298.258505 C56.7251334,294.563537 56.689064,288.23961 56.1319923,283.662979 C55.250296,276.389261 56.3444009,269.28386 55.3304502,261.986097 C54.6731857,257.245155 53.0420475,250.516465 55.1741495,245.983917 C55.9195836,244.380894 58.1358475,243.691594 59.278045,242.489326 C60.03951,241.687815 57.5707603,241.026568 57.0697965,240.738024 C56.3684472,240.337268 55.8915297,239.451597 55.5909514,238.734244 C54.6611626,236.55814 54.9256714,233.704759 54.6731857,231.396406 C54.2443607,227.460983 53.9037053,223.517546 53.7033198,219.562086 C53.2344176,210.436877 55.1340724,194.31447 44.0006528,190.875985 C46.7499422,196.807171 50.974069,215.109689 51.6834337,237.640181 C52.5090221,263.881672 50.917961,300.659032 53.5991193,302.18992 C56.8052876,304.021374 63.0853699,302.590675 66.8005174,300.554836 C64.2435982,300.867425 61.7908794,300.530791 59.8631707,298.258505 Z" id="Path" fill="#B7C1C6" fill-rule="nonzero" style="mix-blend-mode: multiply;"></path>
                    <path d="M12.7284883,313.695619 C22.4992864,311.106736 30.8593703,309.287305 32.7670405,307.948781 C34.6747106,306.610256 32.7670405,297.985991 32.7670405,297.985991 L22.2107312,298.162324 C22.2107312,298.162324 7.4944185,306.810634 3.25025316,307.660236 C-4.40848147,309.195131 4.87337588,315.771534 12.7284883,313.695619 Z" id="Path" fill="#22366B" fill-rule="nonzero"></path>
                    <path d="M32.7750559,297.985991 L27.1642613,298.090188 C28.2780392,301.149511 26.9079249,304.556525 23.9861469,305.993092 C20.7078398,307.696305 16.9486074,309.599895 13.3336526,310.333278 C9.27384194,311.178873 4.98959949,309.932522 0.909750268,309.832333 C0.730279767,309.830558 0.553035875,309.792384 0.388747912,309.720121 C0.46890212,312.100611 6.97742386,315.214484 12.7244806,313.695619 C22.4952786,311.106736 30.8553626,309.287305 32.7630328,307.948781 C34.6707029,306.610256 32.7750559,297.985991 32.7750559,297.985991 Z" id="Path" fill="#CFCFCF" fill-rule="nonzero" style="mix-blend-mode: multiply;"></path>
                    <path d="M42.1009981,188.972395 C39.4198398,193.184339 35.7688156,213.330334 35.0033429,237.652204 C34.1777545,263.893694 36.414057,300.671055 33.7328987,302.201942 C29.216209,304.78281 18.5997841,300.863418 17.6419413,297.985991 C17.8423268,292.259191 21.5374359,214.869236 18.9364318,182.23569 C33.9733613,173.527266 48.2047411,179.382309 42.1009981,188.972395 Z" id="Path" fill="#3E3E3E" fill-rule="nonzero"></path>
                    <path d="M42.1009981,188.972395 C42.2973759,188.659806 42.4737151,188.355231 42.6300158,188.050657 C34.9231887,193.260483 32.7069248,204.161041 31.777136,213.033774 C31.1238792,219.265527 31.7049972,225.457204 31.2160565,231.680942 C31.0276941,234.11353 30.8513549,236.982942 29.2122013,238.95466 C28.178212,240.209026 26.8476522,241.078666 25.4890383,241.924261 C26.8997524,242.862029 28.5990216,243.647511 29.300371,245.130307 C30.6389462,247.935598 28.8034149,249.538621 28.8995999,252.343912 C29.0238389,256.407576 29.9576355,260.395096 29.9456123,264.47479 C29.9335892,268.554484 29.4927411,272.702307 29.576903,276.814062 C29.701142,282.853452 31.7611052,290.355601 28.206266,295.841948 C25.8016397,299.540924 23.1805971,300.202171 19.7900741,300.146065 C23.3569364,302.378275 30.2862677,304.153623 33.7128601,302.201942 C36.3940184,300.671055 34.157716,263.893694 34.9833043,237.652204 C35.7688156,213.330334 39.4198398,193.184339 42.1009981,188.972395 Z" id="Path" fill="#B7C1C6" fill-rule="nonzero" style="mix-blend-mode: multiply;"></path>
                    <path d="M19.4213647,184.263515 C18.6679152,178.705031 18.8322313,170.477515 19.6457965,168.080995 C20.4593617,165.684475 64.924909,160.771209 66.18333,167.403718 C66.6802861,167.427763 68.4557019,175.198418 67.5780133,182.283781 C66.2875305,192.7395 20.6677627,193.452845 19.4213647,184.263515 Z" id="Path" fill="#3E3E3E" fill-rule="nonzero"></path>
                    <path d="M66.18333,167.403718 C58.8612431,172.970216 27.653202,173.126511 19.6377811,168.080995 C16.9606305,162.233968 18.4795528,117.37737 18.4795528,117.37737 C18.4795528,117.37737 12.1754243,97.439768 14.0029402,95.3798831 C17.7220955,91.1719471 39.4639246,86.6594367 39.4639246,86.6594367 C39.4639246,86.6594367 62.5964292,91.7730808 65.1252945,95.3798831 C66.3556616,97.1392012 63.069339,113.413895 63.9911124,130.995052 C64.9689938,149.590122 67.6982446,161.003647 66.18333,167.403718 Z" id="Path" fill="#4197E5" fill-rule="nonzero"></path>
                    <path d="M59.4503765,120.098502 C59.7060399,127.00417 60.7330499,133.859605 62.5122673,140.537048 C63.3498788,143.791185 64.0432127,147.08139 64.8808242,150.33152 C65.1774142,151.412486 65.5483428,152.471668 65.9909599,153.501498 C65.3777802,147.566305 64.4720377,140.152322 63.9871047,130.991045 C63.4340407,120.411091 64.3878758,110.308037 64.99304,103.555302 C62.1195117,108.729059 59.278045,114.395746 59.4503765,120.098502 Z" id="Path" fill="#DDCFC9" fill-rule="nonzero" style="mix-blend-mode: multiply;"></path>
                    <path d="M43.6359512,168.10504 C33.6166751,168.46572 25.6814084,163.396159 24.0983628,158.138243 C22.5153172,152.880327 22.9601731,130.301745 22.2708469,120.415099 C21.7939293,113.60225 19.2490332,108.176016 14.7684129,103.891937 C16.1871424,110.107659 18.4875682,117.37737 18.4875682,117.37737 C18.4875682,117.37737 16.968646,162.233968 19.6377811,168.080995 C25.4409458,171.751918 43.4756427,172.665641 55.7312212,170.766059 C51.5511793,170.589726 47.6556847,167.960768 43.6359512,168.10504 Z" id="Path" fill="#DDCFC9" fill-rule="nonzero" style="mix-blend-mode: multiply;"></path>
                    <path d="M49.4751853,89.1321 C49.4751853,89.1321 46.5936415,94.229714 39.7364489,94.229714 C35.6492311,94.2082056 31.7875289,92.3531879 29.216209,89.1761832 C29.216209,89.1761832 30.5106995,88.7072989 32.0496603,86.647414 C33.5886211,84.5875291 33.7849989,81.6940722 32.6027243,71.4948368 C31.13991,58.8469834 44.1128687,57.7769653 44.6499019,68.9099618 C44.3252774,81.8142989 44.7581101,84.8079448 46.3692097,87.0842378 C47.4753378,88.6471855 49.4751853,89.1321 49.4751853,89.1321 Z" id="Path" fill="#E3AC81" fill-rule="nonzero"></path>
                    <path d="M35.4962913,86.1905524 C35.9451548,82.7801204 39.9047728,77.5222042 36.4861958,74.512528 C35.4041228,73.5951776 34.1154576,72.9543076 32.7309711,72.645006 C33.7689681,81.9064728 33.5725903,84.6115745 32.0496603,86.647414 C30.5267303,88.6832535 29.216209,89.1761832 29.216209,89.1761832 C31.4127923,91.4917073 34.253997,93.0944489 37.3718998,93.7768599 C35.832939,91.8612471 35.0995279,89.232289 35.4962913,86.1905524 Z" id="Path" fill="#EBE0DA" fill-rule="nonzero" style="mix-blend-mode: multiply;"></path>
                    <path d="M66.9007102,34.7495364 C65.9428674,34.581219 64.6323461,34.9739597 63.3819405,35.7594411 C63.4661024,32.2969108 63.5222103,28.6460254 63.5783183,24.7867469 C63.7746961,10.9927319 49.2587689,4.15984532 37.2476607,5.57451334 C22.2468006,7.33783891 12.1233241,13.449365 12.4479486,25.6483719 C12.5321105,28.8544184 12.7084498,33.4029969 13.0410897,38.4124445 C11.417967,37.4346004 9.62251274,37.0218219 8.46829214,37.3905172 C5.494571,38.3483236 5.20601585,41.9831788 6.83715399,46.8082788 C8.46829214,51.6333788 11.9189308,54.8795008 14.6241354,54.1020346 C15.3495309,59.13152 16.1711116,62.0209694 17.5577794,65.3793031 C19.8862592,71.0139298 29.9816817,79.3536582 38.309704,79.3536582 C48.4652422,79.3536582 58.6488344,68.5613042 59.9994328,63.9686426 C61.1536535,60.0372281 62.0032881,57.3040735 62.5282981,52.0782177 C62.6190763,52.1167139 62.712917,52.1475461 62.8088379,52.1703915 C65.6142352,52.7074043 68.6921568,48.9643451 69.7141229,43.8707387 C70.7200582,38.8452608 69.9706164,35.2665114 66.9007102,34.7495364 Z" id="Path" fill="#F8BA8C" fill-rule="nonzero"></path>
                    <path d="M24.4911184,70.8736653 C22.587456,68.5372589 20.1387449,64.7461089 19.4213647,61.8286066 C18.5957764,58.4702729 16.0027877,52.7755328 16.0027877,52.7755328 C16.0027877,52.7755328 9.45819661,51.6614317 8.52440008,46.0027596 C8.42019961,45.3655579 6.78505376,39.2179637 6.7249381,38.580762 C5.47052474,40.2318759 5.61480231,43.1774311 6.83715399,46.7922486 C8.47630756,51.6213561 11.9189308,54.8795008 14.6241354,54.0819968 C15.3495309,59.1114822 16.1711116,62.0009316 17.5577794,65.3592653 C19.6297657,70.3727205 27.8616029,77.5222042 35.5043067,79.0410687 C31.2841876,76.989199 27.4488087,74.5045129 24.4911184,70.8736653 Z" id="Path" fill="#EBE0DA" fill-rule="nonzero" style="mix-blend-mode: multiply;"></path>
                    <path d="M63.5222103,28.4536626 C62.0273343,24.377976 62.5683752,20.4385464 59.0255592,19.4887551 C56.7291411,18.8755987 46.2930632,27.9046272 44.0086682,27.2754405 C38.9228837,25.8247045 34.6546721,23.9692051 30.6189077,20.5427429 C29.3845329,19.4927627 27.1001379,17.6052028 25.5130846,19.1641429 C24.4951261,20.1660324 22.0664536,18.0500418 21.5053742,19.344483 C20.1667989,22.3822121 18.2992058,18.4868656 16.1831347,21.103801 C15.5298779,21.9053127 14.5800505,26.3416795 13.8185856,27.0309795 C12.6483341,28.0929824 15.7102249,36.6010283 15.846487,38.0116887 C16.0173544,40.2504104 16.0521519,42.4974401 15.9506875,44.7403788 C16.054888,44.6121369 16.9846768,45.8504724 17.092885,45.718223 C18.9845243,43.3818166 18.531653,38.7971701 18.0146584,35.9277585 C16.940592,29.9605045 21.5694975,25.2997144 21.5694975,25.2997144 C23.0586153,26.9705516 24.875748,28.3169794 26.9077678,29.2551742 C31.8558108,31.400434 37.1510407,32.6332252 42.5378385,32.894037 C49.5433163,33.238687 56.3564241,28.2452696 57.7911844,29.8963835 C59.2259447,31.5474975 58.0997781,41.4221207 58.0997781,41.4221207 C58.0997781,41.4221207 64.5882613,31.3511271 63.5222103,28.4536626 Z" id="Path" fill="#EBE0DA" fill-rule="nonzero" style="mix-blend-mode: multiply;"></path>
                    <path d="M22.3550088,23.2438371 C22.3550088,23.2438371 22.3550088,13.1287604 19.0686862,8.33572088 C16.7081448,5.39016566 10.0192761,16.3949202 10.0192761,16.3949202 C10.0192761,16.3949202 5.84724952,22.963308 8.92517113,37.6710463 C15.7382789,36.8094213 15.8144254,42.6003428 16.2031733,46.4035154 C16.8884918,45.6941776 18.1429051,44.4678648 18.1429051,44.4678648 C16.7197169,40.8488459 16.0514421,36.9770906 16.179127,33.0904074 C17.1650238,23.8209254 22.3550088,23.2438371 22.3550088,23.2438371 Z" id="Path" fill="#793B16" fill-rule="nonzero"></path>
                    <path d="M59.4423611,23.6085249 C59.4423611,23.6085249 61.5023243,31.3992178 60.0595485,35.9117283 C59.6523627,38.1591882 59.107626,40.3795414 58.4284104,42.5602672 L60.56452,44.6081294 C60.744867,41.510287 60.5965817,35.9117283 66.3155845,34.717476 C67.7463371,30.8822428 64.5722304,18.5549941 64.5722304,18.5549941 L59.4423611,23.6085249 Z" id="Path" fill="#793B16" fill-rule="nonzero"></path>
                    <path d="M29.3284249,36.2964538 C29.1080009,36.6370963 27.4608319,35.5911236 25.5972465,35.7955091 C22.2147389,36.1601969 20.940287,38.2481347 20.940287,38.2481347 C21.3784091,35.9077993 23.2384668,34.094312 25.5892311,33.7155864 C27.8936646,33.3148306 29.1440702,33.8157754 29.5688876,34.200501 C29.9937049,34.5852265 29.5448413,35.9558114 29.3284249,36.2964538 Z" id="Path" fill="#793B16" fill-rule="nonzero"></path>
                    <path d="M30.1459979,61.335677 C31.0276941,72.3965374 45.118804,72.200167 45.118804,61.335677 L30.1459979,61.335677 Z" id="Path" fill="#EBE0DA" fill-rule="nonzero" style="mix-blend-mode: multiply;"></path>
                    <path d="M14.2594337,124.322468 C13.3576989,127.612673 12.1994705,131.379778 10.2757695,134.241174 C9.7227055,135.042686 9.1055181,136.192855 8.19176012,136.645709 C6.21595888,137.655614 6.96540073,138.837843 8.21179867,140.072171 C13.4218222,145.253944 10.9731112,152.667926 12.3237096,159.216276 C13.1252517,163.063532 14.0670636,166.894758 15.0289141,170.69793 C15.8304562,173.795773 17.2612088,176.380648 19.0606708,178.873349 C17.6820184,171.755926 12.8246734,145.798972 13.7264082,137.082533 C14.8766211,125.86137 19.0686862,114.395746 19.0686862,114.395746 C19.0686862,114.395746 19.0686862,112.624406 18.9564703,110.151742 C18.4555065,111.309927 17.9665659,112.476126 17.5096869,113.650341 C16.1550807,117.144931 15.2493382,120.715666 14.2594337,124.322468 Z" id="Path" fill="#EADBD5" fill-rule="nonzero" style="mix-blend-mode: multiply;"></path>
                    <path d="M37.6324009,53.1081601 C35.7367539,53.1081601 34.1497006,52.2866107 33.7409141,51.1885398 C33.6715341,51.3675699 33.6348825,51.5576077 33.6327059,51.7495979 C33.6327059,53.1201828 35.4241525,54.2302764 37.6404164,54.2302764 C39.8566802,54.2302764 41.6481268,53.1201828 41.6481268,51.7495979 C41.6459502,51.5576077 41.6092987,51.3675699 41.5399186,51.1885398 C41.1151013,52.2866107 39.528048,53.1081601 37.6324009,53.1081601 Z" id="Path" fill="#EADBD8" fill-rule="nonzero" style="mix-blend-mode: multiply;"></path>
                    <path d="M28.4226824,40.8490399 C28.4226824,42.1770278 27.3460945,43.2535747 26.0180561,43.2535747 C24.6900177,43.2535747 23.6134299,42.1770278 23.6134299,40.8490399 C23.6134299,39.5210519 24.6900177,38.444505 26.0180561,38.444505 C27.3460945,38.444505 28.4226824,39.5210519 28.4226824,40.8490399 L28.4226824,40.8490399 Z" id="Path" fill="#EADBD8" fill-rule="nonzero" style="mix-blend-mode: multiply;"></path>
                    <path d="M29.3284249,41.4341434 C29.3284249,42.7621313 28.2518371,43.8386782 26.9237987,43.8386782 C25.5957603,43.8386782 24.5191724,42.7621313 24.5191724,41.4341434 C24.5191724,40.1061554 25.5957603,39.0296085 26.9237987,39.0296085 C28.2518371,39.0296085 29.3284249,40.1061554 29.3284249,41.4341434 Z" id="Path" fill="#5B2C0B" fill-rule="nonzero"></path>
                    <path d="M45.3151818,36.2964538 C45.5315982,36.6370963 47.1787672,35.5911236 49.0423525,35.7955091 C52.4248601,36.1601969 53.7033198,38.2481347 53.7033198,38.2481347 C53.2635805,35.9071762 51.4021228,34.0938872 49.050368,33.7155864 C46.7459345,33.3148306 45.4955288,33.8157754 45.0707115,34.200501 C44.6458942,34.5852265 45.0947578,35.9558114 45.3151818,36.2964538 Z" id="Path" fill="#793B16" fill-rule="nonzero"></path>
                    <path d="M46.2169167,40.8490399 C46.2169167,42.1770278 47.2935045,43.2535747 48.6215429,43.2535747 C49.9495813,43.2535747 51.0261692,42.1770278 51.0261692,40.8490399 C51.0261692,39.5210519 49.9495813,38.444505 48.6215429,38.444505 C47.2935045,38.444505 46.2169167,39.5210519 46.2169167,40.8490399 Z" id="Path" fill="#EADBD8" fill-rule="nonzero" style="mix-blend-mode: multiply;"></path>
                    <path d="M45.3151818,41.4341434 C45.3151818,42.7621313 46.3917697,43.8386782 47.7198081,43.8386782 C49.0478465,43.8386782 50.1244343,42.7621313 50.1244343,41.4341434 C50.1244343,40.1061554 49.0478465,39.0296085 47.7198081,39.0296085 C46.3917697,39.0296085 45.3151818,40.1061554 45.3151818,41.4341434 Z" id="Path" fill="#5B2C0B" fill-rule="nonzero"></path>
                    <path d="M65.1293285,14.1506877 C65.1293285,25.1634574 59.0496055,30.7740388 41.6320959,30.7740388 C34.4950716,30.7402995 27.625039,28.0566611 22.3550088,23.2438371 L19.0686862,8.33572088 C19.0686862,8.33572088 18.6679152,5.41020346 23.5893836,3.98351277 C26.2745496,3.20604649 36.6865813,1.2343279 44.8983799,3.654893 C53.7033198,-5.33806741 65.1493408,4.35220811 65.1293285,14.1506877 Z" id="Path" fill="#803E19" fill-rule="nonzero"></path>
                    <path d="M46.8501349,87.2365251 C45.6157601,90.3063146 42.613985,93.7688448 39.1032307,93.7688448 C35.5924763,93.7688448 32.5907012,90.3063146 31.3563264,87.2365251 C31.3563264,87.2365251 26.8596753,88.9076768 27.224377,89.6851431 C28.6751681,92.786993 31.3082339,96.8145889 34.5344408,98.0168564 C35.957178,98.5498616 37.520185,95.0793163 39.1272769,95.0793163 C40.7343688,95.0793163 42.004813,98.0769698 43.3794577,97.5880477 C46.7299036,96.3857802 49.5713703,92.7789779 51.0341846,89.5729314 C51.37484,88.8235181 46.8501349,87.2365251 46.8501349,87.2365251 Z" id="Path" fill="#0874B7" fill-rule="nonzero"></path>
                    <polygon id="Path" fill="#793B16" fill-rule="nonzero" points="60.2038261 46.0027596 57.8913772 43.8507009 58.2079863 42.8808718 60.2038261 45.0088852"></polygon>
                    <polygon id="Path" fill="#793B16" fill-rule="nonzero" points="16.2713043 47.9824933 18.8202082 45.8184119 18.5035991 44.8485829 16.2713043 46.9846113"></polygon>
                    <path d="M30.1540133,61.2875863 C31.0357096,70.2404711 45.1107886,70.0801688 45.1107886,61.2875863 L30.1540133,61.2875863 Z" id="Path" fill="#FFFFFF" fill-rule="nonzero"></path>
                    <polygon id="Path" fill="#F7F7F6" fill-rule="nonzero" points="22.0985153 55.9855869 18.7200154 57.8731467 15.0810143 44.6321747 14.9848293 40.0795887"></polygon>
                    <polygon id="Path" fill="#F7F7F6" fill-rule="nonzero" points="53.75542 55.9855869 57.1339199 57.8731467 60.772921 44.6321747 60.8650983 40.0795887"></polygon>
                    <path d="M36.870936,79.9427693 C16.0308417,79.9427693 16.5879135,52.8236235 17.4054864,51.6173485 C17.6334057,51.3785134 17.9668099,51.2714058 18.2911904,51.3328119 C18.7395482,51.4149607 19.1767096,51.5494668 19.5936963,51.7335677 C20.150768,51.9379532 20.7038321,52.1343235 21.2649115,52.3226788 C21.899007,52.5446158 22.5566252,52.6925407 23.2246819,52.7635101 C23.7374749,52.8196106 24.2548575,52.8196106 24.7676505,52.7635101 C24.8728155,52.7506505 24.9771789,52.7319193 25.0802519,52.7074043 C25.6439004,52.5513551 26.1914175,52.3420183 26.7153977,52.0822253 C27.0520454,51.9339456 27.3927008,51.8016962 27.7293485,51.6814695 C28.8957591,51.1773093 30.0247818,50.590722 31.1078484,49.926159 C33.1727095,48.713768 35.5264899,48.0810405 37.9209561,48.0944691 L37.977064,48.0944691 C40.3716072,48.0804446 42.7255429,48.7132138 44.7901718,49.926159 C45.8732383,50.590722 47.002261,51.1773093 48.1686717,51.6814695 C48.5053193,51.8177264 48.8459747,51.9499758 49.1826224,52.0822253 C49.7066026,52.3420183 50.2541197,52.5513551 50.8177683,52.7074043 C50.9208412,52.7319193 51.0252046,52.7506505 51.1303697,52.7635101 C51.6445021,52.8196163 52.1632134,52.8196163 52.6773459,52.7635101 C53.3440231,52.6920961 54.0002635,52.5441787 54.6331086,52.3226788 C55.194188,52.1383311 55.7472521,51.9219229 56.3043238,51.7335677 C56.7215152,51.5500157 57.1586113,51.4155297 57.6068297,51.3328119 C57.9312103,51.2714058 58.2646144,51.3785134 58.4925337,51.6173485 C59.2940758,52.819616 59.8190859,79.9427693 38.9629608,79.9427693 L36.870936,79.9427693 Z" id="Path" fill="#F7F7F6" fill-rule="nonzero"></path>
                    <path d="M36.8949822,79.3696885 C16.788299,79.3696885 17.341363,53.5970822 18.130882,52.4509206 C18.3538924,52.2262025 18.6725518,52.1244748 18.9845243,52.1784067 C19.4171562,52.2664792 19.8390574,52.4008375 20.2429454,52.5791625 C20.7759709,52.7715253 21.3130041,52.9799183 21.8460296,53.136213 C22.4562459,53.3423605 23.0883662,53.476849 23.7296535,53.5369689 C24.2251361,53.591087 24.7250391,53.591087 25.2205217,53.5369689 C25.3207145,53.5369689 25.4209073,53.5049084 25.5211,53.480863 C26.0652433,53.3325026 26.5939861,53.1325542 27.1001379,52.8837369 C27.4247625,52.7474799 27.749387,52.6192381 28.0780193,52.4829811 C29.199861,52.0028442 30.2872017,51.4458041 31.3322801,50.8158369 C33.3271296,49.6627948 35.5928046,49.0611274 37.8969098,49.0723895 L37.9530178,49.0723895 C40.257123,49.0611274 42.522798,49.6627948 44.5176475,50.8158369 C45.5627259,51.4458041 46.6500666,52.0028442 47.7719083,52.4829811 C48.1005406,52.6112229 48.4251651,52.7394648 48.7497897,52.8837369 C49.2559415,53.1325542 49.7846843,53.3325026 50.3288276,53.480863 C50.4290203,53.5049084 50.5292131,53.5209386 50.6294059,53.5369689 C51.1248885,53.591087 51.6247915,53.591087 52.1202741,53.5369689 C52.7628071,53.4764422 53.3962079,53.3419673 54.0079058,53.136213 C54.544939,52.963888 55.0819722,52.7715253 55.6109899,52.5791625 C56.0148779,52.4008375 56.4367791,52.2664792 56.869411,52.1784067 C57.1813835,52.1244748 57.5000429,52.2262025 57.7230533,52.4509206 C58.5245954,53.5970822 59.001513,79.3696885 38.8868143,79.3696885 L36.8949822,79.3696885 Z" id="Path" stroke="#C6C6C5" stroke-width="0.5" stroke-linecap="round" stroke-linejoin="round" stroke-dasharray="0.7937998978614829"></path>
                    <path d="M36.9310516,78.1754362 C17.4615943,78.1754362 17.9986275,54.3304654 18.7641002,53.2684625 C18.9829383,53.0568772 19.2899329,52.9629941 19.5896886,53.0159863 C20.0017389,53.0909684 20.4047368,53.2091767 20.7920017,53.3686514 C21.3089964,53.5489915 21.825991,53.7293316 22.3510011,53.889634 C22.9443791,54.0871315 23.5569432,54.2214606 24.178517,54.2903898 C24.6569081,54.3383332 25.138894,54.3383332 25.6172851,54.2903898 C25.7174778,54.2903898 25.8136629,54.2623369 25.9098479,54.2422991 C26.4340023,54.1028968 26.944935,53.9178416 27.4367856,53.6892561 C27.749387,53.5610142 28.0659961,53.444795 28.3826053,53.3245683 C29.4678088,52.8825477 30.5216089,52.3670488 31.5366734,51.7816584 C33.4824561,50.71369 35.669338,50.1618165 37.8888944,50.1786352 L37.9450024,50.1786352 C40.1645588,50.1618165 42.3514406,50.71369 44.2972234,51.7816584 C45.3122879,52.3670488 46.3660879,52.8825477 47.4512915,53.3245683 C47.7679006,53.444795 48.0845097,53.5610142 48.3971112,53.6892561 C48.8889617,53.9178416 49.3998944,54.1028968 49.9240488,54.2422991 C50.0202339,54.2623369 50.1164189,54.2783671 50.2166117,54.2903898 C50.6950027,54.3383332 51.1769887,54.3383332 51.6553797,54.2903898 C52.2769536,54.2214606 52.8895177,54.0871315 53.4828957,53.889634 C54.0079058,53.7293316 54.5249004,53.5489915 55.041895,53.3686514 C55.42916,53.2091767 55.8321578,53.0909684 56.2442082,53.0159863 C56.5439638,52.9629941 56.8509584,53.0568772 57.0697965,53.2684625 C57.8352692,54.3304654 58.308179,78.1754362 38.8427295,78.1754362 L36.9310516,78.1754362 Z" id="Path" fill="#0071D6" fill-rule="nonzero"></path>
                    <path d="M23.6054144,59.47617 C23.6054144,59.47617 32.2380227,62.5419519 38.3257348,62.513899 C43.9766065,62.4898537 51.9759966,59.47617 51.9759966,59.47617 C51.9759966,59.47617 44.7380715,60.2255834 38.3738274,60.1374171 C32.0095832,60.0492508 23.6054144,59.47617 23.6054144,59.47617 Z" id="Path" fill="#0092FF" fill-rule="nonzero"></path>
                    <path d="M23.6054144,66.2409281 C23.6054144,66.2409281 32.7790636,69.0742717 38.061226,68.9780903 C43.7120977,68.8779013 51.9759966,66.2409281 51.9759966,66.2409281 C51.9759966,66.2409281 44.7380715,66.7178275 38.3738274,66.6416839 C32.0095832,66.5655403 23.6054144,66.2409281 23.6054144,66.2409281 Z" id="Path" fill="#0092FF" fill-rule="nonzero"></path>
                    <path d="M23.6054144,71.4788065 C23.6054144,71.4788065 32.6788708,74.684853 38.5822283,74.6648152 C44.2371077,74.6207321 51.9759966,71.0580129 51.9759966,71.0580129 C51.9759966,71.0580129 44.5777631,72.6610362 38.213519,72.5929077 C31.8492748,72.5247792 23.6054144,71.4788065 23.6054144,71.4788065 Z" id="Path" fill="#0092FF" fill-rule="nonzero"></path>
                    <path d="M19.2851026,54.8073648 C19.4976577,54.6021244 19.795724,54.5112176 20.0866447,54.5629037 C20.4904275,54.6340973 20.8854321,54.7482949 21.2649115,54.9035462 C21.7658753,55.0758712 22.2668391,55.2522037 22.7718107,55.4044909 C23.3442492,55.5934806 23.9355083,55.7197902 24.5352033,55.7812014 C24.9989561,55.8272737 25.4661336,55.8272737 25.9298865,55.7812014 C26.0220638,55.7812014 26.1182489,55.7531485 26.2104262,55.7331107 C26.7176882,55.5979869 27.2124447,55.4196669 27.6892714,55.2001055 C27.9898496,55.0758712 28.2944356,54.9636595 28.5990216,54.8474404 C29.645922,54.4178733 30.6634084,53.9198594 31.6448816,53.3566287 C33.5253979,52.3227977 35.6387447,51.7862045 37.7846939,51.7976886 L37.8367942,51.7976886 C39.9828084,51.7856722 42.096287,52.3222988 43.9766065,53.3566287 C44.9580797,53.9198594 45.9755661,54.4178733 47.0224665,54.8474404 C47.3270525,54.9636595 47.6316385,55.0758712 47.9362245,55.2001055 C48.4114251,55.4202643 48.9049032,55.598607 49.4110619,55.7331107 C49.5032392,55.7531485 49.5994243,55.7691787 49.6956093,55.7812014 C50.1580218,55.8272981 50.6238724,55.8272981 51.0862849,55.7812014 C51.6859798,55.7197902 52.2772389,55.5934806 52.8496774,55.4044909 C53.354649,55.2522037 53.8556128,55.0758712 54.3565766,54.9035462 C54.7360561,54.7482949 55.1310606,54.6340973 55.5348434,54.5629037 C55.8257641,54.5112176 56.1238304,54.6021244 56.3363855,54.8073648 C56.7932645,55.4445665 57.1379276,64.6218746 52.7975772,71.4547612 C57.9795468,64.3132926 57.6068297,53.9577625 57.1098736,53.2684625 C56.8910355,53.0568772 56.5840409,52.9629941 56.2842853,53.0159863 C55.8722349,53.0909684 55.4692371,53.2091767 55.0819722,53.3686514 C54.5649775,53.5489915 54.0479829,53.7293316 53.5229728,53.889634 C52.9295948,54.0871315 52.3170307,54.2214606 51.6954568,54.2903898 C51.2170658,54.3383332 50.7350799,54.3383332 50.2566888,54.2903898 C50.156496,54.2903898 50.060311,54.2623369 49.9641259,54.2422991 C49.4399715,54.1028968 48.9290388,53.9178416 48.4371883,53.6892561 C48.1245868,53.5610142 47.8079777,53.444795 47.4913686,53.3245683 C46.406165,52.8825477 45.352365,52.3670488 44.3373005,51.7816584 C42.3915177,50.71369 40.2046359,50.1618165 37.9850795,50.1786352 L37.9289715,50.1786352 C35.7094151,50.1618165 33.5225332,50.71369 31.5767505,51.7816584 C30.561686,52.3670488 29.5078859,52.8825477 28.4226824,53.3245683 C28.1060732,53.444795 27.7894641,53.5610142 27.4768627,53.6892561 C26.9850121,53.9178416 26.4740794,54.1028968 25.949925,54.2422991 C25.85374,54.2623369 25.7575549,54.2783671 25.6573622,54.2903898 C25.1789711,54.3383332 24.6969852,54.3383332 24.2185941,54.2903898 C23.5970203,54.2214606 22.9844562,54.0871315 22.3910782,53.889634 C21.8660681,53.7293316 21.3490735,53.5489915 20.8320788,53.3686514 C20.4448139,53.2091767 20.041816,53.0909684 19.6297657,53.0159863 C19.33001,52.9629941 19.0230154,53.0568772 18.8041773,53.2684625 C18.4034063,53.853566 18.0387046,61.3757525 21.0765492,68.0002461 C18.5837533,61.8766973 18.9003624,55.34037 19.2851026,54.8073648 Z" id="Path" fill="#DAE8EF" fill-rule="nonzero"></path>
                    <path d="M42.4055841,71.0179374 C42.4055841,71.1221339 42.4055841,71.2223228 42.4055841,71.3225118 C42.3919027,71.6175245 42.3475795,71.910315 42.2733296,72.1961594 C42.2292448,72.3684844 42.1771446,72.5408094 42.1170289,72.7051193 C42.0026092,73.0109145 41.8561821,73.3037576 41.6801885,73.578767 C40.5953037,75.2968137 38.6942738,76.3262461 36.662535,76.2958914 C33.4924361,76.2958914 30.9234937,73.9274246 30.9234937,71.0179374 C30.9234937,68.1084502 33.4924361,65.7239531 36.662535,65.7239531 C38.7350318,65.6879919 40.6704153,66.7563807 41.7443118,68.5292438 C41.9053357,68.8070766 42.0395319,69.0996133 42.1450829,69.4028914 C42.2011265,69.5712047 42.2479526,69.7424479 42.2853527,69.9158589 C42.351034,70.2027411 42.3886167,70.4953383 42.3975686,70.7895065 C42.4054384,70.8653789 42.4081164,70.9417001 42.4055841,71.0179374 L42.4055841,71.0179374 Z" id="Path" stroke="#F7F7F6" stroke-width="0.5" stroke-dasharray="0.003779999765083197"></path>
                    <ellipse id="Oval" fill="#003A8E" fill-rule="nonzero" cx="37.7927094" cy="71.0179374" rx="5.27414693" ry="4.84513776"></ellipse>
                    <path d="M41.9366819,71.0179374 C41.9366819,71.1141188 41.9366819,71.2062926 41.9366819,71.2984664 C41.9230732,71.5689418 41.8828009,71.8374136 41.8164506,72.099978 C41.776843,72.2587585 41.7286802,72.4152816 41.6721731,72.5688623 C41.5656797,72.8487432 41.4314192,73.117254 41.271402,73.370374 C40.2744192,74.9475551 38.5282329,75.8919782 36.662535,75.8630751 C33.7529372,75.8630751 31.3923958,73.6909786 31.3923958,71.0179374 C31.3923958,68.3448961 33.7529372,66.1727996 36.662535,66.1727996 C38.5671812,66.1411332 40.3445941,67.1260024 41.32751,68.7576746 C41.4761854,69.0122201 41.5996734,69.280662 41.6962193,69.5591862 C41.8317324,69.9699537 41.9099515,70.3974455 41.9286665,70.8295821 C41.9354195,70.892127 41.9380969,70.9550449 41.9366819,71.0179374 L41.9366819,71.0179374 Z" id="Path" fill="#004CD3" fill-rule="nonzero"></path>
                    <path d="M41.6801885,69.5591862 L38.1173339,69.5591862 C37.8959942,69.5591862 37.7165629,69.3797617 37.7165629,69.1584304 C37.7165629,68.9370991 37.8959942,68.7576746 38.1173339,68.7576746 L41.3235022,68.7576746 C41.4680356,69.0126837 41.5874904,69.2811112 41.6801885,69.5591862 Z" id="Path" fill="#DAE8EF" fill-rule="nonzero"></path>
                    <path d="M41.9286665,70.8295821 L38.1333647,70.8295821 C37.912025,70.8295821 37.7325937,70.6501576 37.7325937,70.4288263 C37.7325937,70.207495 37.912025,70.0280705 38.1333647,70.0280705 L41.824466,70.0280705 C41.8854904,70.2911614 41.9203932,70.5596338 41.9286665,70.8295821 Z" id="Path" fill="#DAE8EF" fill-rule="nonzero"></path>
                    <path d="M41.9246588,71.2984664 C41.9110501,71.5689418 41.8707778,71.8374136 41.8044275,72.099978 L38.1333647,72.099978 C37.912025,72.099978 37.7325937,71.9205536 37.7325937,71.6992222 C37.7325937,71.4778909 37.912025,71.2984664 38.1333647,71.2984664 L41.9246588,71.2984664 Z" id="Path" fill="#DAE8EF" fill-rule="nonzero"></path>
                    <path d="M41.6801885,72.5688623 C41.5736952,72.8487432 41.4394347,73.117254 41.2794174,73.370374 L38.1413802,73.370374 C37.9200404,73.370374 37.7406091,73.1909495 37.7406091,72.9696182 C37.7406091,72.7482868 37.9200404,72.5688623 38.1413802,72.5688623 L41.6801885,72.5688623 Z" id="Path" fill="#004CD3" fill-rule="nonzero"></path>
                    <path d="M34.9592581,67.611513 C34.9592581,67.611513 30.5507766,69.9278816 33.6246905,73.9634926" id="Path" stroke="#DAE8EF" stroke-width="0.755999922" stroke-linecap="round" stroke-linejoin="round"></path>
                    <path d="M27.8495798,88.9677902 L27.8014873,88.9196995 C27.8014873,88.9196995 30.7872315,88.0901349 27.8495798,88.9677902 Z" id="Path" fill="#2B96F4" fill-rule="nonzero"></path>
                    <path d="M79.7534376,145.073604 C77.9740141,159.63707 77.8337443,160.899451 77.8257288,160.979602 L69.7582077,159.901569 C69.7582077,159.901569 71.2731223,143.975533 69.6179379,136.958299 C68.5788488,132.651808 66.901074,128.525071 64.6403615,124.715209 L67.886607,168.317441 C67.886607,168.317441 67.4177049,232.939315 70.876359,247.122064 C70.9425116,247.385122 70.9867478,247.65321 71.0086134,247.923575 C72.1387877,261.392978 16.7562373,263.076152 16.5358132,256.619976 C16.3113815,250.031551 17.8022497,208.501226 17.8022497,208.501226 C17.8022497,208.501226 16.7241756,170.565681 17.9705736,168.453698 C19.2169715,166.341715 16.7402065,135.086769 16.9966999,131.479967 C17.2531934,127.873164 17.7100724,118.739939 17.7100724,118.739939 C16.5465966,123.286145 15.7253893,127.913131 15.2533459,132.582045 L15.2533459,132.582045 C14.9345182,135.59838 14.7833286,138.630083 14.8004746,141.663172 C14.9086828,153.641763 15.6020167,158.514954 15.6020167,158.514954 L7.30605611,160.626937 C7.30605611,160.626937 1.25842108,143.178029 3.83137117,126.422428 C6.42435982,109.550609 7.06559349,94.9951576 20.4713849,91.1238564 C24.4229874,89.9817024 26.6873438,89.3204553 27.9177109,88.9557675 L31.5246502,92.6066529 L32.6748631,93.7768599 L35.0794894,93.7768599 L39.7925569,94.2257064 L42.0809595,94.2257064 L45.2550662,92.6226832 L49.5513318,89.1401152 L51.1143388,89.5729314 C51.1143388,89.5729314 65.3136569,91.0196599 69.1490358,100.020635 C72.9844146,109.021611 81.809393,128.362086 79.7534376,145.073604 Z" id="Path" fill="#2B96F4" fill-rule="nonzero"></path>
                    <path d="M75.0884626,187.954476 C75.7216809,185.674175 72.5395588,177.374522 70.6118501,177.422613 C69.0087659,177.462688 66.4318081,183.890812 66.5320008,186.920526 C67.153196,187.273191 67.610075,188.495496 67.8665684,189.092622 C68.1230619,189.689748 74.4552444,190.242791 75.0884626,187.954476 Z" id="Path" fill="#F8BA8C" fill-rule="nonzero"></path>
                    <path d="M70.1349325,195.741161 C70.0026781,194.082032 69.8503851,191.477119 69.8984776,189.200826 C70.4266255,189.174079 70.9472941,189.06454 71.4414461,188.876214 C71.7740861,190.988197 71.9063405,193.685284 71.9985179,195.288307 C72.1307723,197.632728 71.8061478,198.830988 71.1969758,198.895109 C70.6358963,198.979268 70.2912332,197.885205 70.1349325,195.741161 Z" id="Path" fill="#F8BA8C" fill-rule="nonzero"></path>
                    <path d="M72.3872658,194.847476 C72.1588263,193.304566 71.8462249,190.86797 71.7580553,188.735949 C72.3217479,188.661004 72.8729665,188.511412 73.3972088,188.29111 C73.8500801,190.258822 73.9983654,192.867742 74.1987509,194.378591 C74.4712752,196.566718 74.2268049,197.696849 73.6216406,197.789023 C73.0886151,197.869174 72.6878441,196.855262 72.3872658,194.847476 Z" id="Path" fill="#F8BA8C" fill-rule="nonzero"></path>
                    <path d="M74.2468434,193.360671 C73.9793016,191.634227 73.7987267,189.895424 73.7058025,188.150846 C74.1872399,188.090707 74.6579771,187.963923 75.1044935,187.774135 C75.5052645,189.453302 75.6174804,191.677497 75.7777888,192.983961 C76.010236,194.855491 75.8018351,195.817305 75.2888481,195.897456 C74.8439923,195.941539 74.4993292,195.071899 74.2468434,193.360671 Z" id="Path" fill="#F8BA8C" fill-rule="nonzero"></path>
                    <path d="M67.6421366,194.995755 C67.6701906,193.432808 67.6862215,190.407101 67.9507303,188.29111 C68.467725,188.335194 69.2251823,188.80007 69.7221384,188.691866 C69.8463774,190.695645 69.5578222,193.300558 69.4936989,194.819423 C69.4015215,197.027587 68.9726965,198.101613 68.3595168,198.093642 C67.8345067,198.08959 67.6060672,197.019572 67.6421366,194.995755 Z" id="Path" fill="#F8BA8C" fill-rule="nonzero"></path>
                    <path d="M64.0632512,186.351452 C65.2896106,185.377616 66.3596693,181.943138 68.2032161,180.877128 C68.4837558,181.317959 69.8944699,183.470018 70.2792101,183.798638 C68.7522724,185.117124 66.9608259,186.68408 65.7104202,187.55372 C63.8989351,188.816101 62.4240977,188.331186 62.059396,187.838256 C61.7467946,187.397425 63.4460638,186.828352 64.0632512,186.351452 Z" id="Path" fill="#F8BA8C" fill-rule="nonzero"></path>
                    <path d="M74.2147817,181.89104 L67.401674,180.925219 C67.401674,180.925219 71.4093844,146.997232 69.5538145,136.970321 C67.4978591,125.86137 62.3960437,114.788487 62.3960437,114.788487 C62.3960437,114.788487 59.6347312,92.7108494 64.9048704,94.8829459 C70.1750096,97.0550424 78.058176,121.701525 79.5610675,137.150661 C80.7152881,149.081162 74.2147817,181.89104 74.2147817,181.89104 Z" id="Path" fill="#2B96F4" fill-rule="nonzero"></path>
                    <path d="M46.8501349,87.2365251 C45.6157601,90.3063146 42.613985,93.7688448 39.1032307,93.7688448 C35.5924763,93.7688448 32.5907012,90.3063146 31.3563264,87.2365251 C31.3563264,87.2365251 26.8596753,88.9076768 27.224377,89.6851431 C28.6751681,92.786993 31.3082339,96.8145889 34.5344408,98.0168564 C35.957178,98.5498616 37.520185,95.0793163 39.1272769,95.0793163 C40.7343688,95.0793163 42.004813,98.0769698 43.3794577,97.5880477 C46.7299036,96.3857802 49.5713703,92.7789779 51.0341846,89.5729314 C51.37484,88.8235181 46.8501349,87.2365251 46.8501349,87.2365251 Z" id="Path" fill="#0071D6" fill-rule="nonzero"></path>
                    <path d="M16.3714971,256.619976 C16.1470653,250.031551 17.6339259,208.501226 17.6339259,208.501226 C17.6339259,208.501226 16.5558518,170.565681 17.8022497,168.453698 C19.0486477,166.341715 16.5758903,135.086769 16.8323838,131.479967 C17.0888773,127.873164 17.5457563,118.739939 17.5457563,118.739939 C16.3822805,123.286145 15.5610731,127.913131 15.0890298,132.582045 C14.988837,126.610784 15.7262557,120.908028 18.7240231,116.299337 C21.8139679,118.222964 22.2868777,129.043371 22.7557798,132.618113 C23.506927,138.54458 23.908393,144.510138 23.958093,150.483807 C24.1224091,162.658769 23.2246819,174.813693 22.711695,186.972624 C22.1225616,200.999077 22.1866849,215.558536 27.9698111,228.346654 C33.7529372,241.134772 46.7339113,251.678657 60.7047899,250.32811 C64.1714594,249.991475 67.5178976,248.96554 70.8523127,247.951628 C71.9544331,261.392978 16.5919212,263.076152 16.3714971,256.619976 Z" id="Path" fill="#0071D6" fill-rule="nonzero"></path>
                    <path d="M12.3237096,188.355231 C11.5221675,186.135044 14.0109557,177.602953 15.930649,177.494749 C17.5337331,177.406583 20.6196702,183.606275 20.7639477,186.635989 C20.1708066,187.036745 19.8141204,188.29111 19.6097271,188.908274 C19.4053339,189.525438 13.1412825,190.579426 12.3237096,188.355231 Z" id="Path" fill="#F8BA8C" fill-rule="nonzero"></path>
                    <path d="M17.9024425,195.709101 C17.9024425,194.045964 17.8423268,191.437044 17.6098796,189.172773 C17.0803666,189.186521 16.551879,189.118942 16.0428649,188.972395 C15.8825564,191.104416 15.9707261,193.781465 16.0108032,195.408534 C16.0669111,197.756963 16.4877207,198.923162 17.1169312,198.955223 C17.6539644,198.979268 17.9064502,197.857152 17.9024425,195.709101 Z" id="Path" fill="#F8BA8C" fill-rule="nonzero"></path>
                    <path d="M15.569955,195.00377 C15.6741555,193.440823 15.7903791,190.996212 15.7062172,188.856176 C15.1391377,188.828711 14.5783503,188.724915 14.0390096,188.547594 C13.7424391,190.551373 13.8065624,193.156286 13.7424391,194.679158 C13.646254,196.883315 13.9829017,197.989401 14.5920737,198.033484 C15.1170837,198.069552 15.4377006,197.02358 15.569955,195.00377 Z" id="Path" fill="#F8BA8C" fill-rule="nonzero"></path>
                    <path d="M13.6021692,193.669253 C13.6903388,192.338744 13.7865239,190.242791 13.7183928,188.42336 C13.2332198,188.401441 12.7532624,188.313811 12.2916479,188.162869 C12.0431698,189.866081 12.0992778,192.094283 12.0391621,193.372694 C11.9590079,195.256246 12.2475631,196.20203 12.7645577,196.238098 C13.2254444,196.286189 13.4899533,195.396511 13.6021692,193.669253 Z" id="Path" fill="#F8BA8C" fill-rule="nonzero"></path>
                    <path d="M20.3150842,194.767324 C20.1587835,193.212392 19.9143131,190.198708 19.4654496,188.11077 C18.9524626,188.198937 18.2350825,188.723927 17.7341187,188.655798 C17.7741958,190.659577 18.2711519,193.236437 18.4555065,194.747287 C18.7280308,196.939421 19.2570486,197.977378 19.8501898,197.917265 C20.3751998,197.865167 20.5154697,196.771103 20.3150842,194.767324 Z" id="Path" fill="#F8BA8C" fill-rule="nonzero"></path>
                    <path d="M23.1805971,185.8465 C21.8820989,184.972852 20.5355082,181.642572 18.6118072,180.720833 C18.3713446,181.18571 17.1369698,183.441965 16.7802836,183.798638 C18.4114217,185.000905 20.3230996,186.411566 21.6376286,187.177009 C23.5452988,188.287103 24.9760514,187.681962 25.3006759,187.177009 C25.5812157,186.71614 23.8378616,186.283324 23.1805971,185.8465 Z" id="Path" fill="#F8BA8C" fill-rule="nonzero"></path>
                    <path d="M12.7044421,182.23569 L19.4213647,180.740871 C19.4213647,180.740871 12.6884112,147.2457 13.7264082,137.102571 C14.8766211,125.881408 19.0686862,114.415784 19.0686862,114.415784 C19.0686862,114.415784 19.6097271,92.2980709 14.5279503,94.8909611 C9.44617348,97.4838512 4.00771043,122.551127 3.7672478,138.068392 C3.5748777,150.042976 12.7044421,182.23569 12.7044421,182.23569 Z" id="Path" fill="#2B96F4" fill-rule="nonzero"></path>
                </g>
            </g>
        </g>
    </g>
</svg>