<?xml version="1.0" encoding="utf-8"?>
<!-- Generator: Adobe Illustrator 22.1.0, SVG Export Plug-In . SVG Version: 6.00 Build 0)  -->
<svg version="1.1" xmlns="http://www.w3.org/2000/svg" xmlns:xlink="http://www.w3.org/1999/xlink" x="0px" y="0px"
	 viewBox="0 0 300.5 821.3" style="enable-background:new 0 0 300.5 821.3;" xml:space="preserve">
<style type="text/css">
	.st0{fill:#FFFFFF;}
	.st1{fill:#22366B;}
	.st2{fill:#CFCFCF;}
	.st3{fill:#22AA66;}
	.st4{fill:#229958;}
	.st5{fill:#24BF77;}
	.st6{fill:#24AA63;}
	.st7{fill:#E3AC81;}
	.st8{fill:#EBE0DA;}
	.st9{fill:#F8BA8C;}
	.st10{fill:#793B16;}
	.st11{fill:#EADBD8;}
	.st12{fill:#5B2C0B;}
	.st13{fill:#803E19;}
	.st14{fill:#2B96F4;}
	.st15{fill:#0E131A;}
	.st16{fill:#43362C;}
	.st17{fill:#F7E88F;}
	.st18{fill:#0071D6;}
	.st19{fill:#FCAE88;}
	.st20{opacity:0.32;fill:#B06D4D;}
	.st21{fill:#F2D453;}
	.st22{fill-rule:evenodd;clip-rule:evenodd;fill:#B77A65;}
	.st23{fill-rule:evenodd;clip-rule:evenodd;fill:#0071D6;}
	.st24{fill-rule:evenodd;clip-rule:evenodd;fill:#005EA5;}
	.st25{fill:#1E3144;}
	.st26{fill:#DB7269;}
	.st27{fill:#FFC5B6;}
	.st28{fill:none;stroke:#FFFFFF;stroke-width:2.3315;stroke-linecap:round;stroke-linejoin:round;}
	.st29{fill:none;stroke:#FFFFFF;stroke-width:1.9412;stroke-linecap:round;stroke-linejoin:round;}
	.st30{fill:none;stroke:#FFFFFF;stroke-width:0.9346;stroke-linecap:round;stroke-linejoin:round;}
	.st31{fill:#209E5F;}
	.st32{fill:#25AF66;}
	.st33{fill:#EADBD5;}
	.st34{opacity:0.1;}
	.st35{fill:#60D2A5;}
	.st36{fill:#57C193;}
	.st37{fill:#45BF87;}
	.st38{fill:#028251;}
	.st39{fill:#07AF72;}
	.st40{opacity:0.25;}
	.st41{fill:#8DD9B8;}
	.st42{fill:#FBB087;}
	.st43{fill:none;stroke:#EADBD8;stroke-miterlimit:10;}
	.st44{fill:none;stroke:#803E19;stroke-width:1.3237;stroke-linecap:round;stroke-linejoin:round;stroke-miterlimit:10;}
	.st45{clip-path:url(#XMLID_30_);}
	.st46{clip-path:url(#XMLID_31_);}
	.st47{clip-path:url(#XMLID_33_);}
	.st48{clip-path:url(#XMLID_34_);}
	.st49{clip-path:url(#XMLID_36_);}
	.st50{clip-path:url(#XMLID_37_);}
	.st51{opacity:0.39;fill:#FFFFFF;}
	.st52{opacity:0.42;fill:#F9F9F9;}
	.st53{clip-path:url(#XMLID_39_);}
	.st54{clip-path:url(#XMLID_40_);}
	.st55{clip-path:url(#XMLID_42_);}
	.st56{clip-path:url(#XMLID_43_);}
	.st57{clip-path:url(#XMLID_45_);}
	.st58{clip-path:url(#XMLID_46_);}
	.st59{fill:#F7E589;}
	.st60{fill:none;stroke:#FFFFFF;stroke-width:2.27;stroke-linecap:round;stroke-linejoin:round;}
	.st61{fill:none;stroke:#FFFFFF;stroke-width:1.89;stroke-linecap:round;stroke-linejoin:round;}
	.st62{fill:none;stroke:#FFFFFF;stroke-width:0.91;stroke-linecap:round;stroke-linejoin:round;}
	.st63{fill:#E6E8E8;}
	.st64{fill:none;stroke:#BFBFBF;stroke-width:1.4335;stroke-miterlimit:10;}
	.st65{fill:none;stroke:#BFBFBF;stroke-width:0.2491;stroke-miterlimit:10;stroke-dasharray:0,0.4983,1.2457,0,0,0;}
	.st66{opacity:0.4;fill:#BFBFBF;}
	.st67{fill:none;stroke:#BFBFBF;stroke-width:0.2389;stroke-miterlimit:10;}
	.st68{fill:none;stroke:#BFBFBF;stroke-width:0.2389;stroke-miterlimit:10;stroke-dasharray:1.1939,0,0,0;}
	.st69{fill:none;stroke:#BFBFBF;stroke-width:0.2389;stroke-miterlimit:10;stroke-dasharray:0,0.4676,1.1939,0,0,0;}
	.st70{fill:#BFBFBF;}
	.st71{fill:#F7FBFC;}
	.st72{opacity:0.3;}
	.st73{opacity:0.4;clip-path:url(#SVGID_7_);fill:#BFBFBF;}
	.st74{opacity:0.5;}
	.st75{opacity:0.4;clip-path:url(#SVGID_8_);fill:#BFBFBF;}
	.st76{opacity:0.4;clip-path:url(#SVGID_9_);fill:#BFBFBF;}
	.st77{opacity:0.4;clip-path:url(#SVGID_10_);fill:#BFBFBF;}
	.st78{opacity:0.4;clip-path:url(#SVGID_11_);fill:#BFBFBF;}
	.st79{clip-path:url(#XMLID_48_);}
	.st80{clip-path:url(#XMLID_49_);}
	.st81{clip-path:url(#XMLID_51_);}
	.st82{clip-path:url(#XMLID_52_);}
	.st83{fill:#DDCFC9;}
	.st84{fill:none;stroke:#F2D453;stroke-width:3;stroke-miterlimit:10;}
	.st85{clip-path:url(#XMLID_54_);}
	.st86{clip-path:url(#XMLID_55_);}
	.st87{opacity:0.4;clip-path:url(#SVGID_12_);fill:#BFBFBF;}
</style>
<g id="BACKGROUND">
</g>
<g id="OBJECT">
	<g>
		<g>
			<g>
				<path class="st21" d="M40.9,442.7c-0.4-0.3-10.1-6.8-11.9-17c-1-5.7,0.7-11.4,5.1-16.8c7.8-9.8,14.4-10,20.2-10.2
					c5.1-0.2,9.1-0.3,13.8-7.3l0.5-0.7c10.4-15.5,11.8-17.5,27.1-20.4l0.7,3.3c-13.8,2.6-14.6,3.8-24.7,18.9l-0.5,0.7
					c-5.7,8.5-11.4,8.7-16.8,8.9c-5.4,0.2-10.6,0.3-17.3,8.8c-3.7,4.7-5.2,9.5-4.4,14.2c1.5,8.8,10.3,14.7,10.4,14.7L40.9,442.7z"/>
			</g>
			<g>
				<path class="st21" d="M268.8,439.7c-4.7,0-13.2-2.1-23.2-14.8c-7.9-10-7.8-14.2-7.6-18.3c0.1-3.3,0.2-6.4-4.5-13.4l-0.5-0.7
					c-10.1-15.1-10.9-16.3-24.7-18.9l0.7-3.3c15.3,2.9,16.7,4.9,27.1,20.4l0.5,0.7c5.3,7.9,5.2,11.8,5,15.3
					c-0.1,3.7-0.2,7.1,6.9,16.1c13,16.3,22.5,13.1,22.6,13.1l1.4,3.2C272.4,439.2,271,439.7,268.8,439.7z"/>
			</g>
			<g>
				<path class="st17" d="M232,515.7c-2.8,1.8-7.9,3.4-14.5,4.7c-28.8,5.8-84.8,7.6-84.8,7.6s-29.4-1.7-48.4-7.6
					c-4.3-1.3-8.1-2.9-10.9-4.7c0,0,10.6-104,14.9-124.7c0.9-4.5,2-10.1,3-16.3c0.2-1.2,0.4-2.4,0.6-3.6c1.4-8.8,2.7-18.4,3.7-27.9
					c1-9.5,1.5-18.7,1.4-26.5c0-3.5-0.3-6.7-0.6-9.5l-0.5-3.8c0,0-1.4-3.8-3.3-9.4c-4.4-13.3-11.3-36.9-8.3-46.4
					c0.5-1.6,1.3-2.9,2.5-3.5c12.5-7.3,27.1-8.8,27.1-8.8l10.8-3.1l0.3-0.1c4.6,3.2,16.8,5.4,30,5.4c12.9,0,25.5-3.7,30.2-6.9
					c0,0,0.1,0,0.1-0.1l6.6,3.7c0,0,14.4,2.5,26.9,9.8c0,0-5.1,53-7.4,48.7l-2.2,14.5c-2,15.4,1.1,42.6,4.5,64.1
					c0.2,1.2,0.4,2.5,0.6,3.6c1,6.1,2,11.6,3,16.1C221.4,411.7,232,515.7,232,515.7z"/>
				<path class="st21" d="M232,515.7c-2.8,1.8-7.9,3.4-14.5,4.7c-28.8,5.8-84.8,7.6-84.8,7.6s-29.4-1.7-48.4-7.6
					c-4.3-1.3-8.1-2.9-10.9-4.7c0,0,10.6-104,14.9-124.7c2.4-11.6,5.5-30.2,7.3-47.8c-1.6,43.7-0.5,107.7,17.6,131.2
					c28.6,37,37.7,39.6,67.9,36C211.1,506.7,232,515.7,232,515.7z"/>
			</g>
			<g>
				<path class="st21" d="M183.6,225.9c-6.9,4-31.8,15.3-57,2c-1.6-0.8-1.1,1.9-1.9,3.4l-0.3,0.7c0,0,32.9,22.1,60.8-1.5l-0.3-0.8
					C184.4,228.3,184.9,225.1,183.6,225.9z"/>
			</g>
		</g>
		<path class="st84" d="M181,230.7c2.5-5.4,6.8-10,12-12.9c2.1-1.1,4.6-2,6.8-1.2c2.3,0.8,3.6,3.2,4.2,5.5c0.6,2.3,0.6,4.8,1.1,7.2
			c1.1,4.4,4.3,8.3,8.5,10.1c4.2,1.8,9.2,1.6,13.2-0.6"/>
		<path class="st84" d="M127.2,230.3c0.5-1.8,1-3.8,0.6-5.6c-0.4-1.9-1.9-3.7-3.8-3.7c-1,0-1.9,0.4-2.7,0.8
			c-3.8,1.8-7.6,3.6-11.5,5.5c-3.7,1.7-7.8,3.5-11.7,2.2c0,0-12.5-1.6-10.9,4.1"/>
	</g>
</g>
</svg>
