<svg xmlns="http://www.w3.org/2000/svg" viewBox="0 0 246.96 313.18"><defs><style>.cls-1{fill:#f2d453;}.cls-2{fill:#f7e88f;}.cls-3{fill:none;stroke:#f2d453;stroke-miterlimit:10;stroke-width:3px;}</style></defs><g id="OBJECT"><path class="cls-1" d="M12.15,227.91c-.41-.27-10.12-6.78-11.88-17-1-5.69.72-11.35,5.06-16.82,7.78-9.81,14.36-10,20.16-10.18,5.1-.16,9.12-.28,13.82-7.28l.48-.72C50.21,160.4,51.55,158.4,66.87,155.5l.73,3.34c-13.77,2.61-14.59,3.84-24.69,18.9l-.48.72c-5.74,8.55-11.37,8.72-16.82,8.89s-10.6.31-17.33,8.8c-3.72,4.69-5.2,9.48-4.39,14.23,1.5,8.76,10.3,14.69,10.39,14.75Z"/><path class="cls-1" d="M240,224.88c-4.66,0-13.23-2.14-23.24-14.76-7.93-10-7.78-14.2-7.64-18.27.11-3.28.21-6.38-4.49-13.39l-.48-.72c-10.1-15.06-10.92-16.29-24.69-18.9l.73-3.34c15.32,2.9,16.66,4.9,27.08,20.44l.48.72c5.29,7.89,5.16,11.82,5,15.3-.13,3.65-.25,7.1,6.93,16.14,13,16.32,22.52,13.11,22.62,13.07l1.4,3.16A11.08,11.08,0,0,1,240,224.88Z"/><path class="cls-2" d="M247,83.55Q236,99.32,224.12,114.35c-2.12-1.6-4.27-3.26-6.41-4.93-16.57-13-32.79-27.18-35.15-31.5l-2.22,14.46c-2.68,20.77,3.84,63.2,8.08,83.85s14.82,124.68,14.82,124.68c-2.76,1.79-7.94,3.35-14.51,4.69-28.81,5.85-84.81,7.58-84.81,7.58s-29.44-1.73-48.41-7.58a45.75,45.75,0,0,1-10.87-4.69s10.6-104,14.86-124.68c2.38-11.62,5.49-30.15,7.27-47.83a236.93,236.93,0,0,0,1.39-26.52,82.93,82.93,0,0,0-.62-9.5L67,88.55l-.57-3.91c-9.44,8.41-19.29,17-28.78,24.49-2,1.57-3.93,3.1-5.87,4.57-9-13.33-17.76-26.8-26.9-40,2-2,4.12-4.09,6.23-6.12C28.23,51,47,35.42,57.92,29.2c12.54-7.29,27.14-8.79,27.14-8.79l11.08-3.19c4.64,3.21,16.81,5.36,30,5.36s25.64-3.74,30.34-6.93l6.6,3.74S177.46,21.91,190,29.2c0,0,39.68,40.77,50.06,48.19l.75.51A61.25,61.25,0,0,1,247,83.55Z"/><path class="cls-1" d="M203.24,300.91c-2.76,1.79-7.94,3.35-14.51,4.69-28.81,5.85-84.81,7.58-84.81,7.58s-29.44-1.73-48.41-7.58a45.75,45.75,0,0,1-10.87-4.69s10.6-104,14.86-124.68c2.38-11.62,5.49-30.15,7.27-47.83-1.62,43.72-.5,107.71,17.63,131.19,28.6,37.05,37.72,39.65,67.86,36S203.24,300.91,203.24,300.91Z"/><path class="cls-1" d="M154.86,11.12c-6.87,4-31.81,15.28-57,2C96.28,12.25,96.75,15,96,16.5l-.34.69s32.9,22.09,60.78-1.55l-.27-.83C155.71,13.47,156.14,10.36,154.86,11.12Z"/><path class="cls-1" d="M247,83.55Q236,99.32,224.12,114.35c-2.12-1.6-4.27-3.26-6.41-4.93l22.33-32,.75.51A61.25,61.25,0,0,1,247,83.55Z"/><path class="cls-1" d="M37.64,109.13c-2,1.57-3.93,3.1-5.87,4.57-9-13.33-17.76-26.8-26.9-40,2-2,4.12-4.09,6.23-6.12Z"/><path class="cls-3" d="M152.26,15.89A28.22,28.22,0,0,1,164.28,3c2.08-1.14,4.57-2,6.81-1.2s3.62,3.2,4.19,5.55.58,4.8,1.15,7.15a15.08,15.08,0,0,0,8.49,10.07A15.1,15.1,0,0,0,198.08,24"/><path class="cls-3" d="M98.51,15.56a12.58,12.58,0,0,0,.63-5.62c-.36-1.87-1.86-3.66-3.76-3.69a6.32,6.32,0,0,0-2.72.82L81.19,12.53c-3.67,1.75-7.82,3.53-11.66,2.2,0,0-12.48-1.58-10.92,4.05"/></g></svg>