<?xml version="1.0" encoding="UTF-8"?>
<svg width="58px" height="94px" viewBox="0 0 58 94" version="1.1" xmlns="http://www.w3.org/2000/svg" xmlns:xlink="http://www.w3.org/1999/xlink">
    <!-- Generator: Sketch 61.1 (89650) - https://sketch.com -->
    <title>Group 15 Copy</title>
    <desc>Created with Sketch.</desc>
    <g id="Page-1" stroke="none" stroke-width="1" fill="none" fill-rule="evenodd">
        <g id="Droplet-&amp;-Contact" transform="translate(-810.000000, -1002.000000)">
            <g id="Group-15-Copy" transform="translate(810.000000, 1002.000000)">
                <path d="M49.5,91.2710591 C49.4351044,57.973066 48.4052088,33.3987967 44.9207489,14.7476933 C44.8408329,14.3227427 44.4484631,14.0134855 43.9827869,14.0084795 C34.1537136,13.9105851 22.4823652,14.6876217 19.0784222,14.9329139 C18.5424439,14.9712929 18.1470697,15.4034743 18.1951395,15.8985084 C18.565277,19.708602 19.7712282,35.2220794 17.0240389,53.1050457 C14.5634658,69.1196756 12.0566255,84.9062561 11.5104324,88.3347841 C11.4455381,88.7430481 11.6882907,89.1340694 12.1022918,89.288698 C14.4420896,90.1580668 22.4270849,92.8840914 32.7464701,93.7751528 C42.718551,94.6356221 47.513514,92.8006587 48.9874543,92.0642261 C49.3029124,91.9068163 49.5005995,91.6025651 49.5,91.2710591" id="Fill-1" fill="#2B96F4"></path>
                <path d="M37.3189321,93 C35.7497449,93 34.0776103,92.9254925 32.3482149,92.7803408 C21.9505223,91.9011519 13.8633604,89.1857664 11.63202,88.3744622 C11.5400374,88.3413478 11.4882591,88.2585616 11.5022697,88.1691526 C12.1967081,83.9001472 14.6509997,68.7596655 17.0918899,53.2091164 C19.8605063,35.5745641 18.7043272,20.3711649 18.2846184,16.1319625 C18.2773085,16.0651817 18.3071572,16.0182696 18.3327417,15.9906742 C18.3583263,15.9625269 18.4046222,15.9283086 18.4795485,15.9233414 C21.5545706,15.7064418 32.3317677,15 41.8979617,15 C42.4900618,15 43.078507,15.0027595 43.6602515,15.0088305 C43.7650264,15.0088305 43.8509175,15.0756113 43.868583,15.1694356 C47.0843203,32.0164157 48.4256829,53.9812351 48.5,90.9833296 C48.5,91.0572852 48.4543133,91.1257217 48.3806053,91.1615957 C47.25062,91.7140552 43.9093965,93 37.3201504,93 L37.3189321,93 Z" id="Fill-3" fill="#2B96F4"></path>
                <path d="M42.2378519,14 C32.8137671,14 22.2828751,14.7019496 19.0784219,14.9327808 C18.5424436,14.97116 18.1470695,15.4027867 18.1951393,15.8983786 C18.5652768,19.7084851 19.7712279,35.2220152 17.0240387,53.1050421 C14.5634657,69.1197263 12.0566255,84.9063604 11.5104324,88.3349 C11.4455381,88.7431654 11.6882907,89.1341881 12.1022918,89.288261 C14.4420895,90.1581889 22.4270845,92.8842228 32.7464694,93.7752871 C34.5743236,93.9326974 36.2285257,94 37.7192904,94 C44.3649406,94 47.7833045,92.6661846 48.987453,92.0643546 C49.3029111,91.9063882 49.5005981,91.6026921 49.5,91.271185 C49.435103,57.973079 48.4052075,33.3987263 44.9207477,14.7475596 C44.8408317,14.3226076 44.4484619,14.0127931 43.9827857,14.0083433 C43.4065489,14.0027811 42.8243035,14 42.2378519,14 M42.2378519,15.3905498 C42.5316785,15.3905498 42.8255052,15.3916623 43.1175293,15.3927747 C43.3488652,15.3938871 43.5441487,15.5474038 43.5826046,15.7587674 C46.6206161,32.4659454 47.9058824,54.2497427 47.9960146,90.4312929 C47.9966142,90.767806 47.7815018,91.0720583 47.446215,91.2016575 C45.9121874,91.7929193 42.8627593,92.608894 37.7192904,92.608894 C36.1954777,92.608894 34.5695166,92.5354729 32.8864727,92.3902995 C23.9971644,91.6232722 16.8443778,89.4540145 13.7378669,88.3827349 C13.341291,88.2453486 13.1027446,87.8754624 13.1640336,87.4877771 C13.9151243,82.7587952 16.2447071,68.0562338 18.5117991,53.3008315 C21.0805292,36.5808605 20.237505,22.0156854 19.7778375,16.7160219 C19.7574079,16.4740662 19.9496871,16.2654838 20.2110666,16.2476847 C24.1563957,15.9773618 33.6934445,15.3905498 42.2378519,15.3905498" id="Fill-5" fill="#0071D6"></path>
                <path d="M17.6186506,42.2135591 L17.5005007,44.3175365 C17.4928592,44.4320687 17.5733892,44.5344868 17.6938904,44.5559616 C20.7187635,45.1010906 29.5306314,47.2375555 47.2783954,44.9981218 C47.4035991,44.9821533 47.5,44.8863428 47.5,44.7685068 L47.3271837,42.6623268 C47.3271837,42.5191617 47.1902238,42.4095852 47.0397443,42.4365664 C45.0388372,42.7906249 32.8452951,44.7145446 17.9096168,42.0043177 C17.7650154,41.9778872 17.6280556,42.0759003 17.6186506,42.2135591" id="Fill-7" fill="#0071D6"></path>
                <path d="M26.7370121,14.9649387 C26.4881607,13.6687313 26.2712878,12.3681152 26.0741835,11.0641923 C25.879405,9.77735383 25.7375364,8.4805954 25.5119421,7.1987169 C25.3194893,6.11248193 25.0305193,4.92759854 25.3817021,3.8430169 C25.3956564,3.79892821 25.4706607,3.60218246 25.4596135,3.62753345 C25.4241464,3.70634198 25.4974064,3.55203158 25.5061278,3.53715165 C25.5258964,3.50022738 25.5450835,3.46385421 25.5654335,3.42748105 C25.6136921,3.34371255 25.6660207,3.26269959 25.7212564,3.18278885 C25.753235,3.13759795 25.7852135,3.09240704 25.8195178,3.04886947 C25.9096393,2.93203445 25.6933478,3.18223774 25.8701021,2.99155418 C25.9939464,2.85873702 26.1230235,2.73253316 26.2637293,2.61514704 C26.4335064,2.47240992 26.4526935,2.46028553 26.6800321,2.32416172 C27.0957536,2.07616287 27.3544893,1.97145224 27.7626521,1.85186169 C27.9615007,1.79399529 28.1650007,1.74549773 28.370245,1.70692013 C28.6435164,1.65621815 28.5906064,1.66117812 28.8900421,1.64188933 C29.7877679,1.58292071 30.4558293,1.66999586 31.288435,2.08057174 C32.1977893,2.52972521 32.9152722,3.21640647 33.3751822,4.08550466 C33.8723036,5.02624697 34.0339407,6.11193082 34.2217422,7.13754385 C34.4519879,8.39186692 34.7246779,9.63296339 35.3886693,10.7561226 C35.973005,11.7448114 37.0951622,12.8839528 36.6759522,14.103556 C36.5311765,14.5246029 36.8445665,14.9991074 37.2800565,15.1126358 C37.7492693,15.2344308 38.1992951,14.9621831 38.3446522,14.540034 C38.8208422,13.1562004 38.1196394,11.8208644 37.3585493,10.6707008 C37.0189951,10.1565165 36.6811851,9.64508778 36.4683822,9.06973044 C36.2584865,8.50098641 36.1230136,7.90964693 36.0061465,7.31830745 C35.777645,6.15436618 35.6247293,4.96507392 35.1520279,3.86065237 C34.6549065,2.70056886 33.8659079,1.73723111 32.7803807,1.01858555 C30.9320193,-0.203773229 28.5400221,-0.285888403 26.5096735,0.557858796 C25.5898535,0.940328134 24.7810864,1.55812082 24.226985,2.35447269 C23.5199678,3.37126797 23.4153107,4.63495989 23.551365,5.81543442 C23.6414864,6.59635524 23.8112635,7.36515168 23.9275492,8.14221474 C24.0484864,8.94517991 24.149655,9.75145173 24.2659407,10.5555191 C24.499675,12.1752272 24.7595735,13.7921797 25.0683121,15.4014166 C25.1520378,15.8373435 25.7107907,16.083689 26.1329078,15.9740184 C26.6166564,15.8483657 26.8213193,15.4025189 26.7370121,14.9649387" id="Fill-9" fill="#0071D6"></path>
                <path d="M18.4790231,42.6739994 C18.3280528,41.9483915 17.9761715,41.2498249 17.620272,40.6019607 C17.1461221,39.740583 16.578979,38.9338513 15.9613212,38.1659914 C14.8390898,36.7705483 13.2949452,35.2224346 11.3989194,35.0162448 C10.5154851,34.9199102 9.65501197,35.2579263 9.03390997,35.8736789 C7.94612041,36.9513869 7.63040313,38.562597 7.74750554,40.0273334 C7.87321842,41.6075586 8.42543666,43.0858156 8.95871185,44.5685796 C9.2135818,45.2801034 9.46213741,45.9955708 9.64295731,46.7285024 C9.81229658,47.4112949 9.97245135,48.1667609 9.78416904,48.8602572 C9.40760443,50.2449965 7.65738261,50.66977 6.34629483,50.9435631 C4.70054673,51.2860861 3.00198774,51.3565061 1.32466791,51.3136907 C0.224823699,51.2849593 0.22539773,52.9620825 1.32466791,52.9902505 C2.83724072,53.0291224 4.34809143,52.9536321 5.84401733,52.7299781 C7.22341485,52.5237883 8.77616986,52.2060532 9.91734433,51.3739702 C10.5384463,50.921592 11.025799,50.359922 11.3133888,49.6495248 C11.6314022,48.8625107 11.6009785,48.0067666 11.4746916,47.1848241 C11.243931,45.6868495 10.6440681,44.2773224 10.1509751,42.8508945 C9.6974903,41.5388287 9.24974578,40.0915564 9.48395061,38.6916064 C9.53733553,38.3733079 9.62171815,38.0488125 9.76005972,37.7564286 C9.82779543,37.6127717 9.91102999,37.4747485 10,37.3440489 C9.9678591,37.3913712 10.1871391,37.1018041 10.0889797,37.2206731 C10.0183739,37.3063038 10.1590116,37.1457462 10.1750844,37.128282 C10.239376,37.0595521 10.313426,37.0003992 10.3788656,36.932796 C10.4087152,36.9018112 10.5091707,36.8364614 10.3455718,36.9525136 C10.3771435,36.9305426 10.4075672,36.9057547 10.440861,36.8866005 C10.5206514,36.8387149 10.605034,36.7970262 10.6842503,36.7485773 C10.7307469,36.7204093 10.8289062,36.7085787 10.6291433,36.7699849 C10.6802321,36.7536475 10.7295988,36.7339299 10.7812616,36.7192825 C10.8489973,36.7001283 10.9190292,36.6905512 10.9873389,36.6725236 C10.7393573,36.7378734 10.9913571,36.6753404 11.0763138,36.6742137 C11.1480677,36.673087 11.2198216,36.6826641 11.2910015,36.6815374 C11.4649331,36.6787206 11.1549561,36.6330884 11.2536895,36.6753404 C11.2927236,36.6922412 11.3472566,36.6916779 11.390309,36.7006916 C11.5613703,36.7378734 11.7238212,36.7942094 11.8885683,36.8533622 C11.6618258,36.771675 11.9723768,36.8944875 12.0200214,36.918712 C12.1153107,36.9660343 12.2083038,37.0167367 12.3001488,37.0702559 C12.4746543,37.1710974 12.6411235,37.283206 12.8047224,37.3992582 C12.8431825,37.4257362 12.8799205,37.4533408 12.9172326,37.4809455 C12.7823352,37.3806674 12.8845128,37.4561576 12.9109182,37.4781287 C13.0021892,37.555309 13.0963304,37.6291092 13.1870273,37.7068529 C13.5475191,38.016701 13.8844755,38.3535903 14.2024889,38.7051271 C14.3758464,38.8961062 14.5428896,39.0921555 14.7047664,39.291585 C14.7369122,39.3315836 14.769632,39.3721455 14.8017777,39.4121441 C14.6996001,39.2831346 14.8373677,39.4594663 14.8580328,39.4859443 C14.9435635,39.5980529 15.0273721,39.710725 15.1100326,39.8245237 C15.4062328,40.2335232 15.6846381,40.6554799 15.9400821,41.0892673 C16.1708427,41.4813659 16.377494,41.8830417 16.5674984,42.2942946 C16.5864414,42.3365466 16.6254756,42.4441484 16.5491294,42.2514793 C16.5692205,42.302745 16.5904597,42.3528841 16.6105508,42.4041499 C16.6421225,42.484147 16.6719721,42.5647075 16.6995256,42.6458314 C16.7529106,42.8018821 16.798259,42.9590596 16.8315529,43.1196172 C16.9239719,43.5635451 17.4589692,43.8193106 17.8826044,43.7049484 C18.3527361,43.5781924 18.5720161,43.1190539 18.4790231,42.6739994" id="Fill-11" fill="#0071D6"></path>
                <path d="M44.3606584,45.0680305 C45.6442304,45.1012735 46.9242069,44.892006 48.0417894,44.2947217 C49.074879,43.7426696 49.9605557,42.9219487 50.7102048,42.079974 C51.0721458,41.6728833 51.44727,41.1736931 51.7696611,40.7976655 C51.8871121,40.6608787 52.0950484,40.4363521 52.2652325,40.2777666 C52.3533208,40.1960215 52.4444052,40.1164562 52.5390852,40.0407058 C52.6056008,39.9883889 52.6601316,39.9475163 52.8057469,39.8663162 C53.0742064,39.7169951 53.1233441,39.7039159 53.4121777,39.6461493 C53.5667817,39.6145412 53.3061123,39.651599 53.4685063,39.63416 C53.5416136,39.6270755 53.6159193,39.6248956 53.6896258,39.6232607 C53.7986875,39.6210808 53.9077492,39.6232607 54.0156124,39.6292553 C54.097109,39.6336151 54.3230225,39.685387 54.082128,39.6298003 C54.1558345,39.6466943 54.2337357,39.6532339 54.3086407,39.6695829 C54.3889389,39.6870219 54.4674393,39.7099105 54.546539,39.7317092 C54.5794972,39.7404287 54.6136538,39.7616824 54.6472113,39.7649522 C54.7436889,39.7736717 54.4746302,39.6793923 54.6028675,39.7486032 C54.6681847,39.7840261 54.7382957,39.8112745 54.8042121,39.8477873 C54.8934989,39.8979243 55.008553,40.0238118 54.8479566,39.8635913 C54.9432358,39.9589606 55.0618853,40.0570548 55.1661531,40.1447945 C55.2452527,40.2118255 55.0642823,40.0009231 55.1781379,40.1611436 C55.2194854,40.2200001 55.2614322,40.2772216 55.2997836,40.337713 C55.3381349,40.3998393 55.3722916,40.4630555 55.4076468,40.5262718 C55.5101168,40.7142855 55.3734901,40.4150984 55.4316164,40.5796786 C55.5340864,40.8755959 55.6161823,41.1638837 55.6719116,41.4696104 C55.6269686,41.2211053 55.6749078,41.5126628 55.6803009,41.5627998 C55.6892895,41.6505396 55.6964804,41.7377344 55.7018736,41.8243842 C55.7126599,42.0058584 55.7168546,42.1873325 55.7150568,42.3688067 C55.7114614,42.7431993 55.6838964,43.1186819 55.6407511,43.4908947 C55.6293655,43.5911687 55.6149838,43.6908977 55.602999,43.7900818 C55.5982051,43.8271396 55.5790294,43.9492123 55.6053959,43.7759127 C55.5988043,43.8206 55.5916134,43.8652873 55.5838233,43.9105196 C55.5508651,44.1143374 55.5143115,44.3181553 55.4741624,44.5208832 C55.3135661,45.3307048 55.1014351,46.131262 54.858743,46.9236446 C54.4380765,48.2964176 53.9311195,49.6490268 53.3492576,50.9716628 C53.1700848,51.3787535 53.5446098,51.8626846 53.9718679,51.9694982 C54.4806226,52.0964757 54.8893042,51.8114577 55.0690762,51.4027321 C55.5958081,50.2059836 56.0596198,48.9841666 56.4563167,47.7454555 C56.9818501,46.1029237 57.4156998,44.3971755 57.4906048,42.681618 C57.5499295,41.3208343 57.3557758,39.6412446 56.1093567,38.7164349 C55.4220285,38.2063453 54.5735048,37.9839986 53.6896258,38.0008926 C52.3215611,38.027596 51.282479,38.7567625 50.4681119,39.6979212 C49.5920231,40.7104708 48.9070919,41.6222013 47.7895094,42.4870646 C47.6720583,42.5775292 47.6966272,42.5600903 47.5252446,42.6696287 C47.3886179,42.7568235 47.2471972,42.8391136 47.1021812,42.9154091 C46.9703484,42.984075 46.8361186,43.0478361 46.6988927,43.1056027 C46.6114036,43.1432054 46.5754493,43.1568296 46.3986735,43.2113264 C45.6855779,43.4298583 45.118697,43.4652812 44.3606584,43.4456624 C43.2125147,43.4162341 43.2137132,45.0380573 44.3606584,45.0680305" id="Fill-13" fill="#0071D6"></path>
            </g>
        </g>
    </g>
</svg>