<?xml version="1.0" encoding="utf-8"?>
<!-- Generator: Adobe Illustrator 22.1.0, SVG Export Plug-In . SVG Version: 6.00 Build 0)  -->
<svg version="1.1" id="Layer_1" xmlns="http://www.w3.org/2000/svg" xmlns:xlink="http://www.w3.org/1999/xlink" x="0px" y="0px"
	 viewBox="0 0 500 500" style="enable-background:new 0 0 500 500;" xml:space="preserve">
<style type="text/css">
	.st0{opacity:0.1;}
	.st1{fill:#40D3E2;}
	.st2{fill:url(#SVGID_1_);}
	.st3{fill:#C388EA;}
	.st4{fill:#FFFFFF;}
	.st5{fill:#C6C1C6;}
	.st6{fill:#E4E7EF;}
	.st7{fill:#676072;}
	.st8{fill:none;stroke:#1558BA;stroke-linecap:round;stroke-linejoin:round;stroke-miterlimit:10;}
	.st9{fill:#1558BA;}
	.st10{fill:#F8BA8C;}
	.st11{fill:#22366B;}
	.st12{fill:#18294C;}
	.st13{fill:#22AA66;}
	.st14{fill:#229958;}
	.st15{fill:#209E5F;}
	.st16{fill:#803E19;}
	.st17{fill:#FBB087;}
	.st18{fill:none;}
	.st19{fill:#E3AC81;}
	.st20{fill:#EF9D65;}
	.st21{clip-path:url(#SVGID_3_);}
	.st22{clip-path:url(#SVGID_5_);}
	.st23{fill:#793B16;}
	.st24{fill:#24BF77;}
	.st25{fill:#24AA63;}
	.st26{fill:#E5897A;}
	.st27{fill:#F7AD9C;}
	.st28{fill:#216BC2;}
	.st29{fill:#2980D6;}
	.st30{fill:#254B62;}
</style>
<g id="_x31__1_">
	<g class="st0">
		<path class="st1" d="M217.8,129.5c0,20.4-19.1,36.9-42.8,36.9s-58,6.3-58-14.1s34.4-59.8,58-59.8S217.8,109.1,217.8,129.5z"/>
		<path class="st1" d="M45.3,366.3c-2.4-8.7,1-19.3,9-23.4c10.8-5.5,25,1.9,35.6-4.1c9.1-5.2,10.7-18.7,5.5-27.8s-15-14.6-24.9-17.9
			s-20.3-5.1-29.8-9.4c-6.1-2.7-11.8-6.7-15.3-12.4c-3.5-5.7-4.3-13.4-0.8-19c3.7-5.9,11-8.3,17.8-9s13.9-0.2,20.5-2
			c9-2.4,16.3-8.9,23.6-14.8c16.1-13.1,33.6-24.2,51.1-35.2c5.9-3.8,12.2-7.6,19.1-8.3c10.8-1.1,21,5.6,31.9,5.9
			c8,0.3,15.6-2.8,23.4-4.6c7.8-1.8,16.7-2,22.9,3.2c7,5.9,7.7,16.8,4.7,25.5s-8.8,16.1-13.3,24.1c-4.4,8-7.5,17.7-4.4,26.4
			c3.8,10.6,15.2,15.8,24.6,21.9c9.4,6,18.6,17,14.4,27.4c-1.7,4.2-5.4,7.6-5.9,12.2c-0.9,7.3,6.7,12.6,13.4,15.5
			c10.5,4.4,21.5,7.5,32.7,9c8.4,1.2,18,2,23.2,8.8c3.6,4.7,4.1,11.5,2.1,17.1s-6,10.4-10.5,14.3c-15.9,13.7-37.9,18-58.9,18.2
			s-41.8-3.3-62.8-2.9c-18.9,0.4-37.7,4-56.6,4c-18.2,0-38-2.3-54-11.7C70,389.3,50,383.6,45.3,366.3z"/>
		<path class="st1" d="M103.3,160.9c6,13.6-15.5,36.8-31.2,45.8s-46.6,0.3-52.6-13.3s0.6-44.6,16.3-53.6
			C51.5,130.8,97.3,147.3,103.3,160.9z"/>
		<path class="st1" d="M409,208.7c-13.2-1.5-18.8-34.7-17.1-54.6c1.8-20,24.8-45.1,38.1-43.5c13.2,1.5,32.6,24.5,30.8,44.5
			C459.1,175.1,422.3,210.3,409,208.7z"/>
		<path class="st1" d="M293.8,404.8c-6.7-5-10.6-15.1-7.6-23.6c4-11.4,17.7-15.3,21.2-26.9c3-9.9-3.8-21.1-12.5-24.5
			s-18.4-0.9-26.9,3.3c-8.5,4.1-16.4,9.8-25.2,12.9c-5.6,2-11.7,2.9-17.3,1s-10.6-7.1-11.6-13.7c-1-6.8,2.4-13.5,6.5-18.7
			s9.1-9.4,12.4-15.2c4.6-7.9,5.6-17.6,7-26.9c3.1-20.5,8.2-40.6,13.4-60.6c1.8-6.8,3.6-13.8,7.8-19c6.5-8.1,17.2-9.9,24.6-16.9
			c5.4-5.1,8.7-12.6,12.8-19.1c4.1-6.5,9.9-12.7,17-12.9c8.1-0.3,14.8,7.5,17.9,16s3.5,17.9,5.2,26.9s5.3,18.3,12.4,22.7
			c8.7,5.4,19.2,1.7,29-0.1s22.2,0.3,25.5,10.9c1.3,4.3,0.9,9.3,3.1,13.1c3.7,6.1,11.8,5,17.9,2.6c9.5-3.7,18.6-8.8,26.9-15.1
			c6.3-4.8,13.1-10.5,20.5-8.9c5.2,1.1,9.3,5.9,11.3,11.4s2.1,11.8,1.4,17.7c-2.6,20.9-14.6,38.9-28.4,53s-29.6,25.5-43.2,39.9
			c-12.3,13-22.6,28.2-35.2,40.9c-12,12.2-26.5,23.7-42.5,27.3C323.5,405.5,306.9,414.6,293.8,404.8z"/>
	</g>
	<g>
		<g>
			<g>
				<g>
					<g>
						
							<linearGradient id="SVGID_1_" gradientUnits="userSpaceOnUse" x1="219.1998" y1="406.175" x2="264.5012" y2="86.8373" gradientTransform="matrix(1 0 0 -1 0 500)">
							<stop  offset="0" style="stop-color:#216BC2"/>
							<stop  offset="0.1906" style="stop-color:#2570C4"/>
							<stop  offset="0.4265" style="stop-color:#2F80C9"/>
							<stop  offset="0.6864" style="stop-color:#4099D1"/>
							<stop  offset="0.9617" style="stop-color:#57BCDD"/>
							<stop  offset="1" style="stop-color:#5BC1DF"/>
						</linearGradient>
						<path class="st2" d="M349.6,411.5l-144.8-0.1l-70.5-0.1c-7.5,0-13.6-6.1-13.6-13.6l0.3-285.8c0-7.5,6.1-13.6,13.6-13.6
							l215.3,0.2c7.5,0,13.6,6.1,13.6,13.6l-0.3,285.8C363.3,405.4,357.2,411.5,349.6,411.5z"/>
					</g>
					<g>
						<g>
							<path class="st3" d="M120.9,281.9L120.9,281.9c-0.2,0-0.4-0.2-0.4-0.4l0.1-92.3l0.1-77.3c0-7.7,6.3-14,14.1-14l0,0l153,0.2
								c0.2,0,0.4,0.2,0.4,0.4c0,0.2-0.2,0.4-0.4,0.4l0,0l-153-0.2l0,0c-7.3,0-13.2,5.9-13.2,13.2l-0.1,77.3l-0.1,92.3
								C121.4,281.7,121.2,281.9,120.9,281.9z"/>
						</g>
						<g>
							<path class="st3" d="M134.4,411.7L134.4,411.7c-7.8,0-14-6.3-14-14.1v-89.1c0-0.2,0.2-0.4,0.4-0.4l0,0c0.2,0,0.4,0.2,0.4,0.4
								v89.1c0,7.3,5.9,13.2,13.2,13.2c0.2,0,0.4,0.2,0.4,0.4C134.8,411.6,134.6,411.7,134.4,411.7z"/>
						</g>
						<g>
							<path class="st3" d="M349.7,412C349.7,412,349.6,412,349.7,412l-114.3-0.1c-0.2,0-0.4-0.2-0.4-0.4c0-0.2,0.2-0.4,0.4-0.4l0,0
								l114.3,0.1l0,0c3.5,0,6.8-1.4,9.3-3.8c2.5-2.5,3.9-5.8,3.9-9.3v-20.8c0-0.2,0.2-0.4,0.4-0.4l0,0c0.2,0,0.4,0.2,0.4,0.4v20.8
								c0,3.8-1.5,7.3-4.1,9.9C356.9,410.5,353.4,412,349.7,412z"/>
						</g>
						<g>
							<path class="st3" d="M363.3,323.5L363.3,323.5c-0.2,0-0.4-0.2-0.4-0.4l0.2-210.9c0-7.3-5.9-13.2-13.2-13.2
								c-0.2,0-0.4-0.2-0.4-0.4c0-0.2,0.2-0.4,0.4-0.4l0,0c7.7,0,14,6.3,14,14.1l-0.2,210.9C363.8,323.4,363.6,323.5,363.3,323.5z"
								/>
						</g>
					</g>
					<g>
						<g>
							<path class="st4" d="M291.7,400.3l-161-0.2l0.3-288.9l223.9,0.2l-0.2,226C354.7,372.2,326.5,400.4,291.7,400.3z"/>
						</g>
						<g>
							<path class="st5" d="M354.7,336v2.5c0,34.2-27.8,61.9-62,61.8c0,0,23.2-5.4,8.3-26C301,374.3,344.5,364.5,354.7,336z"/>
						</g>
					</g>
					<g>
						<path class="st6" d="M173.4,386c-17.3,0-31.4-14.1-31.4-31.5c0-17.3,14.1-31.4,31.5-31.4c17.3,0,31.4,14.1,31.4,31.5
							C204.8,371.9,190.7,386,173.4,386z M173.4,324.2c-16.7,0-30.4,13.6-30.4,30.3c0,16.7,13.6,30.4,30.3,30.4s30.4-13.6,30.4-30.3
							C203.8,337.8,190.2,324.2,173.4,324.2z"/>
					</g>
					<g>
						<path class="st6" d="M173.4,379.3c-13.7,0-24.8-11.1-24.8-24.8c0-13.7,11.1-24.8,24.8-24.8s24.8,11.1,24.8,24.8
							C198.2,368.2,186.9,379.3,173.4,379.3z M173.4,336.2c-10.1,0-18.3,8.2-18.4,18.3c0,10.1,8.2,18.3,18.3,18.4
							c10.1,0,18.3-8.2,18.4-18.3C191.8,344.5,183.4,336.2,173.4,336.2z"/>
					</g>
					<g>
						<g>
							<path class="st1" d="M171.2,368.1L171.2,368.1c-0.9,0-1.8-0.4-2.3-1.1l-11.3-14.9c-1-1.3-0.7-3.1,0.6-4c1.3-1,3.1-0.7,4,0.6
								l9.1,12l21.2-26.4c1-1.2,2.8-1.4,4.1-0.4c1.2,1,1.4,2.8,0.4,4.1l-23.5,29.2C172.9,367.7,172.1,368.1,171.2,368.1z"/>
						</g>
					</g>
				</g>
				<g>
					<path class="st7" d="M277,378.4l-58.2-0.1c-1,0-1.7-0.8-1.7-1.7l0,0c0-1,0.8-1.7,1.7-1.7L277,375c1,0,1.7,0.8,1.7,1.7l0,0
						C278.8,377.7,278,378.4,277,378.4z"/>
				</g>
				<g>
					<g>
						<path class="st7" d="M279,233.7l-123.5-0.1c-1,0-1.8-0.8-1.8-1.8l0,0c0-1,0.8-1.8,1.8-1.8l123.5,0.1c1,0,1.8,0.8,1.8,1.8l0,0
							C280.8,232.9,280,233.7,279,233.7z"/>
					</g>
					<g>
						<path class="st7" d="M279,242.8l-123.5-0.1c-1,0-1.8-0.8-1.8-1.8l0,0c0-1,0.8-1.8,1.8-1.8l123.5,0.1c1,0,1.8,0.8,1.8,1.8l0,0
							C280.8,242,280,242.8,279,242.8z"/>
					</g>
					<g>
						<g>
							<path class="st1" d="M318,245.2L318,245.2c-0.5,0-0.9-0.2-1.2-0.6L311,237c-0.5-0.6-0.4-1.6,0.3-2.1c0.6-0.5,1.6-0.4,2.1,0.3
								l4.6,6.1l10.8-13.4c0.5-0.6,1.4-0.7,2.1-0.2c0.6,0.5,0.7,1.4,0.2,2.1l-12,14.9C318.9,245,318.5,245.2,318,245.2z"/>
						</g>
					</g>
				</g>
				<g>
					<g>
						<path class="st7" d="M279,262.1L155.4,262c-1,0-1.8-0.8-1.8-1.8l0,0c0-1,0.8-1.8,1.8-1.8l123.5,0.1c1,0,1.8,0.8,1.8,1.8l0,0
							C280.8,261.3,280,262.1,279,262.1z"/>
					</g>
					<g>
						<path class="st7" d="M279,271.2l-123.5-0.1c-1,0-1.8-0.8-1.8-1.8l0,0c0-1,0.8-1.8,1.8-1.8l123.5,0.1c1,0,1.8,0.8,1.8,1.8l0,0
							C280.8,270.4,280,271.2,279,271.2z"/>
					</g>
					<g>
						<g>
							<path class="st1" d="M318,273.6L318,273.6c-0.5,0-0.9-0.2-1.2-0.6l-5.8-7.6c-0.5-0.6-0.4-1.6,0.3-2.1
								c0.6-0.5,1.6-0.4,2.1,0.3l4.6,6.1l10.8-13.4c0.5-0.6,1.4-0.7,2.1-0.2c0.6,0.5,0.7,1.4,0.2,2.1l-12,14.9
								C318.9,273.4,318.5,273.6,318,273.6z"/>
						</g>
					</g>
				</g>
				<g>
					<g>
						<path class="st7" d="M279,290.6l-123.5-0.1c-1,0-1.8-0.8-1.8-1.8l0,0c0-1,0.8-1.8,1.8-1.8L279,287c1,0,1.8,0.8,1.8,1.8l0,0
							C280.7,289.8,279.9,290.6,279,290.6z"/>
					</g>
					<g>
						<path class="st7" d="M278.9,299.7l-123.5-0.1c-1,0-1.8-0.8-1.8-1.8l0,0c0-1,0.8-1.8,1.8-1.8l123.5,0.1c1,0,1.8,0.8,1.8,1.8
							l0,0C280.7,298.9,279.9,299.7,278.9,299.7z"/>
					</g>
					<g>
						<g>
							<path class="st1" d="M318,302L318,302c-0.5,0-0.9-0.2-1.2-0.6l-5.8-7.6c-0.5-0.6-0.4-1.6,0.3-2.1c0.6-0.5,1.6-0.4,2.1,0.3
								l4.6,6.1l10.8-13.4c0.5-0.6,1.4-0.7,2.1-0.2c0.6,0.5,0.7,1.4,0.2,2.1l-12,14.9C318.8,301.8,318.4,302,318,302z"/>
						</g>
					</g>
				</g>
				<g>
					<g>
						<path class="st7" d="M279,141.7l-123.5-0.1c-1,0-1.8-0.8-1.8-1.8l0,0c0-1,0.8-1.8,1.8-1.8l123.5,0.1c1,0,1.8,0.8,1.8,1.8l0,0
							C280.8,140.9,280,141.7,279,141.7z"/>
					</g>
					<g>
						<path class="st7" d="M279,150.8l-123.5-0.1c-1,0-1.8-0.8-1.8-1.8l0,0c0-1,0.8-1.8,1.8-1.8l123.5,0.1c1,0,1.8,0.8,1.8,1.8l0,0
							C280.8,150,280,150.8,279,150.8z"/>
					</g>
					<g>
						<g>
							<path class="st1" d="M318,153.1L318,153.1c-0.5,0-0.9-0.2-1.2-0.6l-5.8-7.6c-0.5-0.6-0.4-1.6,0.3-2.1
								c0.6-0.5,1.6-0.4,2.1,0.3l4.6,6.1l10.8-13.4c0.5-0.6,1.4-0.7,2.1-0.2c0.6,0.5,0.7,1.4,0.2,2.1l-12,14.9
								C318.9,152.9,318.5,153.1,318,153.1z"/>
						</g>
					</g>
				</g>
				<g>
					<g>
						<path class="st7" d="M279,170.1L155.4,170c-1,0-1.8-0.8-1.8-1.8l0,0c0-1,0.8-1.8,1.8-1.8l123.5,0.1c1,0,1.8,0.8,1.8,1.8l0,0
							C280.8,169.3,280,170.1,279,170.1z"/>
					</g>
					<g>
						<path class="st7" d="M279,179.2l-123.5-0.1c-1,0-1.8-0.8-1.8-1.8l0,0c0-1,0.8-1.8,1.8-1.8l123.5,0.1c1,0,1.8,0.8,1.8,1.8l0,0
							C280.8,178.4,280,179.2,279,179.2z"/>
					</g>
					<g>
						<g>
							<path class="st1" d="M318,181.6L318,181.6c-0.5,0-0.9-0.2-1.2-0.6l-5.8-7.6c-0.5-0.6-0.4-1.6,0.3-2.1
								c0.6-0.5,1.6-0.4,2.1,0.3l4.6,6.1l10.8-13.4c0.5-0.6,1.4-0.7,2.1-0.2c0.6,0.5,0.7,1.4,0.2,2.1l-12,14.9
								C318.9,181.4,318.5,181.6,318,181.6z"/>
						</g>
					</g>
				</g>
				<g>
					<g>
						<path class="st7" d="M279,198.5l-123.5-0.1c-1,0-1.8-0.8-1.8-1.8l0,0c0-1,0.8-1.8,1.8-1.8l123.5,0.1c1,0,1.8,0.8,1.8,1.8l0,0
							C280.7,197.7,279.9,198.5,279,198.5z"/>
					</g>
					<g>
						<path class="st7" d="M278.9,207.6l-123.5-0.1c-1,0-1.8-0.8-1.8-1.8l0,0c0-1,0.8-1.8,1.8-1.8l123.5,0.1c1,0,1.8,0.8,1.8,1.8
							l0,0C280.7,206.8,279.9,207.6,278.9,207.6z"/>
					</g>
					<g>
						<g>
							<path class="st1" d="M318,210L318,210c-0.5,0-0.9-0.2-1.2-0.6l-5.8-7.6c-0.5-0.6-0.4-1.6,0.3-2.1c0.6-0.5,1.6-0.4,2.1,0.3
								l4.6,6.1l10.8-13.4c0.5-0.6,1.4-0.7,2.1-0.2c0.6,0.5,0.7,1.4,0.2,2.1l-12,14.9C318.8,209.8,318.4,210,318,210z"/>
						</g>
					</g>
				</g>
			</g>
		</g>
		<circle class="st8" cx="49.2" cy="202" r="4.9"/>
		<circle class="st8" cx="39.2" cy="147.1" r="5.1"/>
		<circle class="st8" cx="399.3" cy="130" r="5.1"/>
		<polygon class="st8" points="271.2,71.8 273.6,76.2 278,78.6 273.6,80.9 271.2,85.3 268.8,80.9 264.4,78.6 268.8,76.2 		"/>
		<polygon class="st8" points="461.4,323.8 456.8,323.5 453.8,327.2 452.7,322.6 448.3,320.9 452.3,318.5 452.5,313.8 456.1,316.8 
			460.6,315.6 458.9,319.9 		"/>
		<polygon class="st8" points="79.6,110.4 82.2,115.1 86.9,117.7 82.2,120.3 79.6,125 77,120.3 72.3,117.7 77,115.1 		"/>
		<polygon class="st8" points="464.7,187.4 467.1,191.8 471.5,194.2 467.1,196.6 464.7,201 462.3,196.6 457.9,194.2 462.3,191.8 		
			"/>
	</g>
	<g>
		<g>
			<path class="st9" d="M451.7,412.9L451.7,412.9l-400.2-0.2c-0.3,0-0.6-0.3-0.6-0.6c0-0.3,0.3-0.6,0.6-0.6l0,0l400.2,0.2
				c0.3,0,0.6,0.3,0.6,0.6S452,412.9,451.7,412.9z"/>
		</g>
		<g>
			<g>
				<path class="st1" d="M364.7,418.8h-35.5c-0.3,0-0.6-0.3-0.6-0.6s0.3-0.6,0.6-0.6h35.5c0.3,0,0.6,0.3,0.6,0.6
					S365,418.8,364.7,418.8z"/>
			</g>
			<g>
				<path class="st1" d="M271.2,418.8h-42.5c-0.3,0-0.6-0.3-0.6-0.6s0.3-0.6,0.6-0.6h42.5c0.3,0,0.6,0.3,0.6,0.6
					S271.5,418.8,271.2,418.8z"/>
			</g>
			<g>
				<path class="st1" d="M165.7,418.8H94.2c-0.3,0-0.6-0.3-0.6-0.6s0.3-0.6,0.6-0.6h71.5c0.3,0,0.6,0.3,0.6,0.6
					S165.9,418.8,165.7,418.8z"/>
			</g>
			<g>
				<path class="st1" d="M49.1,418.8H8.9c-0.3,0-0.6-0.3-0.6-0.6s0.3-0.6,0.6-0.6h40.2c0.3,0,0.6,0.3,0.6,0.6S49.4,418.8,49.1,418.8
					z"/>
			</g>
		</g>
		<g>
			<g>
				<path class="st1" d="M453.9,427.5h-17.8c-0.3,0-0.6-0.3-0.6-0.6s0.3-0.6,0.6-0.6h17.8c0.3,0,0.6,0.3,0.6,0.6
					S454.2,427.5,453.9,427.5z"/>
			</g>
			<g>
				<path class="st1" d="M401.9,427.5h-17.8c-0.3,0-0.6-0.3-0.6-0.6s0.3-0.6,0.6-0.6h17.8c0.3,0,0.6,0.3,0.6,0.6
					S402.2,427.5,401.9,427.5z"/>
			</g>
			<g>
				<path class="st1" d="M352,427.5h-52.4c-0.3,0-0.6-0.3-0.6-0.6s0.3-0.6,0.6-0.6H352c0.3,0,0.6,0.3,0.6,0.6S352.3,427.5,352,427.5
					z"/>
			</g>
			<g>
				<path class="st1" d="M261.3,427.5h-37.9c-0.3,0-0.6-0.3-0.6-0.6s0.3-0.6,0.6-0.6h37.9c0.3,0,0.6,0.3,0.6,0.6
					S261.6,427.5,261.3,427.5z"/>
			</g>
			<g>
				<path class="st1" d="M174.4,427.5h-23.9c-0.3,0-0.6-0.3-0.6-0.6s0.3-0.6,0.6-0.6h23.9c0.3,0,0.6,0.3,0.6,0.6
					S174.7,427.5,174.4,427.5z"/>
			</g>
			<g>
				<path class="st1" d="M114.3,427.5H98.1c-0.3,0-0.6-0.3-0.6-0.6s0.3-0.6,0.6-0.6h16.2c0.3,0,0.6,0.3,0.6,0.6
					S114.6,427.5,114.3,427.5z"/>
			</g>
		</g>
		<g>
			<g>
				<path class="st1" d="M477.6,415.7h-43.4c-0.3,0-0.6-0.3-0.6-0.6s0.3-0.6,0.6-0.6h43.4c0.3,0,0.6,0.3,0.6,0.6
					S477.9,415.7,477.6,415.7z"/>
			</g>
			<g>
				<path class="st1" d="M490,413h-17.8c-0.3,0-0.6-0.3-0.6-0.6s0.3-0.6,0.6-0.6H490c0.3,0,0.6,0.3,0.6,0.6S490.3,413,490,413z"/>
			</g>
			<g>
				<path class="st1" d="M400,415.7h-17.8c-0.3,0-0.6-0.3-0.6-0.6s0.3-0.6,0.6-0.6H400c0.3,0,0.6,0.3,0.6,0.6S400.4,415.7,400,415.7
					z"/>
			</g>
			<g>
				<path class="st1" d="M350.2,415.7h-52.4c-0.3,0-0.6-0.3-0.6-0.6s0.3-0.6,0.6-0.6h52.4c0.3,0,0.6,0.3,0.6,0.6
					S350.5,415.7,350.2,415.7z"/>
			</g>
			<g>
				<path class="st1" d="M259.5,415.7h-37.9c-0.3,0-0.6-0.3-0.6-0.6s0.3-0.6,0.6-0.6h37.9c0.3,0,0.6,0.3,0.6,0.6
					S259.8,415.7,259.5,415.7z"/>
			</g>
			<g>
				<path class="st1" d="M172.6,415.7h-23.9c-0.3,0-0.6-0.3-0.6-0.6s0.3-0.6,0.6-0.6h23.9c0.3,0,0.6,0.3,0.6,0.6
					S172.9,415.7,172.6,415.7z"/>
			</g>
			<g>
				<path class="st1" d="M112.5,415.7H96.3c-0.3,0-0.6-0.3-0.6-0.6s0.3-0.6,0.6-0.6h16.2c0.3,0,0.6,0.3,0.6,0.6
					S112.8,415.7,112.5,415.7z"/>
			</g>
		</g>
	</g>
</g>
<g>
	<g>
		<path class="st10" d="M457.4,309.2l-5.2-0.7c0,0,3.1-26,1.7-33.6c-1.6-8.5-5.5-17-5.5-17s-2.1-16.9,1.9-15.2s10.1,20.5,11.2,32.4
			C462.4,284.1,457.4,309.2,457.4,309.2z"/>
		<g>
			<g>
				<path class="st4" d="M410.4,411.8c7.5-2,13.8-3.4,15.3-4.4c1-0.7,0-3.3,0-3.3l-8.1-4.2l-16.7,7c0,0-0.4,1.7,0.3,2.6
					C402.4,411.2,406.6,412.8,410.4,411.8z"/>
				<path class="st4" d="M457.9,411.8c-7.5-2-13.8-3.4-15.3-4.4c-1-0.7,0-3.3,0-3.3l8.1-4.2l16.7,7c0,0,0.4,1.7-0.3,2.6
					C465.9,411.2,461.7,412.8,457.9,411.8z"/>
				<path class="st11" d="M458.1,410c-7.5-2-13.9-3.4-15.3-4.4c-1.5-1,0-7.6,0-7.6l8.1,0.2c0,0,11.3,6.6,14.5,7.3
					C471.2,406.6,464.1,411.6,458.1,410z"/>
				<path class="st12" d="M467.2,406.2c-1.7,1.2-4.1,1.9-6.1,1.8c-1.8-0.1-3.5-0.6-5.2-1.3c-1.7-0.7-3.8-1.4-5.3-2.5
					c-2.2-1.6-3.2-4-4.7-6.1l-3.2-0.1c0,0-1.5,6.6,0,7.6s7.9,2.4,15.3,4.4C463.2,411.4,469.1,408,467.2,406.2z"/>
				<path class="st13" d="M433.8,315.2c2.1,3.2,5.8,18.1,6.3,36.7c0.6,20.1-0.6,48.2,1.5,49.4c3.5,2,11.6-1,12.3-3.2
					c-0.2-4.3-3.6-63.7-1.6-88.5C440.8,302.8,429.2,307.8,433.8,315.2z"/>
				<path class="st14" d="M446.5,398.2c-2.4-2.8-2.4-7.7-2.9-11.2c-0.7-5.6,0.2-11-0.6-16.6c-0.5-3.6-1.7-8.8-0.1-12.2
					c0.6-1.2,2.3-1.7,3.1-2.7c0.6-0.6-1.3-1.1-1.7-1.3c-0.5-0.3-0.9-1-1.1-1.5c-0.7-1.7-0.5-3.8-0.7-5.6c-0.3-3-0.6-6-0.7-9
					c-0.4-7,1.1-19.3-7.4-22c2.1,4.5,5.3,18.6,5.9,35.8c0.6,20.1-0.6,48.2,1.5,49.4c2.5,1.4,7.3,0.3,10.1-1.3
					C449.8,400.2,447.9,399.9,446.5,398.2z"/>
				<path class="st11" d="M410.4,410c7.5-2,13.9-3.4,15.3-4.4s0-7.6,0-7.6l-8.1,0.1c0,0-11.3,6.6-14.5,7.3
					C397.3,406.6,404.4,411.6,410.4,410z"/>
				<path class="st12" d="M425.7,398l-4.3,0.1c0.7,2.2,0.1,4.8-2.4,6c-2.5,1.3-5.4,2.8-8.2,3.3c-3.1,0.6-6.4-0.3-9.5-0.4
					c-0.2,0-0.3,0-0.4-0.1c0.1,1.8,5,4.2,9.4,3c7.5-2,13.9-3.4,15.3-4.4C427.2,404.6,425.7,398,425.7,398z"/>
				<path class="st13" d="M432.9,314.6c-2.1,3.2-4.8,18.6-5.4,37.3c-0.6,20.1,1.1,48.2-1,49.4c-3.5,2-11.6-1-12.3-3.2
					c0.2-4.4,3-63.6,1-88.6C426.6,302.8,437.5,307.2,432.9,314.6z"/>
				<path class="st14" d="M432.9,314.6c0.2-0.2,0.3-0.5,0.4-0.7c-5.9,4-7.6,12.3-8.3,19.1c-0.5,4.8-0.1,9.5-0.4,14.3
					c-0.2,1.9-0.3,4-1.5,5.6c-0.8,1-1.8,1.6-2.9,2.3c1.1,0.7,2.4,1.3,2.9,2.5c1,2.1-0.4,3.4-0.3,5.5c0.1,3.1,0.8,6.2,0.8,9.3
					c0,3.2-0.3,6.3-0.3,9.4c0.1,4.6,1.7,10.4-1,14.6c-1.8,2.8-3.8,3.3-6.4,3.3c2.7,1.7,8,3.1,10.6,1.6c2.1-1.2,0.3-29.3,1-49.4
					C428,333.2,430.8,317.8,432.9,314.6z"/>
				<path class="st13" d="M452.3,309.5c-1,8-35.9,8.6-36.9,1.5c-0.5-3.3-0.5-8-0.2-10.7c0.1-0.7,0.2-1.3,0.3-1.7
					c0.6-1.8,34.6-5.6,35.6-0.5c0.1,0,0.3,0.5,0.5,1.4C452.3,301.5,452.8,305.6,452.3,309.5z"/>
				<path class="st15" d="M451.8,299.5c-0.5,0.4-1.1,0.6-1.7,0.9c-9,3.6-19.2,3.4-28.7,1.7c-1.9-0.4-4.1-0.8-6-1.7
					c0.1-0.7,0.2-1.3,0.3-1.7c0.6-1.8,34.6-5.6,35.6-0.5C451.4,298.1,451.6,298.6,451.8,299.5z"/>
				<g>
					<path class="st16" d="M410.3,200.2c0,0-0.5,10.9-2.9,14.2c0,0-4.2,5.9,0.8,11.6s-2.2,14.1-2.2,14.1h24.1v-41.3L410.3,200.2z"/>
					<path class="st16" d="M451.1,200.3c0,0,0.1,10.9,2.4,14.2c0,0,4.2,5.9-0.8,11.6s2.2,14.1,2.2,14.1h-24.1v-41.3L451.1,200.3z"/>
					<path class="st16" d="M449.8,203.7c0,10.7-8.6,19.3-19.3,19.3s-19.3-8.6-19.3-19.3s8.6-17.7,19.3-17.7S449.8,193,449.8,203.7z"
						/>
					<g>
						<g>
							<g>
								<path class="st17" d="M416.8,214.1c1,2.2,0.9,5.8-1.2,6.6s-4.6-2.1-5.6-4.3s-0.4-4.1,1.7-4.9S415.8,211.9,416.8,214.1z"/>
							</g>
						</g>
						<line class="st18" x1="412.3" y1="214.1" x2="415.8" y2="216.9"/>
					</g>
					<g>
						<g>
							<g>
								<path class="st17" d="M444.5,214.1c-1,2.2-0.9,5.8,1.2,6.6s4.6-2.1,5.6-4.3s0.4-4.1-1.7-4.9S445.5,211.9,444.5,214.1z"/>
							</g>
						</g>
						<line class="st18" x1="449.3" y1="214.1" x2="445.8" y2="216.9"/>
					</g>
					<path class="st16" d="M448.3,211.2c0,0-7.7,11.3-17.5,11.3s-18-11.3-18-11.3c0-9.4,8.2-22.7,18-22.7
						C440.6,188.5,448.3,201.8,448.3,211.2z"/>
					<g>
						<polygon class="st19" points="425.7,226.3 423.4,248.3 436.7,248.3 434.4,226.1 						"/>
						<polygon class="st20" points="425.4,230 435.7,238 434.6,227.3 						"/>
					</g>
					<g>
						<g>
							<path id="XMLID_15_" class="st10" d="M430.8,189.7L430.8,189.7c-8.2,0-15.4,7.2-15.4,15l0.5,9.4c0,0,0.2,13.3,12.8,17.4
								c1.4,0.5,2.9,0.5,4.3,0c12.6-4,12.8-17.4,12.8-17.4l0.5-9.4C446.2,196.9,439,189.7,430.8,189.7z"/>
						</g>
					</g>
					<g>
						<g>
							<g>
								<g>
									<path id="XMLID_14_" class="st4" d="M434.4,211c0,0,0-2,3.8-1.7c3.4,0.2,3.8,1.8,3.8,1.8s-0.5,2.3-4.2,2.4
										C434.1,213.5,434.4,211,434.4,211z"/>
								</g>
								<g>
									<g>
										<g>
											<defs>
												<path id="SVGID_2_" d="M434.4,211c0,0,0-2,3.8-1.7c3.4,0.2,3.8,1.8,3.8,1.8s-0.5,2.3-4.2,2.4
													C434.1,213.5,434.4,211,434.4,211z"/>
											</defs>
											<clipPath id="SVGID_3_">
												<use xlink:href="#SVGID_2_"  style="overflow:visible;"/>
											</clipPath>
											<path class="st21" d="M440.4,211.5c0,1.4-1.1,2.6-2.4,2.5c-1.3,0-2.4-1.2-2.4-2.6c0-1.4,1.1-2.6,2.4-2.5
												C439.4,208.9,440.4,210,440.4,211.5z"/>
										</g>
									</g>
								</g>
							</g>
							<g>
								<path d="M434,210c0.2-0.2,0.3-0.2,0.5-0.3s0.3-0.2,0.5-0.3c0.4-0.2,0.7-0.3,1.1-0.4c0.7-0.2,1.5-0.2,2.2-0.2
									c0.8,0.1,1.5,0.2,2.2,0.6c0.6,0.4,1.2,0.9,1.6,1.6c0,0.1,0,0.2-0.1,0.2s-0.2,0-0.2,0l0,0c-0.4-0.6-1-1-1.6-1.3
									s-1.3-0.4-2-0.4s-1.4,0.1-2,0.3c-0.3,0.1-0.6,0.2-1,0.4c-0.2,0.1-0.3,0.2-0.4,0.2c-0.1,0.1-0.3,0.2-0.4,0.3l0,0
									c-0.2,0.2-0.5,0.2-0.6,0C433.8,210.4,433.8,210.2,434,210L434,210z"/>
							</g>
						</g>
						<g>
							<g>
								<g>
									<path id="XMLID_13_" class="st4" d="M426.6,211c0,0,0-2-3.8-1.7c-3.4,0.2-3.8,1.8-3.8,1.8s0.5,2.3,4.2,2.4
										C426.9,213.5,426.6,211,426.6,211z"/>
								</g>
								<g>
									<g>
										<g>
											<defs>
												<path id="SVGID_4_" d="M426.6,211c0,0,0-2-3.8-1.7c-3.4,0.2-3.8,1.8-3.8,1.8s0.5,2.3,4.2,2.4
													C426.9,213.5,426.6,211,426.6,211z"/>
											</defs>
											<clipPath id="SVGID_5_">
												<use xlink:href="#SVGID_4_"  style="overflow:visible;"/>
											</clipPath>
											<path class="st22" d="M420.6,211.4c0,1.4,1.1,2.6,2.4,2.5c1.3,0,2.4-1.2,2.4-2.6c0-1.4-1.1-2.6-2.4-2.5
												S420.6,210,420.6,211.4z"/>
										</g>
									</g>
								</g>
							</g>
							<g>
								<path d="M426.4,210.6c-0.1-0.1-0.2-0.2-0.4-0.3c-0.1-0.1-0.3-0.2-0.4-0.2c-0.3-0.2-0.6-0.3-1-0.4c-0.6-0.2-1.3-0.3-2-0.3
									s-1.4,0.1-2,0.4c-0.6,0.3-1.2,0.7-1.6,1.3l0,0c0,0.1-0.1,0.1-0.2,0c-0.1,0-0.1-0.1,0-0.2c0.4-0.7,1-1.2,1.6-1.6
									c0.6-0.4,1.4-0.6,2.2-0.6c0.8-0.1,1.5,0,2.2,0.2c0.4,0.1,0.7,0.2,1.1,0.4c0.2,0.1,0.3,0.2,0.5,0.3s0.3,0.2,0.5,0.3
									c0.2,0.2,0.2,0.4,0.1,0.6C426.9,210.8,426.6,210.8,426.4,210.6C426.5,210.7,426.4,210.7,426.4,210.6L426.4,210.6z"/>
							</g>
						</g>
						<path class="st23" d="M433,203.1c0,0,4.4-4,10.7,1.5L433,203.1z"/>
						<path class="st23" d="M428.1,203.1c0,0-4.4-4-10.7,1.5L428.1,203.1z"/>
						<path class="st4" d="M426.5,220.2h8.4c0,0-0.5,2.7-4.2,2.7C426.9,223,426.5,220.2,426.5,220.2z"/>
					</g>
					<path class="st16" d="M425.4,190.8c0,0-4.9,1.4-5.9,6.4c-1,5.4-6.1,9.7-6.1,9.7s2.2-12.9,2.4-13.2
						C416.1,193.3,425.4,190.8,425.4,190.8z"/>
					<path class="st16" d="M425.4,190.8c0,0,4.8-2.6,7.3,3.2c2.9,6.8,15.1,9,15.1,9s1.6-8.1-6.4-11.5
						C433.5,188,430.2,187.9,425.4,190.8z"/>
					<path class="st16" d="M424.5,186.8c0,0,3.8-4.4,12.2-2.4c7,1.6,14.1,7,14.4,15.9l-3.2,2.9l-12.3-12.6L424.5,186.8z"/>
					<path class="st16" d="M424.5,186.8c0,0-6-1.7-10.8,4c-6.3,7.5-2,17.2-2,17.2l7.7-14L424.5,186.8z"/>
				</g>
				<path class="st24" d="M451.3,298.1c-6.9,4.6-30.1,4.1-35.6,0.5c-0.2-0.6-0.1-1.5,0.3-2.9c0.8-2.9,2.6-7.4,2.5-12.6
					c-0.1-10.7-3.7-23.4-3.7-23.4s2,0.8-0.1-0.2v-0.1c0-0.1,0-0.1-0.1-0.2l0,0l0,0v-0.1c-0.1-0.2-0.2-0.5-0.3-0.9
					c-0.1-0.2-0.1-0.4-0.2-0.6c0-0.1,0-0.1-0.1-0.2c0-0.1-0.1-0.2-0.1-0.4l0,0l0,0c-0.5-1.7-1-3.6-1.5-5.4c-0.1-0.3-0.2-0.6-0.2-0.9
					c0,0,0,0,0-0.1c-0.8-3.1-1.6-7.3-0.9-7.9c0.1-0.1,0.2-0.2,0.4-0.4l0,0c1.8-1.6,7.5-3.4,11.4-4.4l0,0c2.1-0.6,6.5-1.6,7.6-1.8
					c0,0,3.7,0.8,7.7,1.9l0,0c4.1,1.1,9.8,2.9,11.5,4.3l0,0c0.2,0.2,0.3,0.3,0.4,0.5c0.4,0.6,0.2,2.9-0.1,6.3
					c-0.3,3.7-0.7,7.5-0.8,11.3c0,0.1,0,0.1,0,0.1c-0.1,2.1-0.4,4.3-0.7,6.6c-0.7,5.1-1.6,10.3-1.1,15
					C448.3,287.2,452.2,294.5,451.3,298.1z"/>
				<path class="st24" d="M442.4,272.3h-20.5c-4.4,0-8-3.6-8-8V263c0-4.4,3.6-8,8-8h20.5c4.4,0,6.2,0.2,6.2,4.5l1.8,4.8
					C450.4,268.7,446.8,272.3,442.4,272.3z"/>
				<path class="st25" d="M451.3,298.1c-6.9,4.6-30.1,4.1-35.6,0.5c-0.2-0.6-0.1-1.5,0.3-2.9c4.8,3.2,27.4,2.4,30.5,1.6
					c3.4-0.8,1.6-4.6,1.6-4.6s-1.1-2.3-3-8.5c-1.9-6.3,2.7-17.1,2.7-17.1c0.3-0.3,0.7-0.2,1.1,0c-0.7,5.1-1.6,10.3-1.1,15
					C448.3,287.2,452.2,294.5,451.3,298.1z"/>
				<path class="st15" d="M439.6,238.5c-0.8,1.8-4,8.3-7.2,9c0,0-7.6-0.5-10.9-8.9c0.6-0.2,1.2-0.3,1.8-0.5l0,0
					c0.1,0,0.1-0.1,0.2-0.1l0.1-0.1c0.4-0.3,1-0.8,1.7-1.7c0-0.1,0.1-0.1,0.1-0.2c0.1-0.1,0.1-0.2,0.2-0.3c0-0.1,0.1-0.1,0.1-0.2
					c0.2-0.3,0.3-0.6,0.4-1c0.6,0,1.4-0.1,2.2-0.1l0,0c2.3-0.1,5,0,7.2,0.3c0.2,0.7,0.5,1.2,0.8,1.7c0.7,1,1.9,1.4,2.3,1.5
					c0.1,0,0.1,0,0.1,0l0,0C438.8,238.3,439.2,238.4,439.6,238.5z"/>
			</g>
		</g>
		<path class="st10" d="M457.4,309.2l-5.2-0.7c0,0,3.1-26,1.7-33.6c-1.6-8.5-5.5-17-5.5-17s-2.1-16.9,1.9-15.2s10.1,20.5,11.2,32.4
			C462.4,284.1,457.4,309.2,457.4,309.2z"/>
		<path class="st24" d="M449.3,242.1c0,0,8,1,10.6,20.9l-9.3,3.8c0,0-2.6-10.6-3.8-11.5C445.5,254.4,448.3,241.7,449.3,242.1z"/>
		<g>
			<path class="st10" d="M458.1,313.8c0.5-1.7-1.3-8.3-3.4-8.1c-1.2,0.2-3.2,4.9-3.1,7.3c0.5,0.3,0.8,1.2,1,1.7
				C452.8,315.2,457.6,315.6,458.1,313.8z"/>
			<path class="st10" d="M454.3,319.8c-0.1-1.3-0.2-3.3-0.2-5c0.4,0,0.8-0.1,1.2-0.2c0.2,1.6,0.4,3.7,0.4,4.9
				c0.1,1.8-0.2,2.7-0.6,2.8C454.7,322.2,454.4,321.4,454.3,319.8z"/>
			<path class="st10" d="M456,319.1c-0.2-1.2-0.4-3-0.5-4.7c0.4,0,0.9-0.2,1.3-0.3c0.3,1.5,0.5,3.5,0.6,4.7c0.2,1.7,0,2.5-0.4,2.6
				C456.6,321.4,456.3,320.6,456,319.1z"/>
			<path class="st10" d="M457.5,317.9c-0.2-1-0.4-2.6-0.4-4c0.3,0,0.8-0.2,1.1-0.3c0.3,1.3,0.4,3,0.5,4c0.2,1.4,0,2.2-0.4,2.2
				C457.9,319.9,457.6,319.3,457.5,317.9z"/>
			<path class="st10" d="M452.4,319.2c0-1.2,0-3.5,0.2-5.1c0.4,0,1,0.4,1.3,0.3c0.1,1.5-0.1,3.5-0.2,4.7c-0.1,1.7-0.4,2.5-0.9,2.5
				C452.6,321.6,452.4,320.7,452.4,319.2z"/>
			<path class="st10" d="M449.6,312.6c1-0.7,1.5-3.6,2.9-4.4c0.2,0.3,1.6,2.2,1.9,2.5c-1.2,1-2.5,2.2-3.5,2.9
				c-1.4,1-2.5,0.6-2.8,0.2C447.9,313.4,449.2,312.9,449.6,312.6z"/>
		</g>
		<g>
			<path class="st10" d="M369.3,292.6l4.7,2.4c0,0,12.6-22.9,18.2-28.3c6.2-6,14.3-10.6,14.3-10.6s11.2-12.7,7-13.7
				c-4.3-1-19.8,11-27.6,20C379.8,269.2,369.3,292.6,369.3,292.6z"/>
			<path class="st24" d="M416.4,242.9c0,0-3.7-5-21.4,9.4l4.5,8.7c0,0,12.3-6.7,13.8-6.6C414.9,254.5,417.5,243.3,416.4,242.9z"/>
			<path class="st10" d="M369.3,292.6l4.7,2.4c0,0,12.6-22.9,18.2-28.3c6.2-6,1.5-13.3-6.3-4.3C379.8,269.2,369.3,292.6,369.3,292.6
				z"/>
			<g>
				<path class="st10" d="M366,296c0.6-1.7,5.7-5.9,7.5-4.6c1,0.7-0.3,5.9-1.7,7.7c-0.5-0.1-1.4,0.5-1.8,0.8
					C369.6,300.1,365.4,297.7,366,296z"/>
				<path class="st10" d="M365.7,303c0.8-1,2.1-2.5,3.1-4c-0.3-0.3-0.6-0.5-0.8-0.9c-1.1,1.2-2.4,2.8-3.2,3.8
					c-1.1,1.4-1.5,2.3-1.1,2.6C363.9,304.8,364.6,304.3,365.7,303z"/>
				<path class="st10" d="M364.7,301.5c0.8-0.9,2.1-2.2,3.1-3.5c-0.3-0.3-0.6-0.7-0.8-1c-1.2,1-2.4,2.6-3.2,3.4
					c-1.1,1.2-1.5,2.1-1.2,2.4C362.9,303,363.6,302.6,364.7,301.5z"/>
				<path class="st10" d="M364.1,299.7c0.7-0.7,1.8-1.9,2.7-3c-0.3-0.2-0.5-0.6-0.7-0.9c-1,0.9-2.1,2.2-2.7,2.9c-1,1.1-1.3,1.8-1,2
					C362.6,301,363.2,300.7,364.1,299.7z"/>
				<path class="st10" d="M367.5,303.7c0.7-1,2-2.9,2.8-4.3c-0.3-0.2-1-0.3-1.3-0.5c-1,1.2-1.9,2.9-2.6,3.9
					c-0.9,1.4-1.1,2.3-0.7,2.5C366,305.5,366.7,304.9,367.5,303.7z"/>
				<path class="st10" d="M373.6,299.8c-0.3-1.1,1-3.6,0.3-5.1c-0.4,0.2-2.7,0.7-3.1,0.7c0.4,1.5,0.8,3.3,1.2,4.4
					c0.6,1.6,1.7,1.9,2.1,1.8C374.6,301.5,373.8,300.4,373.6,299.8z"/>
			</g>
		</g>
		<path class="st10" d="M457.4,309.2l-5.2-0.7c0,0,3.1-26,1.7-33.6c-1.6-8.5,6.5-11.7,7.7,0.1C462.4,284.1,457.4,309.2,457.4,309.2z
			"/>
		<path class="st19" d="M425.1,232.3c0.3,3.9-0.9,5.6-2.8,6.2c3.3,4.1,5.3,6.1,9.3,7.9c2.8-2.3,5-4,6.1-8.4
			c-1.9-0.9-2.6-2.9-2.7-5.3L425.1,232.3z"/>
		<path class="st20" d="M428.5,232.4l8.6,7.6l0.6-2.1c-1.9-0.9-2.6-2.9-2.7-5.3L428.5,232.4z"/>
		<path class="st25" d="M414,265.7c0,0,0.4,5.7,7,5.7c5.6,0,22,0,22,0s6.5,0.3,7.3-5.6c0,0-1.2,2.9-7.4,2.9c-5.2,0-22.2,0-22.2,0
			S415.9,268.6,414,265.7z"/>
		<path class="st20" d="M430.4,217.2c-1.3,0-2.4-0.6-2.7-1.3c0,0.1-0.1,0.2-0.1,0.4c0,1,1.2,1.7,2.7,1.7s2.7-0.8,2.7-1.7
			c0-0.1,0-0.3-0.1-0.4C432.8,216.6,431.7,217.2,430.4,217.2z"/>
	</g>
	<g>
		<g>
			<g>
				<polygon class="st26" points="400,209.5 381.5,218.4 379.5,217.4 362.9,209.4 372.2,182.2 379.7,160.8 381.6,155.1 				"/>
				<polygon class="st27" points="396.1,209.5 379.5,217.4 362.9,209.4 372.2,182.2 379.7,160.8 386.9,182.3 				"/>
				<path class="st28" d="M400.1,209.5l-0.1,0.2l-0.6,187.9c0,5.6-3.2,10.5-7.9,12.9c-2,1.1-4.3,1.7-6.8,1.6H377
					c-8.1,0-14.6-6.6-14.6-14.7l0.6-187.7v-0.1l-0.1-0.3h0.1l0,0v-0.1h2.3l5.1-1.6l7.9,5l7.1-3.3l6.6-1.6h0.2l7.4,1.6h0.4v0.1
					L400.1,209.5z"/>
				<path class="st29" d="M392.1,207.8l-0.6,202.7c-2,1.1-4.3,1.7-6.8,1.6H377c-8.1,0-14.6-6.6-14.6-14.7l0.6-187.7v-0.1v-0.3l0,0
					v-0.1h2.3l5.1-1.6l7.9,5l7.1-3.3l6.6-1.6L392.1,207.8z"/>
				<path class="st30" d="M392.4,412.2l-23.2-0.1c-3.8,0-6.9-3.1-6.9-6.9v-12.7l36.9,0.1v12.7C399.3,409.1,396.2,412.2,392.4,412.2z
					"/>
				
					<rect x="377.7" y="370.8" transform="matrix(3.137292e-03 -1 1 3.137292e-03 -9.4432 768.931)" class="st4" width="6.6" height="36.9"/>
				<polygon class="st30" points="375,174.3 388.1,174.3 381.7,155.1 				"/>
			</g>
		</g>
		<path class="st27" d="M362.9,263.7c0,0-7-1.5-3.7-9.8C362.5,245.6,377.2,253.9,362.9,263.7z"/>
	</g>
</g>
</svg>
