<?xml version="1.0" encoding="UTF-8"?>
<svg width="78px" height="68px" viewBox="0 0 78 68" version="1.1" xmlns="http://www.w3.org/2000/svg" xmlns:xlink="http://www.w3.org/1999/xlink">
    <!-- Generator: Sketch 61.1 (89650) - https://sketch.com -->
    <title>Group 12</title>
    <desc>Created with Sketch.</desc>
    <defs>
        <polygon id="path-1" points="0.487768966 0.181511811 61.9500793 0.181511811 61.9500793 67.9997858 0.487768966 67.9997858"></polygon>
    </defs>
    <g id="Page-1" stroke="none" stroke-width="1" fill="none" fill-rule="evenodd">
        <g id="Airbone-&amp;-Contact" transform="translate(-798.000000, -1457.000000)">
            <g id="Group-12" transform="translate(798.000000, 1457.000000)">
                <polygon id="Fill-1" fill="#4197E5" points="0 8 78 8 78 0 0 0"></polygon>
                <g id="Group-11" transform="translate(8.000000, 0.000000)">
                    <g id="Group-4">
                        <mask id="mask-2" fill="white">
                            <use xlink:href="#path-1"></use>
                        </mask>
                        <g id="Clip-3"></g>
                        <path d="M45.6435448,67.9997858 L16.793769,67.9997858 C7.78826897,67.9997858 0.487768966,60.6863055 0.487768966,51.6642583 L0.487768966,0.181297638 L61.9500793,0.181297638 L61.9500793,51.6642583 C61.9500793,60.6863055 54.6495793,67.9997858 45.6435448,67.9997858" id="Fill-2" stroke="#979797" stroke-width="2" fill="#A7ECFF" opacity="0.250279018" mask="url(#mask-2)"></path>
                    </g>
                    <path d="M57.7513431,55.2011685 L57.7513431,0.181672441 L51.741619,0.181672441 L51.741619,55.2011685 C51.741619,59.7796567 49.8057224,63.9463969 46.6394466,67.0669008 C44.9702569,67.5825228 43.1957741,67.8845071 41.3560845,67.964822 C41.3427224,67.9760661 41.3298948,67.9889165 41.3170672,67.9996252 L42.6698431,67.9996252 C47.5202741,67.9996252 51.9489983,66.3692315 55.33655,63.6834992 C56.8726534,61.1696409 57.7513431,58.2793732 57.7513431,55.2011685" id="Fill-5" fill="#C0EDFF" opacity="0.413760231"></path>
                    <path d="M6.0526431,4.34391496 C6.0526431,5.12457638 5.35621207,5.75692283 4.49729828,5.75692283 C3.63785,5.75692283 2.94195345,5.12457638 2.94195345,4.34391496 C2.94195345,3.56378898 3.63785,2.93090709 4.49729828,2.93090709 C5.35621207,2.93090709 6.0526431,3.56378898 6.0526431,4.34391496" id="Fill-7" fill="#FFFFFF"></path>
                    <path d="M59.3067948,4.34391496 C59.3067948,5.12457638 58.6103638,5.75692283 57.75145,5.75692283 C56.8920017,5.75692283 56.1961052,5.12457638 56.1961052,4.34391496 C56.1961052,3.56378898 56.8920017,2.93090709 57.75145,2.93090709 C58.6103638,2.93090709 59.3067948,3.56378898 59.3067948,4.34391496" id="Fill-9" fill="#FFFFFF"></path>
                </g>
            </g>
        </g>
    </g>
</svg>