<?xml version="1.0" encoding="UTF-8"?>
<svg width="71px" height="67px" viewBox="0 0 71 67" version="1.1" xmlns="http://www.w3.org/2000/svg" xmlns:xlink="http://www.w3.org/1999/xlink">
    <!-- Generator: Sketch 61.1 (89650) - https://sketch.com -->
    <title>Group 18</title>
    <desc>Created with Sketch.</desc>
    <defs>
        <polygon id="path-1" points="0 0.0654 5.93464444 0.0654 5.93464444 5.93570769 0 5.93570769"></polygon>
    </defs>
    <g id="Page-1" stroke="none" stroke-width="1" fill="none" fill-rule="evenodd">
        <g id="Airbone-&amp;-Contact" transform="translate(-805.000000, -1014.000000)">
            <g id="Group-18" transform="translate(805.000000, 1014.000000)">
                <path d="M10.6955969,48 C10.6041738,47.9396752 8.44996016,46.5007182 8.05985843,44.25058 C7.84195178,42.9925975 8.21962706,41.7421279 9.18245492,40.5336427 C10.9101751,38.3650425 12.3691733,38.3215114 13.656864,38.2830626 C14.787227,38.2492542 15.6805999,38.2225168 16.7226464,36.6752845 L16.8298245,36.5159651 C19.1418096,33.0809855 19.438713,32.6397083 22.8377905,32 L23,32.738261 C19.9453127,33.313667 19.7622445,33.5856811 17.5217114,36.9141531 L17.4140895,37.0736935 C16.1421537,38.9625456 14.8919642,39.0001105 13.6830483,39.0365705 C12.4739105,39.0725887 11.3315648,39.106839 9.83817198,40.9808861 C9.01136935,42.0185615 8.68362177,43.0767871 8.86358337,44.1268368 C9.19643467,46.0618716 11.1484966,47.372887 11.1680239,47.3857032 L10.6955969,48 Z" id="Fill-1" fill="#0071D6"></path>
                <path d="M61.1852336,47 C60.1703147,47 58.3042579,46.5373306 56.1234891,43.8090948 C54.3972558,41.6492505 54.4286181,40.7386134 54.4586736,39.8580283 C54.4830665,39.1493226 54.5059349,38.4797492 53.4823043,36.9641828 L53.3768921,36.8080859 C51.1778286,33.5514558 50.9981488,33.2853128 48,32.7223263 L48.1592072,32 C51.4953719,32.626117 51.7867799,33.0578697 54.0561908,36.4187086 L54.1611674,36.574373 C55.3130785,38.2793312 55.2838942,39.1307293 55.2579767,39.8813779 C55.2311881,40.671375 55.2054884,41.4174834 56.7670696,43.371721 C59.5888054,46.9009801 61.6722204,46.2056789 61.693782,46.198328 L62,46.87936 C61.965153,46.8931969 61.673745,47 61.1852336,47" id="Fill-3" fill="#0071D6"></path>
                <path d="M71,26.0297249 L67.4177592,28.9332298 L65.2011178,27.0075421 C64.1961331,28.0896185 49.9806718,16.788598 48.8934652,14.8136646 L48.3970054,18.0217391 C47.7979917,22.6293256 49.2545268,32.0414818 50.2020902,36.6226708 C51.1538987,41.2038598 53.5128645,64.2801686 53.5128645,64.2801686 C52.8975404,64.6774623 51.7406238,65.0215173 50.2720235,65.3203194 C43.8350274,66.6180124 31.3220968,67 31.3220968,67 C31.3220968,67 24.7454575,66.6180124 20.5076753,65.3203194 C19.5435781,65.0215173 18.6983454,64.6774623 18.0789995,64.2801686 C18.0789995,64.2801686 20.4460088,41.2038598 21.3978173,36.6226708 C22.3415824,32.0414818 23.8021393,22.6293256 23.1948586,18.0217391 L22.9446179,16.304126 C16.5036,21.9975599 9.21980716,27.9944543 5.96690101,26.9964508 L3.54760931,28.8196539 L0,25.6490683 C0,25.6490683 2.27093469,23.6792369 2.22312083,23.5847382 C0.907346101,20.9771517 15.5354812,7.13065661 21.0450226,4.00576752 C23.847272,2.39041704 27.1088919,2.05767524 27.1088919,2.05767524 L29.5838174,1.34937888 C30.6216462,2.06055901 33.3405565,2.53815439 36.2779806,2.53815439 C39.1908274,2.54170364 42.0062592,1.70718722 43.0568234,1 L44.53235,1.83052351 C44.53235,1.83052351 47.752859,2.39041704 50.5508632,4.00576752 C50.5508632,4.00576752 59.8841724,13.5277285 61.9026321,14.8098935 C62.7724421,15.3586957 70.3632267,23.1149068 69.2022884,23.9813665 L71,26.0297249 Z" id="Fill-5" fill="#2B96F4"></path>
                <polygon id="Fill-7" fill="#0071D6" points="65 26.9069718 69.0218596 24 71 25.8352084 67.1926187 29"></polygon>
                <path d="M42.637937,0.0223989999 C41.0560994,0.799079293 35.3100765,2.96873347 29.5071646,0.400425819 C29.1448713,0.240039122 29.2528913,0.76380193 29.0780785,1.06067154 L29,1.19291345 C29,1.19291345 36.5766061,5.45067906 43,0.895079984 L42.935971,0.734500514 C42.8325574,0.475221538 42.9332072,-0.122758672 42.637937,0.0223989999" id="Fill-9" fill="#0071D6"></path>
                <path d="M22.2551572,40.6418121 C21.9358476,43.5385921 22.7052078,49.5288485 21.9358476,51.1021972 C21.1664873,52.679094 19.9466574,56.5252053 19.8198974,58.7939764 C19.6929278,61.063191 20.2777002,65 20.2777002,65 C19.3736181,64.7012966 18.5810011,64.3571335 18,63.959971 C18,63.959971 20.2198725,40.8915077 21.112431,36.3118322 C21.9974467,31.7319349 23.3670839,22.32311 22.7976065,17.7170457 L22.5629432,16 C23.282228,16.5634784 25.7830679,26.8990157 24.7557876,29.9887222 C23.7324882,33.0784287 22.5782383,37.7412622 22.2551572,40.6418121" id="Fill-11" fill="#0071D6"></path>
                <path d="M50.3532213,62.4312404 C50.5657548,61.4908102 50.2412729,59.6103908 50.3532213,58.2939208 C50.4691678,56.9774508 49.1786053,54.7207711 49.4067106,53.3103463 C49.6306073,51.8999215 49.6615404,48.8907212 48.8579112,47.1042566 C48.0580697,45.3175715 48.2127352,42.2148575 48.4522037,37.4191926 C48.6916721,32.6237483 46.8603066,33.281873 46.327079,31.1191481 C45.7938513,28.9564232 45.9910235,26.0416188 46.3617998,22.8822231 C46.7365742,19.7263563 46.1841975,17.9548892 46.3617998,15.7771668 C46.5436106,13.5994445 47.4284655,14.0356947 47.4284655,14.0356947 L48.6491654,14.7842454 L48.1818021,17.9738566 C47.6176414,22.5547046 48.9894295,31.9126913 49.8818598,36.4675142 C50.7782883,41.0225578 53,63.9658355 53,63.9658355 C52.4204779,64.3608427 51.3308754,64.7031381 49.9475137,65 C49.9475137,65 50.1446859,63.3716706 50.3532213,62.4312404" id="Fill-13" fill="#0071D6"></path>
                <g id="Group-17" transform="translate(0.000000, 23.000000)">
                    <mask id="mask-2" fill="white">
                        <use xlink:href="#path-1"></use>
                    </mask>
                    <g id="Clip-16"></g>
                    <polygon id="Fill-15" fill="#0071D6" mask="url(#mask-2)" points="2.21108889 0.0654 5.93464444 3.61486154 3.53197778 5.93570769 -2.22222222e-05 2.21316923"></polygon>
                </g>
            </g>
        </g>
    </g>
</svg>