<?xml version="1.0" encoding="UTF-8"?>
<svg width="44px" height="88px" viewBox="0 0 44 88" version="1.1" xmlns="http://www.w3.org/2000/svg" xmlns:xlink="http://www.w3.org/1999/xlink">
    <!-- Generator: Sketch 61.1 (89650) - https://sketch.com -->
    <title>Group 37 Copy</title>
    <desc>Created with Sketch.</desc>
    <defs>
        <path d="M10.536,0.694 C16.266,0.694 20.913,5.34 20.913,11.07 L20.913,24.699 C20.913,26.656 19.325,28.244 17.368,28.244 L3.705,28.244 C1.747,28.244 0.16,26.656 0.16,24.699 L0.16,11.07" id="path-1"></path>
        <path d="M10.536,0.694 C16.266,0.694 20.913,5.34 20.913,11.07 L20.913,24.699 C20.913,26.656 19.325,28.244 17.368,28.244 L3.705,28.244 C1.747,28.244 0.16,26.656 0.16,24.699 L0.16,11.07" id="path-3"></path>
        <polygon id="path-5" points="0 0.3683 40.2476 0.3683 40.2476 27 0 27"></polygon>
    </defs>
    <g id="Page-1" stroke="none" stroke-width="1" fill="none" fill-rule="evenodd">
        <g id="Droplet-&amp;-Contact" transform="translate(-820.000000, -783.000000)">
            <g id="Group-37-Copy" transform="translate(820.000000, 782.000000)">
                <path d="M26.3208,28.639 L12.6588,28.639 C10.7008,28.639 9.1138,27.052 9.1138,25.094 L9.1138,11.465 C9.1138,5.735 13.7588,1.089 19.4898,1.089 C25.2198,1.089 29.8658,5.735 29.8658,11.465 L29.8658,25.094 C29.8658,27.052 28.2788,28.639 26.3208,28.639" id="Fill-1" fill="#2B96F4"></path>
                <g id="Group-9" transform="translate(9.000000, 0.306200)">
                    <g id="Group-5">
                        <mask id="mask-2" fill="white">
                            <use xlink:href="#path-1"></use>
                        </mask>
                        <g id="Clip-4"></g>
                        <path d="M-2.8413,9.7889 C6.1757,11.2729 16.0637,12.5259 24.0537,7.0329 C24.6317,6.6359 24.0827,5.6849 23.4997,6.0859 C15.7587,11.4079 6.1837,10.1689 -2.5493,8.7309 C-3.2393,8.6169 -3.5363,9.6749 -2.8413,9.7889" id="Fill-3" fill="#1A79EF" mask="url(#mask-2)"></path>
                    </g>
                    <g id="Group-8">
                        <mask id="mask-4" fill="white">
                            <use xlink:href="#path-3"></use>
                        </mask>
                        <g id="Clip-7"></g>
                        <path d="M7.8911,10.4051 C9.3511,8.5691 11.6791,8.5301 13.1761,10.3541 C13.6241,10.9001 14.3971,10.1201 13.9521,9.5791 C12.1091,7.3321 8.9251,7.3541 7.1161,9.6301 C6.6801,10.1761 7.4521,10.9581 7.8911,10.4051" id="Fill-6" fill="#1A79EF" mask="url(#mask-4)"></path>
                    </g>
                </g>
                <path d="M29.9195,12.599 L29.9195,25.712 C29.9195,27.16 28.8485,28.332 27.5245,28.332 L11.5615,28.332 C10.2375,28.332 9.1665,27.16 9.1665,25.712 L9.1665,13.984 C11.8575,15.501 14.8395,16.403 17.8595,16.612 C22.1565,16.909 26.6925,15.662 29.9195,12.599" id="Fill-10" fill="#2B96F4" opacity="0.470238095" style="mix-blend-mode: multiply;"></path>
                <path d="M34.4634,88.2289 L5.7854,88.2289 C2.5914,88.2289 0.0004,85.6389 0.0004,82.4439 L0.0004,40.6249 C0.0004,29.5109 9.0104,20.5009 20.1244,20.5009 C31.2384,20.5009 40.2484,29.5109 40.2484,40.6249 L40.2484,82.4439 C40.2484,85.6389 37.6574,88.2289 34.4634,88.2289" id="Fill-12" fill="#D0ECFF"></path>
                <path d="M22.2281,67.974 L18.0211,67.974 C11.7151,67.974 6.6041,62.863 6.6041,56.558 L6.6041,50.974 C6.6041,44.668 11.7151,39.557 18.0211,39.557 L22.2281,39.557 C28.5341,39.557 33.6451,44.668 33.6451,50.974 L33.6451,56.558 C33.6451,62.863 28.5341,67.974 22.2281,67.974" id="Fill-14" fill="#2B96F4"></path>
                <path d="M20.1245,65.4486 L20.1245,65.4486 C19.0645,65.4486 18.2055,64.5906 18.2055,63.5296 L18.2055,43.7716 C18.2055,42.7126 19.0645,41.8526 20.1245,41.8526 C21.1845,41.8526 22.0435,42.7126 22.0435,43.7716 L22.0435,63.5296 C22.0435,64.5906 21.1845,65.4486 20.1245,65.4486" id="Fill-16" fill="#FFFFFF"></path>
                <path d="M31.7759,53.6508 L31.7759,53.6508 C31.7759,54.7238 30.9059,55.5938 29.8329,55.5938 L10.4169,55.5938 C9.3429,55.5938 8.4729,54.7238 8.4729,53.6508 C8.4729,52.5778 9.3429,51.7078 10.4169,51.7078 L29.8329,51.7078 C30.9059,51.7078 31.7759,52.5778 31.7759,53.6508" id="Fill-18" fill="#FFFFFF"></path>
                <g id="Group-22" transform="translate(0.000000, 61.306200)">
                    <mask id="mask-6" fill="white">
                        <use xlink:href="#path-5"></use>
                    </mask>
                    <g id="Clip-21"></g>
                    <path d="M40.2476,22.8143 L40.2476,23.3423 C40.2476,25.3613 38.7526,27.0003 36.9076,27.0003 L3.3416,27.0003 C1.4966,27.0003 -0.0004,25.3613 -0.0004,23.3423 L-0.0004,0.3683 C4.0126,5.8463 8.9656,10.5063 14.4866,14.0853 C22.2916,19.1433 31.2046,22.0593 40.2476,22.8143" id="Fill-20" fill="#2B96F4" opacity="0.22484189" style="mix-blend-mode: multiply;" mask="url(#mask-6)"></path>
                </g>
                <g id="Group-27" transform="translate(11.000000, 2.306200)" fill="#FFFFFF">
                    <path d="M1.4908,4.4998 C2.0378,2.8868 3.3968,1.7548 5.0558,1.4288 C5.7808,1.2868 5.4738,0.1798 4.7518,0.3218 C2.6908,0.7258 1.0538,2.2178 0.3848,4.1938 C0.1468,4.8958 1.2558,5.1968 1.4908,4.4998" id="Fill-23"></path>
                    <path d="M7.2085,1.2703 C7.9465,1.2703 7.9475,0.1223 7.2085,0.1223 C6.4695,0.1223 6.4685,1.2703 7.2085,1.2703" id="Fill-25"></path>
                </g>
                <path d="M42.3775,44.7709 C42.0135,45.5769 41.2265,47.2509 39.4125,48.1809 C37.7005,49.0589 36.0145,48.7919 35.5285,48.7089 C32.6935,48.2209 30.4415,45.8039 29.3975,43.3569 C29.3245,43.1879 29.2575,43.0169 29.1975,42.8469 C28.0405,39.6089 29.1045,36.5919 31.0825,30.9799 C32.0195,28.3269 32.7695,27.0239 34.0375,23.0309 C34.6525,21.0969 35.0865,19.4809 35.3655,18.3839 C37.8465,22.9389 39.4865,26.9529 40.5635,29.9529 C42.1145,34.2729 42.8035,37.3429 43.0145,39.5809 C43.2695,42.2799 42.8335,43.7649 42.3775,44.7709" id="Fill-28" fill="#2B96F4"></path>
                <path d="M42.3765,44.7709 C42.0125,45.5769 41.2265,47.2509 39.4145,48.1809 C37.7025,49.0589 36.0145,48.7919 35.5275,48.7089 C32.4965,48.1869 30.1315,45.4579 29.1975,42.8469 C28.8115,41.7669 28.6715,40.7109 28.7325,39.5749 C29.7785,42.0209 32.0305,44.4379 34.8655,44.9259 C35.3515,45.0089 37.0375,45.2769 38.7495,44.3989 C40.5635,43.4689 41.3495,41.7939 41.7135,40.9879 C42.1695,39.9829 42.6055,38.4979 42.3515,35.7979 C43.6105,41.0379 43.0105,43.3719 42.3765,44.7709" id="Fill-30" fill="#2B96F4" opacity="0.470238095" style="mix-blend-mode: multiply;"></path>
                <g id="Group-36" transform="translate(30.000000, 27.306200)" fill="#FFFFFF">
                    <path d="M4.023,1.3983 C4.664,1.3983 4.665,0.4033 4.023,0.4033 C3.382,0.4033 3.381,1.3983 4.023,1.3983" id="Fill-32"></path>
                    <path d="M2.6167,2.6551 C1.9167,4.4041 0.9137,6.2331 0.7667,8.1341 C0.7177,8.7731 1.7137,8.7701 1.7627,8.1341 C1.8997,6.3601 2.9237,4.5511 3.5767,2.9201 C3.8147,2.3251 2.8527,2.0671 2.6167,2.6551" id="Fill-34"></path>
                </g>
            </g>
        </g>
    </g>
</svg>