<?xml version="1.0" encoding="UTF-8"?>
<svg width="491px" height="409px" viewBox="0 0 491 409" version="1.1" xmlns="http://www.w3.org/2000/svg" xmlns:xlink="http://www.w3.org/1999/xlink">
    <!-- Generator: Sketch 61.1 (89650) - https://sketch.com -->
    <title>Group 40</title>
    <desc>Created with Sketch.</desc>
    <defs>
        <polygon id="path-1" points="0.000108079124 0.384445532 483.890308 0.384445532 483.890308 371.886479 0.000108079124 371.886479"></polygon>
        <polygon id="path-3" points="0.192369048 0.120107317 12.7655357 0.120107317 12.7655357 13 0.192369048 13"></polygon>
        <polygon id="path-5" points="0.183151111 0.2716 13.7930178 0.2716 13.7930178 13.8813111 0.183151111 13.8813111"></polygon>
        <polygon id="path-7" points="4.40938752e-05 0.775287449 309.559425 0.775287449 309.559425 302.999695 4.40938752e-05 302.999695"></polygon>
        <polygon id="path-9" points="0 0.775287449 248.014379 0.775287449 248.014379 302.999701 0 302.999701"></polygon>
        <polygon id="path-11" points="9.38772827e-06 0.163757085 65.9062002 0.163757085 65.9062002 63.9999355 9.38772827e-06 63.9999355"></polygon>
        <polygon id="path-13" points="0 0.163757085 52.7902091 0.163757085 52.7902091 63.9999368 0 63.9999368"></polygon>
        <polygon id="path-15" points="7.82310689e-06 0.135611336 54.9218335 0.135611336 54.9218335 52.9999466 7.82310689e-06 52.9999466"></polygon>
        <polygon id="path-17" points="0 0.135611336 44.8218757 0.135611336 44.8218757 52.9999477 0 52.9999477"></polygon>
    </defs>
    <g id="Page-1" stroke="none" stroke-width="1" fill="none" fill-rule="evenodd">
        <g id="Home-Copy" transform="translate(-779.000000, -1188.000000)">
            <g id="Group-40" transform="translate(779.000000, 1188.000000)">
                <g id="Group-37" transform="translate(7.000000, 0.000000)">
                    <g id="Group-32">
                        <g id="Group" transform="translate(0.000000, 37.000000)" opacity="0.271042597">
                            <g id="Group-12">
                                <path d="M28.2995746,56.8092347 C28.9204354,44.8473644 30.62752,32.4608858 37.182182,22.4289504 C46.8750749,7.59363386 65.5116436,0.780138968 83.2367116,0.074340624 C111.272141,-1.04251468 138.272802,10.5771846 162.522563,24.6711306 C186.771759,38.7650766 209.557013,55.6184117 235.327826,66.6988811 C282.562444,87.0083696 335.687889,86.368634 386.959233,90.3724868 C403.881931,91.694306 421.838833,93.9901268 434.921015,104.789971 C445.825096,113.791441 451.78208,127.666307 453.96414,141.624739 C459.712475,178.387799 440.931152,215.980313 412.633355,240.187502 C384.335558,264.39582 347.789021,276.930799 311.236263,284.155351 C270.573836,292.191853 228.125728,294.239798 187.876643,284.342246 C112.408124,265.784267 58.3095448,206.330073 37.2234596,133.105471 C30.1056124,108.389542 26.9668159,82.5042469 28.2995746,56.8092347" id="Fill-1" fill="#90CCFF"></path>
                                <g id="Group-5">
                                    <mask id="mask-2" fill="white">
                                        <use xlink:href="#path-1"></use>
                                    </mask>
                                    <g id="Clip-4"></g>
                                    <path d="M266.080018,58.5485252 C304.498649,34.4514025 342.733518,5.576101 387.890831,0.953438273 C402.71842,-0.564535078 418.169102,0.765241132 431.578616,7.25240787 C450.455181,16.3850404 463.343378,34.7646888 471.23156,54.1422328 C488.623896,96.8686186 485.045915,144.972146 478.457635,190.610516 C473.769167,223.086919 467.432499,256.111574 450.879812,284.474686 C428.497074,322.826333 388.791546,349.250564 346.076284,361.758349 C303.362153,374.266134 257.745153,373.889176 213.668924,367.635284 C170.44535,361.501409 127.489784,349.585262 90.058943,327.188675 C52.6281019,304.792089 20.9605925,271.214112 6.17201776,230.27729 C0.7502,215.27054 -2.34491215,198.70074 2.18410654,183.402679 C14.924728,140.370895 84.4884196,138.819114 119.180364,127.424171 C170.70205,110.502206 220.166172,87.3460686 266.080018,58.5485252" id="Fill-3" fill="#4DBCFF" mask="url(#mask-2)"></path>
                                </g>
                                <path d="M269.323514,329 C253.631271,329 236.601004,327.709365 218.70642,325.166471 C175.055301,318.961606 139.842156,307.556391 111.055142,290.301843 C92.4392575,279.143243 75.5378747,264.691747 62.66413,247.162932 C53.0701547,234.100829 31.2547707,203.021197 48.3370439,188.874442 C53.4862026,184.61089 60.1898883,182.754791 66.7545145,181.470365 C76.8058035,179.504785 86.8327852,177.729951 96.8264153,175.641911 C109.194797,173.058384 120.878057,170.616506 131.573203,167.097876 C186.505665,149.022784 239.066766,124.334248 287.795817,93.7162416 C293.629533,90.0503202 299.44403,86.2890261 305.065764,82.6518858 C334.792843,63.420471 362.870992,45.2550854 391.234044,42.3470661 C393.482738,42.1162531 395.672642,42 397.745533,42 C403.511981,42 408.419198,42.898986 411.938082,44.6015853 C428.484468,52.60668 435.03157,78.7337065 437.681049,95.151346 C446.179507,147.802127 439.339023,229.642017 405.68097,273.485218 C373.923396,314.852681 319.265097,329 269.323514,329 Z" id="Stroke-6" stroke="#FFF0DE" stroke-width="1.33"></path>
                                <path d="M270.538678,288 C238.311248,287.941225 204.000499,282.056835 173.95268,272.977495 C158.690871,268.36565 143.674892,262.348232 130.202992,253.734209 C127.059322,251.724063 93.8785954,223.006314 97.2386403,221.043719 C103.516917,217.376094 110.862909,216.115436 117.993092,214.685521 C169.347629,204.39081 217.945932,183.617413 263.7121,158.54125 C283.151308,147.887079 301.881915,135.78318 320.958044,124.498963 C329.097033,119.683896 384.864603,80.331789 392.676764,86.6939498 C394.454778,88.1408474 395.062554,90.5523435 395.523059,92.7979785 C401.199791,120.454895 398.987327,154.069792 395.525891,182.077112 C392.149986,209.392117 382.878709,237.032051 363.417411,256.505165 C343.472384,276.462843 314.791353,285.741442 286.622939,287.520062 C281.341007,287.854049 275.96958,288.00972 270.538678,288 Z" id="Stroke-8" stroke="#FFF0DE" stroke-width="1.33"></path>
                                <path d="M269.954078,244.998873 C247.436581,244.957726 222.310022,241.55892 198,235.332847 C225.602276,225.073299 253.993852,211.963375 283.607115,195.837926 C297.077439,188.49921 310.00189,180.653772 322.500199,173.06705 C329.277634,168.954099 335.678294,165.069427 342.179956,161.246192 C344.45707,159.906961 347.130253,158.161339 352.480024,154.649802 C353.331176,154.091789 354.171546,153.541667 355,153 C354.475691,160.454828 353.689794,168.39665 352.644013,176.808555 C350.739136,192.125731 345.726988,213.110965 332.665217,226.102523 C322.004261,236.705334 304.471675,243.275796 283.297296,244.606573 C279.147649,244.866979 274.784079,245 270.328017,245 L269.954078,244.998873 Z" id="Stroke-10" stroke="#FFF0DE" stroke-width="1.33"></path>
                            </g>
                        </g>
                        <g id="Group-17" transform="translate(11.000000, -0.000000)">
                            <path d="M82.5,222.083478 C82.5,225.397052 79.8138032,228.083478 76.5001477,228.083478 C73.1861968,228.083478 70.5,225.397052 70.5,222.083478 C70.5,218.769904 73.1861968,216.083478 76.5001477,216.083478 C79.8138032,216.083478 82.5,218.769904 82.5,222.083478" id="Fill-1" fill="#0066CF"></path>
                            <g id="Group-5" transform="translate(43.500000, 370.083478)">
                                <mask id="mask-4" fill="white">
                                    <use xlink:href="#path-3"></use>
                                </mask>
                                <g id="Clip-4"></g>
                                <path d="M12.7655357,6.56018049 C12.7655357,10.1167902 9.95103571,13.0002537 6.47879762,13.0002537 C3.00686905,13.0002537 0.192369048,10.1167902 0.192369048,6.56018049 C0.192369048,3.00325366 3.00686905,0.120107317 6.47879762,0.120107317 C9.95103571,0.120107317 12.7655357,3.00325366 12.7655357,6.56018049" id="Fill-3" fill="#0066CF" mask="url(#mask-4)"></path>
                            </g>
                            <path d="M472.5,275.083478 C472.5,278.397052 469.813803,281.083478 466.499852,281.083478 C463.186197,281.083478 460.5,278.397052 460.5,275.083478 C460.5,271.769904 463.186197,269.083478 466.499852,269.083478 C469.813803,269.083478 472.5,271.769904 472.5,275.083478" id="Fill-6" fill="#0066CF"></path>
                            <g id="Group-10" transform="translate(144.500000, 0.083478)">
                                <mask id="mask-6" fill="white">
                                    <use xlink:href="#path-5"></use>
                                </mask>
                                <g id="Clip-9"></g>
                                <path d="M13.7930178,7.07637778 C13.7930178,10.8346 10.7463067,13.8813111 6.98808444,13.8813111 C3.22986222,13.8813111 0.183151111,10.8346 0.183151111,7.07637778 C0.183151111,3.31815556 3.22986222,0.271444444 6.98808444,0.271444444 C10.7463067,0.271444444 13.7930178,3.31815556 13.7930178,7.07637778" id="Fill-8" fill="#FFFFFF" mask="url(#mask-6)"></path>
                            </g>
                            <path d="M426.5,201.083478 C426.5,207.158672 421.574887,212.083478 415.5,212.083478 C409.424807,212.083478 404.5,207.158672 404.5,201.083478 C404.5,195.008591 409.424807,190.083478 415.5,190.083478 C421.574887,190.083478 426.5,195.008591 426.5,201.083478" id="Fill-11" fill="#7FCCFF"></path>
                            <path d="M3.89947037,170.082006 C1.96730051,170.0265 0.445962833,168.415195 0.501471971,166.483115 C0.556658383,164.550711 2.16803705,163.029444 4.10052963,163.08495 C6.03269949,163.140457 7.55403717,164.751761 7.49852803,166.683842 C7.44301889,168.616245 5.83164022,170.137513 3.89947037,170.082006" id="Fill-13" fill="#0066CF"></path>
                            <path d="M334.899462,93.0820067 C332.967297,93.0265001 331.445963,91.4151956 331.501472,89.4831148 C331.556658,87.5507112 333.168033,86.0294436 335.100521,86.0849502 C337.032686,86.140134 338.554343,87.7514385 338.498511,89.6838421 C338.443002,91.6159229 336.83195,93.1375132 334.899462,93.0820067" id="Fill-15" fill="#0066CF"></path>
                        </g>
                    </g>
                    <g id="Group-19" transform="translate(81.000000, 65.000000)">
                        <g id="Group-3">
                            <mask id="mask-8" fill="white">
                                <use xlink:href="#path-7"></use>
                            </mask>
                            <g id="Clip-2"></g>
                            <path d="M299.304755,177.986126 C292.69183,176.783939 285.648826,184.042445 282.04768,194.927138 L257.329775,186.689709 C261.838866,174.183291 264.306613,160.702858 264.306613,146.64096 C264.306613,127.183943 259.572067,108.84447 251.238826,92.665251 L269.996889,78.7603725 C278.30685,86.0127449 287.947482,88.4563725 292.359775,84.0377247 C297.138431,79.2535142 293.953885,68.3062591 285.244478,59.585502 C276.535071,50.8671984 265.600526,47.6777247 260.82187,52.4631619 C256.89847,56.3911215 258.410486,64.46417 263.871632,72.0551174 L246.773846,84.7295951 C235.121277,65.8479109 218.304083,50.5065425 198.28764,40.67683 L199.727364,26.0641336 C207.472462,26.1892591 213.671237,23.4033765 214.494636,18.8681903 C215.500605,13.3246397 208.139024,7.3431498 198.048708,5.50674899 C187.960842,3.6715749 178.965941,6.67826721 177.961198,12.2205911 C177.078984,17.0759514 182.621,22.2674332 190.788826,24.7147409 L189.592937,36.8555951 C176.234755,31.5917368 161.697838,28.6684615 146.472304,28.6684615 C132.489221,28.6684615 119.083253,31.1206761 106.640368,35.595753 L102.696138,23.8584899 C111.441079,20.9131336 117.295545,15.3278745 116.437838,9.88982186 C115.382858,3.20419433 104.666415,-0.653842105 92.5004466,1.26842915 C80.3344783,3.19315385 71.3273241,10.1707409 72.3810791,16.853915 C73.3625415,23.0684818 82.714004,26.7756316 93.7968103,25.7316923 L98.255664,39.0023563 C76.1194585,48.9571943 57.6052292,65.5350972 45.2517905,86.240915 L29.9539644,77.1055263 C30.0029763,76.8577287 30.0630158,76.6197449 30.1083518,76.3707206 C32.7893004,61.5997773 28.3990632,48.4309312 20.3023043,46.956413 C12.2055455,45.4831215 3.46918182,56.2635425 0.787007905,71.0357126 C-1.89394071,85.8066559 2.49629644,98.9767287 10.5930553,100.448794 C16.7808024,101.574923 23.3324625,95.5320972 27.2803676,86.0323725 L40.9277194,94.1839312 C33.0747945,109.986547 28.6367708,127.79117 28.6367708,146.64096 C28.6367708,167.468223 34.0464545,187.020923 43.5069684,204.00487 L32.9044783,206.993162 C27.9420277,196.314559 19.3772055,189.795765 13.3720277,192.382919 C7.1622253,195.058397 6.07661265,206.409243 10.9459407,217.735555 C15.8152688,229.061866 24.7954664,236.076255 31.0040435,233.400777 C35.8170079,231.326393 37.507917,224.024951 35.7753478,215.577753 L48.3885494,212.020263 C64.3847945,236.02596 88.934834,253.823223 117.681514,261.052287 L116.793174,273.501049 C103.374953,271.658514 91.7848735,275.858806 90.4296957,283.323401 C89.0059012,291.17196 99.429498,299.638785 113.711553,302.23698 C127.993609,304.835174 140.728115,300.580907 142.151909,292.733575 C143.336771,286.204968 136.30847,279.259275 125.691277,275.608555 L126.596771,262.909543 C133.060209,264.008684 139.693964,264.613457 146.472304,264.613457 C172.239063,264.613457 196.05515,256.309785 215.450368,242.261381 L219.401949,251.499814 C210.448708,258.352275 206.057245,267.580895 209.624083,272.827579 C213.424953,278.423879 224.762621,277.337004 234.947285,270.401126 C245.129498,263.466474 250.303925,253.308 246.50183,247.712927 C243.44349,243.212089 235.504794,243.104138 227.215664,246.816194 L222.797245,236.48598 C236.005941,225.227138 246.690526,211.106356 253.911198,195.075571 L280.032067,203.781607 C278.332581,217.043684 282.526771,228.425198 289.906731,229.768457 C297.744953,231.193907 306.201949,220.758194 308.797126,206.459538 C311.39353,192.160883 307.142976,179.411575 299.304755,177.986126" id="Fill-1" fill="#00ADFF" mask="url(#mask-8)"></path>
                        </g>
                        <path d="M130,101.000615 C130,92.1626369 122.836408,85 114,85 C105.164822,85 98,92.1626369 98,101.000615 C98,109.837363 105.164822,117 114,117 C122.836408,117 130,109.837363 130,101.000615" id="Fill-4" fill="#0066CF" opacity="0.562569754"></path>
                        <path d="M124,176 C115.163592,176 108,183.163592 108,192 C108,200.835178 115.163592,208 124,208 C132.836408,208 140,200.835178 140,192 C140,183.163592 132.836408,176 124,176" id="Fill-6" fill="#0066CF" opacity="0.562569754"></path>
                        <path d="M181.000615,101 C193.151345,101 203,91.149162 203,79 C203,66.8496089 193.151345,57 181.000615,57 C168.849884,57 159,66.8496089 159,79 C159,91.149162 168.849884,101 181.000615,101" id="Fill-8" fill="#0066CF" opacity="0.562569754"></path>
                        <path d="M196.999385,193 C188.162637,193 181,200.163592 181,209 C181,217.835178 188.162637,225 196.999385,225 C205.837363,225 213,217.835178 213,209 C213,200.163592 205.837363,193 196.999385,193" id="Fill-10" fill="#0066CF" opacity="0.562569754"></path>
                        <path d="M187,143.99937 C187,136.267753 180.731964,130 173,130 C165.268036,130 159,136.267753 159,143.99937 C159,151.730986 165.268036,158 173,158 C180.731964,158 187,151.730986 187,143.99937" id="Fill-12" fill="#0066CF" opacity="0.562569754"></path>
                        <path d="M70.0006151,131 C65.5808411,131 62,134.581796 62,139 C62,143.418204 65.5808411,147 70.0006151,147 C74.4191589,147 78,143.418204 78,139 C78,134.581796 74.4191589,131 70.0006151,131" id="Fill-14" fill="#0066CF" opacity="0.562569754"></path>
                        <g id="Group-18">
                            <mask id="mask-10" fill="white">
                                <use xlink:href="#path-9"></use>
                            </mask>
                            <g id="Clip-17"></g>
                            <path d="M90.5263419,283.323523 C89.1010315,291.170855 99.5357261,299.638908 113.832987,302.237102 C128.130248,304.835297 140.878312,300.579803 142.303623,292.733698 C143.489746,286.20509 136.452736,279.259398 125.824238,275.608677 L126.731923,262.908438 C133.202243,264.008807 139.843061,264.61358 146.627391,264.61358 C172.42281,264.61358 196.264253,256.309908 215.678894,242.260277 L219.635908,251.499936 C210.673135,258.352398 206.276997,267.581017 209.846406,272.827702 C213.652549,278.424001 225.002288,277.337127 235.195342,270.401248 C245.390849,263.466596 250.570785,253.306896 246.764642,247.71305 C243.703046,243.212212 235.754672,243.10426 227.457943,246.816317 L223.033593,236.484876 C227.63212,232.57041 231.901918,228.289155 235.84912,223.722074 C214.579859,236.749847 107.703662,242.668774 86.7018,165.658932 C65.6852187,88.5902077 129.793519,29.8879445 129.794746,29.8879445 C121.831652,31.0312482 114.120012,32.9486126 106.753046,35.5958757 L102.805844,23.8598393 C111.558869,20.9132563 117.420795,15.3279972 116.562174,9.88994453 C115.506071,3.20554372 104.778219,-0.653719433 92.5980709,1.26855182 C80.4203764,3.19327652 71.4036325,10.1708636 72.4585094,16.8540377 C73.4397901,23.0686045 82.8024355,26.7757543 93.8970414,25.731815 L98.3606424,39.0024789 C76.1996424,48.957317 57.6669281,65.5352198 45.3003369,86.2410377 L29.9862236,77.105649 C30.0352877,76.8578514 30.0941645,76.6198676 30.1407754,76.3708433 C32.8245783,61.5999 28.429667,48.4310538 20.3242877,46.9565356 C12.2189084,45.4832441 3.47201675,56.2636652 0.788213793,71.0346085 C-1.89681576,85.8067785 2.49809557,98.9768514 10.6047015,100.448916 C16.7990365,101.575046 23.3576719,95.5322198 27.3097803,86.0324951 L40.9716621,94.1828271 C33.1091498,109.986669 28.666401,127.791293 28.666401,146.641082 C28.666401,167.468345 34.0818443,187.021046 43.5536571,204.004993 L32.9398788,206.993285 C27.9721448,196.314681 19.3982039,189.795888 13.3854059,192.383042 C7.17021872,195.058519 6.08345025,206.409366 10.9579626,217.735677 C15.8312483,229.061989 24.8222335,236.075151 31.0374207,233.4009 C35.8555094,231.326515 37.5482187,224.025074 35.8138049,215.576649 L48.4392089,212.020386 C64.4537113,236.026082 89.0286621,253.823345 117.807174,261.05241 L116.917889,273.501171 C103.484155,271.658637 91.881736,275.858928 90.5263419,283.323523" id="Fill-16" fill="#0066CF" opacity="0.572707403" mask="url(#mask-10)"></path>
                        </g>
                    </g>
                    <g id="Group-19-Copy" opacity="0.768205915" transform="translate(417.000000, 275.000000)">
                        <g id="Group-3" transform="translate(0.500000, 0.000000)">
                            <mask id="mask-12" fill="white">
                                <use xlink:href="#path-11"></use>
                            </mask>
                            <g id="Clip-2"></g>
                            <path d="M63.7229478,37.5944291 C62.3150348,37.340502 60.8155565,38.8736518 60.0488609,41.1727287 L54.7863391,39.4328097 C55.7463391,36.7911903 56.2717304,33.9438381 56.2717304,30.973668 C56.2717304,26.8639352 55.2637304,22.990251 53.4895565,19.5728583 L57.4832087,16.6358543 C59.2524261,18.1677085 61.3049478,18.6838543 62.2443391,17.7505425 C63.2617304,16.7400162 62.5837304,14.4277247 60.7294696,12.5857166 C58.8752087,10.7442267 56.5472087,10.0705425 55.5298174,11.0813279 C54.694513,11.910996 55.0164261,13.6161943 56.1791217,15.2195628 L52.5389478,17.8966802 C50.0580783,13.9084696 46.4776435,10.6680486 42.2160783,8.59180567 L42.5226,5.50529555 C44.1715565,5.5317247 45.4912957,4.94328745 45.6666,3.98536032 C45.8807739,2.81444534 44.3134696,1.55102834 42.1652087,1.1631417 C40.0174696,0.77551417 38.1024261,1.41059109 37.888513,2.58124696 C37.700687,3.60680162 38.8806,4.70335223 40.6195565,5.2202753 L40.3649478,7.78468016 C37.5209478,6.67284211 34.4259913,6.05538462 31.1844261,6.05538462 C28.2073826,6.05538462 25.3532087,6.57334413 22.7040783,7.5185749 L21.8643391,5.039417 C23.7261652,4.41729555 24.9726,3.23757085 24.7899913,2.08893927 C24.5653826,0.676793522 22.2838174,-0.138105263 19.6936435,0.267919028 C17.1034696,0.674461538 15.1858174,2.1482753 15.4101652,3.55990283 C15.6191217,4.87255061 17.6100783,5.65557895 19.9696435,5.43507692 L20.9189478,8.23812146 C16.2060783,10.3407935 12.2643391,13.8423968 9.63425217,18.2159028 L6.37729565,16.2863158 C6.38773043,16.2339757 6.40051304,16.1837085 6.41016522,16.1311093 C6.98094783,13.0111741 6.04625217,10.2296356 4.32242609,9.91818623 C2.5986,9.60699595 0.7386,11.8840486 0.167556522,15.0042429 C-0.403226087,18.1241781 0.531469565,20.9059757 2.25529565,21.2169069 C3.57268696,21.4547692 4.96755652,20.1783968 5.80807826,18.1718543 L8.71364348,19.8936356 C7.04173043,23.2314818 6.09686087,26.9921943 6.09686087,30.973668 C6.09686087,35.3728259 7.2486,39.5027692 9.26277391,43.0901377 L7.00546957,43.7213279 C5.94894783,41.4657814 4.12546957,40.0888745 2.84694783,40.635336 C1.52486087,41.2004534 1.29373043,43.5979919 2.33042609,45.9903482 C3.36712174,48.3827045 5.27903478,49.8642915 6.60086087,49.2991741 C7.62555652,48.8610202 7.98555652,47.3188016 7.61668696,45.5345749 L10.3020783,44.7831579 C13.7077304,49.853668 18.934513,53.6128259 25.0547739,55.1397571 L24.8656435,57.7691984 C22.0088609,57.3800162 19.5412957,58.2672065 19.2527739,59.8438866 C18.9496435,61.501668 21.1688609,63.2900405 24.2095565,63.838834 C27.2502522,64.3876275 29.9614696,63.4890364 30.2646,61.8315142 C30.5168609,60.4525344 29.020513,58.9854575 26.7600783,58.2143482 L26.9528609,55.5320486 C28.3289478,55.7642105 29.7412957,55.8919514 31.1844261,55.8919514 C36.6702522,55.8919514 41.7407739,54.1380405 45.8700783,51.1707206 L46.7113826,53.1220729 C44.8052087,54.5694575 43.8702522,56.5187368 44.6296435,57.6269474 C45.4388609,58.809004 47.852687,58.5794332 50.0210348,57.1144291 C52.1888609,55.6496842 53.290513,53.504 52.4810348,52.3222024 C51.8299043,51.3715304 50.1397304,51.3487287 48.3749478,52.1327935 L47.4342522,49.950834 C50.2464261,47.5727287 52.5212087,44.5901215 54.058513,41.204081 L59.6197304,43.0429798 C59.2579043,45.8442105 60.1508609,48.2482267 61.7220783,48.5319514 C63.3908609,48.8330364 65.1913826,46.6287935 65.7439043,43.6086154 C66.296687,40.5884372 65.3917304,37.8955142 63.7229478,37.5944291" id="Fill-1" fill="#00ADFF" mask="url(#mask-12)"></path>
                        </g>
                        <path d="M28.5,21.5001345 C28.5,19.5668268 26.9329643,18 25,18 C23.0673047,18 21.5,19.5668268 21.5,21.5001345 C21.5,23.4331732 23.0673047,25 25,25 C26.9329643,25 28.5,23.4331732 28.5,21.5001345" id="Fill-4" fill="#0066CF" opacity="0.562569754"></path>
                        <path d="M28,37 C26.0670357,37 24.5,38.5670357 24.5,40.5 C24.5,42.4326953 26.0670357,44 28,44 C29.9329643,44 31.5,42.4326953 31.5,40.5 C31.5,38.5670357 29.9329643,37 28,37" id="Fill-6" fill="#0066CF" opacity="0.562569754"></path>
                        <path d="M40.0001257,21 C42.4855024,21 44.5,18.9850559 44.5,16.5 C44.5,14.0146927 42.4855024,12 40.0001257,12 C37.514749,12 35.5,14.0146927 35.5,16.5 C35.5,18.9850559 37.514749,21 40.0001257,21" id="Fill-8" fill="#0066CF" opacity="0.562569754"></path>
                        <path d="M42.9998655,40 C41.0668268,40 39.5,41.5670357 39.5,43.5 C39.5,45.4326953 41.0668268,47 42.9998655,47 C44.9331732,47 46.5,45.4326953 46.5,43.5 C46.5,41.5670357 44.9331732,40 42.9998655,40" id="Fill-10" fill="#0066CF" opacity="0.562569754"></path>
                        <path d="M40.5,29.9998649 C40.5,28.34309 39.1568495,27 37.5,27 C35.8431505,27 34.5,28.34309 34.5,29.9998649 C34.5,31.6566398 35.8431505,33 37.5,33 C39.1568495,33 40.5,31.6566398 40.5,29.9998649" id="Fill-12" fill="#0066CF" opacity="0.562569754"></path>
                        <path d="M16.0001153,28 C15.1714077,28 14.5,28.6715867 14.5,29.5 C14.5,30.3284133 15.1714077,31 16.0001153,31 C16.8285923,31 17.5,30.3284133 17.5,29.5 C17.5,28.6715867 16.8285923,28 16.0001153,28" id="Fill-14" fill="#0066CF" opacity="0.562569754"></path>
                        <g id="Group-18" transform="translate(0.500000, 0.000000)">
                            <mask id="mask-14" fill="white">
                                <use xlink:href="#path-13"></use>
                            </mask>
                            <g id="Clip-17"></g>
                            <path d="M19.2686591,59.8439126 C18.9652798,61.5014348 21.1863192,63.2900664 24.2295113,63.8388599 C27.2727034,64.3876534 29.9861468,63.4888032 30.2895261,61.8315401 C30.5419941,60.4525603 29.0441567,58.9854834 26.781866,58.2143741 L26.975068,55.5318154 C28.3522847,55.7642364 29.7657921,55.8919773 31.2098463,55.8919773 C36.7004374,55.8919773 41.7751222,54.1380664 45.9075557,51.1704874 L46.7498118,53.1220988 C44.8420729,54.5694834 43.9063488,56.5187628 44.6661025,57.6269733 C45.4762453,58.80903 47.8920532,58.5794591 50.0616591,57.1144551 C52.2317872,55.6497101 53.3343438,53.5037668 52.524201,52.3222283 C51.872536,51.3715563 50.1807133,51.3487547 48.4147429,52.1328194 L47.4730138,49.9506008 C48.4518167,49.123783 49.3606493,48.2194915 50.2008167,47.2548275 C45.6736246,50.0065684 22.9248759,51.2567709 18.4546,34.9906656 C13.9811911,18.7121231 27.626733,6.31296518 27.6269941,6.31296518 C25.9320384,6.55445506 24.2906049,6.95944291 22.722536,7.51860081 L21.8823685,5.03970202 C23.7454621,4.41732146 24.9931813,3.23759676 24.8104227,2.08896518 C24.5856296,0.677078543 22.3021911,-0.138079352 19.7096296,0.267944939 C17.1175901,0.674487449 15.1983635,2.14830121 15.4228956,3.55992874 C15.6317626,4.87257652 17.6246148,5.65560486 19.9861172,5.43510283 L20.936201,8.23814737 C16.219201,10.3408194 12.2744867,13.8424227 9.64224039,18.2159287 L6.38260985,16.2863417 C6.3930532,16.2340016 6.40558522,16.1837344 6.4155064,16.1311352 C6.98675764,13.0112 6.05129458,10.2296615 4.3260532,9.91821215 C2.60081182,9.60702186 0.739023645,11.8840745 0.167772414,15.0040097 C-0.403739901,18.124204 0.531723153,20.9060016 2.25722562,21.2169328 C3.57569852,21.4547951 4.9717133,20.1784227 5.81292512,18.1718802 L8.72087586,19.8934024 C7.04732906,23.2315077 6.10168374,26.9922202 6.10168374,30.9736939 C6.10168374,35.3728518 7.25436847,39.5027951 9.27045714,43.0901636 L7.01129951,43.7213538 C5.95391034,41.4658073 4.12893498,40.0889004 2.84910246,40.6353619 C1.52619113,41.2004794 1.29487094,43.5980178 2.33241773,45.9903741 C3.36970345,48.3827304 5.28344729,49.8640583 6.60635862,49.2992 C7.63189557,48.8610462 7.99219113,47.3188275 7.62301872,45.5343417 L10.3103537,44.7831838 C13.7190631,49.8536939 18.9498759,53.6128518 25.0754227,55.139783 L24.8861369,57.7692243 C22.0267478,57.3800421 19.5571567,58.2672324 19.2686591,59.8439126" id="Fill-16" fill="#0066CF" opacity="0.572707403" mask="url(#mask-14)"></path>
                        </g>
                    </g>
                </g>
                <g id="Group-19-Copy-2" opacity="0.768205915" transform="translate(0.000000, 234.000000)">
                    <g id="Group-3" transform="translate(0.500000, 0.000000)">
                        <mask id="mask-16" fill="white">
                            <use xlink:href="#path-15"></use>
                        </mask>
                        <g id="Clip-2"></g>
                        <path d="M53.1024565,31.1328866 C51.9291957,30.9226032 50.6796304,32.1922429 50.0407174,34.096166 L45.6552826,32.6552955 C46.4552826,30.4677045 46.8931087,28.1097409 46.8931087,25.6500688 C46.8931087,22.2466964 46.0531087,19.0388016 44.5746304,16.2087733 L47.9026739,13.7765668 C49.3770217,15.0451336 51.0874565,15.4725668 51.8702826,14.699668 C52.7181087,13.8628259 52.1531087,11.9479595 50.6078913,10.4225466 C49.0626739,8.89756275 47.1226739,8.33966802 46.2748478,9.1767247 C45.5787609,9.86379352 45.8470217,11.2759109 46.8159348,12.6037004 L43.7824565,14.8206883 C41.7150652,11.5179514 38.7313696,8.83447773 35.1800652,7.11508907 L35.4355,4.55907287 C36.8096304,4.58095951 37.909413,4.09365992 38.0555,3.30037652 C38.2339783,2.33071255 36.9278913,1.28444534 35.1376739,0.963226721 C33.3478913,0.642222672 31.7520217,1.16814575 31.5737609,2.13759514 C31.4172391,2.98688259 32.4005,3.89496356 33.8496304,4.32304049 L33.6374565,6.44668826 C31.2674565,5.52594737 28.6883261,5.01461538 25.9870217,5.01461538 C23.5061522,5.01461538 21.1276739,5.44355061 18.9200652,6.22631984 L18.2202826,4.17326721 C19.7718043,3.65807287 20.8105,2.68111336 20.6583261,1.72990283 C20.4711522,0.560469636 18.5698478,-0.114368421 16.4113696,0.221870445 C14.2528913,0.558538462 12.6548478,1.77904049 12.8418043,2.94804453 C13.0159348,4.03508097 14.6750652,4.68352632 16.6413696,4.50092308 L17.4324565,6.82219433 C13.5050652,8.56346964 10.2202826,11.4632348 8.02854348,15.0850445 L5.31441304,13.4871053 C5.3231087,13.4437611 5.33376087,13.4021336 5.34180435,13.3585749 C5.81745652,10.7748785 5.03854348,8.471417 3.60202174,8.21349798 C2.1655,7.95579352 0.6155,9.84147773 0.139630435,12.4253887 C-0.336021739,15.009085 0.442891304,17.3127611 1.87941304,17.570251 C2.97723913,17.7672308 4.13963043,16.7102348 4.84006522,15.0485668 L7.26136957,16.474417 C5.8681087,19.2385709 5.08071739,22.3529109 5.08071739,25.6500688 C5.08071739,29.2931215 6.0405,32.7132308 7.71897826,35.6840202 L5.8378913,36.2067247 C4.95745652,34.3388502 3.4378913,33.1985992 2.37245652,33.6511377 C1.27071739,34.1191255 1.0781087,36.104587 1.94202174,38.0857571 C2.80593478,40.0669271 4.39919565,41.2938664 5.50071739,40.8258785 C6.35463043,40.4630324 6.65463043,39.1858826 6.34723913,37.7083198 L8.58506522,37.0860526 C11.4231087,41.2850688 15.7787609,44.3981215 20.8789783,45.6626113 L20.7213696,47.8401174 C18.3407174,47.5178259 16.284413,48.2525304 16.0439783,49.5582186 C15.7913696,50.9310688 17.6407174,52.4120648 20.1746304,52.8665344 C22.7085435,53.321004 24.9678913,52.5768583 25.2205,51.2042227 C25.4307174,50.0622551 24.1837609,48.847332 22.3000652,48.2087571 L22.4607174,45.9874777 C23.6074565,46.1797368 24.784413,46.2855223 25.9870217,46.2855223 C30.5585435,46.2855223 34.7839783,44.8330648 38.2250652,42.375753 L38.9261522,43.9917166 C37.3376739,45.190332 36.5585435,46.8045789 37.1913696,47.7223158 C37.8657174,48.7012065 39.8772391,48.5110931 41.6841957,47.2978866 C43.4907174,46.0848947 44.4087609,44.308 43.7341957,43.3293239 C43.191587,42.5420486 41.7831087,42.523166 40.3124565,43.1724696 L39.5285435,41.3655344 C41.8720217,39.396166 43.7676739,36.9261943 45.0487609,34.1221296 L49.6831087,35.6449676 C49.381587,37.9647368 50.1257174,39.9555628 51.4350652,40.1905223 C52.8257174,40.4398583 54.3261522,38.6144696 54.786587,36.1133846 C55.2472391,33.6122996 54.4931087,31.3822227 53.1024565,31.1328866" id="Fill-1" fill="#00ADFF" mask="url(#mask-16)"></path>
                    </g>
                    <path d="M23.5,18.0001153 C23.5,16.3429944 22.1568266,15 20.5,15 C18.8434041,15 17.5,16.3429944 17.5,18.0001153 C17.5,19.6570056 18.8434041,21 20.5,21 C22.1568266,21 23.5,19.6570056 23.5,18.0001153" id="Fill-4" fill="#0066CF" opacity="0.562569754"></path>
                    <path d="M22.5,30 C20.8431734,30 19.5,31.3431734 19.5,33 C19.5,34.6565959 20.8431734,36 22.5,36 C24.1568266,36 25.5,34.6565959 25.5,33 C25.5,31.3431734 24.1568266,30 22.5,30" id="Fill-6" fill="#0066CF" opacity="0.562569754"></path>
                    <path d="M33.5001117,18 C35.7093355,18 37.5,16.2089385 37.5,14 C37.5,11.790838 35.7093355,10 33.5001117,10 C31.290888,10 29.5,11.790838 29.5,14 C29.5,16.2089385 31.290888,18 33.5001117,18" id="Fill-8" fill="#0066CF" opacity="0.562569754"></path>
                    <path d="M35.4998847,33 C33.8429944,33 32.5,34.3431734 32.5,36 C32.5,37.6565959 33.8429944,39 35.4998847,39 C37.1570056,39 38.5,37.6565959 38.5,36 C38.5,34.3431734 37.1570056,33 35.4998847,33" id="Fill-10" fill="#0066CF" opacity="0.562569754"></path>
                    <path d="M33.5,25.4998874 C33.5,24.1192417 32.3807079,23 31,23 C29.6192921,23 28.5,24.1192417 28.5,25.4998874 C28.5,26.8805332 29.6192921,28 31,28 C32.3807079,28 33.5,26.8805332 33.5,25.4998874" id="Fill-12" fill="#0066CF" opacity="0.562569754"></path>
                    <path d="M13.0001153,22 C12.1714077,22 11.5,22.6715867 11.5,23.5 C11.5,24.3284133 12.1714077,25 13.0001153,25 C13.8285923,25 14.5,24.3284133 14.5,23.5 C14.5,22.6715867 13.8285923,22 13.0001153,22" id="Fill-14" fill="#0066CF" opacity="0.562569754"></path>
                    <g id="Group-18" transform="translate(0.500000, 0.000000)">
                        <mask id="mask-18" fill="white">
                            <use xlink:href="#path-17"></use>
                        </mask>
                        <g id="Clip-17"></g>
                        <path d="M16.3601823,49.5582401 C16.1025961,50.9308757 17.9883842,52.4120862 20.5722266,52.8665559 C23.156069,53.3210255 25.459936,52.5766652 25.7175222,51.2042441 C25.9318818,50.0622765 24.660133,48.8473534 22.7393202,48.2087785 L22.9033596,45.9872846 C24.0726946,46.1797583 25.2728424,46.2855437 26.4989261,46.2855437 C31.1607488,46.2855437 35.4694433,44.8330862 38.9781133,42.3755599 L39.6932365,43.9917381 C38.0734581,45.1903534 37.2789754,46.8046004 37.9240493,47.7223372 C38.6119064,48.7012279 40.663064,48.5111146 42.5051823,47.2979081 C44.3477438,46.0849162 45.2838768,44.3078069 44.5960197,43.3293453 C44.0427192,42.54207 42.606266,42.5231874 41.1068571,43.1724911 L40.3072759,41.3653413 C41.138335,40.6806328 41.9099852,39.9317664 42.623335,39.132904 C38.7794926,41.4116895 19.4645172,42.4470134 15.669,28.9766449 C11.8708227,15.4959769 23.4566601,5.22792429 23.4568818,5.22792429 C22.0177685,5.4279081 20.6240985,5.76328866 19.2927192,6.2263413 L18.5793695,4.17350324 C20.1612414,3.65809433 21.2206256,2.68113482 21.0654532,1.72992429 C20.8745911,0.560705668 18.9358227,-0.114346964 16.7345911,0.221891903 C14.533803,0.558559919 12.9042709,1.77906194 13.0949113,2.94806599 C13.2722512,4.03510243 14.9642956,4.68354777 16.9693448,4.50094453 L17.7760197,6.82221579 C13.7710197,8.56349109 10.421734,11.4632563 8.18680788,15.085066 L5.41919704,13.4871267 C5.42806404,13.4437826 5.43870443,13.4021551 5.44712808,13.3585964 C5.93215271,10.7749 5.13789163,8.47143846 3.67306404,8.21351943 C2.20823645,7.95581498 0.627472906,9.84149919 0.142448276,12.4251955 C-0.34279803,15.0091065 0.451463054,17.3127826 1.91651232,17.5702725 C3.03597044,17.7672522 4.22126601,16.7102563 4.93550246,15.0485883 L7.40451724,16.4742239 C5.98358128,19.2385923 5.18067488,22.3529324 5.18067488,25.6500903 C5.18067488,29.2931429 6.15936946,32.7132522 7.87114286,35.6840417 L5.95299015,36.2067462 C5.0552069,34.3388717 3.50569951,33.1986206 2.41904926,33.6511591 C1.29582266,34.119147 1.09941872,36.1046085 1.98035468,38.0857785 C2.86106897,40.0669486 4.48594581,41.2936733 5.60917241,40.8259 C6.47991133,40.4630538 6.78582266,39.185904 6.47237438,37.7081267 L8.75407389,37.0860741 C11.6482611,41.2850903 16.0895172,44.3981429 21.2904532,45.6626328 L21.1297389,47.8401389 C18.7019557,47.5178474 16.605133,48.2525518 16.3601823,49.5582401" id="Fill-16" fill="#0066CF" opacity="0.572707403" mask="url(#mask-18)"></path>
                    </g>
                </g>
            </g>
        </g>
    </g>
</svg>