<?xml version="1.0" encoding="UTF-8"?>
<svg width="492px" height="430px" viewBox="0 0 492 430" version="1.1" xmlns="http://www.w3.org/2000/svg" xmlns:xlink="http://www.w3.org/1999/xlink">
    <!-- Generator: Sketch 61.1 (89650) - https://sketch.com -->
    <title>Group 32</title>
    <desc>Created with Sketch.</desc>
    <defs>
        <polygon id="path-1" points="0.000108079124 0.384445532 483.890308 0.384445532 483.890308 371.886479 0.000108079124 371.886479"></polygon>
        <polygon id="path-3" points="0.310252017 0.185549451 29.9399447 0.185549451 29.9399447 109.739702 0.310252017 109.739702"></polygon>
        <polygon id="path-5" points="0 0.166840978 78.70612 0.166840978 78.70612 14.9543294 0 14.9543294"></polygon>
        <polygon id="path-7" points="0.192369048 0.120107317 12.7655357 0.120107317 12.7655357 13 0.192369048 13"></polygon>
        <polygon id="path-9" points="0.183151111 0.2716 13.7930178 0.2716 13.7930178 13.8813111 0.183151111 13.8813111"></polygon>
        <polygon id="path-11" points="0.0401675286 0.0504918033 1.99452302 0.0504918033 1.99452302 4.92357068 0.0401675286 4.92357068"></polygon>
        <polygon id="path-13" points="0.0549807319 0.0437919548 1.9910957 0.0437919548 1.9910957 5 0.0549807319 5"></polygon>
        <polygon id="path-15" points="0.0534963077 0.0254188017 4.94155738 0.0254188017 4.94155738 1.93374966 0.0534963077 1.93374966"></polygon>
    </defs>
    <g id="Page-1" stroke="none" stroke-width="1" fill="none" fill-rule="evenodd">
        <g id="Home-Copy" transform="translate(-786.000000, -1167.000000)">
            <g id="Group-32" transform="translate(786.000000, 1167.000000)">
                <g id="Group" transform="translate(0.000000, 58.000000)" opacity="0.271042597">
                    <g id="Group-12">
                        <path d="M28.2995746,56.8092347 C28.9204354,44.8473644 30.62752,32.4608858 37.182182,22.4289504 C46.8750749,7.59363386 65.5116436,0.780138968 83.2367116,0.074340624 C111.272141,-1.04251468 138.272802,10.5771846 162.522563,24.6711306 C186.771759,38.7650766 209.557013,55.6184117 235.327826,66.6988811 C282.562444,87.0083696 335.687889,86.368634 386.959233,90.3724868 C403.881931,91.694306 421.838833,93.9901268 434.921015,104.789971 C445.825096,113.791441 451.78208,127.666307 453.96414,141.624739 C459.712475,178.387799 440.931152,215.980313 412.633355,240.187502 C384.335558,264.39582 347.789021,276.930799 311.236263,284.155351 C270.573836,292.191853 228.125728,294.239798 187.876643,284.342246 C112.408124,265.784267 58.3095448,206.330073 37.2234596,133.105471 C30.1056124,108.389542 26.9668159,82.5042469 28.2995746,56.8092347" id="Fill-1" fill="#90CCFF"></path>
                        <g id="Group-5">
                            <mask id="mask-2" fill="white">
                                <use xlink:href="#path-1"></use>
                            </mask>
                            <g id="Clip-4"></g>
                            <path d="M266.080018,58.5485252 C304.498649,34.4514025 342.733518,5.576101 387.890831,0.953438273 C402.71842,-0.564535078 418.169102,0.765241132 431.578616,7.25240787 C450.455181,16.3850404 463.343378,34.7646888 471.23156,54.1422328 C488.623896,96.8686186 485.045915,144.972146 478.457635,190.610516 C473.769167,223.086919 467.432499,256.111574 450.879812,284.474686 C428.497074,322.826333 388.791546,349.250564 346.076284,361.758349 C303.362153,374.266134 257.745153,373.889176 213.668924,367.635284 C170.44535,361.501409 127.489784,349.585262 90.058943,327.188675 C52.6281019,304.792089 20.9605925,271.214112 6.17201776,230.27729 C0.7502,215.27054 -2.34491215,198.70074 2.18410654,183.402679 C14.924728,140.370895 84.4884196,138.819114 119.180364,127.424171 C170.70205,110.502206 220.166172,87.3460686 266.080018,58.5485252" id="Fill-3" fill="#4DBCFF" mask="url(#mask-2)"></path>
                        </g>
                        <path d="M269.323514,329 C253.631271,329 236.601004,327.709365 218.70642,325.166471 C175.055301,318.961606 139.842156,307.556391 111.055142,290.301843 C92.4392575,279.143243 75.5378747,264.691747 62.66413,247.162932 C53.0701547,234.100829 31.2547707,203.021197 48.3370439,188.874442 C53.4862026,184.61089 60.1898883,182.754791 66.7545145,181.470365 C76.8058035,179.504785 86.8327852,177.729951 96.8264153,175.641911 C109.194797,173.058384 120.878057,170.616506 131.573203,167.097876 C186.505665,149.022784 239.066766,124.334248 287.795817,93.7162416 C293.629533,90.0503202 299.44403,86.2890261 305.065764,82.6518858 C334.792843,63.420471 362.870992,45.2550854 391.234044,42.3470661 C393.482738,42.1162531 395.672642,42 397.745533,42 C403.511981,42 408.419198,42.898986 411.938082,44.6015853 C428.484468,52.60668 435.03157,78.7337065 437.681049,95.151346 C446.179507,147.802127 439.339023,229.642017 405.68097,273.485218 C373.923396,314.852681 319.265097,329 269.323514,329 Z" id="Stroke-6" stroke="#FFF0DE" stroke-width="1.33"></path>
                        <path d="M270.538678,288 C238.311248,287.941225 204.000499,282.056835 173.95268,272.977495 C158.690871,268.36565 143.674892,262.348232 130.202992,253.734209 C127.059322,251.724063 93.8785954,223.006314 97.2386403,221.043719 C103.516917,217.376094 110.862909,216.115436 117.993092,214.685521 C169.347629,204.39081 217.945932,183.617413 263.7121,158.54125 C283.151308,147.887079 301.881915,135.78318 320.958044,124.498963 C329.097033,119.683896 384.864603,80.331789 392.676764,86.6939498 C394.454778,88.1408474 395.062554,90.5523435 395.523059,92.7979785 C401.199791,120.454895 398.987327,154.069792 395.525891,182.077112 C392.149986,209.392117 382.878709,237.032051 363.417411,256.505165 C343.472384,276.462843 314.791353,285.741442 286.622939,287.520062 C281.341007,287.854049 275.96958,288.00972 270.538678,288 Z" id="Stroke-8" stroke="#FFF0DE" stroke-width="1.33"></path>
                        <path d="M269.954078,244.998873 C247.436581,244.957726 222.310022,241.55892 198,235.332847 C225.602276,225.073299 253.993852,211.963375 283.607115,195.837926 C297.077439,188.49921 310.00189,180.653772 322.500199,173.06705 C329.277634,168.954099 335.678294,165.069427 342.179956,161.246192 C344.45707,159.906961 347.130253,158.161339 352.480024,154.649802 C353.331176,154.091789 354.171546,153.541667 355,153 C354.475691,160.454828 353.689794,168.39665 352.644013,176.808555 C350.739136,192.125731 345.726988,213.110965 332.665217,226.102523 C322.004261,236.705334 304.471675,243.275796 283.297296,244.606573 C279.147649,244.866979 274.784079,245 270.328017,245 L269.954078,244.998873 Z" id="Stroke-10" stroke="#FFF0DE" stroke-width="1.33"></path>
                    </g>
                </g>
                <g id="Group-123" transform="translate(60.000000, 78.000000)">
                    <path d="M112.759018,134.969931 C121.402409,134.004355 128.803185,126.100622 122.019397,117.589261 C118.710488,113.436829 114.771943,109.766728 111.008313,105.962816 C107.244684,102.158903 103.655045,98.2217866 101.030993,93.5201165 C93.5827084,83.1703599 97.3484974,69.4959813 100.41493,58.3904905 C103.340381,47.7959187 106.160943,34.506858 95.5,27 C112.768273,39.159565 104.750816,61.6548972 106.601165,79.2864641 C107.895915,88.8582859 116.5754,95.3700686 122.558954,102.237366 C127.724072,108.164937 132.503573,114.245176 134.970602,121.84479 C138.05431,130.356455 126.953145,134.004355 120.104265,134.154589 C117.333679,134.737888 114.707776,135.11165 112.759018,134.969931" id="Fill-1" fill="#0066CF"></path>
                    <path d="M110.753505,98.3847874 C96.1695827,89.8359733 101.403235,72.1451264 100.478813,58 C100.395337,58.3062749 100.311242,58.6107375 100.227148,58.9124816 C97.1539843,69.9423033 93.3799295,83.5235094 100.844563,93.8027463 C103.474374,98.4723808 107.071892,102.382671 110.843783,106.160665 C114.615983,109.938659 118.562864,113.583753 121.879345,117.707892 C128.677714,126.16126 121.260694,134.011139 112.59833,134.970135 C114.551675,135.110889 117.183033,134.739674 119.9597,134.16035 C123.902563,134.074568 129.247208,132.839501 132.5,130.204148 C130.419586,117.409772 122.033313,105.075111 110.753505,98.3847874" id="Fill-3" fill="#00ADFF"></path>
                    <path d="M134.971421,121.687363 C132.504341,114.100363 127.724741,108.030521 122.559515,102.112484 C116.575837,95.2565859 107.896172,88.7556117 106.601395,79.1999811 C104.751317,61.597376 112.768939,39.1393822 95.5,27 C105.855132,34.2791359 103.491092,47.0044923 100.666151,57.421171 C101.588568,71.6396991 96.3662698,89.4223471 110.918553,98.0155226 C122.17389,104.740867 130.541969,117.139536 132.61787,130 C135.022632,128.037442 136.283783,125.303401 134.971421,121.687363" id="Fill-5" fill="#0066CF"></path>
                    <path d="M93.4253607,155 C100.620256,150.266353 103.52512,139.938534 93.613829,135.433431 C88.7789259,133.235894 83.6096829,131.747934 78.5332951,130.063257 C73.4569073,128.378882 68.4733746,126.497487 63.990892,123.505502 C52.6466285,117.669147 49.6838445,103.854367 47.2849333,92.630862 C44.9966515,81.9238543 41.3756073,68.8744235 28.5,67 C49.3559402,70.0362387 52.6190478,93.5801981 62.3657737,108.385234 C67.9137921,116.292124 78.5804888,118.173216 87.028162,121.578338 C94.3198959,124.518188 101.341339,127.765087 107.017761,133.397451 C113.659202,139.562074 105.525949,147.776619 99.5421552,150.982296 C97.3617447,152.742144 95.2128989,154.251322 93.4253607,155" id="Fill-7" fill="#0066CF"></path>
                    <path d="M74.9594855,123.807379 C58.3252983,122.690272 54.7856582,104.351625 47.5,92 C47.5675805,92.3141386 47.6339487,92.6273578 47.6988017,92.9378187 C50.0710879,104.285732 53.0006856,118.254021 64.2190416,124.155537 C68.6517741,127.180769 73.5799956,129.08307 78.6003448,130.786161 C83.6203909,132.489558 88.7319585,133.994052 93.5132001,136.216009 C103.314488,140.771172 100.441864,151.213753 93.3268235,156 C95.0948253,155.242696 97.2195185,153.717055 99.3757291,151.937345 C102.774753,150.075499 106.870493,146.542129 108.5,142.690636 C100.824618,132.081944 87.8612919,124.74244 74.9594855,123.807379" id="Fill-9" fill="#00ADFF"></path>
                    <path d="M107.021389,134.542189 C101.344727,128.897574 94.3229873,125.643308 87.0306384,122.697366 C78.5826078,119.284533 67.9154598,117.399653 62.3672066,109.475259 C52.6203748,94.6383217 49.3571291,71.0431472 28.5,68 C41.006861,69.824734 44.7815977,82.2148206 47.0852996,92.7570869 C54.453039,104.999542 58.0322507,123.176408 74.8538409,124.283642 C87.9010007,125.210135 101.010373,132.485073 108.772227,143 C109.99288,140.171617 109.847921,137.171301 107.021389,134.542189" id="Fill-11" fill="#0066CF"></path>
                    <path d="M149.141588,115.911835 C157.727654,116.718951 166.544031,110.500818 161.724921,100.816941 C159.373785,96.0931874 156.312751,91.7120029 153.448384,87.2361491 C150.584323,82.7602954 147.916929,78.1894689 146.344204,73.0673154 C141.260526,61.453945 147.745343,48.8656632 153.01957,38.6438097 C158.051558,28.8919648 163.539275,16.4878633 154.750119,7 C168.986619,22.3685847 156.550709,42.7085196 154.69537,60.298191 C153.970179,69.905908 161.042856,78.0210669 165.426424,85.937481 C169.210508,92.7706602 172.589023,99.6745379 173.409031,107.59429 C174.638583,116.529005 163.112908,117.842845 156.43693,116.603042 C153.628229,116.611537 151.003044,116.444653 149.141588,115.911835" id="Fill-13" fill="#0066CF"></path>
                    <path d="M154.00146,79.1972803 C141.642004,67.73287 150.412578,51.2344295 152.47024,37 C152.324994,37.2868708 152.180053,37.5722091 152.035419,37.8547891 C146.75138,48.1799914 140.2545,60.8951704 145.347635,72.6256104 C146.923286,77.7990918 149.595642,82.4163013 152.465031,86.9372743 C155.334727,91.4582473 158.401455,95.8829837 160.756659,100.654969 C165.58504,110.436465 156.751955,116.71728 148.150222,115.902027 C150.015142,116.440217 152.644904,116.608477 155.459136,116.600202 C159.301127,117.319524 164.742977,117.183751 168.447994,115.230823 C169.102217,102.101582 163.544538,88.1426832 154.00146,79.1972803" id="Fill-15" fill="#00ADFF"></path>
                    <path d="M172.409068,107.293463 C171.588323,99.3186657 168.206767,92.3668031 164.419276,85.4861303 C160.031764,77.5146938 152.952415,69.343131 153.678565,59.6686363 C155.535573,41.9567092 167.982676,21.4754029 153.733362,6 C162.277869,15.2797421 157.341152,27.3291689 152.43566,37.0116076 C150.37997,51.2016202 141.617497,67.6489334 153.965412,79.0778164 C163.499344,87.9958038 169.051696,101.911445 168.3981,115 C171.140755,113.557259 172.932863,111.122136 172.409068,107.293463" id="Fill-17" fill="#0066CF"></path>
                    <g id="Group-21" transform="translate(188.500000, 0.000000)">
                        <mask id="mask-4" fill="white">
                            <use xlink:href="#path-3"></use>
                        </mask>
                        <g id="Clip-20"></g>
                        <path d="M5.052625,108.655945 C13.825125,109.460093 22.8329375,103.266852 17.9091875,93.622511 C15.507,88.9175934 12.3795,84.5541593 9.45325,80.0964396 C6.5266875,75.6387198 3.801375,71.0864121 2.1945,65.985011 C-2.9995625,54.4186923 3.6260625,41.8814121 9.0148125,31.7009725 C14.1560625,21.9886374 19.7629375,9.63479121 10.7829375,0.185368132 C25.3285625,15.4916868 12.622625,35.7492143 10.727,53.2676209 C9.9860625,62.8364121 17.2123125,70.9186923 21.6910625,78.803033 C25.5573125,85.6085275 29.0091875,92.4844341 29.847,100.372099 C31.10325,109.270615 19.3273125,110.579132 12.506375,109.344352 C9.6366875,109.353115 6.9545,109.186604 5.052625,108.655945" id="Fill-19" fill="#0066CF" mask="url(#mask-4)"></path>
                    </g>
                    <path d="M199.001277,73.1975479 C186.641888,61.7328418 195.412415,45.2344164 197.470066,31 C197.32482,31.2868705 197.179881,31.5722086 197.035247,31.8547883 C191.751236,42.1799811 185.254391,54.8951484 190.347805,66.6255776 C191.923141,71.7993607 194.595483,76.4162595 197.465163,80.9372283 C200.334537,85.4581972 203.401249,89.883236 205.756746,94.65491 C210.584796,104.436397 201.752064,110.717206 193.150071,109.901955 C195.01498,110.440143 197.644729,110.608711 200.458946,110.600129 C204.300916,111.319451 209.742737,111.183984 213.448041,109.230751 C214.101954,96.1018285 208.544304,82.1429426 199.001277,73.1975479" id="Fill-22" fill="#00ADFF"></path>
                    <path d="M216.409068,101.293442 C215.588318,93.3186218 212.206744,86.3667396 208.419234,79.4860476 C204.031698,71.5145887 196.952311,63.3430031 197.678465,53.6684812 C199.535483,35.9565044 211.982652,15.4751408 197.733263,0 C206.277815,9.27946259 201.341071,21.3289231 196.435554,31.011389 C194.379853,45.2014413 185.617639,61.6488007 197.965314,73.0780212 C207.499296,81.9957281 213.051678,95.9117138 212.398079,109 C215.140748,107.557255 216.932866,105.122125 216.409068,101.293442" id="Fill-24" fill="#0066CF"></path>
                    <path d="M268.5,85.1576171 C271.304239,90.6795002 278.444721,93.5957466 282.451641,86.8892053 C284.406413,83.6177142 285.881565,80.0496765 287.489171,76.5641826 C289.09708,73.0780773 290.838049,69.674516 293.331714,66.7194433 C298.403718,59.0991101 308.501459,58.1119459 316.704304,57.3158555 C324.529743,56.5561457 334.133952,55.0370316 336.5,46 C332.667268,60.6380958 315.600813,61.0453125 304.254426,66.7937329 C298.167537,70.1080245 295.972954,77.5678557 292.867516,83.3193332 C290.186962,88.2845034 287.30833,93.0307793 282.834491,96.6226631 C277.904014,100.859307 272.689877,94.384194 270.879657,89.8516152 C269.797637,88.1515159 268.89162,86.4948287 268.5,85.1576171" id="Fill-26" fill="#0066CF"></path>
                    <path d="M292.768405,74.2796031 C294.905508,62.3443366 308.169799,61.2686101 317.5,57 C317.272345,57.0232722 317.045297,57.0462382 316.820371,57.0679793 C308.597826,57.8653581 298.475836,58.8541201 293.391651,66.4870931 C290.891694,69.4469486 289.146847,72.8560186 287.535077,76.34746 C285.923307,79.8385951 284.444916,83.4124078 282.48545,86.6891937 C278.468907,93.4065897 271.311277,90.4856233 268.5,84.954803 C268.892863,86.2941789 269.800754,87.9535475 270.885372,89.6563983 C271.927854,92.2641088 274.09709,95.5105797 276.690412,97 C284.818985,92.3091221 291.062359,83.5309122 292.768405,74.2796031" id="Fill-28" fill="#00ADFF"></path>
                    <path d="M283.681296,96.6247439 C288.167907,93.0327342 291.054756,88.2862918 293.742962,83.3209475 C296.856962,77.5692683 299.057809,70.1091756 305.162377,66.7947677 C316.540851,61.0461458 333.656327,60.6389148 337.5,46 C335.19513,54.7780903 326.042675,56.4632685 318.327731,57.2486862 C308.993313,61.5105481 295.723026,62.584574 293.584957,74.5009723 C291.87814,83.7376561 285.632247,92.5019887 277.5,97.1854508 C279.42214,98.2869923 281.577193,98.4276277 283.681296,96.6247439" id="Fill-30" fill="#0066CF"></path>
                    <path d="M253.5,88.5559084 C259.03588,91.1381957 266.388516,89.008718 265.46662,81.2973171 C265.016937,77.5354215 264.012134,73.8380832 263.161431,70.1231658 C262.310427,66.4079454 261.613523,62.674843 261.776935,58.8274774 C261.135303,49.7446152 268.441078,42.7412217 274.378879,37.0565526 C280.043926,31.6334462 286.640482,24.5191234 283.024392,16 C288.881989,29.7994766 275.771786,40.6508419 270.37018,52.1438389 C267.612003,58.4898403 270.408329,65.6711449 271.458191,72.0804911 C272.364466,77.6127083 272.98387,83.0967349 271.655847,88.6635037 C270.360868,95.016173 262.361793,93.1764448 258.202599,90.7532773 C256.326966,90.0934605 254.615647,89.3581754 253.5,88.5559084" id="Fill-32" fill="#0066CF"></path>
                    <path d="M265.367353,66.0022389 C259.662,55.2682684 269.654718,46.1678214 274.5,37 C274.33145,37.1598611 274.162899,37.3191098 273.995586,37.4759084 C267.88231,43.2198842 260.360942,50.2966485 261.021536,59.4742699 C260.852986,63.3617741 261.570794,67.1335167 262.446637,70.8874971 C263.32279,74.6414774 264.356978,78.3770829 264.819951,82.1782253 C265.769399,89.9703835 258.199168,92.1214651 252.5,89.5128499 C253.648307,90.3234867 255.4102,91.0664429 257.341262,91.7331434 C259.80117,93.1394314 263.563709,94.3481897 266.575039,93.9081123 C270.191296,85.1546435 269.749972,74.3536049 265.367353,66.0022389" id="Fill-34" fill="#00ADFF"></path>
                    <path d="M271.122893,88.7525173 C272.505707,83.1789291 271.860915,77.687881 270.917035,72.1488869 C269.82361,65.7319926 266.911253,58.5415874 269.783878,52.1881155 C275.409617,40.6810395 289.063815,29.8160777 282.963163,16 C286.621364,24.2849734 280.244462,31.2420205 274.468866,36.610472 C269.567696,45.6947502 259.458759,54.7122679 265.230601,65.3484234 C269.664055,73.6236862 270.110497,84.3262987 266.451983,93 C268.708599,92.6771221 270.548806,91.4593506 271.122893,88.7525173" id="Fill-36" fill="#0066CF"></path>
                    <path d="M282.635926,101.495701 C282.74737,107.562007 287.935177,113.230268 294.518328,109.090537 C297.73006,107.071324 300.637076,104.582943 303.628363,102.224256 C306.619954,99.866166 309.695511,97.6377697 313.256537,96.1307558 C321.207552,91.6527461 330.793591,95.1840535 338.578508,98.0576298 C346.004971,100.799122 355.378198,103.648194 361.5,96.7490409 C351.583597,107.924193 335.936516,100.849625 323.123477,100.952423 C316.147677,101.210017 310.875599,106.799685 305.529633,110.494155 C300.915229,113.683 296.217166,116.594229 290.58175,117.797928 C284.248356,119.368593 282.372734,111.415755 282.726608,106.650567 C282.494254,104.687833 282.402351,102.839552 282.635926,101.495701" id="Fill-38" fill="#0066CF"></path>
                    <path d="M309.39986,102.845204 C316.611326,93.1441093 329.138119,98.0520156 339.5,98.3718252 C339.282772,98.2917968 339.066465,98.2117683 338.852613,98.1317398 C331.029657,95.2056794 321.396777,91.609875 313.406912,96.1696727 C309.828792,97.7039069 306.737901,99.9733077 303.731998,102.374466 C300.725789,104.776234 297.804568,107.310063 294.577449,109.366461 C287.961825,113.581192 282.748669,107.809404 282.63668,101.632605 C282.401963,103.001001 282.494009,104.882736 282.727805,106.881622 C282.523464,109.668926 283.06101,113.52429 284.759558,116 C294.216324,115.411502 303.764828,110.343234 309.39986,102.845204" id="Fill-40" fill="#00ADFF"></path>
                    <path d="M291.276151,117.791228 C296.85669,116.545387 301.50845,113.531177 306.077973,110.230179 C311.371292,106.405105 316.591747,100.618304 323.499244,100.351625 C336.186822,100.245201 351.680997,107.569271 361.5,96 C355.611984,102.937355 346.687294,100.353791 339.440877,97.5988339 C329.230347,97.2739935 316.886828,92.2841342 309.780394,102.14722 C304.22767,109.770143 294.818636,114.923041 285.5,115.521676 C286.740187,117.38657 288.607119,118.482984 291.276151,117.791228" id="Fill-42" fill="#0066CF"></path>
                    <path d="M90.5,229.098397 C88.9061558,223.06136 82.5073849,218.655315 77.1637837,224.392562 C74.5570008,227.191316 72.3591608,230.385276 70.0479956,233.469046 C67.7365266,236.553432 65.3120362,239.528243 62.2425341,241.899474 C55.6611668,248.306785 45.5381599,247.105779 37.3158562,246.123922 C29.4721133,245.187618 19.7221984,244.616664 15.5,253 C22.3390074,239.420516 39.1831392,242.691424 51.5325453,239.476226 C58.2062741,237.524516 61.9280795,230.656133 66.1858249,225.664359 C69.8611458,221.355576 73.6847312,217.304415 78.8323679,214.732196 C84.564252,211.62411 88.3240351,219.117619 89.1495163,223.967501 C89.8549883,225.873042 90.3960933,227.69825 90.5,229.098397" id="Fill-44" fill="#0066CF"></path>
                    <path d="M63.4218338,235.628857 C58.8134261,246.751356 45.5605226,244.984457 35.5,247.146971 C35.7287452,247.172798 35.956272,247.19893 36.1816667,247.225365 C44.4247161,248.194348 54.5732646,249.380282 61.1712374,243.054693 C64.2487887,240.713818 66.6793964,237.77709 68.9963929,234.732493 C71.3133894,231.687897 73.5167749,228.534826 76.130135,225.772205 C81.4872186,220.108405 87.902439,224.458045 89.5,230.417796 C89.3961357,229.035574 88.8533609,227.233428 88.1461089,225.352585 C87.6706479,222.602421 86.2229439,218.99418 83.9890997,217 C75.0199138,219.827038 67.0427692,227.017694 63.4218338,235.628857" id="Fill-46" fill="#00ADFF"></path>
                    <path d="M78.2852712,214.731202 C73.1008227,217.303181 69.249588,221.354755 65.5479842,225.663649 C61.2600967,230.655245 57.5113698,237.524114 50.7899158,239.475875 C38.3525024,242.691156 21.3876086,239.420163 14.5,253 C18.6303008,244.856838 28.0123687,245.162176 35.7870525,246.044331 C45.8940191,243.853717 59.208104,245.643883 63.8374803,234.376549 C67.4751315,225.653492 75.4891023,218.369401 84.5,215.505935 C82.8372311,214.009103 80.7420933,213.408277 78.2852712,214.731202" id="Fill-48" fill="#0066CF"></path>
                    <path d="M105.5,230.207277 C100.565534,226.492689 92.830984,227.00689 92.1068402,234.761546 C91.7537478,238.544816 91.9637769,242.382789 92.0179583,246.205871 C92.0718354,250.028952 91.9695603,253.836231 90.9906421,257.571789 C89.6978978,266.610429 80.9756025,271.911383 73.887577,276.212806 C67.1255533,280.316085 59.0814389,285.877787 60.8545106,295 C57.982591,280.223395 73.2711873,272.39246 81.0608317,262.284086 C85.139962,256.654614 83.8950069,249.018783 84.215834,242.513163 C84.4931332,236.89767 85.0440791,231.39067 87.5409903,226.218873 C90.1724418,220.27 97.7039634,223.783406 101.309159,227.047917 C103.026527,228.095769 104.565523,229.182217 105.5,230.207277" id="Fill-50" fill="#0066CF"></path>
                    <path d="M88.2879407,250.547024 C91.5013424,262.240466 80.0469053,269.047773 73.5,277 C73.6945224,276.87895 73.8887424,276.758513 74.0814497,276.639914 C81.1260057,272.302336 89.7948089,266.956824 91.0799276,257.842209 C92.0528423,254.075252 92.1541876,250.235665 92.100641,246.380448 C92.0470944,242.525538 91.8380508,238.654999 92.1892803,234.840234 C92.9086805,227.020396 100.595796,226.501873 105.5,230.247685 C104.571254,229.214008 103.041999,228.118122 101.33486,227.061768 C99.2767946,225.170628 95.9314927,223.200729 92.961017,223 C87.6753311,230.803902 85.8417378,241.46091 88.2879407,250.547024" id="Fill-52" fill="#00ADFF"></path>
                    <path d="M87.2208924,226.215348 C84.753539,231.387409 84.2088143,236.894692 83.9350984,242.510472 C83.6180692,249.016426 84.8482868,256.652648 80.8174441,262.282409 C73.1197106,272.391301 58.0123972,280.222637 60.8503198,295 C59.1484686,286.138992 66.5986547,280.637788 73.1509924,276.56925 C79.6603176,268.6826 91.0490049,261.931993 87.8537477,250.335123 C85.4215863,241.324284 87.2449554,230.755566 92.5,223.01662 C90.3117767,222.86922 88.3274867,223.683414 87.2208924,226.215348" id="Fill-54" fill="#0066CF"></path>
                    <path d="M78.7689759,211 C79.9729304,204.906406 76.1184402,198.135474 68.7744706,200.883373 C65.1919793,202.22367 61.8062205,204.097822 58.3656949,205.824208 C54.9254752,207.550594 51.4307945,209.128602 47.616997,209.882423 C38.8604079,212.678966 30.2359937,207.114944 23.2331701,202.590791 C16.5525229,198.274368 7.98899482,193.438469 0.5,199.045016 C12.6307214,189.963058 26.4246439,200.356555 38.9968663,202.967702 C45.8846487,204.187461 52.2581116,199.711034 58.2934882,197.146695 C63.5033833,194.932956 68.7346957,193.015056 74.5149013,193.004654 C81.0581722,192.774592 81.1741312,201.129038 79.7957792,205.822678 C79.5987407,207.83603 79.2884968,209.704981 78.7689759,211" id="Fill-56" fill="#0066CF"></path>
                    <path d="M53.345958,204.127479 C44.387799,212.186498 33.3849379,204.680419 23.5,202.167418 C23.6920488,202.292345 23.8828917,202.417272 24.0716242,202.542199 C30.972117,207.092494 39.4708059,212.68836 48.0994368,209.875965 C51.8572026,209.117788 55.3008162,207.530661 58.6910662,205.7943 C62.0810147,204.057938 65.4175995,202.172957 68.9477407,200.824915 C76.1840929,198.061137 79.9822582,204.871194 78.7958968,211 C79.3078261,209.697498 79.6135365,207.817747 79.8076958,205.792761 C80.5879507,203.081293 80.8791896,199.156863 79.7663917,196.349699 C70.5607098,194.926578 60.3284559,197.911594 53.345958,204.127479" id="Fill-58" fill="#00ADFF"></path>
                    <g id="Group-62" transform="translate(1.500000, 193.000000)">
                        <mask id="mask-6" fill="white">
                            <use xlink:href="#path-5"></use>
                        </mask>
                        <g id="Clip-61"></g>
                        <path d="M73.5036662,0.171489796 C67.7634046,0.181897959 62.5682431,2.10128571 57.3943508,4.31608163 C51.4006815,6.882 45.0712623,11.3614898 38.2310777,10.1406735 C25.7457354,7.52791837 12.0471354,-2.87167347 -6.07692308e-05,6.21557143 C7.22418538,0.766285714 15.4541623,5.17567347 22.0002238,9.39067347 C31.9624277,11.8907755 43.0512931,19.3586327 52.0794738,11.3406735 C59.1162469,5.15669388 69.4284815,2.187 78.70612,3.60281633 C77.8751008,1.53373469 76.26897,0.0735306122 73.5036662,0.171489796" id="Fill-60" fill="#0066CF" mask="url(#mask-6)"></path>
                    </g>
                    <path d="M175.5,243.796542 C181.450919,237.647914 192.139695,236.692796 194.795808,247.163583 C196.091703,252.271202 196.629054,257.575794 197.376674,262.825755 C198.124293,268.075717 199.081878,273.271048 201.223395,278.17957 C204.933579,290.288049 218.001752,295.680049 228.620136,300.052892 C238.749715,304.225121 250.946474,310.119415 250.481639,323 C251.23472,302.136123 228.642285,294.685779 215.816543,282.506282 C209.028193,275.668099 209.090393,264.937516 207.25381,256.091977 C205.668152,248.456498 203.731441,241.028613 199.205065,234.477846 C194.328243,226.890926 184.782438,233.321507 180.552804,238.567826 C178.429188,240.372443 176.558015,242.191325 175.5,243.796542" id="Fill-63" fill="#0066CF"></path>
                    <path d="M203.512407,267.330305 C201.581657,283.871765 218.795764,290.631723 229.5,300 C229.206276,299.877697 228.913462,299.756302 228.622773,299.637027 C218.004105,295.275295 204.935208,289.896695 201.224819,277.818985 C199.083183,272.923238 198.125242,267.740806 197.377885,262.504488 C196.630224,257.267868 196.092842,251.976453 194.796876,246.881813 C192.140313,236.437936 181.451248,237.390627 175.5,243.523328 C176.55777,241.92219 178.429047,240.10793 180.553084,238.308201 C182.982679,235.302094 187.166425,231.91152 191.212109,231 C200.148843,240.439116 204.943098,254.488202 203.512407,267.330305" id="Fill-65" fill="#00ADFF"></path>
                    <path d="M199.454933,234.473472 C203.959287,241.024563 205.886575,248.452815 207.464216,256.088672 C209.291864,264.934647 209.230268,275.665761 215.985591,282.504281 C228.748932,294.68438 251.231145,302.135092 250.481728,323 C250.931318,310.488461 239.493799,304.568381 229.599499,300.415977 C218.947932,291.023066 201.818526,284.245553 203.739776,267.661435 C205.163427,254.785981 200.392762,240.700408 191.5,231.236777 C194.48227,230.559633 197.389658,231.244365 199.454933,234.473472" id="Fill-67" fill="#0066CF"></path>
                    <path d="M146.5,246.436475 C154.652067,243.661265 164.660554,247.725555 162.229499,258.340196 C161.043588,263.518241 159.08824,268.523716 157.346319,273.576923 C155.604398,278.63013 154.0756,283.731069 153.738207,289.119626 C151.4989,301.688235 160.722378,312.541538 168.220423,321.352446 C175.373748,329.757935 183.586271,340.6605 177.253985,352 C187.511013,333.632825 170.705828,316.54861 164.816579,299.719274 C161.879588,290.460111 166.863832,280.864066 169.282369,272.084062 C171.369926,264.505629 173.047422,256.951367 172.003796,248.991993 C171.121996,239.941199 159.621655,241.314423 153.425242,244.07311 C150.695266,244.713519 148.184518,245.483663 146.5,246.436475" id="Fill-69" fill="#0066CF"></path>
                    <path d="M160.40227,280.698981 C151.198542,294.671095 163.310705,308.660939 168.5,322 C168.296422,321.754848 168.093445,321.511531 167.89137,321.270964 C160.506616,312.468431 151.422869,301.625821 153.628552,289.069595 C153.960532,283.68604 155.466171,278.590432 157.182003,273.542204 C158.897534,268.49367 160.82326,263.493433 161.991204,258.320489 C164.38513,247.716305 154.528266,243.655714 146.5,246.428495 C148.158698,245.476316 150.63171,244.707237 153.320328,244.067459 C156.825665,242.484366 162.052548,241.362232 166.032702,242.404279 C169.631559,254.99413 167.487521,269.819995 160.40227,280.698981" id="Fill-71" fill="#00ADFF"></path>
                    <path d="M171.108723,249.548156 C172.13946,257.46486 170.482682,264.97803 168.420906,272.51585 C166.032238,281.248145 161.10985,290.792378 164.010268,300.00155 C169.826786,316.74002 186.424427,333.731993 176.294073,352 C182.368727,341.045526 174.890907,330.501586 167.982737,322.244342 C162.778389,308.963914 150.632097,295.036187 159.861989,281.125806 C166.967078,270.294888 169.117513,255.534528 165.508124,243 C168.465537,243.768724 170.738104,245.717316 171.108723,249.548156" id="Fill-73" fill="#0066CF"></path>
                    <path d="M212.5,227.454867 C217.074423,220.156991 227.374946,216.997087 232.14639,226.771322 C234.474103,231.53901 236.097472,236.658716 237.916035,241.680555 C239.734598,246.702393 241.748356,251.626976 244.865066,256.023072 C251.009873,267.193146 264.95818,269.798875 276.28979,271.907924 C287.100375,273.919718 300.29653,277.201652 302.5,290 C298.930476,269.269471 275.203281,266.610221 260.091118,257.261405 C252.011727,251.926696 249.85637,241.332512 246.225639,232.990817 C243.091571,225.790197 239.65512,218.867278 233.856851,213.34662 C227.499797,206.877256 219.45299,215.199379 216.382566,221.250663 C214.669669,223.470426 213.207388,225.652265 212.5,227.454867" id="Fill-75" fill="#0066CF"></path>
                    <path d="M245.077062,245.214965 C246.612799,261.893388 264.995154,264.990678 277.5,272 C277.184718,271.940021 276.870966,271.88126 276.559354,271.823717 C265.180164,269.724452 251.172609,267.130132 245.002141,256.010575 C241.871954,251.63424 239.849687,246.731794 238.023439,241.73253 C236.19719,236.733266 234.566961,231.636574 232.229412,226.890013 C227.437805,217.16002 217.09406,220.30572 212.5,227.57079 C213.210378,225.776292 214.678838,223.60426 216.398973,221.394476 C218.170176,217.933962 221.591181,213.732693 225.391685,212 C236.167833,219.443789 243.817465,232.280511 245.077062,245.214965" id="Fill-77" fill="#00ADFF"></path>
                    <path d="M234.001433,213.343354 C239.787463,218.864247 243.216661,225.787461 246.344114,232.988082 C249.967486,241.330439 252.117989,251.925073 260.18063,257.26001 C275.260592,266.609225 298.937706,269.268588 302.5,290 C300.364082,277.568432 287.879797,274.115694 277.279519,272.083935 C264.853577,265.042662 246.587211,261.931253 245.061165,245.176805 C243.809516,232.183391 236.208152,219.288155 225.5,211.810435 C228.297751,210.520972 231.301832,210.590094 234.001433,213.343354" id="Fill-79" fill="#0066CF"></path>
                    <path d="M244.5,196.454867 C249.074408,189.156686 259.374896,185.997087 264.146324,195.771016 C266.474028,200.53901 268.097392,205.658716 269.915949,210.680555 C271.734506,215.702393 273.747952,220.62667 276.864957,225.022766 C283.009743,236.193146 296.958307,238.798875 308.289574,240.907924 C319.100122,242.919718 332.295928,246.201652 334.5,259 C330.930183,238.269471 307.203068,235.610221 292.090957,226.261405 C284.011594,220.926696 281.856244,210.332207 278.225525,201.990817 C275.091163,194.790197 271.655028,187.867278 265.856474,182.34662 C259.499746,175.877256 251.452966,184.199379 248.382552,190.250663 C246.669662,192.470426 245.207386,194.652265 244.5,196.454867" id="Fill-81" fill="#0066CF"></path>
                    <path d="M277.077062,214.214965 C278.612799,230.893388 296.995154,233.990678 309.5,241 C309.185024,240.940021 308.870966,240.88126 308.55966,240.823717 C297.180164,238.724452 283.172914,236.130132 277.002141,225.010271 C273.871954,220.63424 271.849687,215.731794 270.023439,210.73253 C268.19719,205.733266 266.566961,200.636574 264.229412,195.890013 C259.437805,186.160325 249.09406,189.30572 244.5,196.57079 C245.210378,194.776292 246.678838,192.60426 248.398973,190.394476 C250.170176,186.933962 253.591181,182.732693 257.391379,181 C268.167833,188.443789 275.817465,201.280511 277.077062,214.214965" id="Fill-83" fill="#00ADFF"></path>
                    <path d="M266.001433,182.343567 C271.787767,187.864445 275.216965,194.78764 278.344417,201.98824 C281.967486,210.330268 284.117989,220.924873 292.18063,226.260101 C307.260896,235.60929 330.93801,238.268646 334.5,259 C332.364082,246.568467 319.879797,243.115433 309.279519,241.083985 C296.853881,234.042732 278.587211,230.931331 277.061165,214.17693 C275.809516,201.183552 268.208456,188.288351 257.5,180.810652 C260.297751,179.520888 263.301832,179.590009 266.001433,182.343567" id="Fill-85" fill="#0066CF"></path>
                    <path d="M161.788544,261.666582 C111.59923,271.099866 57.4035306,229.203927 62.8838679,176.378877 C65.316392,152.932799 78.9691088,133.923179 99.1545509,122.06711 C123.438062,107.803745 151.69628,107.729334 178.558218,101.500311 C191.202409,98.5684885 206.013514,95.5051543 217.386006,89.0255618 C228.094777,82.9244061 237.437424,74.8162593 249.828189,71.9430547 C276.0127,65.87136 297.934354,90.1587463 297.327594,114.934213 C297.55452,118.455863 297.5466,122.016085 297.367191,125.542898 C297.18626,129.067585 296.833535,132.558255 296.369936,135.938067 C295.962688,139.113171 295.393088,142.202929 294.672103,145.254721 C291.07449,160.487869 283.700463,174.860877 274.185718,188.52257 C248.001512,224.953649 210.856326,246.812479 170.121751,258.976218 C167.494589,259.836357 164.717868,260.733854 161.788544,261.666582" id="Fill-87" fill="#0066CF"></path>
                    <path d="M160.033193,246.09039 C138.11525,251.86697 114.932698,243.972584 97.8348522,230.017907 C93.9671772,226.675042 90.4818754,222.927267 87.4701913,218.831688 C81.4462127,210.640833 77.3112123,201.059675 75.8879177,190.533827 C72.8374775,165.636242 88.0893733,141.345566 110.662203,132.84427 C115.847586,130.921174 121.084236,129.284825 126.351707,127.831643 C131.61979,126.378158 136.918999,125.107839 142.230109,123.915889 C158.247667,120.698781 174.10959,117.662408 189.813741,112.528885 C195.017739,110.880083 200.175351,108.99769 205.266437,106.779036 C209.560734,105.090745 213.783622,103.25908 217.996745,101.380636 C226.423601,97.6228363 234.812007,93.6757951 243.658161,90.335664 C257.079671,85.4776504 269.281126,94.5864639 275.992034,106.12474 C282.855219,118.421501 283.884849,132.426602 280.966546,145.552017 C279.993982,149.927054 278.582589,154.204281 276.802555,158.288014 C258.299725,203.89344 211.934315,229.398543 167.254949,243.724717 C164.968339,244.479557 162.561189,245.269026 160.033193,246.09039" id="Fill-89" fill="#00ADFF"></path>
                    <path d="M119.296255,149.799171 C98.8103921,154.799314 89.6987105,179.097228 96.9878734,197.927677 C104.27734,216.758431 123.108412,231.944512 144.369104,227.084748 C154.695899,225.262564 163.200176,218.580615 168.059719,208.861693 C175.956591,194.283005 175.349186,176.667345 165.629796,163.303447 C156.518114,151.154947 141.939484,146.90288 127.386378,148.234348 C125.28006,148.509027 122.644427,148.982728 119.296255,149.799171" id="Fill-91" fill="#0066CF"></path>
                    <path d="M253.91679,125.667292 C243.550747,111.475259 221.832225,112.107381 209.547273,123.641493 C197.262321,135.175605 191.458913,154.44508 201.961372,169.277663 C206.645569,176.651513 214.518851,181.094123 223.591072,181.775912 C237.392052,183.266816 250.852601,177.257145 258.130506,165.572829 C264.659644,154.738565 263.335809,142.181319 257.693371,131.401237 C256.812735,129.866386 255.610159,127.987179 253.91679,125.667292" id="Fill-93" fill="#0066CF"></path>
                    <path d="M173.638923,207.502913 C170.183451,202.842697 162.944148,203.050034 158.849143,206.837547 C154.754138,210.624764 152.819556,216.952229 156.320558,221.822731 C157.881852,224.243825 160.506322,225.702557 163.530312,225.926411 C168.130672,226.415997 172.617659,224.442609 175.043425,220.606138 C177.219829,217.048672 176.778698,212.925527 174.897788,209.385462 C174.604103,208.881718 174.203377,208.264426 173.638923,207.502913" id="Fill-95" fill="#FFFFFF" opacity="0.341982887"></path>
                    <path d="M183.638933,144.502913 C180.183474,139.842697 172.944196,140.050034 168.849206,143.837547 C164.754215,147.624764 162.81964,153.951934 166.320328,158.822436 C167.881918,161.243825 170.506379,162.702557 173.530358,162.926411 C178.130702,163.415997 182.617673,161.442609 185.04343,157.606138 C187.219826,154.048377 186.778697,149.925232 184.897794,146.385462 C184.60411,145.881718 184.203385,145.264426 183.638933,144.502913" id="Fill-97" fill="#FFFFFF" opacity="0.341982887"></path>
                    <path d="M233.638933,174.502816 C230.183474,169.842578 222.944196,170.050211 218.849206,173.837447 C214.754215,177.624683 212.81964,183.952178 216.320328,188.822703 C217.881918,191.243809 220.506379,192.702548 223.530358,192.926402 C228.130702,193.415991 232.617673,191.442889 235.04343,187.606104 C237.219826,184.048621 236.778697,179.925456 234.897794,176.385374 C234.60411,175.881628 234.203385,175.264628 233.638933,174.502816" id="Fill-99" fill="#FFFFFF" opacity="0.341982887"></path>
                    <path d="M253.638933,107.502782 C250.183474,102.842589 242.944196,103.05022 238.849206,106.837419 C234.754215,110.624618 232.81964,116.952051 236.320328,121.822529 C237.881918,124.243611 240.506379,125.702336 243.530358,125.926483 C248.130702,126.415772 252.617673,124.442689 255.04343,120.605942 C257.219826,117.048493 256.778697,112.925369 254.897794,109.385321 C254.60411,108.88158 254.203385,108.264586 253.638933,107.502782" id="Fill-101" fill="#FFFFFF" opacity="0.341982887"></path>
                    <path d="M105.638923,149.502913 C102.183451,144.842697 94.944148,145.050034 90.8491428,148.837547 C86.7541375,152.624764 84.8195559,158.951934 88.3205577,163.822731 C89.8818519,166.243825 92.5063218,167.702557 95.5303118,167.926411 C100.130672,168.415997 104.617659,166.442609 107.043425,162.606138 C109.219829,159.048377 108.778698,154.925232 106.897788,151.385462 C106.604103,150.881718 106.203377,150.264426 105.638923,149.502913" id="Fill-103" fill="#FFFFFF" opacity="0.341982887"></path>
                    <path d="M129.638923,219.502646 C126.183753,214.842733 118.944148,215.050069 114.849143,218.837576 C110.754138,222.624788 108.819556,228.951948 112.320558,233.822737 C113.881852,236.243828 116.506322,237.702558 119.530312,237.926411 C124.130672,238.415997 128.617659,236.442612 131.043425,232.606146 C133.219829,229.048391 132.778698,224.925252 130.897788,221.385487 C130.604103,220.88145 130.203377,220.264454 129.638923,219.502646" id="Fill-105" fill="#FFFFFF" opacity="0.341982887"></path>
                    <path d="M200.638923,181.502783 C197.183753,176.842589 189.944148,177.05022 185.849143,180.83742 C181.754138,184.624915 179.819556,190.952056 183.320558,195.822536 C184.881852,198.243619 187.506322,199.702344 190.530312,199.926491 C195.130672,200.415781 199.617659,198.442402 202.043425,194.605948 C204.219829,191.048498 203.778698,186.925372 201.897788,183.385618 C201.604103,182.881582 201.203377,182.264588 200.638923,181.502783" id="Fill-107" fill="#FFFFFF" opacity="0.341982887"></path>
                    <path d="M129.069426,178.75149 C127.341663,176.421341 123.72189,176.524931 121.674511,178.41901 C119.627133,180.31247 118.659725,183.47599 120.410318,185.91128 C121.190966,187.121791 122.503039,187.851262 124.015188,187.963226 C126.315279,188.207933 128.558612,187.221349 129.771756,185.303078 C130.859971,183.524373 130.639284,181.462813 129.698828,179.692792 C129.55202,179.440951 129.351626,179.132353 129.069426,178.75149" id="Fill-109" fill="#FFFFFF" opacity="0.341982887"></path>
                    <path d="M153.069426,130.751621 C151.341663,128.421194 147.72189,128.525092 145.674511,130.418835 C143.627133,132.312578 142.659725,135.476054 144.410318,137.911309 C145.190966,139.121804 146.503039,139.851264 148.015188,139.963226 C150.315279,140.20793 152.558612,139.22136 153.771756,137.303116 C154.859971,135.524436 154.639284,133.462595 153.698828,131.69291 C153.55202,131.441072 153.351626,131.132478 153.069426,130.751621" id="Fill-111" fill="#FFFFFF" opacity="0.341982887"></path>
                    <path d="M223.069426,129.75149 C221.341663,127.421341 217.72189,127.524931 215.674511,129.41901 C213.627133,131.31247 212.659725,134.47599 214.410318,136.91128 C215.190966,138.121791 216.503039,138.851262 218.015188,138.963226 C220.315279,139.207933 222.558612,138.221349 223.771756,136.303078 C224.859971,134.524373 224.639284,132.462503 223.698828,130.692792 C223.55202,130.440951 223.351626,130.132353 223.069426,129.75149" id="Fill-113" fill="#FFFFFF" opacity="0.341982887"></path>
                    <path d="M269.069536,129.75149 C267.341753,127.421341 263.721939,127.524931 261.674537,129.41901 C259.627134,131.31247 258.659715,134.47599 260.410328,136.91128 C261.190986,138.121791 262.50339,138.851262 264.01524,138.963226 C266.315357,139.207933 268.558716,138.221349 269.771874,136.303078 C270.859785,134.524373 270.639412,132.462503 269.698945,130.692792 C269.552136,130.440951 269.35174,130.132353 269.069536,129.75149" id="Fill-115" fill="#FFFFFF" opacity="0.341982887"></path>
                    <path d="M97.0694262,202.75134 C95.3416631,200.421231 91.7218901,200.52513 89.6745115,202.418866 C87.6271329,204.312293 86.6597251,207.476068 88.4103178,209.911316 C89.1909661,211.121807 90.5030387,211.851264 92.0151881,211.963226 C94.3152786,212.20793 96.558612,211.221363 97.771756,209.303124 C98.8599708,207.524451 98.6392839,205.462616 97.6988278,203.692626 C97.5520203,203.44079 97.3516264,203.132507 97.0694262,202.75134" id="Fill-117" fill="#FFFFFF" opacity="0.341982887"></path>
                    <path d="M200.069536,126.75149 C198.341753,124.421341 194.721939,124.524931 192.674537,126.41901 C190.627134,128.31247 189.659715,131.47599 191.410328,133.91128 C192.190986,135.121791 193.503073,135.851262 195.01524,135.963226 C197.315357,136.207933 199.558716,135.221349 200.771874,133.303078 C201.859785,131.524373 201.639412,129.462503 200.698945,127.692792 C200.552136,127.440951 200.35174,127.132353 200.069536,126.75149" id="Fill-119" fill="#FFFFFF" opacity="0.341982887"></path>
                    <path d="M243.069426,147.751388 C241.341663,145.421216 237.72189,145.525117 235.674511,147.418905 C233.627133,149.312384 232.659725,152.475936 234.410318,154.91156 C235.190966,156.122084 236.503356,156.851562 238.015188,156.963217 C240.315279,157.207927 242.558612,156.221643 243.771756,154.303042 C244.859971,152.52463 244.639284,150.462738 243.698828,148.6927 C243.55202,148.440857 243.351626,148.132565 243.069426,147.751388" id="Fill-121" fill="#FFFFFF" opacity="0.341982887"></path>
                </g>
                <g id="Group-17" transform="translate(19.000000, 0.000000)">
                    <path d="M82.5,222.083478 C82.5,225.397052 79.8138032,228.083478 76.5001477,228.083478 C73.1861968,228.083478 70.5,225.397052 70.5,222.083478 C70.5,218.769904 73.1861968,216.083478 76.5001477,216.083478 C79.8138032,216.083478 82.5,218.769904 82.5,222.083478" id="Fill-1" fill="#0066CF"></path>
                    <g id="Group-5" transform="translate(43.500000, 370.083478)">
                        <mask id="mask-8" fill="white">
                            <use xlink:href="#path-7"></use>
                        </mask>
                        <g id="Clip-4"></g>
                        <path d="M12.7655357,6.56018049 C12.7655357,10.1167902 9.95103571,13.0002537 6.47879762,13.0002537 C3.00686905,13.0002537 0.192369048,10.1167902 0.192369048,6.56018049 C0.192369048,3.00325366 3.00686905,0.120107317 6.47879762,0.120107317 C9.95103571,0.120107317 12.7655357,3.00325366 12.7655357,6.56018049" id="Fill-3" fill="#0066CF" mask="url(#mask-8)"></path>
                    </g>
                    <path d="M472.5,275.083478 C472.5,278.397052 469.813803,281.083478 466.499852,281.083478 C463.186197,281.083478 460.5,278.397052 460.5,275.083478 C460.5,271.769904 463.186197,269.083478 466.499852,269.083478 C469.813803,269.083478 472.5,271.769904 472.5,275.083478" id="Fill-6" fill="#0066CF"></path>
                    <g id="Group-10" transform="translate(144.500000, 0.083478)">
                        <mask id="mask-10" fill="white">
                            <use xlink:href="#path-9"></use>
                        </mask>
                        <g id="Clip-9"></g>
                        <path d="M13.7930178,7.07637778 C13.7930178,10.8346 10.7463067,13.8813111 6.98808444,13.8813111 C3.22986222,13.8813111 0.183151111,10.8346 0.183151111,7.07637778 C0.183151111,3.31815556 3.22986222,0.271444444 6.98808444,0.271444444 C10.7463067,0.271444444 13.7930178,3.31815556 13.7930178,7.07637778" id="Fill-8" fill="#FFFFFF" mask="url(#mask-10)"></path>
                    </g>
                    <path d="M426.5,201.083478 C426.5,207.158672 421.574887,212.083478 415.5,212.083478 C409.424807,212.083478 404.5,207.158672 404.5,201.083478 C404.5,195.008591 409.424807,190.083478 415.5,190.083478 C421.574887,190.083478 426.5,195.008591 426.5,201.083478" id="Fill-11" fill="#7FCCFF"></path>
                    <path d="M3.89947037,170.082006 C1.96730051,170.0265 0.445962833,168.415195 0.501471971,166.483115 C0.556658383,164.550711 2.16803705,163.029444 4.10052963,163.08495 C6.03269949,163.140457 7.55403717,164.751761 7.49852803,166.683842 C7.44301889,168.616245 5.83164022,170.137513 3.89947037,170.082006" id="Fill-13" fill="#0066CF"></path>
                    <path d="M334.899462,93.0820067 C332.967297,93.0265001 331.445963,91.4151956 331.501472,89.4831148 C331.556658,87.5507112 333.168033,86.0294436 335.100521,86.0849502 C337.032686,86.140134 338.554343,87.7514385 338.498511,89.6838421 C338.443002,91.6159229 336.83195,93.1375132 334.899462,93.0820067" id="Fill-15" fill="#0066CF"></path>
                </g>
                <g id="Group-50" transform="translate(435.000000, 295.000000) scale(1, -1) translate(-435.000000, -295.000000) translate(414.000000, 270.000000)">
                    <path d="M23.9303286,8.73370272 C24.5113821,7.49673367 26.3419737,7.13231677 27.6748208,6.78962282 C28.2456165,6.64284838 28.0024962,5.87106427 27.4281535,6.01866468 C25.7030162,6.46220927 23.7707091,6.95613788 23.0355964,8.52126386 C22.8116497,8.99792975 23.7088745,9.20533021 23.9303286,8.73370272" id="Fill-1" fill="#0066CF"></path>
                    <path d="M22.1016194,5.37634561 C21.4714742,4.12964983 22.3431673,2.73018386 22.9491015,1.62015501 C23.2055701,1.15037826 22.4224633,0.736246274 22.1648686,1.2082151 C21.3820433,2.64233258 20.5207666,4.21218957 21.3172927,5.78828553 C21.5586529,6.26573451 22.3416658,5.85143391 22.1016194,5.37634561" id="Fill-3" fill="#0066CF"></path>
                    <g id="Group-7" transform="translate(14.000000, 0.000000)">
                        <mask id="mask-12" fill="white">
                            <use xlink:href="#path-11"></use>
                        </mask>
                        <g id="Clip-6"></g>
                        <path d="M1.88297647,4.35528689 C0.670858824,3.23987705 1.28497647,1.78422131 1.71485882,0.544631148 C1.88697647,0.0485655738 0.789211765,-0.163155738 0.616858824,0.333729508 C0.117917647,1.77233607 -0.501847059,3.46594262 0.899682353,4.75577869 C1.33650588,5.15766393 2.3258,4.76282787 1.88297647,4.35528689" id="Fill-5" fill="#0066CF" mask="url(#mask-12)"></path>
                    </g>
                    <path d="M9.86140958,6.3058783 C8.75502078,5.38624507 8.81640399,3.75549148 8.80182444,2.40699207 C8.79594292,1.86503269 7.99415068,1.86363971 8.0000322,2.40699207 C8.01693122,3.97218817 8.01469459,5.83792141 9.29446402,6.9017289 C9.69490453,7.23465303 10.2660748,6.64219783 9.86140958,6.3058783" id="Fill-8" fill="#0066CF"></path>
                    <path d="M5.6143386,10.0704059 C4.27437003,9.95582332 3.44525671,8.36298108 2.76353577,7.20862111 C2.47389354,6.71826503 1.77790616,7.18206096 2.07028556,7.67701952 C2.94344242,9.1555668 3.92666665,10.8541702 5.6143386,10.9984772 C6.12975579,11.0425843 6.1273504,10.1142254 5.6143386,10.0704059" id="Fill-10" fill="#0066CF"></path>
                    <path d="M4.48730852,14.1185561 C3.09205961,14.5464997 1.75910712,13.7013996 0.621546735,13.0595235 C0.161264695,12.7997652 -0.260841266,13.4588063 0.197705498,13.717541 C1.53890055,14.474454 3.08052002,15.3534117 4.71055182,14.8534224 C5.21976865,14.6972839 5.00129736,13.9608429 4.48730852,14.1185561" id="Fill-12" fill="#0066CF"></path>
                    <path d="M6.17617035,18.2245842 C5.45785401,19.6084317 3.70117212,19.8522049 2.32085633,20.1268659 C1.75906781,20.2387648 1.99685021,21.1016812 2.5576265,20.9900597 C4.18741136,20.6656453 6.10411787,20.2966563 6.94528231,18.6764339 C7.2101189,18.1662303 6.44165109,17.7131784 6.17617035,18.2245842" id="Fill-14" fill="#0066CF"></path>
                    <path d="M9.17624621,23.2245937 C8.45792027,24.6084826 6.70121488,24.8522631 5.32078861,25.1269323 C4.75908459,25.2387421 4.99687017,26.1016842 5.55765397,25.9900594 C7.18746063,25.6657278 9.10419277,25.2966353 9.94527644,23.6763644 C10.2101166,23.1662381 9.4417305,22.7131726 9.17624621,23.2245937" id="Fill-16" fill="#0066CF"></path>
                    <path d="M14.1761979,26.2246487 C13.4578803,27.6084177 11.7011952,27.8521933 10.3207849,28.1269496 C9.75908738,28.2387571 9.99687021,29.1016822 10.5576475,28.9900596 C12.1874353,28.6657344 14.1041453,28.2966492 14.9453113,26.6764105 C15.2100563,26.1662017 14.4416791,25.7131452 14.1761979,26.2246487" id="Fill-18" fill="#0066CF"></path>
                    <path d="M15.4130012,33.0562013 C14.2545294,33.6763774 12.7660498,33.3265948 11.5047446,33.0817346 C10.998223,32.9833815 10.7821385,33.561849 11.2885761,33.6601401 C12.7579845,33.9454695 14.4799395,34.2934548 15.8234106,33.5741199 C16.2428935,33.3495873 15.8375249,32.8289418 15.4130012,33.0562013" id="Fill-20" fill="#0066CF"></path>
                    <path d="M13.8960323,41.6051053 C14.0611398,40.2357063 15.6611143,39.434353 16.7904864,38.7799288 C17.276585,38.498215 16.82895,37.7817009 16.3398076,38.0651251 C14.8750551,38.9139438 13.2128193,39.8666733 13.0032527,41.6051053 C12.9395157,42.1337248 13.8328487,42.1295342 13.8960323,41.6051053" id="Fill-22" fill="#0066CF"></path>
                    <path d="M17.9829792,46.4554659 C17.6838871,45.023469 18.9563556,43.770539 19.8818498,42.7601666 C20.2723802,42.3338722 19.6026185,41.7157589 19.2089419,42.1454658 C18.0187679,43.4448239 16.6877003,44.8782577 17.0653506,46.6865288 C17.1798944,47.2354041 18.0973263,47.0029942 17.9829792,46.4554659" id="Fill-24" fill="#0066CF"></path>
                    <g id="Group-28" transform="translate(24.000000, 45.000000)">
                        <mask id="mask-14" fill="white">
                            <use xlink:href="#path-13"></use>
                        </mask>
                        <g id="Clip-27"></g>
                        <path d="M1.88110588,4.4208 C0.680164706,3.28196667 1.31016471,1.80321667 1.75134118,0.545716667 C1.92816471,0.0418833333 0.830282353,-0.173033333 0.653341176,0.3313 C0.140752941,1.79196667 -0.492070588,3.5098 0.897811765,4.82796667 C1.33134118,5.23896667 2.32028235,4.8373 1.88110588,4.4208" id="Fill-26" fill="#0066CF" mask="url(#mask-14)"></path>
                    </g>
                    <path d="M33.6590602,47.2325594 C32.0879191,46.8294546 31.5036818,45.3610013 30.9817293,44.2621408 C30.7620561,43.79969 29.8111209,44 30.0334359,44.4680122 C30.6947926,45.8604034 31.4321508,47.4747422 33.3976267,47.9790231 C34.0007628,48.1337866 34.2591481,47.386523 33.6590602,47.2325594" id="Fill-29" fill="#0066CF"></path>
                    <path d="M39.6207935,41.0435273 C38.3019528,40.9715394 37.4526346,39.3786223 36.753024,38.2075601 C36.4584854,37.7145073 35.7756173,38.1909703 36.0737321,38.6899481 C36.9618181,40.1763152 37.9671833,41.9089618 39.6207935,41.9994158 C40.1269709,42.0269667 40.1258331,41.0710782 39.6207935,41.0435273" id="Fill-31" fill="#0066CF"></path>
                    <path d="M24.9303286,14.7336971 C25.5113821,13.4967021 27.3419737,13.132195 28.6748208,12.7895764 C29.2456165,12.6427989 29.0024962,11.8709986 28.4281535,12.0186847 C26.7030162,12.462156 24.7707091,12.956095 24.0355964,14.5212538 C23.8116497,14.9979297 24.7088745,15.2053345 24.9303286,14.7336971" id="Fill-33" fill="#0066CF"></path>
                    <path d="M26.9303286,19.7337628 C27.5113821,18.4967747 29.3419737,18.1322696 30.6748208,17.7895704 C31.2456165,17.6428762 31.0024962,16.8709976 30.4281535,17.0186829 C28.7030162,17.4622344 26.7707091,17.956088 26.0355964,19.5212381 C25.8116497,19.9979113 26.7088745,20.205315 26.9303286,19.7337628" id="Fill-35" fill="#0066CF"></path>
                    <path d="M31.8956557,24.6050133 C32.0613341,23.2352439 33.6613245,22.4342582 34.7904638,21.7800885 C35.2765275,21.4984345 34.8290944,20.7817225 34.3399882,21.0650877 C32.8753433,21.9136431 31.2136729,22.8658938 31.0032789,24.6050133 C30.939294,25.1337563 31.832224,25.129564 31.8956557,24.6050133" id="Fill-37" fill="#0066CF"></path>
                    <path d="M35.8188927,28.7707251 C36.5626998,27.3547908 38.3185752,27.1527899 39.681964,26.9076892 C40.2389333,26.8075083 40.0027507,25.9080019 39.4481441,26.0077007 C37.8244001,26.2996618 35.9360298,26.6310589 35.0593644,28.2996147 C34.7835605,28.8248169 35.5429071,29.2959272 35.8188927,28.7707251" id="Fill-39" fill="#0066CF"></path>
                    <g id="Group-43" transform="translate(37.000000, 32.000000)">
                        <mask id="mask-16" fill="white">
                            <use xlink:href="#path-15"></use>
                        </mask>
                        <g id="Clip-42"></g>
                        <path d="M0.740680328,1.79694737 C1.73166393,0.647263158 3.24764754,1.04663158 4.44338525,1.28357895 C4.94289344,1.38263158 5.15813934,0.401052632 4.65428689,0.301157895 C3.13461475,-0.000105263158 1.42330328,-0.366210526 0.179696721,1.07652632 C-0.19997541,1.51705263 0.362483607,2.23568421 0.740680328,1.79694737" id="Fill-41" fill="#0066CF" mask="url(#mask-16)"></path>
                    </g>
                    <path d="M8.16353321,6.74631138 C5.65322586,8.8327017 3.89124352,12.0483916 4.00522621,15.1785985 C4.09313266,17.59547 5.48216222,20.3837446 7.18876619,22.0855056 C9.18032686,24.0713223 11.9947672,24.370735 13.6413332,26.876374 C16.1872153,30.7509847 14.5892175,35.5099857 16.2159798,39.5719845 C17.7770587,43.4698523 20.6492969,45.5233099 24.7979261,45.9460206 C29.2202213,46.3966042 33.7213725,43.9829282 36.1600822,40.328372 C39.3484611,35.5503749 38.2113225,30.1732861 34.1495244,26.4537521 C30.9011075,23.4789771 26.398433,21.0819894 25.5636353,16.3788233 C25.2761695,14.7594385 25.4162284,13.097623 25.2888044,11.4583543 C24.7345725,4.33148147 16.2246719,2.50597871 10.5978521,5.15666376 C9.80552906,5.61727809 8.9960907,6.15165819 8.16353321,6.74631138" id="Fill-44" fill="#00ADFF"></path>
                    <path d="M34.1098326,26.8036603 C30.8279301,23.8821386 26.2788408,21.5280609 25.4354378,16.9090891 C25.1450087,15.3187812 25.2865114,13.6866276 25.1576833,12.0767046 C24.8338477,8.02779214 21.8201937,5.7212267 18.2366361,5 C19.9987655,6.29416298 21.3263376,8.15707767 21.5771133,9.84764072 C22.4533797,16.766814 25.6079932,22.3359429 30.8656823,26.8925822 C35.5975572,30.9428023 33.3192102,38.0307529 28.0615211,40.3934613 C26.3089882,41.0684834 23.8554603,41.5748154 21.9276561,40.7310159 C19.6493091,39.7184391 17.370962,38.1996175 16.4946956,35.8369091 C16.0817758,34.7930353 15.5919031,33.7497717 15,32.7834866 C15.1674856,35.1201285 15.0927055,37.5058519 15.9914241,39.6870549 C17.568595,43.5150573 20.470441,45.5318419 24.661745,45.9469853 C29.1296264,46.3895027 33.6771767,44.0191227 36.1411158,40.429989 C39.3623614,35.7375258 38.2135009,30.4566085 34.1098326,26.8036603" id="Fill-46" fill="#0066CF" opacity="0.745186942"></path>
                    <path d="M15.7143718,17.1769628 C14.6807076,18.0711801 13.9552257,19.4493067 14.0021513,20.7907668 C14.0383213,21.8265528 14.6102758,23.0216149 15.3130322,23.750922 C16.1330592,24.6019442 17.2918872,24.7302773 17.9699231,25.8041607 C19.0182461,27.46462 18.3602469,29.5042653 19.0301293,31.2451228 C19.6728625,32.9155983 20.8555437,33.7956855 22.5638609,33.976872 C24.3847649,34.1699529 26.2381959,33.1355083 27.242369,31.5693089 C28.5552448,29.5215254 28.0870297,27.2171653 26.4145355,25.6229742 C25.0769391,24.34814 23.222901,23.3208499 22.8791558,21.305172 C22.7607576,20.61119 22.8184388,19.8989641 22.7659619,19.1963968 C22.5377526,16.1420711 19.0336856,15.3597316 16.7167234,16.4956799 C16.3904994,16.6931429 16.0571629,16.9220854 15.7143718,17.1769628" id="Fill-48" fill="#0066CF" opacity="0.569545201"></path>
                </g>
            </g>
        </g>
    </g>
</svg>